<svg id="Layer_1" data-name="Layer 1" xmlns="http://www.w3.org/2000/svg" viewBox="0 0 256 256">
  <defs>
    <style>
      .cls-1 {
        fill: #c1c9d6;
      }
    </style>
  </defs>
  <title>cog-hover</title>
  <path class="cls-1" d="M248,97.5H225.1a103.03,103.03,0,0,0-6.9-16.58l16.22-16.23a7.979,7.979,0,0,0,0-11.31l-31.8-31.8a8,8,0,0,0-11.309,0L175.086,37.8a103.136,103.136,0,0,0-16.59-6.9V8a8,8,0,0,0-8-8h-45a8,8,0,0,0-8,8V30.9a103.03,103.03,0,0,0-16.58,6.9L64.7,21.581a8.015,8.015,0,0,0-11.32,0l-31.8,31.8a7.992,7.992,0,0,0,.011,11.31l16.22,16.23a102.226,102.226,0,0,0-6.9,16.58H8a8,8,0,0,0-8,8v45a8,8,0,0,0,8,8H30.905a102.226,102.226,0,0,0,6.9,16.58L21.575,191.3a8.017,8.017,0,0,0,0,11.32l31.8,31.8a8.015,8.015,0,0,0,11.32,0l16.22-16.23A102.549,102.549,0,0,0,97.5,225.1V248a8,8,0,0,0,8,8h45a8,8,0,0,0,8-8V225.1a102.281,102.281,0,0,0,16.59-6.91l16.22,16.23a8,8,0,0,0,11.309,0l31.8-31.8a7.991,7.991,0,0,0,0-11.32l-16.22-16.22a103.03,103.03,0,0,0,6.9-16.58H248a8,8,0,0,0,8-8v-45A8,8,0,0,0,248,97.5Zm-120,89.35A58.85,58.85,0,1,1,186.846,128,58.915,58.915,0,0,1,128,186.851Z"/>
</svg>
