<svg id="Layer_1" data-name="Layer 1" xmlns="http://www.w3.org/2000/svg" viewBox="0 0 256 256">
  <defs>
    <style>
      .cls-1 {
        fill: #c1c9d6;
      }
    </style>
  </defs>
  <title>cog-normal</title>
  <path class="cls-1" d="M150.5,256h-45a8,8,0,0,1-8-8V225.1a102.388,102.388,0,0,1-16.582-6.9L64.695,234.419a8,8,0,0,1-11.314,0l-31.8-31.8a8,8,0,0,1,0-11.315L37.8,175.082A102.62,102.62,0,0,1,30.9,158.5H8a8,8,0,0,1-8-8v-45a8,8,0,0,1,8-8H30.9a102.62,102.62,0,0,1,6.9-16.582L21.581,64.695a8,8,0,0,1,0-11.314l31.8-31.8a8,8,0,0,1,11.314,0L80.918,37.805A102.534,102.534,0,0,1,97.5,30.9V8a8,8,0,0,1,8-8h45a8,8,0,0,1,8,8V30.9a102.534,102.534,0,0,1,16.582,6.9L191.305,21.58a8,8,0,0,1,11.315,0l31.8,31.8a8,8,0,0,1,0,11.314L218.2,80.918A102.388,102.388,0,0,1,225.1,97.5H248a8,8,0,0,1,8,8v45a8,8,0,0,1-8,8H225.1a102.388,102.388,0,0,1-6.9,16.582l16.225,16.223a8,8,0,0,1,0,11.315l-31.8,31.8a8,8,0,0,1-11.315,0L175.082,218.2a102.388,102.388,0,0,1-16.582,6.9V248A8,8,0,0,1,150.5,256Zm-33-16h21a4,4,0,0,0,4-4V219.05a8.028,8.028,0,0,1,6.11-7.775,86.465,86.465,0,0,0,23.7-9.874,8,8,0,0,1,9.792,1.192l12.027,12.027a4,4,0,0,0,5.657,0l14.829-14.83a4,4,0,0,0,0-5.657l-12.027-12.027a8.013,8.013,0,0,1-1.177-9.816,86.489,86.489,0,0,0,9.864-23.7,8.017,8.017,0,0,1,7.77-6.09H236a4,4,0,0,0,4-4v-21a4,4,0,0,0-4-4H219.05a8.028,8.028,0,0,1-7.775-6.111,86.491,86.491,0,0,0-9.874-23.7,8,8,0,0,1,1.193-9.792L214.62,61.866a4,4,0,0,0,0-5.657l-14.83-14.83a4,4,0,0,0-5.657,0L182.107,53.407a8,8,0,0,1-9.792,1.191,86.614,86.614,0,0,0-23.707-9.875A8.027,8.027,0,0,1,142.5,36.95V20a4,4,0,0,0-4-4h-21a4,4,0,0,0-4,4V36.95a8.027,8.027,0,0,1-6.109,7.773A86.614,86.614,0,0,0,83.684,54.6a8,8,0,0,1-9.792-1.192L61.866,41.379a4,4,0,0,0-5.657,0l-14.83,14.83a4,4,0,0,0,0,5.657L53.406,73.892A8,8,0,0,1,54.6,83.684a86.6,86.6,0,0,0-9.875,23.707A8.027,8.027,0,0,1,36.95,113.5H20a4,4,0,0,0-4,4v21a4,4,0,0,0,4,4H36.95a8.015,8.015,0,0,1,7.768,6.088,86.579,86.579,0,0,0,9.866,23.7,8.014,8.014,0,0,1-1.177,9.816L41.379,194.134a4,4,0,0,0,0,5.657l14.83,14.83a4,4,0,0,0,5.657,0l12.026-12.026a8.014,8.014,0,0,1,9.818-1.177,86.518,86.518,0,0,0,23.7,9.863,8.017,8.017,0,0,1,6.091,7.77V236A4,4,0,0,0,117.5,240Z"/>
  <path class="cls-1" d="M128,186.847A58.847,58.847,0,1,1,186.847,128,58.915,58.915,0,0,1,128,186.847Zm0-101.694A42.847,42.847,0,1,0,170.847,128,42.9,42.9,0,0,0,128,85.153Z"/>
</svg>
