<svg id="Layer_1" data-name="Layer 1" xmlns="http://www.w3.org/2000/svg" viewBox="0 0 256 256">
  <defs>
    <style>
      .cls-1 {
        fill: #273c50;
      }
    </style>
  </defs>
  <title>expand-hover</title>
  <g>
    <path class="cls-1" d="M251.11,6.455a9.5,9.5,0,0,0-1.561-1.561A19.118,19.118,0,0,0,236.781,0H190.688a10,10,0,0,0,0,20H221.86L178.587,63.274A10,10,0,0,0,192.73,77.416L236,34.145v36.2a10,10,0,0,0,20,0V19.219A19.12,19.12,0,0,0,251.11,6.455Z"/>
    <path class="cls-1" d="M246,175.656a10,10,0,0,0-10,10v36.2l-43.27-43.271a10,10,0,0,0-14.143,14.143L221.864,236H190.688a10,10,0,0,0,0,20h46.093a19.121,19.121,0,0,0,12.788-4.912,10.06,10.06,0,0,0,.805-.72,10.317,10.317,0,0,0,.723-.808,19.12,19.12,0,0,0,4.9-12.779V185.656A10,10,0,0,0,246,175.656Z"/>
    <path class="cls-1" d="M34.149,20H65.313a10,10,0,0,0,0-20H19.219A19.122,19.122,0,0,0,6.42,4.922a9.84,9.84,0,0,0-1.49,1.49A19.119,19.119,0,0,0,0,19.219V70.344a10,10,0,0,0,20,0V34.137L63.279,77.416A10,10,0,0,0,77.422,63.274Z"/>
    <path class="cls-1" d="M63.28,178.581,20,221.86v-36.2a10,10,0,0,0-20,0v51.125A19.12,19.12,0,0,0,4.944,249.6,10.127,10.127,0,0,0,6.4,251.058,19.12,19.12,0,0,0,19.219,256H65.313a10,10,0,0,0,0-20H34.145l43.276-43.276A10,10,0,1,0,63.28,178.581Z"/>
  </g>
</svg>
