<svg id="Layer_1" data-name="Layer 1" xmlns="http://www.w3.org/2000/svg" viewBox="0 0 256 256"><title>Artboard 42</title><path d="M226,0H30A30,30,0,0,0,0,30V226a30,30,0,0,0,30,30H226a30,30,0,0,0,30-30V30A30,30,0,0,0,226,0Zm10,226a10,10,0,0,1-10,10H30a10,10,0,0,1-10-10V30A10,10,0,0,1,30,20H226a10,10,0,0,1,10,10Z" style="fill:#c1c9d6"/><path d="M83.55,182.35a10,10,0,0,1-7.06-17.08l88.89-88.7a10,10,0,0,1,14.13,14.16l-88.89,88.7A10,10,0,0,1,83.55,182.35Z" style="fill:#c1c9d6"/><path d="M172.45,153.65a10,10,0,0,1-10-10v-50h-50a10,10,0,0,1,0-20h60a10,10,0,0,1,10,10v60A10,10,0,0,1,172.45,153.65Z" style="fill:#c1c9d6"/></svg>