<svg id="Layer_1" data-name="Layer 1" xmlns="http://www.w3.org/2000/svg" viewBox="0 0 256 256"><title>Artboard 42 copy 2</title><path d="M226,0H30A30,30,0,0,0,0,30V226a30,30,0,0,0,30,30H226a30,30,0,0,0,30-30V30A30,30,0,0,0,226,0ZM182.45,143.64a10,10,0,0,1-20,0V107.75L90.62,179.43a10,10,0,0,1-14.13-14.16l71.78-71.63H112.45a10,10,0,0,1,0-20H173l.71.07.3,0a8.62,8.62,0,0,1,1,.21,3.17,3.17,0,0,1,.44.12,9.92,9.92,0,0,1,3.34,1.8c.12.09.23.19.34.29l.09.08a3.34,3.34,0,0,1,.33.32,3,3,0,0,1,.35.37l.34.39c.1.13.21.26.3.4s.2.27.29.41.18.28.26.42a3.62,3.62,0,0,1,.24.43,5.17,5.17,0,0,1,.36.75c.06.13.11.26.16.39a9.28,9.28,0,0,1,.51,2,2.91,2.91,0,0,1,0,.31,1,1,0,0,1,0,.25c0,.31,0,.64,0,1Z" style="fill:#a1b0c0"/></svg>