<svg id="Réteg_1" data-name="Réteg 1" xmlns="http://www.w3.org/2000/svg" viewBox="0 0 1498.91 454.3"><defs><style>.cls-1{fill:#ccc;}.cls-2{fill:#343434;}.cls-3{fill:#fff;}.cls-4{fill:#cae4ed;}.cls-5{fill:#c4c4c4;}.cls-6{fill:#991915;}.cls-7{fill:#e51b2a;}.cls-8{fill:#252525;}.cls-9{fill:#d76b1d;}.cls-10{fill:#8f8f8f;}</style></defs><path class="cls-1" d="M1070.6,320c-3.7,0-6.8,0-9,.1-20.6.4-90.8,4.7-128.8,9.3a456.45,456.45,0,0,0-78.1,17.2,124.28,124.28,0,0,0-13,5.6c-2.2,1-4.4,2.1-6.6,3.1-7.2,3.2-49,23.3-62.6,30.3-13.3,6.9-48.9,27.7-50.2,28.4-1.7.9-58.2,31.8-61.2,33.3s-11.3,4.1-19.4,5.2a116.73,116.73,0,0,1-15.8.9c-2.7,0-5.8.1-9.6.2-8,.3-34.8,3.2-60.8,6-14.9,1.6-29,3.1-39.2,4.1-28.2,2.7-101,14-122.9,17.9-22.9,4-92.4,22-104.8,26.1-13.1,4.4-41.5,17.8-51.3,23.1a40.21,40.21,0,0,0-13.5,11.6c-3.1,4.2-5.3,13.5-6.1,25.3-.6,8.6-1.6,37.7-.2,41.4a43.5,43.5,0,0,1,1.3,4.3c-.5,1.2-1.7,3.9-3.9,8.8-3.4,7.6-3.7,14.6-.9,21.9,1.7,4.5,6.8,16.7,8.2,19.6a20.14,20.14,0,0,1-2.1,1.1l-.6.3c-3.7,1.7-6,4.2-6.9,7.4-1,3.4-2.6,10.5-3.8,15.7-1.4,6.6,1.9,11.1,5.5,13.2,2.2,1.3,7.9,3.6,13.8,6,1.6.7,3.2,1.3,4.7,1.9,7.5,3.1,29.1,6,35.6,6.8,9.4,1.2,34.8,1.4,35.9,1.4h2.5V715c0-.3.2-25.9.2-40.7,0-34.1,11.8-64.8,33.3-86.7,22.4-22.8,53.6-34.9,90.1-34.9,18.7,0,36,3.6,51.5,10.7a113.56,113.56,0,0,1,37.4,27.8c19.2,21.5,31.8,51,35.4,82.9,1.8,15.9,5.3,46.4,5.3,46.4l.3,2.3h2.3c2.4-.1,246.5-5.3,380.9-5.3s304.5.4,306.2.4h2.4l.1-2.4c0-.2,1.3-24.6,1.8-39.4,1.1-33.6,13.7-64.4,35.6-86.9a116.78,116.78,0,0,1,39.4-26.6,133.69,133.69,0,0,1,51.4-9.8,122.24,122.24,0,0,1,52.3,11.3,118.34,118.34,0,0,1,38.7,28.9c20.3,22.6,32.4,52.9,32.4,81v1.1c0,10.4,0,19.4-2.6,28.5l-1.1,3.8,3.9-.7c14.6-2.6,107.7-18.8,121.1-21.1a288.49,288.49,0,0,1,31.3-3.3c1.2,0,28-1.2,31-1.4h.7l.6-.4c9.5-6.6,10.3-8,10.6-8.5.4-.7,2.4-4.5,4.3-8.2,4-8,3.9-8.5,3.7-9.4,0-.2-.1-.5-.1-.9a15.89,15.89,0,0,0-1-4.7c-.7-1.7-2.6-6-3.3-7.6.5-7.6,2.3-37.7,2.3-38.9a6.16,6.16,0,0,0-2-4l-.7-2.8,1.2-1.1.8-.8v-1.1c0-.1-.1-5.1-.1-6.9s-1.8-4.8-6.2-11.5c-1.2-1.8-2.4-3.6-3.3-5a110.33,110.33,0,0,1-10.2-21.8c-3.2-9.3-10-31.8-10.4-33.8-.4-2.3-1.7-17.3-1.6-22.5.1-3.1.2-8.8-4.1-12.4a12.68,12.68,0,0,1-4.5-6.3c-.3-1.1-.7-2.5-1.1-4a102,102,0,0,0-4.1-13.1c-2.8-6.1-8.5-6.1-15.1-6.1-7.4,0-19.9-1.2-28.4-2.3-8.8-1.1-41.9-6.9-42.2-7-.6-.1-53.8-8.7-58.4-9.7-3.2-.7-23-10.6-34.7-16.6-.4-.2-37.1-18.2-54.2-26-13.7-6.3-42-17.9-60.7-25.7-4.9-2-9.1-3.7-12-5-13.6-5.7-52-17.9-73.8-22.2-21.3-4.3-77.5-11.7-94-12.5-15-.8-84.9-2.1-114.8-2.1Z" transform="translate(-208.47 -320)"/><path class="cls-2" d="M301,711l101.3-10,107.2,2.5,59.4,13.4L1249.5,706l260.4-13.4L1525,534.4s-312.3-25.1-320.7-26.8S454.2,526,454.2,526l-97.1,8.4-68.7,95.4Z" transform="translate(-208.47 -320)"/><path class="cls-3" d="M1703.9,649.6c-.8-2-3.5-8.1-3.5-8.1s2.4-38.2,2.4-39.4-1.8-2.8-1.8-2.8l-1.2-4.9,2.2-2.1s-.1-5.1-.1-7-6-10-9.2-15.2a117.54,117.54,0,0,1-10.5-22.3c-3.1-8.9-10.1-31.8-10.5-34.2s-1.8-17.5-1.7-23c.1-3,.1-7.7-3.2-10.5a14.64,14.64,0,0,1-5.3-7.5c-1.3-4.6-3.1-12.4-5-16.7s-5.4-4.7-12.8-4.7-19.8-1.2-28.7-2.3-42.3-7-42.3-7-53.8-8.7-58.5-9.7-35.3-16.8-35.3-16.8-36.8-18-54.1-26-58.6-24.8-72.6-30.6-52-17.8-73.3-22.1-77.3-11.7-93.6-12.5-102.5-2.3-123.5-1.9-90.5,4.7-128.5,9.3a446.47,446.47,0,0,0-77.6,17.1c-5.8,1.9-12.4,5.4-19.4,8.5s-48.9,23.3-62.5,30.3-50.1,28.3-50.1,28.3-58.2,31.8-61.3,33.4-11.6,4.3-20.2,5.4-13.2.8-25.6,1.2-71.8,7.4-99.8,10.1-100.6,14-122.7,17.9-91.6,21.7-104.4,26-41.3,17.7-50.9,22.9a37.13,37.13,0,0,0-12.6,10.9c-2.7,3.8-4.8,12.8-5.6,24s-1.4,37.6-.4,40.4a54.65,54.65,0,0,1,1.6,5.4s-1.1,2.6-4.2,9.6-3.4,13.2-.8,19.9c1.7,4.6,6.9,16.9,8.1,19.5s-1.5,3.5-3.9,4.6c-2.1,1-4.7,2.7-5.6,5.8s-2.6,10.1-3.7,15.5a9.32,9.32,0,0,0,4.3,10.5c2.7,1.6,11.6,5,18.2,7.8s25.6,5.4,34.9,6.6,35.6,1.4,35.6,1.4.2-25.7.2-40.7c0-70.4,48.7-124,125.9-124,79.8,0,119.9,63.7,126.8,123.6,1.8,15.9,5.3,46.4,5.3,46.4s245-5.3,380.9-5.3,306.2.4,306.2.4,1.3-24.4,1.8-39.3c2.2-68.5,51.7-125.7,128.9-125.7,79.8,0,125.9,68,125.9,123.7,0,10.8.1,20.4-2.7,30.2,15.1-2.7,108.5-18.9,121.1-21.1a284.74,284.74,0,0,1,31.7-3.3c1.2,0,30.9-1.4,30.9-1.4s9.1-6.3,9.8-7.7,7.9-15,7.7-15.9C1704.7,653.7,1704.7,651.6,1703.9,649.6Z" transform="translate(-208.47 -320)"/><path d="M217.1,645.9c-1.3-4.1-2.1-10.6,2.6-11.4s12.2.3,17.3,4.7,14.2,17.1,17.1,21.2,6.2,9.6,7.5,11.6,4.4,11.4-3.6,12.9a138.1,138.1,0,0,1-23.8,2.1c-4.7-.1-11.8-5.5-9.8-11.9,1.2-4,2.5-6.5,1.5-9.1S217.1,645.9,217.1,645.9Z" transform="translate(-208.47 -320)"/><path class="cls-4" d="M1342.8,354.8s57.1,31.1,71.1,38.3,39.2,20.4,47.3,24.7,28.1,11.5,32.8,12.4,18.7,2.1,18.7,2.1-38.8-19.6-49.4-24.3-54.9-26-66-30.2S1342.8,354.8,1342.8,354.8Z" transform="translate(-208.47 -320)"/><path class="cls-4" d="M666.6,447.2s47.7-22.7,55.5-27.3,49.1-27.5,55.8-31.1,40.5-20.1,47.6-23.2,29.4-12.4,29.4-12.4l-5.5-2-42.6,19.9s-36.2,17.9-42.3,21.3-31.2,17.8-35.9,20.5-26.7,14.8-31.1,17.3S666.6,447.2,666.6,447.2Z" transform="translate(-208.47 -320)"/><path class="cls-5" d="M1230.6,679s-338.2,6.3-358,6.7l-282,5.6s9.3,4.8,23.8,4.5,238.1-3.7,258.2-3.7,311.4-5.3,326-5.6C1220.2,686.1,1230.6,679,1230.6,679Z" transform="translate(-208.47 -320)"/><polygon class="cls-1" points="475.33 137.8 451.23 129.9 454.13 128.3 477.93 136 475.33 137.8"/><polygon class="cls-1" points="39.03 229.2 27.03 229.2 33.03 210.4 35.83 209.4 30.43 226.7 39.03 226.7 39.03 229.2"/><path class="cls-1" d="M285.2,531.2l-2.7-1.5c.6-.2,17.2-6.4,26.3-8.4,2.7-.6,7.7-1.9,14.1-3.4,15.6-3.9,37.1-9.2,47.8-11l1.5-.3c16.2-2.7,59.3-9.9,76.2-11.7,6.4-.7,18.9-2.1,32.1-3.5,23.4-2.6,50-5.5,56.8-6.1,10.8-.9,40.7-5.5,48.9-7.1,7.9-1.5,25.6-7.3,34-12.2,8.1-4.7,17.7-11.6,17.8-11.6l5.1.1c-.1.1-13.4,8.9-21.6,13.7-8.6,5-26.7,11-34.7,12.5-8.2,1.6-38.3,6.2-49.1,7.1-6.8.6-33.3,3.5-56.7,6.1-13.2,1.5-25.7,2.8-32.1,3.5-16.8,1.8-59.9,8.9-76.1,11.6l-1.5.3c-10.6,1.8-32.9,7.3-47.6,11-6.4,1.6-11.5,2.9-14.2,3.5C300.4,525.8,285.4,531.2,285.2,531.2Z" transform="translate(-208.47 -320)"/><polygon class="cls-1" points="145.73 252.7 87.53 237.5 88.13 235 148.53 250.8 145.73 252.7"/><polygon class="cls-1" points="96.13 382.5 27.03 380.2 96.13 379.5 96.13 382.5"/><path class="cls-1" d="M214.6,624.7a18.31,18.31,0,0,1,7.1-1.4,27.35,27.35,0,0,1,7,.8,22,22,0,0,1,6.4,3,32.91,32.91,0,0,1,5.4,4.3,38.18,38.18,0,0,1,4.5,5.3l4,5.5,7.8,11.2-8.3-10.8-4.2-5.3a35.59,35.59,0,0,0-4.6-4.9,33.59,33.59,0,0,0-5.4-3.9,23.88,23.88,0,0,0-6-2.5,23.48,23.48,0,0,0-6.5-.4,15.23,15.23,0,0,0-6.1,1.5Z" transform="translate(-208.47 -320)"/><path class="cls-1" d="M218.1,620l2.4-6.9c.2-.4,5.9-9.4,8.5-13.1s9.7-11.7,10-12.1l1.9,1.7c-.1.1-7.3,8.3-9.9,11.8S218.2,619.9,218.1,620Z" transform="translate(-208.47 -320)"/><path class="cls-1" d="M1461,579.2l-2.5-2.1c1.2-.2,121.3-17,141.9-20.3,21.1-3.4,32.9-12.1,36.3-16.2,3.7-4.5,6.6-11.9,6.6-12l2.3.9c-.1.3-3.1,7.9-7,12.7s-16.1,13.5-37.8,17.1C1580.1,562.6,1462.2,579,1461,579.2Z" transform="translate(-208.47 -320)"/><polygon class="cls-1" points="1493.33 263.9 1311.53 284 1492.03 261.4 1493.33 263.9"/><polygon class="cls-1" points="1447.03 133.5 1435.93 139.8 1435.83 139.9 1435.83 139.9 1418.93 146 1435.23 138.5 1435.13 138.5 1445.43 131.7 1447.03 133.5"/><path class="cls-1" d="M582.3,668.3l81.8-4,81.8-3.9,81.8-4,81.8-4.5,163.7-8.5,81.8-4,81.9-3.8-81.8,5-81.8,4.7-163.6,9-81.8,4.3c-27.3,1.3-54.6,2.6-81.9,3.6l-81.9,3.2Z" transform="translate(-208.47 -320)"/><path class="cls-1" d="M1562.7,494.2l-152-6c-50.6-2.7-101.3-2.6-152-2.7s-101.4,0-152.1.5c-12.7.1-25.3.5-38,.7l-38,.9-76,1.7-152,3.2-38,.8c-12.7.2-25.3.6-38,1.1s-25.3,1.1-38,1.6l-38,1.8c-50.6,2.5-101.2,5.4-151.9,8-25.3,1.4-50.5,4.1-75.7,7-12.6,1.5-25.2,3-37.7,4.7-6.3.8-12.6,1.7-18.8,2.7s-12.5,1.9-18.7,3.2c6.2-1.4,12.5-2.4,18.7-3.4s12.5-1.9,18.8-2.8c12.5-1.8,25.1-3.5,37.7-5,25.2-3.1,50.4-5.9,75.7-7.6,50.6-2.9,101.2-6,151.8-8.7,25.3-1.4,50.6-2.7,76-3.7,12.7-.5,25.3-.9,38-1.1l38-.9,152-3.4,76-1.6,38-.8c12.7-.2,25.3-.6,38-.7q38.1-.3,76-.3c25.3,0,50.7,0,76,.2,50.7.4,101.4.5,152,3.4Z" transform="translate(-208.47 -320)"/><polygon class="cls-1" points="1042.93 359.7 1026.53 359.5 1026.63 357 1043.03 357.3 1042.93 359.7"/><path class="cls-1" d="M1015.8,684.4l-12.7-35.3v-.2c0-.3-.8-26.9-1.5-36.8s-.4-44.9,0-60c.3-10.1,2.3-23.7,3.9-34.6.7-5,1.4-9.2,1.7-12.4a138.68,138.68,0,0,1,4.1-20.4c.5-2,1-4,1.5-6.2,2.2-9.2,6.6-23.4,6.7-23.6l2.7-.1c0,.1-4.8,15.1-7,24.2-.5,2.2-1,4.2-1.5,6.2a130,130,0,0,0-4,20.1c-.4,3.2-1,7.5-1.7,12.4-1.6,10.9-3.6,24.4-3.9,34.3-.4,15.1-.7,49.9,0,59.8.7,9.5,1.4,34.2,1.5,36.7l11.9,33.2,216.4-4.8c.5-4.6,2.3-22.2,5.9-34.5,3.3-11.5,13.5-46.7,31.9-68.5,18.1-21.6,51-56.6,63-68.5l1.8-1.8c12.1-12.1,32.3-32.3,34.7-41.2,2.5-9.2.7-13.3.7-13.3l2.5-.3c0,.2,1.9,4.5-.8,14.3-2.6,9.5-22.3,29.2-35.3,42.3l-1.8,1.8c-11.9,11.9-44.8,46.9-62.8,68.4s-28.1,56.2-31.4,67.6c-4,13.9-5.9,34.9-5.9,35.1l-.1,1.1h-1.1Z" transform="translate(-208.47 -320)"/><path class="cls-1" d="M656.6,691.5l-7-26c0-.2-2.6-21.7-4.5-34.2-1.9-13.1-4.1-65.5-4.1-77.6,0-12.8,1.9-36.2,3.7-47.1a63.58,63.58,0,0,1,9.1-23.5c3.4-5.7,12.3-12,12.6-12.3l1.7,1.8c-.1.1-8.9,6.4-12.2,11.8a60.82,60.82,0,0,0-8.8,22.6c-1.8,10.6-3.7,34.2-3.7,46.7,0,12,2.2,64.2,4.1,77.2,1.8,12.1,4.3,32.6,4.5,34.2l6.4,23.9,358.1-7.1v2.5Z" transform="translate(-208.47 -320)"/><polygon class="cls-1" points="351.03 373.3 350.83 370.9 449.13 368.9 449.13 371.4 351.03 373.3"/><path class="cls-1" d="M318.5,589.8a115,115,0,0,1,19.7-21.5,129.29,129.29,0,0,1,24.4-16.2A144.08,144.08,0,0,1,419,537.2c2.4-.2,4.9-.2,7.3-.3l3.7-.1c1.2,0,2.4,0,3.7.1l3.7.1c1.2,0,2.4.2,3.7.2l3.7.3c1.2.1,2.4.3,3.6.4a129.61,129.61,0,0,1,77.5,37.9,145,145,0,0,0-23.3-17.3l-1.6-.9-1.6-.9-3.2-1.8c-2.1-1.1-4.3-2.2-6.5-3.2s-4.4-2-6.7-2.8l-3.4-1.3-1.7-.6-1.7-.6c-18.3-6.1-37.8-8.1-57.1-6.8a146.61,146.61,0,0,0-28.6,4.4,138,138,0,0,0-27.2,9.8,127.64,127.64,0,0,0-24.5,15.4A131.9,131.9,0,0,0,318.5,589.8Z" transform="translate(-208.47 -320)"/><path class="cls-1" d="M1298.5,559.9a125.51,125.51,0,0,1,19.8-11.4,138.84,138.84,0,0,1,21.6-7.7,155.1,155.1,0,0,1,45.5-5,144.71,144.71,0,0,1,22.8,2.6,132.71,132.71,0,0,1,22.1,6.4,145.5,145.5,0,0,1,20.6,10.1,122.32,122.32,0,0,1,18.3,13.6,142.21,142.21,0,0,0-19-12.6,131.78,131.78,0,0,0-20.6-9.4,142.28,142.28,0,0,0-44.3-8.2,170.27,170.27,0,0,0-45,4.4,136.1,136.1,0,0,0-21.6,7A127.56,127.56,0,0,0,1298.5,559.9Z" transform="translate(-208.47 -320)"/><path class="cls-1" d="M1505.7,662.4c26.1-3.7,52.4-7.5,78.5-11.5,13-2,26-4,39-6.2s26-4.3,38.9-6.9c-12.9,2.8-25.8,5.2-38.8,7.5s-26,4.6-39,6.8c-26,4.4-52.4,8.7-78.4,12.8Z" transform="translate(-208.47 -320)"/><path class="cls-6" d="M1681.5,546.5a13.62,13.62,0,0,1-5.9-1.2c-1.9-.8-28.1-11.2-38.1-16.6s-38-20.5-43.7-26.1-11.5-9.5-4.6-13.4,10.7-5.8,13-6.6a27.25,27.25,0,0,1,8.5-1.2h36.6c4.6,0,8.6,1.2,10.8,4.4a88.44,88.44,0,0,1,6.9,12.4c2,4.4,5.4,11.9,6.8,16.6S1681.5,546.5,1681.5,546.5Z" transform="translate(-208.47 -320)"/><path class="cls-7" d="M1610,495.2s8.7,7.4,13.9,7.9,42,5.3,42,5.3-6.2-7.1-10.2-8.1S1610,495.2,1610,495.2Z" transform="translate(-208.47 -320)"/><path class="cls-7" d="M1612.8,506.5s8.7,7.4,13.9,7.9,42,5.3,42,5.3-6.2-7.1-10.2-8.1S1612.8,506.5,1612.8,506.5Z" transform="translate(-208.47 -320)"/><path class="cls-4" d="M1679.1,538.7s-15-6.8-18.1-8.6-8.2-7.4.2-6.4a96.11,96.11,0,0,1,14.2,2.7Z" transform="translate(-208.47 -320)"/><path class="cls-4" d="M240.2,591.7s30.5-17.4,37.3-20.6a162,162,0,0,0,25.2-15.8c5.7-4.6,11.5-9.2,13.7-11.7s6.2-9.2,1.4-11.2-17.4-4.6-25.4-4.1-25,4.8-33.4,8.9-12.6,8.5-12.6,8.5-3.2,11.7-5.3,21.8-2.7,20.8-3,22.4S238.3,592.4,240.2,591.7Z" transform="translate(-208.47 -320)"/><polygon class="cls-4" points="541.43 98.2 612.93 61 665.83 38.2 734.33 22.5 814.33 16.6 881.93 15.3 934.43 17 993.23 22.5 1040.13 33.9 1065.53 43.2 1118.83 72 1146.73 95.3 1157.73 119 1159.03 125.3 938.23 129.1 718.73 135.9 607.03 142.2 510.63 146.9 541.43 98.2"/><polygon points="814.33 16.6 780.03 132.5 845.13 129.1 856.63 15.8 814.33 16.6"/><polygon points="1034.63 31.4 1029.13 127 1040.63 126.6 1043.93 33.5 1034.63 31.4"/><polygon points="547.83 94.9 543.13 144.3 463.23 149.8 498.73 124.5 530.93 105.4 547.83 94.9"/><path class="cls-5" d="M1373.1,435.2c-1.7-6.6-9.4-20.5-19.1-28.1s-36.8-27.8-54.2-35.4-42-20.5-68.4-26-54.2-9.4-69.4-10.4-84-3.1-101.7-2.8-79.5,3.8-96.9,5.6-52.4,7.3-72.9,12.8-60.8,23.3-73.6,29.5-51.4,28.1-61.4,32.6S718,435.2,710,440.1s-31.9,20.5-36.5,23.6a37.89,37.89,0,0,0-8,7.1c-1.8,2.1-3.1,4-3.1,4l87.8-6.9,137.1-8,225.3-8.3,205.5-2.4,56.2.3C1374.5,449.4,1374.9,441.8,1373.1,435.2Zm-54.9,8.2-205.7,2.4-225.4,8.3-137.2,8-72.4,5.7c5.6-3.8,27.9-18.4,35.6-23,1.8-1.1,4.5-2.8,7.8-4.9,11.1-6.9,29.5-18.5,37-21.9,5.6-2.5,18.6-9.6,32.5-17.2,11.4-6.2,23.2-12.7,29.1-15.5,12.5-6.1,52.4-23.7,72.6-29.1,20.6-5.6,55.6-11,72-12.7,17.7-1.8,79.2-5.2,96.4-5.5h4.7c22.3,0,82.3,1.8,96.5,2.8,14,1,41.5,4.6,68.6,10.3,20.8,4.4,41,13.1,56.8,20.9,17.8,8.7,46.2,27.8,56.4,37.7,8.1,7.8,14.1,16.8,15.4,22.1.6,2.3,1.3,9.7,1.5,11.9Z" transform="translate(-208.47 -320)"/><polygon class="cls-8" points="813.73 134.9 811.03 135 835.13 13 837.63 12.9 813.73 134.9"/><path d="M722,451.2s7.6,7.4,12.3,7.8,45.4-.6,47.8-.7,5.1-1.2,5.2-3.6.2-15.9.2-19.1-1.4-11.9-3.6-13.9a19.71,19.71,0,0,0-9.7-5.2c-3.6-.7-9,4.7-9,4.7l-7.6,15.9-7,6.5-15.7,3.8-8.5,2Z" transform="translate(-208.47 -320)"/><path class="cls-3" d="M781.6,445.3l-59.5,6a15.7,15.7,0,0,1-2.2-4.5c-.5-2.3.4-9,2.7-11.7a60.18,60.18,0,0,1,15.5-12.8c8.1-4.7,11.7-6.5,15.3-7a120.53,120.53,0,0,1,13.2-.7c3.2,0,7.2.7,9.9,4s4.3,8.5,4.7,11.5c.2,1.6.3,5.9.3,9.6C781.6,442.7,781.6,445.3,781.6,445.3Z" transform="translate(-208.47 -320)"/><path class="cls-9" d="M781.5,439.5l-59.1,6.7s.9-3.9,7-5.3c0,0,15.5-2.2,17.7-2.6,5-.9,8.6-5.6,15.4-6.4,4.4-.5,18.7-1.7,18.7-1.7Z" transform="translate(-208.47 -320)"/><path class="cls-6" d="M1700.2,594.1l1.8,5.9s-1.6.4-2.3.5c-1.6.2-2.7-.9-2.3-2.7C1697.8,596.2,1700.2,594.1,1700.2,594.1Z" transform="translate(-208.47 -320)"/><path d="M1699.2,642.7s-12.8,14.8-18.4,19-23.2,18.1-23.2,18.1l30.1-1.1s6.7-4.3,8.7-6.4,6.8-11.2,7.5-12.8c.9-2,.9-5.6.5-7.6a22.83,22.83,0,0,0-1.9-5.5c-.7-1.5-2.5-5.3-2.5-5.3Z" transform="translate(-208.47 -320)"/><path class="cls-5" d="M1700.7,644.2s-6.8,10.2-9.8,13.2-11.2,11.5-12.7,12.8-2.4,3.1.1,3.4a12.38,12.38,0,0,0,7.3-2c1.4-1,11.9-13.4,13.2-15s2.7-5.6,3-7.1C1702.1,647.8,1700.7,644.2,1700.7,644.2Z" transform="translate(-208.47 -320)"/><path class="cls-5" d="M1703.4,651.2s-1.1,5.6-3.4,9.1c-1.9,2.9-12.3,18.3-12.3,18.3s7.7-4.9,8.4-5.9,7.7-12.7,8.1-14S1703.4,651.2,1703.4,651.2Z" transform="translate(-208.47 -320)"/><path class="cls-8" d="M429.6,586.3a83.9,83.9,0,1,0,83.9,83.9A83.88,83.88,0,0,0,429.6,586.3Zm0,145.2A61.4,61.4,0,1,1,491,670.1,61.41,61.41,0,0,1,429.6,731.5Z" transform="translate(-208.47 -320)"/><circle class="cls-2" cx="221.13" cy="350.2" r="52.3"/><path class="cls-10" d="M429.6,593.1a77.1,77.1,0,1,0,77.1,77.1A77.08,77.08,0,0,0,429.6,593.1Zm57.8,39.2c-4.1,3.8-10.8,9.3-18,12.8a164.36,164.36,0,0,1-15.6,6.3,26.91,26.91,0,0,0-2.7,1,8.87,8.87,0,0,1-11.3-5.6c-.6-1.9-.2-5.6-.3-5.6a140.4,140.4,0,0,1,.9-16.8c.9-7.9,4-16.1,6.2-21.2A69.45,69.45,0,0,1,487.4,632.3Zm-74.8-29.1c2.2,5.2,5.3,13.3,6.2,21.2a163.36,163.36,0,0,1,.9,16.8v2.9a8.92,8.92,0,0,1-8.9,8.9c-2,0-5.3-1.6-5.4-1.6a149.91,149.91,0,0,1-15.6-6.3c-7.2-3.4-13.9-8.9-18-12.7A69.19,69.19,0,0,1,412.6,603.2Zm-51.8,61.4c5.6-.5,14.3-.7,22.1,1a162,162,0,0,1,16.1,4.6c0,.2,1.8.6,2.7.9a9,9,0,0,1,5.6,11.3c-.6,1.9-3.2,4.7-3.1,4.8A138.39,138.39,0,0,1,393.4,700a78.6,78.6,0,0,1-17.7,13.1A68.44,68.44,0,0,1,360.6,670,32.92,32.92,0,0,1,360.8,664.6Zm42,69.2c1.3-5.5,3.8-13.8,7.9-20.7a146.57,146.57,0,0,1,9.4-13.9,32.53,32.53,0,0,1,2.6-3c3.4-3.2,8.3-4.1,12.2-1.2,1.6,1.1,3.8,4.3,4.1,4.2a154.57,154.57,0,0,1,9.3,14c4,6.9,6.4,15.3,7.7,20.7a68.8,68.8,0,0,1-53.2-.1Zm80.5-20.2c-4.9-2.8-12.2-7.5-17.7-13.3a152.1,152.1,0,0,1-10.7-12.9,16.27,16.27,0,0,0-1.7-2.4,8.86,8.86,0,0,1,1.8-12.5c1.6-1.2,5.3-2.2,5.3-2.4h0c4.8-1.6,10.7-3.4,16.1-4.6,7.8-1.7,16.5-1.5,22.1-1a54.41,54.41,0,0,1,.3,5.7A69.62,69.62,0,0,1,483.3,713.6Z" transform="translate(-208.47 -320)"/><circle class="cls-8" cx="221.13" cy="330.6" r="4.7"/><circle class="cls-8" cx="202.73" cy="343.6" r="4.7"/><circle class="cls-8" cx="209.13" cy="365.6" r="4.7"/><circle class="cls-8" cx="233.13" cy="365.6" r="4.7"/><circle class="cls-8" cx="239.63" cy="343.8" r="4.7"/><circle class="cls-8" cx="221.13" cy="350.2" r="8.9"/><path class="cls-8" d="M429.6,565.9A104.2,104.2,0,1,0,533.8,670.1,104.2,104.2,0,0,0,429.6,565.9Zm0,180.5a76.3,76.3,0,1,1,76.3-76.3A76.29,76.29,0,0,1,429.6,746.4Z" transform="translate(-208.47 -320)"/><path class="cls-8" d="M429.6,641.1a.47.47,0,0,1-.5-.5V596.5a.5.5,0,0,1,1,0v44.1A.54.54,0,0,1,429.6,641.1Z" transform="translate(-208.47 -320)"/><path class="cls-8" d="M401.7,660.9h-.2l-41.6-14.5a.47.47,0,0,1,.3-.9L401.8,660a.45.45,0,0,1,.3.6C402.1,660.8,401.9,660.9,401.7,660.9Z" transform="translate(-208.47 -320)"/><path class="cls-8" d="M385.3,729.5a.37.37,0,0,1-.3-.1.49.49,0,0,1-.1-.7l26.5-35.2a.5.5,0,0,1,.8.6l-26.5,35.2A.76.76,0,0,1,385.3,729.5Z" transform="translate(-208.47 -320)"/><path class="cls-8" d="M473.6,729.8a.52.52,0,0,1-.4-.2l-26.3-35.4a.5.5,0,1,1,.8-.6L474,729a.49.49,0,0,1-.1.7C473.8,729.7,473.7,729.8,473.6,729.8Z" transform="translate(-208.47 -320)"/><path class="cls-8" d="M457.4,660.4a.55.55,0,0,1-.5-.3.42.42,0,0,1,.3-.6l41.3-15.3a.47.47,0,0,1,.3.9l-41.3,15.3Z" transform="translate(-208.47 -320)"/><path class="cls-8" d="M1378.5,586.3a83.9,83.9,0,1,0,83.9,83.9A83.88,83.88,0,0,0,1378.5,586.3Zm0,145.2a61.4,61.4,0,1,1,61.4-61.4A61.41,61.41,0,0,1,1378.5,731.5Z" transform="translate(-208.47 -320)"/><circle class="cls-2" cx="1170.03" cy="350.2" r="52.3"/><path class="cls-10" d="M1378.5,593.1a77.1,77.1,0,1,0,77.1,77.1A77.08,77.08,0,0,0,1378.5,593.1Zm57.7,39.2c-4.1,3.8-10.8,9.3-18,12.8a164.36,164.36,0,0,1-15.6,6.3,26.91,26.91,0,0,0-2.7,1,8.87,8.87,0,0,1-11.3-5.6c-.6-1.9-.2-5.6-.3-5.6a140.4,140.4,0,0,1,.9-16.8c.9-7.9,4-16.1,6.2-21.2A69.15,69.15,0,0,1,1436.2,632.3Zm-74.8-29.1c2.2,5.2,5.3,13.3,6.2,21.2a163.36,163.36,0,0,1,.9,16.8v2.9a8.92,8.92,0,0,1-8.9,8.9c-2,0-5.3-1.6-5.4-1.6a149.91,149.91,0,0,1-15.6-6.3c-7.2-3.4-13.9-8.9-18-12.7A69.49,69.49,0,0,1,1361.4,603.2Zm-51.8,61.4c5.6-.5,14.3-.7,22.1,1a162,162,0,0,1,16.1,4.6c0,.2,1.8.6,2.7.9a9,9,0,0,1,5.6,11.3c-.6,1.9-3.2,4.7-3.1,4.8a138.39,138.39,0,0,1-10.8,12.8,78.6,78.6,0,0,1-17.7,13.1,68.44,68.44,0,0,1-15.1-43.1C1309.4,668.3,1309.5,666.4,1309.6,664.6Zm42,69.2c1.3-5.5,3.8-13.8,7.9-20.7a146.57,146.57,0,0,1,9.4-13.9,32.53,32.53,0,0,1,2.6-3c3.4-3.2,8.3-4.1,12.2-1.2,1.6,1.1,3.8,4.3,4.1,4.2a154.57,154.57,0,0,1,9.3,14c4,6.9,6.4,15.3,7.7,20.7a68.8,68.8,0,0,1-53.2-.1Zm80.5-20.2c-4.9-2.8-12.2-7.5-17.7-13.3a152.1,152.1,0,0,1-10.7-12.9,16.27,16.27,0,0,0-1.7-2.4,8.86,8.86,0,0,1,1.8-12.5c1.6-1.2,5.3-2.2,5.3-2.4h0c4.8-1.6,10.7-3.4,16.1-4.6,7.8-1.7,16.5-1.5,22.1-1a54.41,54.41,0,0,1,.3,5.7A69.62,69.62,0,0,1,1432.1,713.6Z" transform="translate(-208.47 -320)"/><circle class="cls-8" cx="1170.03" cy="330.6" r="4.7"/><circle class="cls-8" cx="1151.63" cy="343.6" r="4.7"/><circle class="cls-8" cx="1158.03" cy="365.6" r="4.7"/><circle class="cls-8" cx="1181.93" cy="365.6" r="4.7"/><circle class="cls-8" cx="1188.43" cy="343.8" r="4.7"/><circle class="cls-8" cx="1170.03" cy="350.2" r="8.9"/><path class="cls-8" d="M1378.5,565.9a104.2,104.2,0,1,0,104.2,104.2A104.2,104.2,0,0,0,1378.5,565.9Zm0,180.5a76.3,76.3,0,1,1,76.3-76.3A76.29,76.29,0,0,1,1378.5,746.4Z" transform="translate(-208.47 -320)"/><path class="cls-8" d="M1378.5,641.1a.47.47,0,0,1-.5-.5V596.5a.5.5,0,0,1,1,0v44.1A.64.64,0,0,1,1378.5,641.1Z" transform="translate(-208.47 -320)"/><path class="cls-8" d="M1350.5,660.9h-.2l-41.6-14.5a.47.47,0,1,1,.3-.9l41.6,14.5a.45.45,0,0,1,.3.6C1350.9,660.8,1350.7,660.9,1350.5,660.9Z" transform="translate(-208.47 -320)"/><path class="cls-8" d="M1334.1,729.5a.37.37,0,0,1-.3-.1.49.49,0,0,1-.1-.7l26.5-35.2a.5.5,0,1,1,.8.6l-26.5,35.2A.52.52,0,0,1,1334.1,729.5Z" transform="translate(-208.47 -320)"/><path class="cls-8" d="M1422.4,729.8a.52.52,0,0,1-.4-.2l-26.3-35.4a.5.5,0,0,1,.8-.6l26.3,35.4a.49.49,0,0,1-.1.7C1422.6,729.7,1422.5,729.8,1422.4,729.8Z" transform="translate(-208.47 -320)"/><path class="cls-8" d="M1406.2,660.4a.55.55,0,0,1-.5-.3.42.42,0,0,1,.3-.6l41.3-15.3a.47.47,0,0,1,.3.9l-41.4,15.3Z" transform="translate(-208.47 -320)"/></svg>