<svg id="Layer_1" data-name="Layer 1" xmlns="http://www.w3.org/2000/svg" xmlns:xlink="http://www.w3.org/1999/xlink" viewBox="0 0 685.869 115.088">
  <defs>
    <style>
      .cls-1 {
        fill: none;
      }

      .cls-2 {
        clip-path: url(#clip-path);
      }

      .cls-3 {
        fill: #c3212a;
      }

      .cls-4 {
        clip-path: url(#clip-path-2);
      }

      .cls-5 {
        fill: #273c50;
      }
    </style>
    <clipPath id="clip-path">
      <path class="cls-1" d="M60.531,0c-.093,0-.167,0-.246,0l-.341.01L59.25.04c-.46.009-.92.026-1.379.039-.586,0-.285.005-.426.005l-.606.043c-.267.021-.543.034-.814.057-.539.043-1.082.084-1.618.123-.549.066-1.086.127-1.628.2s-1.086.125-1.625.2c-.538.1-1.08.193-1.621.283A60.463,60.463,0,0,0,15.286,19.881,59.606,59.606,0,0,0,2.525,42.313,58.078,58.078,0,0,0,.2,54.62c-.04.513-.075,1.025-.113,1.537-.023.524-.037,1.063-.053,1.592S.013,58.8,0,59.331c.018.465.031.928.045,1.393.017.5.03,1.009.044,1.514.038.5.073,1,.113,1.5s.071,1,.122,1.487.126.985.184,1.479A56.991,56.991,0,0,0,3.167,77.967,56,56,0,0,0,20.6,102.908a56.842,56.842,0,0,0,7.153,4.933,52.411,52.411,0,0,0,6.987,3.4A53.516,53.516,0,0,0,46.8,114.52a57.36,57.36,0,0,0,7.95.568l2.8-.077-2.79-.232-1.51-.2c-.276-.035-.564-.076-.866-.114s-.381-.062-.459-.078c-.155-.027-.316-.057-.476-.086-.326-.059-.658-.123-1.007-.185l-.53-.1c-.18-.031-.364-.066-.542-.109-.735-.175-1.511-.359-2.333-.551A51.664,51.664,0,0,1,23.5,99.715,51.172,51.172,0,0,1,17.96,93a49.918,49.918,0,0,1-4.516-8.028,49.129,49.129,0,0,1-3.04-9.114,48.6,48.6,0,0,1-1.19-9.853c-.009-.415-.013-.84-.017-1.256s.021-.843.035-1.264.031-.844.043-1.268c0,.127.048-.565.048-.565l.057-.694c.04-.465.075-.924.114-1.389.063-.4.114-.8.175-1.207s.109-.8.171-1.2c.077-.419.158-.836.24-1.255A46.589,46.589,0,0,1,25.043,29.638,45.657,45.657,0,0,1,42.4,20.1a44.72,44.72,0,0,1,9.412-1.623c.394-.023.783-.043,1.172-.07.39-.008.779-.008,1.168-.012s.775,0,1.164-.011q.576.022,1.156.05l.583.025.426.014c.387.045.846.079,1.3.118l.692.057.342.027c.647.087.975.144,1.313.192l.493.079.373.053c.5.1.869.173,1.232.248l.548.106c.179.035.362.065.542.113.359.088.715.179,1.068.267l.534.132c.174.042.349.083.529.144.346.105.692.209,1.037.315l.516.157c.345.1.425.14.512.166.341.123.674.246,1.011.369,1.129.411,2.226.869,3.289,1.363a50.142,50.142,0,0,1,8.1,4.954c.663.529,1.671,1.351,2.283,1.908a33.479,33.479,0,0,1,3.254,3.246L107.9,22.374c-5.019-5.985-8.056-8.606-11-10.693A64.16,64.16,0,0,0,86.737,5.794,62.625,62.625,0,0,0,75.113,1.756c-.507-.124-1.02-.242-1.532-.361-.125-.03-.257-.059-.389-.087l-.385-.074c-.257-.049-.52-.1-.777-.14C71.513,1,70.988.906,70.471.81c-.262-.052-.526-.084-.788-.118s-.525-.069-.787-.1c-.528-.071-1.059-.135-1.587-.2-.264-.036-.531-.055-.8-.075s-.53-.045-.8-.07C65.182.2,64.647.159,64.11.115L63.7.088,63.265.079c-.289-.013-.582-.023-.866-.03C61.817.034,61.239.018,60.662,0Z"/>
    </clipPath>
    <clipPath id="clip-path-2">
      <path class="cls-1" d="M50.108,57.141a11.619,11.619,0,0,0,14.3,18.317c5.052-3.95,45.767-47.968,45.767-47.968s-55.017,25.7-60.067,29.651"/>
    </clipPath>
  </defs>
  <title>bilstatistik-logo</title>
  <g>
    <g class="cls-2">
      <rect class="cls-3" x="-2.743" y="-2.746" width="113.391" height="120.584"/>
    </g>
    <g class="cls-4">
      <rect class="cls-5" x="40.4" y="34.168" width="78.673" height="39.837" transform="translate(-11.819 24.072) rotate(-15.999)"/>
    </g>
  </g>
  <g>
    <path class="cls-5" d="M167.705,37.665q12.874,0,18.037,7.3t5.163,25.594q0,18.291-6.438,25.722t-23.645,7.431q-5.354,0-17.719-1.017l-3.569-.381V11.246h9.433V42.111A44.825,44.825,0,0,1,167.705,37.665Zm-7.011,57.54q12.492,0,16.508-5.652t4.015-19.117q0-13.461-3.187-18.862t-11.344-5.4a44.747,44.747,0,0,0-15.17,2.794l-2.549.889V94.57Q157.252,95.208,160.694,95.205Z"/>
    <path class="cls-5" d="M206.582,24.583V13.532h9.561V24.583Zm0,77.862V38.936h9.561v63.509Z"/>
    <path class="cls-5" d="M235.263,102.445v-91.2h9.56v91.2Z"/>
    <path class="cls-5" d="M283.955,46.176q-13.9,0-13.895,9.653,0,4.449,3.187,6.287t14.532,3.811q11.343,1.971,16.062,5.526t4.716,13.336q0,9.784-6.31,14.354t-18.42,4.573a115.846,115.846,0,0,1-18.61-1.778l-3.825-.636.51-8.256a162.773,162.773,0,0,0,21.925,2.159q7.392,0,11.282-2.35T299,84.98q0-5.525-3.315-7.494t-14.531-3.747q-11.22-1.778-15.934-5.208t-4.717-12.7q0-9.27,6.565-13.718t16.38-4.446a134.6,134.6,0,0,1,19.5,1.779l3.569.635-.255,8.129A166.625,166.625,0,0,0,283.955,46.176Z"/>
    <path class="cls-5" d="M356.23,47.192H335.963V77.55q0,10.925,1.593,14.353t7.585,3.429l11.344-.762.638,7.875a87.614,87.614,0,0,1-13,1.4q-9.943,0-13.767-4.827T326.53,80.6V47.192h-9.051V38.936h9.051V19.5h9.433V38.936H356.23Z"/>
    <path class="cls-5" d="M412.955,58.116V90.633q.382,4.7,7.394,5.588l-.383,7.495q-10.071,0-15.169-5.081a56.248,56.248,0,0,1-22.945,5.081q-8.8,0-13.384-4.954t-4.589-14.226q0-9.27,4.716-13.655t14.786-5.4L403.4,63.577V58.116q0-6.479-2.805-9.273a10.36,10.36,0,0,0-7.648-2.794,184.3,184.3,0,0,0-21.16,1.27l-3.952.381-.382-7.24a128.972,128.972,0,0,1,24.857-2.8q10.833,0,15.743,4.954T412.955,58.116ZM373.694,84.028q0,11.686,9.687,11.685a51.707,51.707,0,0,0,17.082-2.921l2.932-1.016V70.818L384.529,72.6q-5.736.508-8.286,3.3T373.694,84.028Z"/>
    <path class="cls-5" d="M464.835,47.192H444.566V77.55q0,10.925,1.594,14.353t7.584,3.429l11.346-.762.637,7.875a87.587,87.587,0,0,1-13,1.4q-9.944,0-13.767-4.827T435.134,80.6V47.192h-9.05V38.936h9.05V19.5h9.432V38.936h20.269Z"/>
    <path class="cls-5" d="M476.562,24.583V13.532h9.561V24.583Zm0,77.862V38.936h9.561v63.509Z"/>
    <path class="cls-5" d="M524.491,46.176q-13.9,0-13.895,9.653,0,4.449,3.187,6.287t14.532,3.811q11.344,1.971,16.061,5.526t4.717,13.336q0,9.784-6.31,14.354t-18.419,4.573a115.847,115.847,0,0,1-18.611-1.778l-3.825-.636.51-8.256a162.77,162.77,0,0,0,21.926,2.159q7.39,0,11.281-2.35t3.887-7.875q0-5.525-3.314-7.494t-14.532-3.747q-11.219-1.778-15.933-5.208t-4.717-12.7q0-9.27,6.565-13.718t16.38-4.446a134.614,134.614,0,0,1,19.5,1.779l3.569.635-.255,8.129A166.611,166.611,0,0,0,524.491,46.176Z"/>
    <path class="cls-5" d="M596.767,47.192H576.5V77.55q0,10.925,1.595,14.353t7.584,3.429l11.345-.762.637,7.875a87.59,87.59,0,0,1-13,1.4q-9.945,0-13.768-4.827T567.067,80.6V47.192h-9.051V38.936h9.051V19.5H576.5V38.936h20.269Z"/>
    <path class="cls-5" d="M608.5,24.583V13.532h9.56V24.583Zm0,77.862V38.936h9.56v63.509Z"/>
    <path class="cls-5" d="M645.97,102.445h-9.56v-91.2h9.56V65.1l9.943-.508,18.229-25.658h10.834L664.2,68.15l21.67,34.295H675.033L656.041,72.977l-10.071.381Z"/>
  </g>
</svg>
