<svg id="Layer_1" data-name="Layer 1" xmlns="http://www.w3.org/2000/svg" xmlns:xlink="http://www.w3.org/1999/xlink" viewBox="0 0 110.175 115.088">
  <defs>
    <style>
      .cls-1 {
        fill: none;
      }

      .cls-2 {
        clip-path: url(#clip-path);
      }

      .cls-3 {
        fill: #c3212a;
      }

      .cls-4 {
        clip-path: url(#clip-path-2);
      }

      .cls-5 {
        fill: #273c50;
      }
    </style>
    <clipPath id="clip-path">
      <path class="cls-1" d="M60.531,0c-.093,0-.167,0-.246,0l-.341.01L59.25.04c-.46.009-.92.026-1.379.039-.586,0-.285.005-.426.005l-.606.043c-.267.021-.543.034-.814.057-.539.043-1.082.084-1.618.123-.549.066-1.086.127-1.628.2s-1.086.125-1.625.2c-.538.1-1.08.193-1.621.283A60.463,60.463,0,0,0,15.286,19.881,59.606,59.606,0,0,0,2.525,42.313,58.078,58.078,0,0,0,.2,54.62c-.04.513-.075,1.025-.113,1.537-.023.524-.037,1.063-.053,1.592S.013,58.8,0,59.331c.018.465.031.928.045,1.393.017.5.03,1.009.044,1.514.038.5.073,1,.113,1.5s.071,1,.122,1.487.126.985.184,1.479A56.991,56.991,0,0,0,3.167,77.967,56,56,0,0,0,20.6,102.908a56.842,56.842,0,0,0,7.153,4.933,52.411,52.411,0,0,0,6.987,3.4A53.516,53.516,0,0,0,46.8,114.52a57.36,57.36,0,0,0,7.95.568l2.8-.077-2.79-.232-1.51-.2c-.276-.035-.564-.076-.866-.114s-.381-.062-.459-.078c-.155-.027-.316-.057-.476-.086-.326-.059-.658-.123-1.007-.185l-.53-.1c-.18-.031-.364-.066-.542-.109-.735-.175-1.511-.359-2.333-.551A51.664,51.664,0,0,1,23.5,99.715,51.172,51.172,0,0,1,17.96,93a49.918,49.918,0,0,1-4.516-8.028,49.129,49.129,0,0,1-3.04-9.114,48.6,48.6,0,0,1-1.19-9.853c-.009-.415-.013-.84-.017-1.256s.021-.843.035-1.264.031-.844.043-1.268c0,.127.048-.565.048-.565l.057-.694c.04-.465.075-.924.114-1.389.063-.4.114-.8.175-1.207s.109-.8.171-1.2c.077-.419.158-.836.24-1.255A46.589,46.589,0,0,1,25.043,29.638,45.657,45.657,0,0,1,42.4,20.1a44.72,44.72,0,0,1,9.412-1.623c.394-.023.783-.043,1.172-.07.39-.008.779-.008,1.168-.012s.775,0,1.164-.011q.576.022,1.156.05l.583.025.426.014c.387.045.846.079,1.3.118l.692.057.342.027c.647.087.975.144,1.313.192l.493.079.373.053c.5.1.869.173,1.232.248l.548.106c.179.035.362.065.542.113.359.088.715.179,1.068.267l.534.132c.174.042.349.083.529.144.346.105.692.209,1.037.315l.516.157c.345.1.425.14.512.166.341.123.674.246,1.011.369,1.129.411,2.226.869,3.289,1.363a50.142,50.142,0,0,1,8.1,4.954c.663.529,1.671,1.351,2.283,1.908a33.479,33.479,0,0,1,3.254,3.246L107.9,22.374c-5.019-5.985-8.056-8.606-11-10.693A64.16,64.16,0,0,0,86.737,5.794,62.625,62.625,0,0,0,75.113,1.756c-.507-.124-1.02-.242-1.532-.361-.125-.03-.257-.059-.389-.087l-.385-.074c-.257-.049-.52-.1-.777-.14C71.513,1,70.988.906,70.471.81c-.262-.052-.526-.084-.788-.118s-.525-.069-.787-.1c-.528-.071-1.059-.135-1.587-.2-.264-.036-.531-.055-.8-.075s-.53-.045-.8-.07C65.182.2,64.647.159,64.11.115L63.7.088,63.265.079c-.289-.013-.582-.023-.866-.03C61.817.034,61.239.018,60.662,0Z"/>
    </clipPath>
    <clipPath id="clip-path-2">
      <path class="cls-1" d="M50.108,57.141a11.619,11.619,0,0,0,14.3,18.317c5.052-3.95,45.767-47.968,45.767-47.968s-55.017,25.7-60.067,29.651"/>
    </clipPath>
  </defs>
  <title>bilstatistik-logo-emblem</title>
  <g>
    <g class="cls-2">
      <rect class="cls-3" x="-2.743" y="-2.746" width="113.391" height="120.584"/>
    </g>
    <g class="cls-4">
      <rect class="cls-5" x="40.4" y="34.168" width="78.673" height="39.837" transform="translate(-11.819 24.072) rotate(-15.999)"/>
    </g>
  </g>
</svg>
