<svg id="Layer_1" data-name="Layer 1" xmlns="http://www.w3.org/2000/svg" viewBox="0 0 256 256"><title>Artboard 100 copy 13</title><path d="M21.32,256H51.88a10,10,0,0,0,10-10V216.54h29.7a36.64,36.64,0,0,0,72.84,0h29.7V246a10,10,0,0,0,10,10h30.56a10,10,0,0,0,10-10v-67a10,10,0,0,0-10-10H204.12a10,10,0,0,0-10,10v29.49h-29.7A36.68,36.68,0,0,0,132,176.12V88.85h9.69a4,4,0,0,0,4-4v-16h11.37a4,4,0,0,0,4-4V47.52h33.06V77a10,10,0,0,0,10,10h30.56a10,10,0,0,0,10-10V10a10,10,0,0,0-10-10H204.12a10,10,0,0,0-10,10V39.52H161.06V22.25a4,4,0,0,0-4-4H98.94a4,4,0,0,0-4,4V39.52H61.88V10a10,10,0,0,0-10-10H21.32a10,10,0,0,0-10,10V77a10,10,0,0,0,10,10H51.88a10,10,0,0,0,10-10V47.52H94.94V64.8a4,4,0,0,0,4,4h11.37v16a4,4,0,0,0,4,4H124v87.27a36.68,36.68,0,0,0-32.42,32.42H61.88V179.05a10,10,0,0,0-10-10H21.32a10,10,0,0,0-10,10v67A10,10,0,0,0,21.32,256Zm180.8-77a2,2,0,0,1,2-2h30.56a2,2,0,0,1,2,2v67a2,2,0,0,1-2,2H204.12a2,2,0,0,1-2-2Zm0-169a2,2,0,0,1,2-2h30.56a2,2,0,0,1,2,2V77a2,2,0,0,1-2,2H204.12a2,2,0,0,1-2-2ZM53.88,77a2,2,0,0,1-2,2H21.32a2,2,0,0,1-2-2V10a2,2,0,0,1,2-2H51.88a2,2,0,0,1,2,2Zm49.06-50.77h50.12V60.8H102.94ZM118.31,68.8h19.38v12H118.31Zm9.37,115.1c.11,0,.21,0,.32,0s.21,0,.32,0a28.64,28.64,0,1,1-.64,0ZM19.32,179.05a2,2,0,0,1,2-2H51.88a2,2,0,0,1,2,2v67a2,2,0,0,1-2,2H21.32a2,2,0,0,1-2-2Z" style="fill:#273c50"/></svg>