<svg id="Layer_1" data-name="Layer 1" xmlns="http://www.w3.org/2000/svg" viewBox="0 0 256 256"><title>Artboard 100 copy 22</title><path d="M214.52,0h-104A29.23,29.23,0,0,0,89.34,9.15L13.49,89.88A49.83,49.83,0,0,0,.67,132l9.8,58.71C16.78,228.52,49.54,256,88.36,256H227a28.86,28.86,0,0,0,29-28.68V41C256,18.4,237.39,0,214.52,0ZM248,227.32A20.86,20.86,0,0,1,227,248H88.36c-34.89,0-64.34-24.67-70-58.66l-9.8-58.71A41.27,41.27,0,0,1,19.32,95.35L95.17,14.63A21.21,21.21,0,0,1,110.57,8h104C233,8,248,22.81,248,41Z" style="fill:#273c50"/><path d="M214.53,16h-104a12.87,12.87,0,0,0-9.32,4L25.39,100.78a33.83,33.83,0,0,0-6,9s0,0,0,.06-.1.28-.15.43-.08.22-.1.33,0,.23-.05.34a3.57,3.57,0,0,0,0,.46s0,0,0,.06a2.3,2.3,0,0,0,0,.26,3.41,3.41,0,0,0,0,.46c0,.13.06.25.09.37s.07.25.12.37a3.78,3.78,0,0,0,.17.35,3.65,3.65,0,0,0,.18.34,3.4,3.4,0,0,0,.23.3,3.76,3.76,0,0,0,.25.31,3.47,3.47,0,0,0,.29.25,3.47,3.47,0,0,0,.29.25,3.18,3.18,0,0,0,.4.23l.23.14.05,0a4.35,4.35,0,0,0,.61.2l.19.06a6.18,6.18,0,0,0,.62.07l.2,0H235.76a4,4,0,0,0,4-4V41A25.13,25.13,0,0,0,214.53,16ZM107.07,25.55a4.82,4.82,0,0,1,3.5-1.51h104a17.13,17.13,0,0,1,17.23,17v66.4H30.24c.32-.39.64-.78,1-1.15Z" style="fill:#273c50"/><path d="M223.27,186.64H52.2a4,4,0,1,0,0,8H223.27a4,4,0,0,0,0-8Z" style="fill:#273c50"/><path d="M228.27,130.17H197a4,4,0,0,0,0,8h31.23a4,4,0,0,0,0-8Z" style="fill:#273c50"/></svg>