<svg id="Layer_1" data-name="Layer 1" xmlns="http://www.w3.org/2000/svg" viewBox="0 0 256 256"><title>Artboard 100 copy 23</title><path d="M124.93,71.21h-9a4,4,0,0,0,0,8h9a4,4,0,0,0,0-8Z" style="fill:#273c50"/><path d="M251.21,136a19.64,19.64,0,0,0-16.55-6.42,29.37,29.37,0,0,0,5.88-9.09h6.53a8.94,8.94,0,0,0,8.93-8.93V83.45a4.06,4.06,0,0,0-.23-1.34c-7.41-20.86-52-26.62-72.45-28.17C163.41,35.62,135,26.59,103.26,28.51c-16.81,1-33.4,5.16-46.62,11.23a3,3,0,0,0-.41.19c-8.51,4-15.6,8.69-20.39,13.89H8.93A9,9,0,0,0,0,62.76V102a4,4,0,0,0,2.07,3.5l25.5,14h0a27.86,27.86,0,0,0,1.79,3.93H14a14,14,0,0,0-14,14v71.17a14,14,0,0,0,14,14H49.31a14,14,0,0,0,12.52-7.74h0l22.94,12.33a4,4,0,0,0,1.89.47h76a4,4,0,0,0,2.42-.82l83.51-63.58a18.86,18.86,0,0,0,7.38-13.16A18.43,18.43,0,0,0,251.21,136Zm-59.58-26.72a21.57,21.57,0,1,1,21.56,21.56A21.58,21.58,0,0,1,191.63,109.29Zm-87.89-72.8c15.55-.94,43.42.37,66.81,17.33H104.73l-2.15-16.26a3.85,3.85,0,0,0-.26-1ZM94.65,38.6l2,15.22H75.11l-9.77-9.08A134,134,0,0,1,94.7,37.38,4.14,4.14,0,0,0,94.65,38.6ZM8,99.67V79.21H21.66a4,4,0,0,0,0-8H8V62.76a.94.94,0,0,1,.93-.94H37.65a4,4,0,0,0,3.09-1.45c3.85-4.67,9.69-8.75,16.6-12.15L70.82,60.75a4,4,0,0,0,2.72,1.07H97.71l6.59,50a4.54,4.54,0,0,0,.15.66H84.67a31.08,31.08,0,0,0,.17-3.21,29.57,29.57,0,0,0-59.13,0v.13h0ZM61.13,130a14,14,0,0,0-11.82-6.53H39.09a21.55,21.55,0,1,1,22,6.53Zm-5.82,78.64a6,6,0,0,1-6,6H14a6,6,0,0,1-6-6V137.51a6,6,0,0,1,6-6H25.54v41.58a4,4,0,0,0,8,0V131.51H49.31a6,6,0,0,1,6,6v71.17ZM248,149.43a10.63,10.63,0,0,1-4.26,7.54l-82.43,62.77H87.67L63.31,206.66V146.09l46.5-5.16,43.83,28.46a9.77,9.77,0,0,1-9.54,17l-32.56-15.57a4,4,0,1,0-3.45,7.21l32.56,15.57A17.77,17.77,0,0,0,158,162.68l-45-29.24a4,4,0,0,0-2.62-.62l-47,5.22v-.31A29.6,29.6,0,0,0,82.62,120.5h51.77a4,4,0,0,0,0-8H112.08a3.86,3.86,0,0,0,.15-1.7l-6.45-49h75.69c27.36,1.94,60.87,9,66.53,22.37v27.38a.93.93,0,0,1-.93.93h-4.48a31.08,31.08,0,0,0,.17-3.21,29.57,29.57,0,0,0-59.13,0,31.08,31.08,0,0,0,.17,3.21H156a4,4,0,0,0,0,8h29.84a29.57,29.57,0,0,0,27.34,18.35,30,30,0,0,0,4.37-.32l-44.16,31.3a4,4,0,1,0,4.63,6.53l51-36.14.19-.14a11.87,11.87,0,0,1,16.05,1.27A10.5,10.5,0,0,1,248,149.43Z" style="fill:#273c50"/></svg>