<svg id="Layer_1" data-name="Layer 1" xmlns="http://www.w3.org/2000/svg" viewBox="0 0 256 256"><title>Artboard 100 copy 20</title><path d="M218.75,41.21A4,4,0,0,0,221.58,40L248,13.65v19.8a4,4,0,0,0,8,0V4h0V4a3.84,3.84,0,0,0-.08-.76c0-.11-.06-.21-.09-.32s-.08-.29-.14-.42-.12-.24-.18-.36a3.47,3.47,0,0,0-.18-.33,3.6,3.6,0,0,0-.43-.52l-.07-.09h0a4.16,4.16,0,0,0-.61-.5c-.09-.06-.2-.1-.29-.16s-.26-.15-.4-.21a2.59,2.59,0,0,0-.37-.11,2.72,2.72,0,0,0-.38-.11,4.17,4.17,0,0,0-.71-.08H222.55a4,4,0,0,0,0,8h19.78L215.92,34.37a4,4,0,0,0,2.83,6.84Z" style="fill:#273c50"/><path d="M128,211h0a4,4,0,0,0-4,4v27.31l-14-14a4,4,0,0,0-5.66,5.66l20.83,20.82a3.93,3.93,0,0,0,1.17.8l.11.06a4.44,4.44,0,0,0,.62.19l.13,0a4.23,4.23,0,0,0,.79.08,4.15,4.15,0,0,0,.79-.08,3.52,3.52,0,0,0,.43-.13c.1,0,.21,0,.31-.09a6.19,6.19,0,0,0,.57-.3.39.39,0,0,1,.11-.06,4.38,4.38,0,0,0,.66-.55L151.64,234a4,4,0,0,0-5.65-5.66l-14,14V215.05A4,4,0,0,0,128,211Z" style="fill:#273c50"/><path d="M228.36,151.65a4,4,0,0,0,5.65,0l20.82-20.82s0-.05.06-.07a4.51,4.51,0,0,0,.44-.54c.08-.12.13-.24.2-.36a3.41,3.41,0,0,0,.17-.33c.06-.15.1-.31.15-.48s.06-.17.08-.26a4.2,4.2,0,0,0,0-1.58c0-.09-.06-.18-.08-.26s-.09-.33-.15-.48a3.41,3.41,0,0,0-.17-.33c-.07-.12-.12-.25-.2-.36a3.84,3.84,0,0,0-.44-.54s0,0-.06-.07L234,104.35a4,4,0,0,0-5.65,5.66l14,14H158.76a30.9,30.9,0,0,0-6.19-14.91l53.72-53.77a4,4,0,1,0-5.66-5.65l-53.72,53.76A30.78,30.78,0,0,0,132,97.25V13.65l14,14A4,4,0,0,0,151.65,22L130.83,1.17a4.1,4.1,0,0,0-1.07-.74,1.55,1.55,0,0,0-.22-.12c-.15-.06-.32-.1-.48-.15l-.27-.08A4.15,4.15,0,0,0,128,0h0a2.3,2.3,0,0,0-.26,0,3,3,0,0,0-.52.05,4,4,0,0,0-2.07,1.12L104.35,22A4,4,0,1,0,110,27.65l14-14V97.25a30.78,30.78,0,0,0-14.89,6.19L13.66,8H33.45a4,4,0,0,0,0-8H4a4.15,4.15,0,0,0-.79.08,2.07,2.07,0,0,0-.33.1,2.8,2.8,0,0,0-.41.13A2.69,2.69,0,0,0,2.1.5L1.79.67A4,4,0,0,0,.68,1.78a3.07,3.07,0,0,0-.17.31,3.39,3.39,0,0,0-.2.38c0,.13-.08.27-.12.41a1.91,1.91,0,0,0-.1.34A3.39,3.39,0,0,0,0,4V33.45a4,4,0,0,0,8,0V13.66l95.43,95.43A30.9,30.9,0,0,0,97.25,124H13.66l14-14A4,4,0,0,0,22,104.35L1.17,125.17a4.92,4.92,0,0,0-.5.61,3,3,0,0,0-.16.31,3.41,3.41,0,0,0-.21.38c0,.13-.08.27-.12.41a1.91,1.91,0,0,0-.1.34,3.73,3.73,0,0,0,0,1.56,1.91,1.91,0,0,0,.1.34c0,.14.07.28.12.41s.14.26.21.38.1.21.16.31a4.92,4.92,0,0,0,.5.61L22,151.65A4,4,0,0,0,27.65,146l-14-14H97.25a30.9,30.9,0,0,0,6.19,14.91L8,242.34V222.55a4,4,0,0,0-8,0V252a3.44,3.44,0,0,0,.08.78,1.91,1.91,0,0,0,.1.34c0,.14.07.28.12.41s.13.26.2.38.1.21.17.31a4,4,0,0,0,1.11,1.11l.31.16a2.28,2.28,0,0,0,.38.2,3.1,3.1,0,0,0,.4.13c.12,0,.23.08.34.1A4.15,4.15,0,0,0,4,256H33.45a4,4,0,0,0,0-8H13.66l95.44-95.44A30.82,30.82,0,0,0,124,158.75l0,33.45a4,4,0,0,0,4,4h0a4,4,0,0,0,4-4l0-33.45a30.7,30.7,0,0,0,14.92-6.19L242.35,248h-19.8a4,4,0,0,0,0,8H252a4.13,4.13,0,0,0,.78-.08,1.66,1.66,0,0,0,.21-.06,4.84,4.84,0,0,0,.54-.17l.18-.09a5.21,5.21,0,0,0,.52-.28l0,0a3.65,3.65,0,0,0,.57-.47,4.08,4.08,0,0,0,.86-1.27h0a4.13,4.13,0,0,0,.31-1.62V222.55a4,4,0,0,0-8,0v19.79l-95.43-95.43A30.9,30.9,0,0,0,158.76,132h83.59l-14,14A4,4,0,0,0,228.36,151.65ZM128,151H128a23,23,0,0,1-23-23V128a23,23,0,0,1,23-23H128a23,23,0,0,1,23,23V128A23,23,0,0,1,128,151Z" style="fill:#273c50"/></svg>