<svg id="Layer_1" data-name="Layer 1" xmlns="http://www.w3.org/2000/svg" viewBox="0 0 256 256"><title>Artboard 100 copy 21</title><path d="M0,149.23A22.5,22.5,0,0,0,33.21,169l33.44-9.63a22.47,22.47,0,0,0,11.9,30L34.82,211.94A22.51,22.51,0,0,0,41.31,256h0a21.45,21.45,0,0,0,3.23-.24L199,244l2.46,6.36a6.06,6.06,0,0,0,4.44,3.75l8.76,1.8a6.41,6.41,0,0,0,1.23.12,6,6,0,0,0,4.22-1.71l7.42-7.2.52-.17,10.27,1.32a6,6,0,0,0,5.31-2l6-6.71a6.1,6.1,0,0,0,1.34-5.52l-2.55-10,.12-.54,6.28-8.24a6.07,6.07,0,0,0,.93-5.58l-2.82-8.5a6,6,0,0,0-4.15-3.94l-6.06-1.66-10.27-43.8a6.72,6.72,0,0,0,3.92-2.52l7.75-10.82a6.68,6.68,0,0,0,.43-6.87l-7.87-14.46.83-2.58,14.86-7.07a6.69,6.69,0,0,0,3.69-5.85V87.44a6.69,6.69,0,0,0-3.7-5.86l-14.85-7.07-.83-2.57,7.86-14.44a6.67,6.67,0,0,0-.45-6.9l-8.29-11.43a6.69,6.69,0,0,0-6.43-2.56l-16.18,3L211,38l-2.13-16.31a6.72,6.72,0,0,0-4.42-5.32L191,12a6.7,6.7,0,0,0-6.72,1.7l-11.32,12h-2.69L158.93,13.73A6.69,6.69,0,0,0,152.22,12L138.79,16.4a6.66,6.66,0,0,0-4.43,5.33l-.56,4.33L76.5,21.72l-.59-10.17a6.44,6.44,0,0,0-3.22-5.23L63.35.91A6.48,6.48,0,0,0,57.3.67L45.88,6.15h-1L33.46.65a6.42,6.42,0,0,0-6.05.22L18.06,6.25a6.43,6.43,0,0,0-3.23,5.14L13.89,24l-.51.89L2.87,32A6.48,6.48,0,0,0,0,37.35V48.14A6.46,6.46,0,0,0,2.83,53.5L12.31,60,.77,143.41A22.39,22.39,0,0,0,0,149.23Zm8,0a14.51,14.51,0,1,1,14.51,14.51A14.53,14.53,0,0,1,8,149.23Zm64.68,19.35a14.51,14.51,0,1,1,14.51,14.51A14.53,14.53,0,0,1,72.68,168.58ZM26.8,233.49a14.51,14.51,0,1,1,16.64,14.34l-2.22.16A14.51,14.51,0,0,1,26.8,233.49Zm221-22.32-5.93,7.77a6.06,6.06,0,0,0-1.12,2.46l-.29,1.41a6.2,6.2,0,0,0,.06,2.71l2.4,9.48-4.59,5.18-9.71-1.26a6.22,6.22,0,0,0-2.67.26l-1.37.46a6,6,0,0,0-2.31,1.4l-7,6.79-6.73-1.38-3.15-8.13c0-.12-.1-.23-.15-.35l0-.06a6,6,0,0,0-1.26-1.77l-1.75-1.7a6.1,6.1,0,0,0-2.56-1.47l-9.36-2.66-2.18-6.56,6-7.79a6,6,0,0,0,1.12-2.46l.3-1.41a6,6,0,0,0-.07-2.71L193,199.9l4.59-5.17,9.7,1.25a6,6,0,0,0,2.7-.26l1.36-.46a6.18,6.18,0,0,0,2.3-1.39l7-6.82,6.76,1.39,3.55,8.88a6.09,6.09,0,0,0,1.29,2l1.08,1.1a6.13,6.13,0,0,0,2.73,1.61l9.51,2.6Zm-94-191.24,11.11,11.72a6.78,6.78,0,0,0,4.71,2h4a6.8,6.8,0,0,0,4.71-2l11.1-11.72L201,23.72l2.1,16a6.8,6.8,0,0,0,2.61,4.4L209,46.47a6.77,6.77,0,0,0,5,1.13l15.88-3L237,54.52l-7.72,14.17a6.72,6.72,0,0,0-.47,5.09L230,77.6a6.8,6.8,0,0,0,3.38,3.86L248,88.39v12.2l-14.57,6.93a6.78,6.78,0,0,0-3.39,3.86l-1.23,3.82a6.8,6.8,0,0,0,.47,5.1L237,134.5l-6.65,9.28-2.4-.35h0l-14.08-2.08a6.85,6.85,0,0,0-4.77,1.16l-3.27,2.39a6.77,6.77,0,0,0-2.62,4.4l-2.1,16-11.61,3.78-11.11-11.72a6.81,6.81,0,0,0-4.7-2h-4a6.76,6.76,0,0,0-4.7,2L153.8,169.06l-11.62-3.78-2.09-16a6.77,6.77,0,0,0-2.62-4.4l-3.23-2.35a6.8,6.8,0,0,0-5-1.12l-15.87,2.95-7.18-9.88,7.7-14.18a6.8,6.8,0,0,0,.48-5.1l-1.24-3.81a6.77,6.77,0,0,0-3.38-3.86l-14.57-6.94V88.43l14.58-7a6.8,6.8,0,0,0,3.38-3.86l1.23-3.82a6.82,6.82,0,0,0-.47-5.09L106.2,54.52l7.18-9.87,15.87,3a6.75,6.75,0,0,0,5-1.12l3.24-2.35a6.81,6.81,0,0,0,2.62-4.42l2.07-16ZM132.25,38l-2.18,1.58-16.17-3a6.7,6.7,0,0,0-6.43,2.56L99.16,50.6a6.67,6.67,0,0,0-.45,6.9L106.57,72l-.83,2.58L90.88,81.62a6.69,6.69,0,0,0-3.69,5.85v14.07a6.67,6.67,0,0,0,3.7,5.85l14.84,7.07.84,2.58-7.86,14.45h0a6.67,6.67,0,0,0,.45,6.9l8.31,11.43a6.69,6.69,0,0,0,6.43,2.56l16.17-3,2.17,1.58,2.14,16.31a6.67,6.67,0,0,0,4.42,5.32L152.24,177a6.7,6.7,0,0,0,6.7-1.7l11.36-11.94H173l11.32,11.94a6.71,6.71,0,0,0,4.8,2A6.15,6.15,0,0,0,191,177l13.44-4.37a6.68,6.68,0,0,0,4.42-5.32L211,151l2.25-1.63L224,150.93l7.08,30.19a6.44,6.44,0,0,0-1-.3L221.28,179a6,6,0,0,0-5.43,1.59l-7.45,7.21-.53.18-10.27-1.33a6.08,6.08,0,0,0-5.31,2l-6,6.71a6.1,6.1,0,0,0-1.34,5.52l2.55,10-.11.53-6.33,8.24a6.05,6.05,0,0,0-.94,5.6l2.83,8.52h0a6.09,6.09,0,0,0,2.47,3.17L59.6,246.59a22.47,22.47,0,0,0-9.21-33.68l47.06-24.3.07,0A22.5,22.5,0,0,0,80.66,147h0l-37.3,10.74a22.49,22.49,0,0,0-32.63-27.7l7-51a2.2,2.2,0,0,0,.25.17l9.32,5.39a6.48,6.48,0,0,0,6.05.23l11.38-5.47h1L57.16,85a6.44,6.44,0,0,0,6.05-.22l9.36-5.39a6.47,6.47,0,0,0,3.22-5.14l.94-12.61.52-.9,10.46-7.11a6.46,6.46,0,0,0,2.83-5.35l0-10.78a6.44,6.44,0,0,0-2.88-5.39L85.2,30.4,132.77,34ZM8,38.17l10.13-6.84a6.51,6.51,0,0,0,2-2.13L21,27.71a6.55,6.55,0,0,0,.86-2.77l.89-12.16,8-4.58,11,5.31a6.57,6.57,0,0,0,2.82.64h1.73a6.48,6.48,0,0,0,2.8-.64L60,8.23,68,12.83l.69,11.92a6.49,6.49,0,0,0,.64,2.45l.81,1.66a6.42,6.42,0,0,0,2.23,2.56l10.22,6.83v9.17L72.46,54.27a6.59,6.59,0,0,0-2,2.11l-.87,1.5a6.49,6.49,0,0,0-.85,2.77l-.9,12.16-8,4.59-11-5.31a6.65,6.65,0,0,0-2.81-.65H44.4a6.54,6.54,0,0,0-2.82.64l-11,5.27-7.91-4.57L22.2,61.84a6.66,6.66,0,0,0-.73-2.69l-1.35-2.6A6.53,6.53,0,0,0,18,54.19L8,47.35Z" style="fill:#273c50"/><path d="M217.93,196.39a21.05,21.05,0,1,0,21,21.05A21.08,21.08,0,0,0,217.93,196.39Zm0,34.1a13.05,13.05,0,1,1,13-13.05A13.07,13.07,0,0,1,217.93,230.49Z" style="fill:#273c50"/><path d="M139.53,75.05A37.51,37.51,0,1,0,171.6,57a4,4,0,0,0,0,8,29.48,29.48,0,1,1-25.24,14.2,4,4,0,1,0-6.83-4.15Z" style="fill:#273c50"/><path d="M41.71,67a24.17,24.17,0,0,0,3.58.27A24.64,24.64,0,1,0,41.71,67ZM28.94,40.38a16.51,16.51,0,0,1,29.59-7.44,16.51,16.51,0,1,1-29.59,7.44Z" style="fill:#273c50"/></svg>