<svg id="Layer_1" data-name="Layer 1" xmlns="http://www.w3.org/2000/svg" viewBox="0 0 256 256"><title>Artboard 100 copy 19</title><path d="M251.87,110.2,227.79,98.74,225.93,93l12.75-23.4a7.61,7.61,0,0,0-.5-7.72L225,43.65a7.58,7.58,0,0,0-7.18-2.86l-26.23,4.88-4.87-3.54L183.2,15.68a7.56,7.56,0,0,0-4.93-5.93l-21.41-7a7.59,7.59,0,0,0-7.5,1.9L131,24h-6L106.64,4.66a7.57,7.57,0,0,0-7.49-1.9l-21.43,7a7.58,7.58,0,0,0-4.94,6L69.35,42.13l-4.87,3.54L38.25,40.8a7.56,7.56,0,0,0-7.17,2.85L17.83,61.87a7.55,7.55,0,0,0-.51,7.71L30.06,93l-1.85,5.75L4.12,110.26A7.56,7.56,0,0,0,0,116.79v22.44a7.55,7.55,0,0,0,4.12,6.53L28.2,157.23,30.06,163,17.32,186.42a7.59,7.59,0,0,0,.5,7.71l13.26,18.23a7.59,7.59,0,0,0,7.17,2.86l26.23-4.88,4.86,3.53,3.46,26.45a7.55,7.55,0,0,0,4.94,5.94l21.43,7a7.55,7.55,0,0,0,7.48-1.89L125.07,232h6l18.35,19.35a7.56,7.56,0,0,0,5.4,2.22,6.62,6.62,0,0,0,2.09-.32l21.44-7a7.56,7.56,0,0,0,4.93-5.94l3.47-26.44,4.94-3.59,27.18,4a7.52,7.52,0,0,0,6.94-2.94l12.38-17.27a7.61,7.61,0,0,0,.48-7.68L225.93,163l1.86-5.75,24.08-11.46a7.58,7.58,0,0,0,4.13-6.54V116.73A7.58,7.58,0,0,0,251.87,110.2ZM248,138.76l-23.95,11.4a7.67,7.67,0,0,0-3.77,4.3l-2.07,6.38a7.72,7.72,0,0,0,.53,5.68l12.69,23.32L219.6,206.35l-27-4a7.72,7.72,0,0,0-5.32,1.31l-5.45,4a7.67,7.67,0,0,0-2.92,4.9l-3.45,26.29-20.52,6.68-18.25-19.25a7.68,7.68,0,0,0-5.25-2.25h-6.67a7.67,7.67,0,0,0-5.24,2.25l-18.31,19.24L80.67,238.8l-3.44-26.29a7.62,7.62,0,0,0-2.93-4.92l-5.39-3.92a7.7,7.7,0,0,0-5.57-1.25l-26.08,4.84L24.58,189.81l12.67-23.3a7.67,7.67,0,0,0,.52-5.68l-2.06-6.38a7.67,7.67,0,0,0-3.77-4.3L8,138.75V117.27l24-11.42a7.66,7.66,0,0,0,3.77-4.31l2.06-6.37a7.72,7.72,0,0,0-.53-5.68L24.58,66.19,37.26,48.75l26.08,4.84a7.68,7.68,0,0,0,5.57-1.25l5.4-3.93a7.66,7.66,0,0,0,2.93-4.92l3.41-26.31,20.51-6.67,18.25,19.27A7.69,7.69,0,0,0,124.67,32h6.66a7.69,7.69,0,0,0,5.26-2.26l18.24-19.26,20.5,6.69,3.45,26.28a7.67,7.67,0,0,0,2.92,4.92l5.39,3.92a7.65,7.65,0,0,0,5.59,1.26l26.08-4.85,12.66,17.44L218.75,89.45a7.7,7.7,0,0,0-.54,5.69l2.07,6.37a7.66,7.66,0,0,0,3.77,4.31L248,117.22Z" style="fill:#273c50"/><path d="M101.74,132h22.43v22.42a4,4,0,0,0,8,0V132h22.42a4,4,0,1,0,0-8H132.17V101.57a4,4,0,0,0-8,0V124H101.74a4,4,0,0,0,0,8Z" style="fill:#273c50"/><path d="M128,65.72a4,4,0,0,0,0,8,54.29,54.29,0,1,1-38.38,15.9A4,4,0,0,0,84,84a62.29,62.29,0,1,0,44-18.24Z" style="fill:#273c50"/></svg>