<svg id="Layer_1" data-name="Layer 1" xmlns="http://www.w3.org/2000/svg" viewBox="0 0 256 256"><title>Artboard 100 copy 12</title><path d="M165.08,81.61V34.73A9.12,9.12,0,0,0,156,25.61H116a4,4,0,0,0,0,8h40a1.11,1.11,0,0,1,1.11,1.12V81.61A1.1,1.1,0,0,1,156,82.72H84.13A1.11,1.11,0,0,1,83,81.61V34.73a1.12,1.12,0,0,1,1.11-1.12H94.39a4,4,0,0,0,0-8H84.13A9.13,9.13,0,0,0,75,34.73V81.61a9.12,9.12,0,0,0,9.11,9.11H156A9.11,9.11,0,0,0,165.08,81.61Z" style="fill:#273c50"/><path d="M28.22,256H211.88a9.12,9.12,0,0,0,9.11-9.11V231.27a19.36,19.36,0,0,0-19.34-19.34H199V169h.46a6.18,6.18,0,0,1,6.18,6.18v11.95a14.19,14.19,0,0,0,14.17,14.18h2.89a14.19,14.19,0,0,0,14.18-14.18V38.11a4,4,0,0,0-1.17-2.83l-21.1-21.09A4,4,0,0,0,209,19.84l18,18L211.45,53.35a14.08,14.08,0,0,0-4.15,10V80.91a14.19,14.19,0,0,0,14.18,14.18h7.41v92.08a6.18,6.18,0,0,1-6.18,6.18h-2.89a6.18,6.18,0,0,1-6.17-6.18V175.22A14.19,14.19,0,0,0,199.47,161H199V9.11A9.13,9.13,0,0,0,189.89,0H50.21A9.12,9.12,0,0,0,41.1,9.11V211.93H38.45a19.37,19.37,0,0,0-19.34,19.34v15.62A9.12,9.12,0,0,0,28.22,256ZM221.48,87.09a6.19,6.19,0,0,1-6.18-6.18V63.38A6.13,6.13,0,0,1,217.11,59l11.78-11.78V87.09ZM27.11,231.27a11.36,11.36,0,0,1,11.34-11.34h44.8a4,4,0,0,0,0-8H49.1V9.11A1.11,1.11,0,0,1,50.21,8H189.89A1.12,1.12,0,0,1,191,9.11V211.93H104.87a4,4,0,0,0,0,8h96.78A11.36,11.36,0,0,1,213,231.27v15.62a1.11,1.11,0,0,1-1.11,1.11H28.22a1.11,1.11,0,0,1-1.11-1.11Z" style="fill:#273c50"/></svg>