<svg id="Layer_1" data-name="Layer 1" xmlns="http://www.w3.org/2000/svg" viewBox="0 0 256 256"><title>Artboard 100 copy 18</title><path d="M84,185.13a4,4,0,0,0-4-4H31.79a4,4,0,1,0,0,8H80A4,4,0,0,0,84,185.13Z" style="fill:#273c50"/><path d="M37.6,38.93H57.22a4,4,0,0,0,0-8H37.6a9.83,9.83,0,0,0-9.81,9.82V60.89A9.82,9.82,0,0,0,37.6,70.7H154.45a9.82,9.82,0,0,0,9.81-9.81V40.75a9.83,9.83,0,0,0-9.81-9.82H78.51a4,4,0,0,0,0,8h75.94a1.82,1.82,0,0,1,1.81,1.82V60.89a1.81,1.81,0,0,1-1.81,1.81H37.6a1.81,1.81,0,0,1-1.81-1.81V40.75A1.82,1.82,0,0,1,37.6,38.93Z" style="fill:#273c50"/><path d="M176.85,115.69A61.16,61.16,0,1,0,238,176.85,61.23,61.23,0,0,0,176.85,115.69Zm0,114.32A53.16,53.16,0,1,1,230,176.85,53.22,53.22,0,0,1,176.85,230Z" style="fill:#273c50"/><path d="M200.5,172.85H184.13a8.39,8.39,0,0,0-3.28-3.3V141a4,4,0,0,0-8,0v28.54a8.34,8.34,0,1,0,11.28,11.34H200.5a4,4,0,0,0,0-8Z" style="fill:#273c50"/><path d="M192.05,99.18V9.81A9.83,9.83,0,0,0,182.23,0H9.81A9.82,9.82,0,0,0,0,9.81V216.29a9.82,9.82,0,0,0,9.81,9.81H41.62a4,4,0,0,0,0-8H9.81A1.81,1.81,0,0,1,8,216.29V9.81A1.81,1.81,0,0,1,9.81,8H182.23a1.82,1.82,0,0,1,1.82,1.81V98c-2.39-.22-4.8-.34-7.24-.34a79.9,79.9,0,0,0-12.55,1V89.57a9.82,9.82,0,0,0-9.81-9.81H37.61a9.83,9.83,0,0,0-9.82,9.81v20.14a9.83,9.83,0,0,0,9.82,9.81h84.71a78.36,78.36,0,0,0-8.19,9.08H37.61a9.83,9.83,0,0,0-9.82,9.81v20.14a9.83,9.83,0,0,0,9.82,9.81H98.12a78.91,78.91,0,0,0,11.17,49.74H62.91a4,4,0,0,0,0,8h52A79.13,79.13,0,1,0,192.05,99.18ZM37.61,111.52a1.82,1.82,0,0,1-1.82-1.81V89.57a1.82,1.82,0,0,1,1.82-1.81H154.45a1.81,1.81,0,0,1,1.81,1.81v10.85a78.69,78.69,0,0,0-24.08,11.1Zm0,48.84a1.82,1.82,0,0,1-1.82-1.81V138.41a1.82,1.82,0,0,1,1.82-1.81H108.7a78.58,78.58,0,0,0-9.3,23.76ZM176.81,248A71.15,71.15,0,1,1,248,176.85,71.23,71.23,0,0,1,176.81,248Z" style="fill:#273c50"/></svg>