<svg id="Layer_1" data-name="Layer 1" xmlns="http://www.w3.org/2000/svg" viewBox="0 0 256 256"><title>Artboard 100 copy 15</title><path d="M246.19,101.06H194.88V56.84s0,0,0,0a3.93,3.93,0,0,0-.29-1.47.61.61,0,0,1-.05-.12,5.86,5.86,0,0,0-.3-.55l-.06-.09a3.51,3.51,0,0,0-.46-.56L140.87,1.17a3.45,3.45,0,0,0-.56-.45.57.57,0,0,0-.13-.08,2.62,2.62,0,0,0-.49-.27l-.17-.08a5.24,5.24,0,0,0-.64-.2h0a3.38,3.38,0,0,0-.72-.07H9.81A9.82,9.82,0,0,0,0,9.81V219.64a9.83,9.83,0,0,0,9.81,9.82H42.15a4,4,0,1,0,0-8H9.81A1.82,1.82,0,0,1,8,219.64V9.81A1.81,1.81,0,0,1,9.81,8H134V51a9.82,9.82,0,0,0,9.81,9.81h43v40.22H133.81a9.82,9.82,0,0,0-9.81,9.81V221.46H63.77a4,4,0,0,0,0,8H124v16.73a9.82,9.82,0,0,0,9.81,9.81H246.19a9.82,9.82,0,0,0,9.81-9.81V110.87A9.82,9.82,0,0,0,246.19,101.06ZM143.85,52.84A1.81,1.81,0,0,1,142,51V13.66l39.19,39.18ZM248,246.19a1.81,1.81,0,0,1-1.81,1.81H133.81a1.81,1.81,0,0,1-1.81-1.81V110.87a1.81,1.81,0,0,1,1.81-1.81H246.19a1.81,1.81,0,0,1,1.81,1.81Z" style="fill:#273c50"/><path d="M151.5,174.28A14.47,14.47,0,1,0,166,188.75,14.48,14.48,0,0,0,151.5,174.28Zm0,20.94a6.47,6.47,0,1,1,6.47-6.47A6.47,6.47,0,0,1,151.5,195.22Z" style="fill:#273c50"/><path d="M190,174.28a14.47,14.47,0,1,0,14.47,14.47A14.48,14.48,0,0,0,190,174.28Zm0,20.94a6.47,6.47,0,1,1,6.47-6.47A6.47,6.47,0,0,1,190,195.22Z" style="fill:#273c50"/><path d="M151.5,208.41A14.47,14.47,0,1,0,166,222.88,14.48,14.48,0,0,0,151.5,208.41Zm0,20.94a6.47,6.47,0,1,1,6.47-6.47A6.47,6.47,0,0,1,151.5,229.35Z" style="fill:#273c50"/><path d="M190,208.41a14.47,14.47,0,1,0,14.47,14.47A14.48,14.48,0,0,0,190,208.41Zm0,20.94a6.47,6.47,0,1,1,6.47-6.47A6.47,6.47,0,0,1,190,229.35Z" style="fill:#273c50"/><path d="M230.73,174.53h-4.47A12.24,12.24,0,0,0,214,186.76v38.36a12.24,12.24,0,0,0,12.23,12.23h4.47A12.24,12.24,0,0,0,243,225.12V186.76A12.24,12.24,0,0,0,230.73,174.53ZM235,225.12a4.23,4.23,0,0,1-4.23,4.23h-4.47a4.24,4.24,0,0,1-4.23-4.23V186.76a4.24,4.24,0,0,1,4.23-4.23h4.47a4.23,4.23,0,0,1,4.23,4.23Z" style="fill:#273c50"/><path d="M41.2,19.34A19.58,19.58,0,1,0,60.77,38.92,19.6,19.6,0,0,0,41.2,19.34Zm0,31.16A11.58,11.58,0,1,1,52.77,38.92,11.59,11.59,0,0,1,41.2,50.5Z" style="fill:#273c50"/><path d="M71.22,88.52A19.58,19.58,0,1,0,90.8,69,19.6,19.6,0,0,0,71.22,88.52Zm31.16,0A11.58,11.58,0,1,1,90.8,77,11.59,11.59,0,0,1,102.38,88.52Z" style="fill:#273c50"/><path d="M96,28.1,30.38,93.69a4,4,0,0,0,0,5.65,4,4,0,0,0,5.65,0l65.59-65.58A4,4,0,0,0,96,28.1Z" style="fill:#273c50"/><path d="M25.62,132h80.76a4,4,0,0,0,0-8H25.62a4,4,0,0,0,0,8Z" style="fill:#273c50"/><path d="M106.38,149.44H73.94a4,4,0,0,0,0,8h32.44a4,4,0,0,0,0-8Z" style="fill:#273c50"/><path d="M25.62,157.44h26.7a4,4,0,0,0,0-8H25.62a4,4,0,0,0,0,8Z" style="fill:#273c50"/><path d="M25.62,182.87h80.76a4,4,0,0,0,0-8H25.62a4,4,0,0,0,0,8Z" style="fill:#273c50"/><path d="M233.88,114.31H146.12a9.09,9.09,0,0,0-9.08,9.08v31.24a9.09,9.09,0,0,0,9.08,9.09h21.1a4,4,0,0,0,0-8h-21.1a1.08,1.08,0,0,1-1.08-1.09V123.39a1.08,1.08,0,0,1,1.08-1.08h87.76a1.08,1.08,0,0,1,1.08,1.08v31.24a1.08,1.08,0,0,1-1.08,1.09H190a4,4,0,0,0,0,8h43.88a9.09,9.09,0,0,0,9.08-9.09V123.39A9.09,9.09,0,0,0,233.88,114.31Z" style="fill:#273c50"/></svg>