<svg id="Layer_1" data-name="Layer 1" xmlns="http://www.w3.org/2000/svg" viewBox="0 0 256 256"><title>Artboard 100 copy 17</title><path d="M249.17,15.92,193.43,71.66A3.91,3.91,0,0,0,192.09,73l-39,39a1.07,1.07,0,0,1-1.5,0l-3.8-3.8-3.8-3.8a1.06,1.06,0,0,1-.31-.75,1.07,1.07,0,0,1,.31-.75l39.09-39.08a3.85,3.85,0,0,0,1.28-1.29L240.08,6.83a4,4,0,0,0-5.66-5.66L179.63,56a26.79,26.79,0,0,0-5.86-.66H152V49.15h12.3a9,9,0,0,0,9-9V9a9,9,0,0,0-9-9H91.78a9,9,0,0,0-9,9V40.15a9,9,0,0,0,9,9H104V55.3H82.3A26.94,26.94,0,0,0,56.06,76.57L37.8,144.68a1.74,1.74,0,0,0,0,.22,26.53,26.53,0,0,0-.34,8.91l4.2,29.13a24,24,0,0,0-23,24V217L1.17,234.42a4,4,0,0,0,5.66,5.66l17.84-17.84a4,4,0,0,0,1.3-1.31L56.2,190.7a3.93,3.93,0,0,0,1.35-1.34l34.3-34.31a1.07,1.07,0,0,1,1.5,0l7.6,7.6a1.07,1.07,0,0,1,0,1.5L67.39,197.7A4.12,4.12,0,0,0,66.06,199L24.45,240.64c-.09.06-.19.1-.28.17a3.86,3.86,0,0,0-1,1.13l-7.24,7.23a4,4,0,0,0,5.66,5.66l5-5a24.1,24.1,0,0,0,16,6.14H213.44a23.91,23.91,0,0,0,24-24V206.9a24.14,24.14,0,0,0-20.34-23.71,23.37,23.37,0,0,0-2.62-.23l4.21-29.21a26.5,26.5,0,0,0-.35-8.85,1.42,1.42,0,0,0,0-.22L200,76.57l0-.14,54.85-54.85a4,4,0,0,0-5.66-5.66ZM151.5,123.24h0a1,1,0,0,1,0,1.41l-4,4a1,1,0,0,1-1.41,0L127.36,109.9a1,1,0,0,1,0-1.41l4-4a1,1,0,0,1,1.41,0l9.37,9.37,3.8,3.79h0ZM90.78,40.15V9a1,1,0,0,1,1-1h72.51a1,1,0,0,1,1,1V40.15a1,1,0,0,1-1,1H91.78A1,1,0,0,1,90.78,40.15Zm21.24,9h32V55.3H112ZM26.58,206.9a16,16,0,0,1,16-16h2.11L26.58,209ZM99,149.4l-5.57-5.58a.94.94,0,0,1-.3-.7,1,1,0,0,1,.3-.71l4-4a1,1,0,0,1,1.41,0l7.38,7.37,4,4h0l7.36,7.37a1,1,0,0,1,0,1.41l-4,4a1,1,0,0,1-.71.3.94.94,0,0,1-.7-.3L106.6,157Zm12.57-10a1,1,0,0,1,.29-.71l4-4a1,1,0,0,1,1.42,0l4,4h0a1,1,0,0,1,.29.71,1,1,0,0,1-.29.71l-4,4a1,1,0,0,1-1.42,0l-4-4A1,1,0,0,1,111.58,139.43ZM229.42,206.9V232a15.93,15.93,0,0,1-14.34,15.9c-.51.05-1.05.08-1.64.08H42.56a15.83,15.83,0,0,1-10.35-3.8l34.91-34.92a4,4,0,0,0,5.59.83c.21-.16,21.39-15.57,55.29-15.57,34.72,0,55,15.37,55.22,15.52a4,4,0,0,0,6.46-3.16,16,16,0,0,1,16-16h7.77a16.59,16.59,0,0,1,2.44.18A16.09,16.09,0,0,1,229.42,206.9Zm-18.9-60.25a18.72,18.72,0,0,1,.22,6l-4.35,30.25h-.72a24,24,0,0,0-23,17.24c-8.72-5-27.52-13.62-54.64-13.62a113.62,113.62,0,0,0-48.82,10.69L106.6,169.8a9.92,9.92,0,0,0,.75-.85,9,9,0,0,0,11.9-.73l4-4a9,9,0,0,0,0-12.73h0l-1.06-1.05a9.45,9.45,0,0,0,.75-.67l4-4a9,9,0,0,0,0-12.72l-4-4a9,9,0,0,0-12.73,0l-4,4a8,8,0,0,0-.67.75l-1-1.06a9,9,0,0,0-12.73,0l-4,4a9,9,0,0,0-.73,11.9,9.92,9.92,0,0,0-.85.75L52.57,183c-.74-.07-1.48-.11-2.24-.11h-.64l-4.35-30.19a18.75,18.75,0,0,1,.21-6.08L63.81,78.54l.06-.23a18.89,18.89,0,0,1,18.43-15h90l-33.95,34a8.71,8.71,0,0,0-.75.86,9,9,0,0,0-11.9.72l-4,4a9,9,0,0,0,0,12.73l18.74,18.74a9,9,0,0,0,12.73,0l4-4a9,9,0,0,0,.72-11.9,7.57,7.57,0,0,0,.86-.75L193.44,83Z" style="fill:#273c50"/></svg>