<svg id="Layer_1" data-name="Layer 1" xmlns="http://www.w3.org/2000/svg" viewBox="0 0 256 256"><title>Artboard 100 copy 16</title><path d="M187.19,130.59H68.81a9.09,9.09,0,0,0-9.08,9.09v63.1a9.09,9.09,0,0,0,9.08,9.09H89.16a4,4,0,0,0,0-8H68.81a1.08,1.08,0,0,1-1.08-1.09v-63.1a1.08,1.08,0,0,1,1.08-1.09H187.19a1.08,1.08,0,0,1,1.08,1.09v63.1a1.08,1.08,0,0,1-1.08,1.09H110.78a4,4,0,1,0,0,8h76.41a9.09,9.09,0,0,0,9.08-9.09v-63.1A9.09,9.09,0,0,0,187.19,130.59Z" style="fill:#273c50"/><path d="M218.59,93.94A9.83,9.83,0,0,0,209,86.46H154.27a47.23,47.23,0,1,0-52.54,0H47a9.83,9.83,0,0,0-9.55,7.48L.29,243.8A9.84,9.84,0,0,0,9.84,256H246.16a9.83,9.83,0,0,0,9.55-12.2ZM88.77,47.23A39.23,39.23,0,1,1,128,86.46,39.28,39.28,0,0,1,88.77,47.23ZM247.61,247.3a1.83,1.83,0,0,1-1.45.7H9.84a1.83,1.83,0,0,1-1.78-2.28L45.18,95.86A1.83,1.83,0,0,1,47,94.46H209a1.83,1.83,0,0,1,1.78,1.4l37.12,149.86A1.84,1.84,0,0,1,247.61,247.3Z" style="fill:#273c50"/></svg>