<svg id="Layer_1" data-name="Layer 1" xmlns="http://www.w3.org/2000/svg" viewBox="0 0 256 256"><title>Artboard 100 copy 14</title><path d="M128,147.5A19.5,19.5,0,1,0,108.5,128,19.53,19.53,0,0,0,128,147.5Zm0-31a11.53,11.53,0,0,1,9.44,4.93A11.4,11.4,0,0,1,139.5,128,11.5,11.5,0,1,1,128,116.5Z" style="fill:#273c50"/><path d="M70.12,186.65a82.28,82.28,0,0,0,115.76,0,4.58,4.58,0,0,0,.42-.35,3.29,3.29,0,0,0,.34-.42,82.27,82.27,0,0,0,0-115.76,3,3,0,0,0-.77-.77,82.28,82.28,0,0,0-115.76,0,3,3,0,0,0-.77.77,82.27,82.27,0,0,0,0,115.76,3.29,3.29,0,0,0,.34.42A4.58,4.58,0,0,0,70.12,186.65ZM53.66,132H87.07a41,41,0,0,0,9.17,22.1l-23.6,23.61A74.17,74.17,0,0,1,53.66,132Zm19-53.71,23.6,23.61A41,41,0,0,0,87.07,124H53.66A74.14,74.14,0,0,1,72.64,78.29ZM202.34,124H168.93a41,41,0,0,0-9.17-22.1l23.6-23.61A74.14,74.14,0,0,1,202.34,124Zm-19,53.71-23.6-23.61a41,41,0,0,0,9.17-22.1h33.41A74.17,74.17,0,0,1,183.36,177.71ZM94.87,128A33.16,33.16,0,0,1,128,94.87H128A33.16,33.16,0,0,1,161.13,128V128A33.16,33.16,0,0,1,128,161.13H128A33.16,33.16,0,0,1,94.87,128V128Zm7,31.8a41,41,0,0,0,22.1,9.17v33.41a74.22,74.22,0,0,1-45.71-19Zm30.1,9.17a41,41,0,0,0,22.1-9.17l23.61,23.6a74.22,74.22,0,0,1-45.71,19Zm22.1-72.69A41,41,0,0,0,132,87.07V53.66a74.17,74.17,0,0,1,45.71,19ZM124,87.07a41,41,0,0,0-22.1,9.17L78.29,72.64a74.17,74.17,0,0,1,45.71-19Z" style="fill:#273c50"/><path d="M128,223.81a4,4,0,0,0,0,8A103.93,103.93,0,0,0,231.81,128a4,4,0,0,0-8,0A95.92,95.92,0,0,1,128,223.81Z" style="fill:#273c50"/><path d="M90.84,39.34a4,4,0,0,0,1.49-.29A95.35,95.35,0,0,1,128,32.19a4,4,0,1,0,0-8,103.42,103.42,0,0,0-38.66,7.44,4,4,0,0,0,1.5,7.71Z" style="fill:#273c50"/><path d="M74.57,48.46a4,4,0,1,0-4.47-6.63A103.76,103.76,0,0,0,24.19,128a4,4,0,0,0,8,0A95.79,95.79,0,0,1,74.57,48.46Z" style="fill:#273c50"/><path d="M128,0A128,128,0,1,0,256,128,128.14,128.14,0,0,0,128,0Zm0,248A120,120,0,1,1,248,128,120.13,120.13,0,0,1,128,248Z" style="fill:#273c50"/></svg>