<svg xmlns="http://www.w3.org/2000/svg" viewBox="0 0 110.175 115.088"><defs><clipPath id="A"><path d="M60.53 0h-.246l-.34.01-.694.03-1.38.04-.426.005-1.42.1-1.618.123-3.253.4-1.62.283a60.463 60.463 0 0 0-34.247 18.891A59.606 59.606 0 0 0 2.525 42.313 58.078 58.078 0 0 0 .2 54.62l-.113 1.537-.053 1.592L0 59.33l.045 1.393.044 1.514.113 1.5.122 1.487.184 1.48a56.991 56.991 0 0 0 2.659 11.263A56 56 0 0 0 20.6 102.908a56.842 56.842 0 0 0 7.153 4.933 52.411 52.411 0 0 0 6.987 3.4 53.516 53.516 0 0 0 12.06 3.279 57.36 57.36 0 0 0 7.95.568l2.8-.077-2.8-.232-2.376-.314-.46-.078-.476-.086-1.007-.185-.53-.1-.542-.11-2.333-.55A51.664 51.664 0 0 1 23.5 99.715 51.172 51.172 0 0 1 17.96 93a49.918 49.918 0 0 1-4.516-8.028 49.129 49.129 0 0 1-3.04-9.114 48.6 48.6 0 0 1-1.19-9.853l-.017-1.256.035-1.264.043-1.268c0 .127.048-.565.048-.565l.17-2.083.175-1.207.17-1.2.24-1.255a46.589 46.589 0 0 1 14.963-26.269A45.657 45.657 0 0 1 42.4 20.1a44.72 44.72 0 0 1 9.412-1.623l1.172-.07 2.332-.023q.576.022 1.156.05l.583.025.426.014 1.3.118.692.057.342.027 1.313.192.493.08.373.053 1.232.248.548.106.542.113 1.068.267.534.132.53.144L68 20.48l.512.166 1.01.37 3.29 1.363a50.142 50.142 0 0 1 8.1 4.954l2.283 1.908a33.479 33.479 0 0 1 3.254 3.246l21.45-10.113c-5.02-5.985-8.056-8.606-11-10.693a64.16 64.16 0 0 0-10.163-5.887 62.625 62.625 0 0 0-11.624-4.038l-1.532-.36a15.22 15.22 0 0 0-.389-.087l-.385-.074-.777-.14L70.47.8c-.262-.052-.526-.084-.788-.118l-.787-.1-1.587-.2c-.264-.036-.53-.055-.8-.075l-.8-.07-1.6-.132-.4-.027-.435-.01L62.4.05 60.662 0z" fill="none"/></clipPath><clipPath id="B"><path d="M50.108 57.14a11.619 11.619 0 0 0 14.3 18.317c5.052-3.95 45.767-47.968 45.767-47.968S55.158 53.2 50.108 57.14" fill="none"/></clipPath></defs><g clip-path="url(#A)"><path d="M-2.743-2.746h113.39v120.584H-2.743z" fill="#c3212a"/></g><g clip-path="url(#B)"><path d="M36.434 45.78l75.626-21.684 10.98 38.294-75.626 21.684z" fill="#273c50"/></g></svg>