<?xml version="1.0" encoding="utf-8"?>
<!-- Generator: Adobe Illustrator 23.1.0, SVG Export Plug-In . SVG Version: 6.00 Build 0)  -->
<svg version="1.1" id="Layer_1" xmlns="http://www.w3.org/2000/svg" xmlns:xlink="http://www.w3.org/1999/xlink" x="0px" y="0px"
	 viewBox="0 0 19 19" style="enable-background:new 0 0 19 19;" xml:space="preserve">
<style type="text/css">
	.st0{fill:#8E9298;}
	.st1{fill:none;}
</style>
<title>account-navbar</title>
<path class="st0" d="M18,19c-0.6,0-1-0.4-1-1v-1.8c-0.1-1.5-1.5-2.7-3-2.6H5c-1.5-0.1-2.9,1-3,2.6V18c0,0.6-0.4,1-1,1s-1-0.4-1-1
	v-1.8c0.1-2.6,2.4-4.7,5-4.6h9c2.6-0.1,4.9,1.9,5,4.6V18C19,18.6,18.6,19,18,19z"/>
<path class="st0" d="M9.5,10.1c-2.8,0-5-2.2-5-5s2.2-5,5-5s5,2.2,5,5S12.3,10.1,9.5,10.1z M9.5,2.1c-1.7,0-3,1.3-3,3s1.3,3,3,3
	s3-1.3,3-3S11.2,2,9.5,2.1C9.5,2,9.5,2,9.5,2.1L9.5,2.1z"/>
<rect x="-131.9" y="-23.1" class="st1" width="201" height="188"/>
</svg>
