<svg id="Layer_1" data-name="Layer 1" xmlns="http://www.w3.org/2000/svg" viewBox="0 0 19 19"><title>account-navbar</title><path d="M18,19a1,1,0,0,1-1-1V16.2a2.81,2.81,0,0,0-3-2.58H5A2.81,2.81,0,0,0,2,16.2V18a1,1,0,0,1-2,0V16.2a4.8,4.8,0,0,1,5-4.58h9a4.8,4.8,0,0,1,5,4.58V18A1,1,0,0,1,18,19Z" style="fill:#273c50"/><path d="M9.5,10.05a5,5,0,1,1,5-5A5,5,0,0,1,9.5,10.05Zm0-8a3,3,0,1,0,3,3A3,3,0,0,0,9.5,2Z" style="fill:#273c50"/><rect x="-131.91" y="-23.11" width="201" height="188" style="fill:none"/></svg>