<?xml version="1.0" encoding="utf-8"?>
<!-- Generator: Adobe Illustrator 23.1.0, SVG Export Plug-In . SVG Version: 6.00 Build 0)  -->
<svg version="1.1" id="Layer_1" xmlns="http://www.w3.org/2000/svg" xmlns:xlink="http://www.w3.org/1999/xlink" x="0px" y="0px"
	 viewBox="0 0 19 19" style="enable-background:new 0 0 19 19;" xml:space="preserve">
<style type="text/css">
	.st0{fill:none;}
	.st1{fill:#8E9298;}
</style>
<title>focus-list-navbar</title>
<rect x="-104.9" y="-23.1" class="st0" width="201" height="188"/>
<path class="st1" d="M14.8,18.6c-0.2,0-0.3,0-0.5-0.1L9.5,16l-4.8,2.5c-0.3,0.2-0.7,0.1-1-0.1s-0.5-0.6-0.4-1L4.2,12L0.3,8.3
	c-0.4-0.4-0.4-1,0-1.4c0.2-0.2,0.4-0.3,0.6-0.3l5.3-0.8L8.6,1c0.2-0.5,0.8-0.7,1.3-0.5c0.2,0.1,0.4,0.3,0.5,0.5l2.4,4.8l5.4,0.8
	c0.5,0.1,0.9,0.6,0.9,1.1c0,0.2-0.1,0.4-0.3,0.6l-3.9,3.8l0.9,5.3c0.1,0.4-0.1,0.8-0.4,1C15.2,18.6,15,18.6,14.8,18.6z M9.5,13.8
	c0.2,0,0.3,0,0.5,0.1l3.4,1.8l-0.7-3.9c-0.1-0.3,0.1-0.7,0.3-0.9l2.8-2.7L12,7.7c-0.3,0-0.6-0.3-0.8-0.6L9.5,3.7L7.8,7.2
	C7.6,7.5,7.3,7.7,7,7.7L3.1,8.3L6,11c0.2,0.2,0.3,0.6,0.3,0.9l-0.7,3.9L9,13.9C9.2,13.9,9.3,13.8,9.5,13.8z"/>
</svg>
