<svg id="Layer_1" data-name="Layer 1" xmlns="http://www.w3.org/2000/svg" viewBox="0 0 19 19"><title>focus-list-navbar</title><rect x="-104.88" y="-23.11" width="201" height="188" style="fill:none"/><path d="M14.75,18.58a.92.92,0,0,1-.46-.11L9.5,16,4.71,18.47a1,1,0,0,1-1-.08,1,1,0,0,1-.4-1l.92-5.34L.3,8.31A1,1,0,0,1,.86,6.6l5.35-.78L8.6,1a1,1,0,0,1,1.8,0l2.39,4.85,5.35.78a1,1,0,0,1,.56,1.71l-3.88,3.77.92,5.34a1,1,0,0,1-.4,1A1,1,0,0,1,14.75,18.58ZM9.5,13.82a1,1,0,0,1,.47.12l3.45,1.82-.66-3.86a1,1,0,0,1,.29-.88l2.8-2.73L12,7.73a1,1,0,0,1-.75-.55L9.5,3.68,7.77,7.18A1,1,0,0,1,7,7.73l-3.87.56L6,11a1,1,0,0,1,.29.88l-.66,3.86L9,13.94A1,1,0,0,1,9.5,13.82Z" style="fill:#273c50"/></svg>