<?xml version="1.0" encoding="utf-8"?>
<!-- Generator: Adobe Illustrator 23.1.0, SVG Export Plug-In . SVG Version: 6.00 Build 0)  -->
<svg version="1.1" id="Layer_1" xmlns="http://www.w3.org/2000/svg" xmlns:xlink="http://www.w3.org/1999/xlink" x="0px" y="0px"
	 viewBox="0 0 19 19" style="enable-background:new 0 0 19 19;" xml:space="preserve">
<style type="text/css">
	.st0{fill:none;}
	.st1{fill-rule:evenodd;clip-rule:evenodd;fill:#8E9298;}
</style>
<title>help-navbar</title>
<rect x="-77.2" y="-23.1" class="st0" width="201" height="188"/>
<path class="st1" d="M9,15c-1.1,0-2,0.9-2,2s0.9,2,2,2s2-0.9,2-2S10.1,15,9,15"/>
<path class="st1" d="M9.3,0C5.8,0,4.2,2.1,4.2,3.5C4.2,4.3,4.9,5,5.7,5c0,0,0,0,0.1,0c1.4,0,0.8-2,3.5-2c1.3,0,2.3,0.6,2.3,1.8
	c0,1.4-1.4,2.2-2.3,2.9c-1.2,1-1.8,2.4-1.7,3.9c0,1.3,0.4,1.7,1.4,1.7c1.3,0,1.5-0.6,1.5-1.1C10.3,11,10.9,9.7,12,9
	c0.7-0.5,2.9-2.3,2.9-4.7S12.6,0,9.3,0"/>
</svg>
