<svg id="Layer_1" data-name="Layer 1" xmlns="http://www.w3.org/2000/svg" viewBox="0 0 19 19"><title>help-navbar</title><rect x="-77.15" y="-23.11" width="201" height="188" style="fill:none"/><path d="M9,15a2,2,0,1,0,2,2,2,2,0,0,0-2-2" style="fill:#273c50;fill-rule:evenodd"/><path d="M9.29,0C5.81,0,4.22,2.06,4.22,3.45A1.47,1.47,0,0,0,5.76,4.92c1.39,0,.83-2,3.46-2,1.29,0,2.32.57,2.32,1.75,0,1.39-1.45,2.19-2.3,2.92a4.7,4.7,0,0,0-1.73,3.91c0,1.34.37,1.73,1.42,1.73,1.27,0,1.52-.57,1.52-1.06A3.24,3.24,0,0,1,11.9,9c.69-.54,2.88-2.29,2.88-4.72S12.59,0,9.29,0" style="fill:#273c50;fill-rule:evenodd"/></svg>