<svg id="Layer_1" data-name="Layer 1" xmlns="http://www.w3.org/2000/svg" viewBox="0 0 256 256"><title>eco</title><path d="M225.8,78.21V50.12c0-10.93-11.63-19.57-34.55-25.69-19.5-5.21-45.31-8.08-72.68-8.08s-53.18,2.87-72.68,8.08C23,30.55,11.33,39.19,11.33,50.12v52.54c0,10.21,10.16,18.42,30.2,24.45v.68C21.41,132.27,0,140.49,0,155.18v52.54c0,10.92,11.63,19.57,34.56,25.69,19.5,5.21,45.31,8.08,72.67,8.08s53.18-2.87,72.68-8.08c22.93-6.12,34.55-14.77,34.55-25.69V182.59c20.12-4.48,41.54-12.7,41.54-27.39V102.66C256,92.45,245.84,84.23,225.8,78.21ZM242,102.66c0,1.07-3.85,6.26-21.08,11.31a16.23,16.23,0,0,0,4.88-11.31V92.91C238.88,97.42,242,101.69,242,102.66ZM49.5,38c18.36-4.9,42.89-7.6,69.07-7.6s50.71,2.7,69.07,7.6c19.86,5.31,24.16,11,24.16,12.17S207.5,57,187.64,62.29c-18.36,4.9-42.89,7.6-69.07,7.6s-50.71-2.7-69.07-7.6C29.63,57,25.33,51.25,25.33,50.12S29.63,43.26,49.5,38ZM25.33,102.66V68.12l.28.15,1.53.79.39.19c.63.31,1.28.61,1.95.91l.45.2c.56.25,1.14.5,1.74.74l.49.21c.72.29,1.46.58,2.21.86l.41.15,2,.72.59.2c.81.28,1.63.55,2.48.82l.26.08c.77.24,1.56.48,2.36.71l.68.2c.9.26,1.8.51,2.74.76,19.5,5.21,45.31,8.08,72.68,8.08l2.87,0h.23c.16,0,.35,0,.57,0,8.13-.07,16.1-.4,23.79-1l.54,0c16.69-1.27,32-3.66,44.68-7,.93-.25,1.84-.5,2.73-.76l.69-.2,2.35-.71.27-.08c.85-.27,1.67-.54,2.48-.82l.58-.2,2-.72.38-.14c.77-.29,1.51-.58,2.23-.87l.47-.2c.6-.25,1.2-.5,1.78-.76l.41-.18c.68-.3,1.34-.61,2-.92l.36-.18c.53-.27,1.05-.53,1.55-.8l.28-.15v34.54c0,1.13-4.3,6.86-24.16,12.16-18.36,4.91-42.89,7.61-69.07,7.61s-50.71-2.7-69.07-7.61C29.63,109.52,25.33,103.79,25.33,102.66Zm16.2,39.5v13c0,6,3.55,10.93,9.23,15-4.45-.84-8.67-1.78-12.59-2.83C18.3,162,14,156.32,14,155.18,14,153.3,20.75,147.21,41.53,142.16ZM176.3,219.89c-18.36,4.9-42.89,7.6-69.07,7.6s-50.7-2.7-69.06-7.6C18.3,214.58,14,208.85,14,207.72V173.19l.31.16,1.47.75.43.22c.62.3,1.27.6,1.93.9l.49.22,1.68.72.54.22c.71.29,1.43.57,2.18.85l.45.17,1.95.7.62.21,2.46.81.29.09c.76.24,1.54.47,2.33.7l.7.21c.89.25,1.79.51,2.73.76,18.28,4.88,42.11,7.7,67.56,8,1.7,0,3.4,0,5.11,0,7,0,13.93-.19,20.61-.55,6.85.38,13.89.57,20.93.57a337.94,337.94,0,0,0,51.69-3.75v22.5C200.46,208.85,196.16,214.58,176.3,219.89ZM242,155.2c0,2.11-8.5,9.54-35.87,14.83H206c-16.69,3.22-36.49,4.92-57.27,4.92-6.91,0-13.81-.19-20.52-.57h-.14c-54.43-3.11-72.58-16-72.58-19.2V130.62c18,3.76,40,5.81,63,5.81q6.56,0,13-.23h.24l1.85-.07c4.94.2,10,.3,15.15.3,27.37,0,53.18-2.87,72.68-8.07l2.73-.76.7-.21c.79-.23,1.56-.46,2.32-.7l.3-.09,2.46-.81.61-.21c.67-.23,1.34-.47,2-.71l.42-.15,2.2-.87.5-.2,1.74-.74.45-.2c.67-.3,1.32-.61,1.95-.92l.39-.2c.52-.25,1-.51,1.51-.77l.29-.15Z" style="fill:#273c50"/></svg>