<svg id="Layer_1" data-name="Layer 1" xmlns="http://www.w3.org/2000/svg" viewBox="0 0 256 256"><title>equip_1</title><path d="M229,0H79.94a27,27,0,0,0-27,27V176.06a27,27,0,0,0,27,27H229a27,27,0,0,0,27-27V27A27,27,0,0,0,229,0Zm13,176.06a13,13,0,0,1-13,13H79.94a13,13,0,0,1-13-13V27a13,13,0,0,1,13-13H229a13,13,0,0,1,13,13Z" style="fill:#273c50"/><path d="M196.06,223.09a7,7,0,0,0-7,7A11.92,11.92,0,0,1,177.16,242H25.91A11.92,11.92,0,0,1,14,230.09V78.84a11.92,11.92,0,0,1,11.91-11.9,7,7,0,0,0,0-14A25.93,25.93,0,0,0,0,78.84V230.09A25.94,25.94,0,0,0,25.91,256H177.16a25.93,25.93,0,0,0,25.9-25.91A7,7,0,0,0,196.06,223.09Z" style="fill:#273c50"/><path d="M187.55,94.53H161.47V68.45a7,7,0,0,0-14,0V94.53H121.38a7,7,0,0,0,0,14h26.09v26.09a7,7,0,0,0,14,0V108.53h26.08a7,7,0,0,0,0-14Z" style="fill:#273c50"/></svg>