<svg id="Layer_1" data-name="Layer 1" xmlns="http://www.w3.org/2000/svg" viewBox="0 0 256 256"><title>history</title><path d="M245.39,77.15A128,128,0,0,0,77.11,10.57,127.13,127.13,0,0,0,22.57,55.34L10.39,48.7A7,7,0,0,0,.32,56.82L8.76,85.47a.14.14,0,0,1,0,.06,8.33,8.33,0,0,0,.37.94l.09.19a7.75,7.75,0,0,0,.5.84l.09.12a8.17,8.17,0,0,0,.6.72l.08.09a7.77,7.77,0,0,0,.75.65l.14.1a7.25,7.25,0,0,0,1.5.82c.09,0,.18.06.27.09l.2.07a5.62,5.62,0,0,0,1,.24h.09a6.35,6.35,0,0,0,1,.08h.13a6.58,6.58,0,0,0,.9-.06l.13,0c.28,0,.54-.11.81-.18l.1,0,28.65-8.44a7,7,0,0,0,1.37-12.86L35,62.1a114,114,0,1,1-11.6,111.19,7,7,0,0,0-12.85,5.56,127.74,127.74,0,0,0,168.28,66.58A128,128,0,0,0,245.39,77.15Z" style="fill:#273c50"/><path d="M177.24,166.8,135,124.51V47.58a7,7,0,1,0-14,0v79.8a5.85,5.85,0,0,0,0,.73.77.77,0,0,0,0,.15c0,.18,0,.35.08.53l.06.24c0,.14.07.28.11.42s.06.17.08.25l.15.4c0,.07.07.14.1.22a3.73,3.73,0,0,0,.2.4l.11.19a4.23,4.23,0,0,0,.24.4l.13.17c.09.13.18.25.28.37a1.54,1.54,0,0,0,.17.19c.09.11.18.22.28.32l44.34,44.34a7,7,0,1,0,9.9-9.9Z" style="fill:#273c50"/></svg>