<svg id="Layer_1" data-name="Layer 1" xmlns="http://www.w3.org/2000/svg" viewBox="0 0 256 256"><title>overview-grey</title><path d="M142.54,6.58A22.56,22.56,0,0,0,126.29,0a22.15,22.15,0,0,0-15.87,6.79L5.5,117.7a18.94,18.94,0,0,0-3.95,20.8c3.29,7.71,11.18,12.68,20.09,12.68H39.09v78.91A25.94,25.94,0,0,0,65,256h37.9a7,7,0,0,0,7-7V181.88h36.94V249a7,7,0,0,0,7,7h37.77a25.94,25.94,0,0,0,25.91-25.91V151.18h16.94a21.44,21.44,0,0,0,20-12.75,19,19,0,0,0-4-20.91Zm99,126.39c-.86,2-3.18,4.21-7.11,4.21H210.52a7,7,0,0,0-7,7v85.91A11.93,11.93,0,0,1,191.61,242H160.84V174.88a7,7,0,0,0-7-7H102.9a7,7,0,0,0-7,7V242H65a11.92,11.92,0,0,1-11.91-11.91V144.18a7,7,0,0,0-7-7H21.64c-4,0-6.35-2.16-7.22-4.18a4.91,4.91,0,0,1,1.23-5.66l105-110.95A8.11,8.11,0,0,1,126.44,14h.1a8.37,8.37,0,0,1,6,2.35L240.39,127.28A5,5,0,0,1,241.57,133Z" style="fill:#8e9298"/></svg>