<svg id="Layer_1" data-name="Layer 1" xmlns="http://www.w3.org/2000/svg" viewBox="0 0 256 256"><title>spec-grey</title><path d="M232.34,83.63a7,7,0,0,0-.36-1.84l0-.12A6.93,6.93,0,0,0,231,80a1.13,1.13,0,0,0-.1-.13,6.59,6.59,0,0,0-.65-.75l-77-77a7.23,7.23,0,0,0-.78-.67l-.1-.07a6.74,6.74,0,0,0-1.72-.91l-.07,0A7,7,0,0,0,148.72,0H49.54A25.94,25.94,0,0,0,23.63,25.91V230.09A25.94,25.94,0,0,0,49.54,256H206.46a25.94,25.94,0,0,0,25.91-25.91v-146a2.28,2.28,0,0,0,0-.26A1.21,1.21,0,0,0,232.34,83.63ZM155.29,23.9l53.18,53.18H167.19a11.92,11.92,0,0,1-11.9-11.9ZM206.46,242H49.54a11.92,11.92,0,0,1-11.91-11.91V25.91A11.92,11.92,0,0,1,49.54,14h91.75V65.18a25.93,25.93,0,0,0,25.9,25.9h51.18v139A11.92,11.92,0,0,1,206.46,242Z" style="fill:#8e9298"/><path d="M175.93,135.18H80.07a7,7,0,0,0,0,14h95.86a7,7,0,0,0,0-14Z" style="fill:#8e9298"/><path d="M175.93,182.45H80.07a7,7,0,0,0,0,14h95.86a7,7,0,0,0,0-14Z" style="fill:#8e9298"/></svg>