<?xml version="1.0" encoding="utf-8"?>
<!-- Generator: Adobe Illustrator 24.1.0, SVG Export Plug-In . SVG Version: 6.00 Build 0)  -->
<svg version="1.1" id="Réteg_1" xmlns="http://www.w3.org/2000/svg" xmlns:xlink="http://www.w3.org/1999/xlink" x="0px" y="0px"
	 viewBox="0 0 680.3 467.7" style="enable-background:new 0 0 680.3 467.7;" xml:space="preserve">
<style type="text/css">
	.st0{fill:#1D1D1B;}
	.st1{font-family:'MyriadPro-Regular';}
	.st2{font-size:12px;}
	.st3{fill:#FFFFFF;}
	.st4{fill:#E1221B;}
	.st5{fill:#BFBDBB;}
	.st6{fill:#A6A3A2;}
	.st7{enable-background:new    ;}
</style>
<text transform="matrix(1 0 0 1 272.39 154.43)" class="st0 st1 st2">C</text>
<g id="fehér_alap">
	<path class="st3" d="M33.4,0h613.4c18.5,0,33.4,15,33.4,33.4v400.8c0,18.5-15,33.4-33.4,33.4H33.4C15,467.7,0,452.7,0,434.3V33.4
		C0,15,15,0,33.4,0z"/>
</g>
<g id="vörös_keret">
	<path class="st4" d="M662.6,17.7c-5.9-5.9-13.9-9.2-22.2-9.2H39.9c-17.3,0-31.3,14-31.4,31.3c0,0,0,0,0,0.1v388
		c0,17.3,14,31.4,31.4,31.4h600.6c17.3,0,31.4-14,31.4-31.4v-388C671.8,31.5,668.5,23.6,662.6,17.7z M657.6,427.9
		c0,9.5-7.7,17.2-17.2,17.2c0,0,0,0,0,0H39.9c-9.5,0-17.2-7.7-17.2-17.2v-388c0-9.5,7.7-17.2,17.2-17.2h600.6
		c9.5,0,17.2,7.7,17.2,17.2l0,0L657.6,427.9z"/>
</g>
<path class="st5" d="M38,31.2h15.9l0,0v405.4l0,0H38.2c-3.9,0-7.1-3.2-7.1-7.1V38C31.2,34.2,34.2,31.2,38,31.2z"/>
<polygon class="st6" points="47.1,228.4 47.1,228.6 46.9,228.6 46.9,228.9 47.1,228.9 47.5,228.9 47.7,228.7 47.5,228.6 47.4,228.5 
	47.2,228.2 47.1,227.9 46.8,227.9 46.8,228 46.8,228.2 46.9,228.3 "/>
<polygon class="st6" points="46.8,228.5 46.9,228.3 46.7,228.3 46.5,228.3 46.3,228.6 46.3,228.8 46.5,228.8 "/>
<path class="st6" d="M41.9,229.4l-0.1,0.1h-0.2v0.1h0.1v0.1h0.2l0.1-0.1v-0.1h0.2v-0.1L41.9,229.4L41.9,229.4z"/>
<polygon class="st6" points="41.2,229.6 41.2,229.7 41.4,229.7 41.4,229.6 41.3,229.5 "/>
<path class="st6" d="M52.4,233.8c0-0.3,0-0.6,0-0.9c-0.1-0.9-0.3-1.8-0.7-2.7c0-0.1,0-0.1-0.1-0.2c-0.4-1.1-1.1-2-1.8-2.9l-0.2-0.2
	c-0.1-0.2-0.3-0.3-0.4-0.4c-3.7-3.5-9.5-3.5-13.3,0c-0.4,0.4-0.8,0.8-1.1,1.2c-3.3,4.3-2.6,10.5,1.7,13.8s10.5,2.6,13.8-1.7
	c0.4-0.5,0.7-1,1-1.6c0.4-0.7,0.6-1.4,0.8-2.2c0-0.2,0.1-0.4,0.1-0.6C52.4,235,52.5,234.4,52.4,233.8L52.4,233.8z M50.6,229.8
	L50.6,229.8l0.3,0.4h-0.1h-0.2V229.8z M49.2,228.1v-0.4c0.2,0.2,0.3,0.3,0.4,0.5l-0.2,0.3h-0.6v-0.1L49.2,228.1z M37.3,227h0.2v-0.1
	h0.3v0.1l-0.1,0.1h-0.4L37.3,227L37.3,227z M37.6,227.4h0.2v0.2h-0.4l-0.1-0.1L37.6,227.4z M51.2,231.3h-0.7l-0.4-0.3h-0.5v0.3h-0.2
	l-0.2-0.1l-0.8-0.2v-0.5l-1,0.1l-0.3,0.2h-0.4h-0.2l-0.5,0.3v0.5l-1,0.7l0.1,0.3h0.2l-0.1,0.3l-0.1,0v0.8l0.9,1h0.4v-0.1h0.7
	l0.2-0.2h0.4l0.2,0.2l0.6,0.1l-0.1,0.8l0.6,1.1l-0.3,0.6v0.3l0.3,0.3v0.7l0.3,0.5v0.6h0.3c-3.1,3.9-8.8,4.5-12.7,1.3
	c-2.1-1.7-3.4-4.3-3.3-7.1c0-1.2,0.2-2.4,0.7-3.5V230l0.3-0.4L35,229v0.2l-0.4,0.5c-0.1,0.2-0.2,0.4-0.3,0.7v0.5l0.4,0.2v0.7
	l0.4,0.6l0.3,0v-0.2l-0.3-0.5l-0.1-0.5h0.2l0.1,0.5l0.5,0.7l-0.1,0.2l0.3,0.5l0.8,0.2v-0.1l0.3,0v0.2h0.2l0.4,0.1l0.5,0.6l0.7,0
	l0.1,0.6l-0.5,0.3v0.5l-0.1,0.3l0.7,0.9v0.3l0.3,0.1l0.6,0.4v1.5l0.2,0l-0.1,0.7l0.3,0.4l-0.1,0.7l0.4,0.7l0.5,0.5h0.5V242l-0.4-0.3
	v-0.2l0.1-0.2v-0.2h-0.3l-0.1-0.2l0.2-0.2v-0.2l-0.2-0.1v-0.1l0.4-0.1l0.5-0.3l0.2-0.3l0.6-0.7l-0.1-0.6l0.2-0.3h0.5l0.3-0.3
	l0.1-1.1l0.4-0.5l0.1-0.3l-0.3-0.1l-0.2-0.4h-0.8l-0.6-0.2v-0.5l0-0.2h-0.6l-0.3-0.5l-0.3-0.1v0.2h-0.5l-0.2-0.3l-0.6-0.1l-0.5,0.5
	l-0.7-0.1v-0.8l-0.5-0.1l0.2-0.4l-0.1-0.2l-0.7,0.5l-0.4-0.1l-0.2-0.3l0.1-0.4l0.2-0.4l0.6-0.3h1.1v0.3L39,232v-0.6l0.3-0.3l0.6-0.4
	v-0.3l0.6-0.6l0.6-0.3l0,0l0.4-0.4h0.2l0.1,0.1l0.2-0.2l0,0h-0.2l-0.2-0.1v-0.2l0.1-0.1h0.2h0.1l0.1,0.2H42l0,0l0,0h0.3v-0.1h0.2
	v0.1l-0.2,0.1l0,0v0.2l0.5,0.2h0.1v-0.2l-0.4-0.2v-0.1l0.3-0.1v-0.3l-0.3-0.2v-0.5L42,228h-0.2v-0.4l-0.7-0.1l-0.3,0.2v0.6l-0.5,0.1
	l-0.2,0.4H40v-0.5l-0.4-0.1l-0.2-0.1l-0.1-0.3l0.8-0.5l0.4-0.1v0.3h0.2v-0.1h0.2l0,0h-0.1v-0.1h0.3l0.2-0.2l0,0l0.1,0l0.6-0.1
	l0.3,0.2l-0.7,0.4l0.9,0.2l0.1-0.3h0.4l0.1-0.3l-0.3-0.1v-0.5l-0.8-0.4l-0.6,0.1l-0.3,0.2v0.4l-0.3-0.1v-0.2l0.3-0.3h-0.6l-0.2,0
	l-0.1,0.2h0.2l-0.1,0.2h-0.4l-0.1,0.1h-0.6c0-0.1,0-0.2,0-0.3h0.4l0.3-0.3l-0.2-0.1l-0.2,0.2h-0.4L39,226h-0.5l-0.5,0.4h0.5v0.1
	l-0.1,0.1h0.5l0.1,0.2h-0.6v-0.1l-0.4-0.1l-0.2-0.1h-0.4c3.4-2.5,8.1-2.3,11.3,0.5l-0.1,0.2l-0.3,0.3l-0.2,0.2v0.2h0.2l0.1,0.3
	l0.4-0.1l0.1,0.4h-0.1h-0.3l-0.3,0l-0.3,0.5l-0.5,0.1l-0.1,0.4l0.2,0l-0.1,0.3l-0.5-0.1l-0.4,0.1l-0.1,0.2l0.1,0.5l0.2,0.1H47h0.3
	l0.1-0.2l0.4-0.6l0.3,0.1l0.3-0.3l0.1,0.2l0.7,0.5l-0.1,0.1h-0.3l0.1,0.2l0.2,0l0.2-0.1v-0.3l0.1,0l-0.1-0.1l-0.5-0.3l-0.1-0.4h0.4
	l0.1,0.1l0.3,0.3v0.4l0.3,0.4l0.1-0.5l0.2-0.1v0.4l0.2,0.3H51c0.1,0.2,0.2,0.5,0.2,0.7L51.2,231.3z M38.1,228.5l0.2-0.1l0.2,0
	l-0.1,0.3l-0.2,0.1L38.1,228.5z M39.4,229.2v0.2h-0.5l-0.2-0.1l0.1-0.1l0.3-0.1h0.3L39.4,229.2L39.4,229.2z M39.6,229.4v0.2
	l-0.1,0.1h-0.2v-0.3L39.6,229.4z M39.5,229.4v-0.2l0.2,0.2L39.5,229.4z M39.6,229.8v0.2l-0.1,0.1h-0.3v-0.2h0.1v-0.1L39.6,229.8z
	 M38.9,229.4h0.3l-0.4,0.5l-0.2-0.1v-0.2L38.9,229.4z M40.1,229.7v0.2h-0.3l-0.1-0.1v-0.2l0,0L40.1,229.7z M39.8,229.5L39.8,229.5
	h0.3l-0.1,0.1L39.8,229.5z M51.4,231.8L51.4,231.8c0,0,0,0.1,0,0.1V231.8z"/>
<path class="st6" d="M34.3,230.1v0.3c0.1-0.2,0.2-0.5,0.3-0.7L34.3,230.1z"/>
<path class="st6" d="M49.8,240.3c3.4-3.8,3.3-9.6-0.2-13.3l0,0c-1.8-1.9-4.2-3-6.8-3.1h-0.7c-2.6,0.1-5.1,1.2-6.8,3.1l0,0
	c-3.5,3.7-3.6,9.5-0.2,13.3l0,0l0,0c1.8,2,4.3,3.2,7,3.3h0.7C45.4,243.5,48,242.4,49.8,240.3L49.8,240.3L49.8,240.3z M33.3,234.1
	h4.1c0,1.4,0.3,2.8,0.8,4.2c-1,0.4-1.9,0.8-2.8,1.4C34.1,238.1,33.4,236.2,33.3,234.1L33.3,234.1z M35.6,227.7
	c0.8,0.5,1.7,1,2.7,1.3c-0.6,1.4-0.9,2.9-0.9,4.5h-4.1C33.4,231.3,34.2,229.3,35.6,227.7z M51.6,233.5h-4.1c0-1.5-0.4-3-0.9-4.5
	c0.9-0.3,1.8-0.8,2.7-1.3C50.7,229.3,51.5,231.3,51.6,233.5L51.6,233.5z M42.1,229c-1,0-1.9-0.2-2.9-0.4c0.7-1.4,1.7-2.7,2.9-3.8
	V229z M42.1,229.7v3.8h-4c0-1.5,0.3-2.9,0.9-4.2C40,229.5,41,229.7,42.1,229.7L42.1,229.7z M42.8,229.7c1.1,0,2.1-0.2,3.2-0.5
	c0.6,1.3,0.9,2.8,0.9,4.2h-4L42.8,229.7z M42.8,229v-4.2c1.2,1.1,2.2,2.3,2.9,3.8C44.7,228.8,43.7,229,42.8,229L42.8,229z
	 M46.3,228.4c-0.7-1.4-1.6-2.6-2.7-3.7c1.9,0.3,3.7,1.1,5.2,2.5C48,227.7,47.2,228.1,46.3,228.4L46.3,228.4z M38.6,228.4
	c-0.9-0.3-1.7-0.7-2.5-1.2c1.4-1.4,3.2-2.2,5.2-2.5C40.1,225.7,39.2,227,38.6,228.4L38.6,228.4z M38.1,234.1h4v3.4
	c-1.1,0-2.2,0.2-3.3,0.5C38.3,236.8,38.1,235.5,38.1,234.1z M42.1,238.2v4.5c-1.3-1.1-2.3-2.5-3-4.1
	C40.1,238.4,41.1,238.3,42.1,238.2L42.1,238.2z M42.8,242.8v-4.5c1,0,2,0.2,3,0.5C45.1,240.3,44.1,241.7,42.8,242.8L42.8,242.8z
	 M42.8,237.6v-3.4h4.1c0,1.3-0.3,2.7-0.8,3.9C45,237.8,43.9,237.6,42.8,237.6L42.8,237.6z M47.6,234.1h4.1c-0.1,2-0.8,4-2.1,5.6
	c-0.9-0.6-1.8-1-2.8-1.4C47.2,237,47.5,235.6,47.6,234.1L47.6,234.1z M35.9,240.2c0.8-0.5,1.7-1,2.6-1.3c0.7,1.5,1.6,2.9,2.8,4
	C39.2,242.7,37.3,241.7,35.9,240.2L35.9,240.2z M43.7,242.9c1.2-1.1,2.1-2.5,2.8-4c0.9,0.3,1.8,0.8,2.6,1.3
	C47.6,241.7,45.7,242.6,43.7,242.9L43.7,242.9z"/>
<polygon class="st6" points="46.7,162.2 46.7,162.3 46.5,162.4 46.5,162.7 46.8,162.7 47.1,162.6 47.2,162.4 47.1,162.4 47,162.3 
	46.8,162 46.8,161.7 46.5,161.8 46.4,161.9 46.4,162 46.5,162.1 "/>
<polygon class="st6" points="46.5,162.3 46.5,162.1 46.3,162.1 46.1,162.1 46,162.4 46,162.6 46.2,162.6 "/>
<path class="st6" d="M41.9,163.1v0.1h-0.2v0.1l0,0v0.1h0.2l0.1-0.1v-0.1h0.2l0.1-0.1H42L41.9,163.1z"/>
<polygon class="st6" points="41.3,163.3 41.3,163.4 41.5,163.4 41.5,163.3 41.4,163.2 "/>
<path class="st6" d="M51.6,167.1c0-0.3,0-0.5,0-0.8c-0.1-0.8-0.3-1.7-0.6-2.4c0-0.1-0.1-0.1-0.1-0.2c-0.4-1-1-1.8-1.7-2.6l-0.1-0.1
	c-0.1-0.1-0.3-0.3-0.4-0.4c-3.4-3.2-8.7-3.2-12.2,0c-0.4,0.3-0.7,0.7-1,1.1c-3,4-2.2,9.6,1.8,12.6c4,3,9.6,2.2,12.6-1.8
	c0.3-0.4,0.5-0.8,0.8-1.2c0.3-0.6,0.6-1.3,0.7-2c0-0.2,0.1-0.4,0.1-0.5C51.6,168.2,51.7,167.7,51.6,167.1
	C51.7,167.2,51.6,167.2,51.6,167.1z M49.9,163.5L49.9,163.5c0.1,0.1,0.1,0.2,0.2,0.4h0h-0.2V163.5z M48.6,161.9v-0.4
	c0.1,0.1,0.3,0.3,0.4,0.5l-0.2,0.2h-0.6v-0.1L48.6,161.9z M37.7,160.9L37.7,160.9h0.2v-0.1h0.3v0.1l-0.1,0.1h-0.4L37.7,160.9
	L37.7,160.9z M38,161.3h0.2v0.2h-0.4l-0.1-0.1L38,161.3z M50.5,164.9h-0.7l-0.4-0.3H49v0.3h-0.1l-0.1-0.1l-0.7-0.2v-0.5l-0.9,0.1
	l-0.3,0.1h-0.4h-0.2l-0.4,0.2v0.5l-0.9,0.7l0.1,0.3h0.2v0.3H45v0.7l0.8,0.9h0.3v-0.1h0.6l0.2-0.2h0.3l0.2,0.2l0.5,0.1l-0.1,0.7
	l0.6,1l-0.3,0.6v0.3l0.2,0.2v0.8l0.3,0.4v0.6H49c-2.9,3.5-8.1,4.1-11.6,1.2c-1.9-1.6-3.1-3.9-3.1-6.4c0-1.1,0.2-2.2,0.7-3.2v-0.3
	l0.3-0.4l0.3-0.6v0.1l-0.3,0.4c-0.1,0.2-0.2,0.4-0.3,0.6v0.5l0.3,0.2v0.7l0.3,0.6h0.3v-0.2l-0.3-0.5l-0.1-0.5h0.2l0.1,0.5l0.5,0.7
	l-0.1,0.2l0.3,0.4l0.7,0.2v-0.1h0.3v0.2h0.2l0.3,0.1l0.5,0.6l0.6,0.1l0.1,0.5l-0.4,0.3v0.5l-0.1,0.3l0.6,0.8v0.3l0.2,0.1l0.5,0.4
	v1.4h0.2l-0.1,0.7l0.3,0.4l-0.1,0.6l0.4,0.7l0.5,0.4h0.5v-0.2l-0.4-0.3v-0.1l0.1-0.2v-0.2h-0.2l-0.1-0.1l0.2-0.2v-0.1l-0.2-0.1v-0.1
	l0.3-0.1l0.5-0.2l0.2-0.3l0.5-0.7l-0.1-0.5l0.2-0.3h0.5l0.3-0.3l0.1-1l0.6-0.3l0.1-0.3l-0.3-0.1l-0.2-0.4h-0.7l-0.6-0.2v-0.4
	l-0.2-0.3h-0.5l-0.3-0.5l-0.3-0.1v0.1h-0.5l-0.2-0.2l-0.5-0.1l-0.4,0.5l-0.7-0.1v-0.7l-0.5-0.1l0.2-0.4l-0.1-0.2l-0.6,0.4h-0.4
	l-0.1-0.3l0.1-0.3l0.2-0.4l0.5-0.3h1v0.3l0.3,0.2V165l0.2-0.2l0.5-0.3v-0.2l0.5-0.5l0.5-0.3l0,0l0.4-0.3h0.1l0.1,0.1l0.1-0.2l0,0
	h-0.2h-0.2v-0.1l0.1-0.1h0.2H42l0.1,0.1h0.1h0.2v-0.1h0.1v0.1l-0.1,0.1l0,0v0.1l0.5,0.1H43v-0.2l-0.4-0.2v-0.1l0.3-0.1v-0.3
	l-0.3-0.2v-0.5l-0.4,0.2H42v-0.4l-0.6-0.1l-0.3,0.1v0.6l-0.4,0.1l-0.2,0.4h-0.2v-0.5l-0.4-0.1l-0.2-0.1l-0.1-0.3l0.7-0.4l0.4-0.1
	v0.2h0.2v-0.1h0.2l0,0H41v-0.1h0.3l0.2-0.2l0,0v-0.1l0.5-0.1l0.2,0.2l-0.6,0.3l0.8,0.2l0.1-0.3h0.3l0.1-0.2l-0.2-0.1v-0.4l-0.8-0.3
	l-0.5,0.1l-0.3,0.2v0.4l-0.3-0.1l-0.1-0.2l0.3-0.3h-0.6l-0.2,0.1l-0.1,0.2h0.2v0.2h-0.3l-0.1,0.1h-0.5c0-0.1,0-0.2,0-0.3h0.4
	l0.3-0.3l-0.2-0.1l-0.2,0.2h-0.4l-0.2-0.3h-0.5l-0.5,0.4h0.4v0.1l-0.1,0.1h0.5l0.1,0.2h-0.6v-0.1l-0.3-0.1l-0.2-0.1h-0.4
	c3.1-2.3,7.4-2.1,10.3,0.5l-0.1,0.2l-0.4,0.1l-0.2,0.2v0.2h0.2l0.1,0.3l0.3-0.1l0.1,0.4h0h-0.3l-0.3,0.1l-0.3,0.4l-0.4,0.1l-0.1,0.4
	l0.2,0.1l-0.1,0.2l-0.4-0.1l-0.4,0.1l-0.1,0.2l0.1,0.4l0.2,0.1h0.4h0.3L47,164l0.4-0.5l0.3,0.1l0.3-0.2v0.2l0.7,0.4l-0.1,0.1h-0.3
	l0.1,0.2h0.2l0.2-0.1v-0.2h0.1l-0.1-0.1l-0.4-0.2l-0.1-0.3h0.4l0.1,0.1l0.3,0.3v0.3l0.3,0.3l0.1-0.5l0.2-0.1v0.4l0.2,0.2h0.4
	C50.3,164.5,50.4,164.7,50.5,164.9L50.5,164.9z M38.5,162.3l0.2-0.1l0.2,0.1l-0.1,0.3l-0.2,0.1L38.5,162.3z M39.6,162.9v0.2h-0.5
	L39,163v-0.1l0.2-0.1h0.3v0.1H39.6z M39.9,163.1v0.2l-0.1,0.1h-0.2v-0.3L39.9,163.1z M39.7,163.1v-0.2l0.2,0.1L39.7,163.1z
	 M39.8,163.5v0.2l-0.1,0.1h-0.3v-0.2h0.1v-0.1L39.8,163.5z M39.2,163.1h0.3l-0.3,0.5l-0.2-0.1v-0.2L39.2,163.1z M40.3,163.4v0.2H40
	l-0.1-0.1v-0.1l0,0L40.3,163.4z M40,163.2L40,163.2h0.2H40L40,163.2z M50.6,165.3L50.6,165.3v0.1V165.3z"/>
<path class="st6" d="M35,163.7v0.3c0.1-0.2,0.2-0.4,0.3-0.6L35,163.7z"/>
<path class="st6" d="M49.2,173.1c3.1-3.5,3-8.8-0.2-12.1l0,0c-1.6-1.7-3.9-2.8-6.2-2.8h-0.6c-2.4,0.1-4.6,1.1-6.2,2.8l0,0
	c-3.2,3.4-3.3,8.7-0.2,12.1l0,0l0,0c1.6,1.8,3.9,2.9,6.4,3h0.6C45.2,176,47.5,174.9,49.2,173.1L49.2,173.1L49.2,173.1z M34.1,167.4
	h3.7c0,1.3,0.3,2.6,0.8,3.8c-0.9,0.3-1.7,0.7-2.5,1.3C34.8,171.1,34.1,169.3,34.1,167.4z M36.2,161.5c0.8,0.5,1.6,0.9,2.5,1.2
	c-0.5,1.3-0.8,2.7-0.9,4.1h-3.7C34.1,164.9,34.9,163,36.2,161.5L36.2,161.5z M50.8,166.8h-3.8c0-1.4-0.3-2.8-0.9-4.1
	c0.9-0.3,1.7-0.7,2.5-1.2C50,163,50.8,164.9,50.8,166.8L50.8,166.8z M42.2,162.8c-0.9,0-1.8-0.2-2.6-0.4c0.6-1.3,1.5-2.5,2.6-3.4
	V162.8z M42.2,163.4v3.4h-3.7c0-1.3,0.3-2.6,0.8-3.9C40.2,163.2,41.2,163.4,42.2,163.4L42.2,163.4z M42.8,163.4c1,0,1.9-0.2,2.9-0.4
	c0.5,1.2,0.8,2.5,0.8,3.9h-3.7L42.8,163.4z M42.8,162.8V159c1.1,1,2,2.1,2.6,3.4C44.5,162.6,43.7,162.8,42.8,162.8L42.8,162.8z
	 M46,162.2c-0.6-1.3-1.4-2.4-2.4-3.4c1.8,0.2,3.4,1,4.7,2.3C47.6,161.6,46.8,161.9,46,162.2L46,162.2z M38.9,162.2
	c-0.8-0.3-1.6-0.6-2.3-1.1c1.3-1.2,2.9-2,4.7-2.3C40.4,159.8,39.5,160.9,38.9,162.2L38.9,162.2z M38.4,167.5h3.7v3.1
	c-1,0-2,0.2-3,0.5C38.7,169.9,38.4,168.7,38.4,167.5L38.4,167.5z M42.2,171.2v4.1c-1.2-1-2.1-2.3-2.8-3.7
	C40.3,171.4,41.2,171.2,42.2,171.2L42.2,171.2z M42.8,175.4v-4.1c0.9,0,1.9,0.2,2.8,0.4C44.9,173.1,43.9,174.3,42.8,175.4
	L42.8,175.4z M42.8,170.6v-3.1h3.7c0,1.2-0.3,2.4-0.7,3.6C44.8,170.8,43.8,170.6,42.8,170.6L42.8,170.6z M47.1,167.5h3.7
	c-0.1,1.9-0.8,3.7-2,5.1c-0.8-0.5-1.6-1-2.5-1.3C46.8,170.1,47.1,168.8,47.1,167.5L47.1,167.5z M36.5,173c0.7-0.5,1.5-0.9,2.3-1.2
	c0.6,1.4,1.5,2.6,2.6,3.6C39.5,175.2,37.7,174.4,36.5,173L36.5,173z M43.6,175.5c1.1-1,2-2.3,2.6-3.6c0.8,0.3,1.6,0.7,2.3,1.2
	C47.1,174.4,45.4,175.3,43.6,175.5L43.6,175.5z"/>
<polygon class="st6" points="46.7,115.2 46.7,115.3 46.5,115.4 46.5,115.7 46.8,115.7 47.1,115.6 47.2,115.4 47.1,115.4 47,115.3 
	46.8,115 46.8,114.7 46.5,114.8 46.4,114.9 46.4,115 46.5,115.1 "/>
<polygon class="st6" points="46.5,115.3 46.5,115.1 46.3,115.1 46.1,115.1 46,115.4 46,115.6 46.2,115.6 "/>
<path class="st6" d="M41.9,116.1v0.1h-0.2v0.1l0,0v0.1h0.2l0.1-0.1v-0.1h0.2l0.1-0.1H42L41.9,116.1z"/>
<polygon class="st6" points="41.3,116.3 41.3,116.4 41.5,116.4 41.5,116.3 41.4,116.2 "/>
<path class="st6" d="M51.6,120.1c0-0.3,0-0.5,0-0.8c-0.1-0.8-0.3-1.7-0.6-2.4c0-0.1-0.1-0.1-0.1-0.2c-0.4-1-1-1.8-1.7-2.6l-0.1-0.1
	c-0.1-0.1-0.3-0.3-0.4-0.4c-3.4-3.2-8.7-3.2-12.2,0c-0.4,0.3-0.7,0.7-1,1.1c-3,3.9-2.3,9.6,1.6,12.6c1.6,1.2,3.5,1.9,5.5,1.9
	c3.4,0,6.5-1.9,8-4.9c0.3-0.6,0.6-1.3,0.7-2c0-0.2,0.1-0.4,0.1-0.5C51.6,121.2,51.7,120.7,51.6,120.1
	C51.7,120.2,51.6,120.2,51.6,120.1z M49.9,116.5L49.9,116.5c0.1,0.1,0.1,0.2,0.2,0.3h0h-0.2V116.5z M48.6,114.9v-0.4
	c0.1,0.1,0.3,0.3,0.4,0.5l-0.2,0.2h-0.6v-0.1L48.6,114.9z M37.7,113.9h0.2v-0.1h0.3v0.1l-0.1,0.1h-0.4L37.7,113.9L37.7,113.9z
	 M38,114.3h0.2v0.2h-0.4l-0.1-0.1L38,114.3z M50.5,117.9h-0.7l-0.4-0.3H49v0.3h-0.1l-0.1-0.1l-0.7-0.2v-0.5l-0.9,0.1l-0.3,0.1h-0.6
	l-0.4,0.2v0.5l-0.9,0.7l0.1,0.3h0.2v0.3H45v0.7l0.8,0.9h0.3l0,0h0.6l0.2-0.2h0.3l0.2,0.2h0.5l-0.1,0.7l0.6,1l-0.3,0.6v0.3l0.2,0.2
	v0.8l0.3,0.4v0.6H49c-2.9,3.5-8.1,4.1-11.6,1.2c-1.9-1.6-3.1-3.9-3.1-6.4c0-1.1,0.2-2.2,0.7-3.2v-0.3l0.3-0.4l0.3-0.6v0.1l-0.3,0.4
	c-0.1,0.2-0.2,0.4-0.3,0.6v0.5l0.3,0.2v0.6l0.3,0.6h0.3v-0.2l-0.3-0.5l-0.1-0.5h0.2l0.1,0.5l0.5,0.7l-0.1,0.2l0.3,0.4l0.7,0.2v-0.1
	h0.3v0.2h0.2l0.3,0.1l0.5,0.6h0.6l0.1,0.5l-0.4,0.3v0.5l-0.1,0.3l0.6,0.8v0.3l0.2,0.1l0.5,0.4v1.4h0.2l-0.1,0.6l0.3,0.4l-0.1,0.6
	l0.4,0.7l0.5,0.4h0.5v-0.2l-0.4-0.3v-0.1l0.1-0.2v-0.2h-0.2l-0.1-0.1l0.2-0.2v-0.1l-0.2-0.1V126h0.3l0.5-0.2l0.2-0.3l0.5-0.7
	l-0.1-0.5l0.2-0.3h0.5l0.3-0.2l0.1-1l0.6-0.3l0.1-0.3l-0.3-0.1l-0.2-0.4h-0.7l-0.6-0.2v-0.4l-0.2-0.3h-0.5l-0.3-0.5l-0.3-0.1v0.1
	h-0.5l-0.2-0.2l-0.5-0.1l-0.4,0.5l-0.7-0.1v-0.7l-0.5-0.1l0.2-0.4l-0.1-0.2l-0.6,0.4l-0.4-0.1l-0.3-0.3l0.1-0.3l0.2-0.4l0.5-0.2h1
	v0.3l0.3,0.2V118l0.2-0.3l0.5-0.3v-0.2l0.5-0.5l0.5-0.3l0,0l0.4-0.3h0.1l0.1,0.1l0.1-0.1l0,0h-0.2h-0.2v-0.1l0.1-0.1h0.2h0.1
	l0.1,0.1h0.1l0,0h0.2v-0.1h0.1v0.1l-0.1,0.1l0,0v0.1l0.5,0.1h0.1V116l-0.4-0.2v-0.1l0.3-0.1v-0.3l-0.3-0.2v-0.5l-0.4,0.2h-0.2v-0.4
	l-0.6-0.1l-0.1,0.1v0.6l-0.4,0.1l-0.2,0.4h-0.2v-0.5l-0.4-0.1l-0.2-0.1l-0.1-0.3l0.7-0.4l0.4-0.1v0.2h0.2v-0.1h0.2l0,0H41v-0.1h0.3
	l0.2-0.2l0,0l0,0l0.5-0.1l0.2,0.2l-0.6,0.3l0.8,0.2l0.1-0.3h0.3l0.1-0.2l-0.2-0.1v-0.5l-0.8-0.4l-0.5,0.1l-0.3,0.1v0.4l-0.3-0.1
	l-0.1-0.2l0.3-0.3h-0.6h-0.2l-0.1,0.2h0.2v0.2h-0.3l-0.1,0.1h-0.5c0-0.1,0-0.2,0-0.3h0.4l0.3-0.3l-0.2-0.1l-0.2,0.2h-0.4l-0.2-0.3
	h-0.5l-0.5,0.4h0.4v0.1l-0.1,0.1h0.5l0.1,0.2h-0.6v-0.1l-0.3-0.1l-0.2-0.1h-0.4c3.1-2.3,7.4-2.1,10.3,0.5l-0.1,0.2l-0.4,0.1
	l-0.2,0.2v0.2h0.2l0.1,0.3l0.3-0.1l0.1,0.4h0h-0.3l-0.3,0.1l-0.3,0.4l-0.4,0.1l-0.1,0.4h0.2l-0.1,0.2l-0.4-0.1l-0.4,0.1l-0.1,0.2
	L46,117l0.2,0.1h0.4h0.3l0.1-0.2l0.4-0.5l0.3,0.1l0.3-0.2v0.2l0.7,0.4l-0.1,0.1h-0.3l0.1,0.1h0.2l0.2-0.1v-0.3h0.1l-0.1-0.1
	l-0.4-0.2l-0.1-0.3h0.4l0.1,0.1l0.3,0.3v0.3l0.3,0.3l0.1-0.5l0.2-0.1v0.4l0.2,0.2h0.4C50.3,117.4,50.4,117.6,50.5,117.9L50.5,117.9z
	 M38.5,115.3l0.2-0.1h0.2l-0.1,0.3l-0.2,0.1L38.5,115.3z M39.6,115.9v0.2h-0.5L39,116v-0.1l0.2-0.1h0.3v0.1H39.6z M39.9,116.1v0.2
	l-0.1,0.1h-0.2v-0.3L39.9,116.1z M39.7,116.1v-0.2l0.2,0.2L39.7,116.1z M39.8,116.5v0.2l-0.1,0.1h-0.3v-0.2h0.1v-0.1L39.8,116.5z
	 M39.2,116.1h0.3l-0.3,0.5l-0.2-0.1v-0.2L39.2,116.1z M40.3,116.4v0.2H40l-0.1-0.1v-0.1l0,0L40.3,116.4z M40,116.2L40,116.2h0.2H40
	L40,116.2z M50.6,118.3L50.6,118.3v0.1V118.3z"/>
<path class="st6" d="M35,116.7v0.3c0.1-0.2,0.2-0.4,0.3-0.6L35,116.7z"/>
<path class="st6" d="M49.2,126.1c3.1-3.5,3-8.7-0.2-12.1l0,0c-1.6-1.7-3.9-2.7-6.2-2.8h-0.6c-2.4,0.1-4.6,1.1-6.2,2.8l0,0
	c-3.2,3.4-3.3,8.7-0.2,12.1l0,0l0,0c1.6,1.8,3.9,2.9,6.4,3h0.6C45.2,129,47.5,127.9,49.2,126.1L49.2,126.1L49.2,126.1z M34.1,120.5
	h3.7c0,1.3,0.3,2.6,0.8,3.8c-0.9,0.3-1.7,0.7-2.5,1.2C34.8,124.1,34.2,122.3,34.1,120.5z M36.2,114.6c0.8,0.5,1.6,0.9,2.5,1.2
	c-0.5,1.3-0.8,2.7-0.9,4.1h-3.7C34.1,117.9,34.9,116,36.2,114.6L36.2,114.6z M50.8,119.9h-3.8c0-1.4-0.3-2.8-0.9-4.1
	c0.9-0.3,1.7-0.7,2.5-1.2C50,116,50.7,117.9,50.8,119.9L50.8,119.9z M42.2,115.9c-0.9,0-1.8-0.2-2.6-0.4c0.6-1.3,1.5-2.5,2.6-3.4
	V115.9z M42.2,116.5v3.4h-3.7c0-1.3,0.3-2.6,0.8-3.9c0.9,0.2,1.9,0.4,2.9,0.3L42.2,116.5z M42.8,116.5c1,0,1.9-0.2,2.9-0.4
	c0.5,1.2,0.8,2.5,0.8,3.9h-3.7L42.8,116.5z M42.8,115.9V112c1.1,1,2,2.1,2.6,3.4c-0.9,0.2-1.8,0.3-2.6,0.3L42.8,115.9z M46,115.3
	c-0.6-1.3-1.4-2.4-2.4-3.4c1.8,0.2,3.4,1,4.7,2.3c-0.7,0.4-1.5,0.7-2.3,1L46,115.3z M38.9,115.3c-0.8-0.3-1.6-0.6-2.3-1.1
	c1.3-1.2,2.9-2,4.7-2.3c-1,0.9-1.8,2-2.5,3.3L38.9,115.3z M38.4,120.5h3.7v3.1c-1,0-2,0.2-3,0.5C38.7,122.9,38.4,121.7,38.4,120.5z
	 M42.1,124.2v4.1c-1.2-1-2.1-2.3-2.8-3.7C40.3,124.4,41.2,124.2,42.1,124.2L42.1,124.2z M42.8,128.4v-4.1c0.9,0,1.9,0.2,2.8,0.4
	C44.9,126.1,43.9,127.3,42.8,128.4L42.8,128.4z M42.8,123.6v-3.1h3.7c0,1.2-0.3,2.4-0.7,3.6C44.8,123.8,43.8,123.6,42.8,123.6
	L42.8,123.6z M47.1,120.5h3.7c-0.1,1.9-0.8,3.7-2,5.1c-0.8-0.5-1.6-1-2.5-1.3C46.8,123.1,47,121.8,47.1,120.5z M36.4,126
	c0.7-0.5,1.5-0.9,2.3-1.2c0.6,1.4,1.5,2.6,2.6,3.6C39.5,128.2,37.7,127.4,36.4,126L36.4,126z M43.5,128.5c1.1-1,2-2.3,2.6-3.6
	c0.8,0.3,1.6,0.7,2.3,1.2C47.1,127.4,45.4,128.3,43.5,128.5L43.5,128.5z"/>
<path class="st6" d="M32.6,143.7c0-4.5,2.3-6.5,4.8-6.5s4.8,2,4.8,6.5s-2.3,6.5-4.8,6.5S32.6,148.3,32.6,143.7z M40,143.7
	c0-2.6-1-4-2.6-4s-2.6,1.5-2.6,4s1,4.1,2.6,4.1S40,146.3,40,143.7z"/>
<path class="st6" d="M43.9,137.3h2.2v5.4l3.5-5.4h2.8l-4.2,6l4.3,6.7h-2.7l-3.6-6v6.1h-2.2L43.9,137.3z"/>
<polygon class="st6" points="46.7,341.5 46.7,341.7 46.5,341.7 46.5,342 46.8,342 47.1,342 47.2,341.8 47.1,341.7 47,341.6 
	46.8,341.4 46.8,341 46.5,341.1 46.4,341.2 46.4,341.3 46.5,341.4 "/>
<polygon class="st6" points="46.5,341.6 46.5,341.5 46.3,341.4 46.1,341.5 46,341.7 46,341.9 46.2,341.9 "/>
<path class="st6" d="M41.9,342.4v0.1h-0.2v0.1l0,0v0.1h0.2l0.1,0v-0.1h0.2l0.1-0.1H42L41.9,342.4z"/>
<polygon class="st6" points="41.3,342.6 41.3,342.8 41.5,342.7 41.5,342.6 41.4,342.5 "/>
<path class="st6" d="M51.6,346.5c0-0.3,0-0.5,0-0.8c-0.1-0.8-0.3-1.7-0.6-2.5c0-0.1-0.1-0.1-0.1-0.2c-0.4-1-1-1.8-1.7-2.6l-0.1-0.1
	c-0.1-0.1-0.3-0.3-0.4-0.4c-3.4-3.2-8.7-3.2-12.2,0c-0.4,0.3-0.7,0.7-1,1.1c-3,4-2.2,9.6,1.8,12.6c4,3,9.6,2.2,12.6-1.8
	c0.3-0.4,0.5-0.8,0.8-1.2c0.3-0.6,0.6-1.3,0.7-2c0-0.2,0.1-0.4,0.1-0.5C51.6,347.6,51.7,347.1,51.6,346.5L51.6,346.5z M49.9,342.9
	L49.9,342.9c0.1,0.1,0.1,0.2,0.2,0.3h0h-0.2V342.9z M48.6,341.3v-0.4c0.1,0.1,0.3,0.3,0.4,0.5l-0.2,0.2h-0.6v-0.1L48.6,341.3z
	 M37.7,340.3h0.2v-0.1h0.3v0.1l-0.1,0.1h-0.4L37.7,340.3L37.7,340.3z M38,340.7h0.2v0.2h-0.4l-0.1-0.1L38,340.7z M50.5,344.3h-0.7
	l-0.4-0.3l-0.4,0v0.2h-0.1l-0.1-0.1L48,344v-0.5l-0.9,0.1l-0.3,0.2h-0.4h-0.2l-0.4,0.2v0.5l-0.9,0.7l0.1,0.3h0.2v0.3H45v0.7l0.8,0.9
	h0.3v-0.1h0.6l0.2-0.2h0.3l0.2,0.2l0.5,0l-0.1,0.7l0.6,1l-0.3,0.6v0.3l0.2,0.2v0.7l0.3,0.4v0.5H49c-2.9,3.5-8.1,4-11.6,1.1
	c-1.9-1.6-3-3.9-3-6.3c0-1.1,0.2-2.2,0.7-3.2V343l0.3-0.4l0.3-0.6v0.1l-0.3,0.4c-0.1,0.2-0.2,0.4-0.3,0.6v0.5l0.3,0.2v0.7l0.3,0.6
	h0.3v-0.2l-0.3-0.5l-0.1-0.5h0.2l0.1,0.5l0.5,0.7l-0.1,0.2l0.3,0.4l0.7,0.2v-0.1h0.3v0.2h0.2l0.3,0.1l0.5,0.6l0.6,0l0.1,0.5
	l-0.4,0.3v0.5l-0.1,0.3l0.6,0.8v0.3l0.2,0.1l0.5,0.4v1.4l0.2,0l-0.1,0.6l0.3,0.4l-0.1,0.6l0.4,0.7l0.5,0.4h0.5v-0.1l-0.4-0.3v-0.1
	l0.1-0.2v-0.2h-0.2l-0.1-0.2l0.2-0.2v-0.1l-0.2-0.1v0h0.3l0.5-0.2l0.2-0.3l0.5-0.7l-0.1-0.5l0.2-0.3h0.5l0.3-0.2l0.1-1l0.4-0.4
	l0.2-0.3l-0.3-0.1l-0.2-0.4h-0.7l-0.6-0.2v-0.4l-0.2-0.3h-0.5l-0.3-0.5l-0.3-0.1v0.1h-0.5l-0.2-0.2l-0.5-0.1l-0.4,0.5l-0.7-0.1v-0.8
	l-0.5-0.1l0.2-0.4l-0.1-0.2l-0.6,0.4l-0.4,0l-0.1-0.3l0.1-0.3l0.2-0.4l0.5-0.3h1v0.3l0.3,0.2v-0.5l0.2-0.2l0.5-0.3v-0.2l0.5-0.5
	l0.5-0.3l0,0l0.4-0.4h0.1l0.1,0.1l0.1-0.2l0,0h-0.2l-0.2,0V342l0.1-0.1h0.2h0.1l0.1,0.1h0.1l0,0l0,0h0.2V342h0.1v0.1l-0.1,0.1l0,0
	v0.1l0.5,0.1h0.1v-0.2l-0.4-0.2V342l0.3-0.1v-0.3l-0.3-0.2v-0.5l-0.4,0.2h-0.2v-0.4l-0.6-0.1l-0.2,0.2v0.6l-0.4,0.1l-0.2,0.4h-0.2
	v-0.5l-0.4-0.1l-0.2-0.1l-0.1-0.3l0.7-0.4l0.4-0.1v0.2h0.2v-0.1h0.2l0,0H41v-0.1h0.3l0.2-0.2l0,0v0l0.5-0.1l0.2,0.2l-0.6,0.3
	l0.8,0.2l0.1-0.3h0.3l0.1-0.2l-0.2-0.1V340l-0.8-0.3l-0.5,0.1l-0.3,0.2v0.4h-0.3l-0.1-0.2l0.3-0.3h-0.6l-0.2,0l-0.1,0.2h0.2v0.2
	h-0.3l-0.1,0.1h-0.5c0-0.1,0-0.2,0-0.3h0.4l0.3-0.3l-0.1-0.2l-0.2,0.2h-0.4l-0.2-0.3h-0.5l-0.5,0.4h0.4v0.1l-0.1,0.1h0.5l0.1,0.2
	h-0.6v-0.1l-0.3-0.1l-0.2-0.1h-0.4c3.1-2.3,7.4-2.1,10.3,0.5l-0.1,0.2l-0.4,0.1l-0.2,0.2v0.2h0.2l0.1,0.3l0.3-0.1l0.1,0.4h0h-0.3
	l-0.3,0l-0.3,0.4l-0.4,0.1l-0.1,0.4h0.2l-0.1,0.2l-0.4-0.1l-0.4,0.1l-0.1,0.2l0.1,0.5l0.2,0.1h0.4h0.3l0.1-0.2l0.4-0.5l0.3,0.1
	l0.3-0.2v0.2l0.7,0.4l-0.1,0.1h-0.3l0.1,0.2h0.2l0.2-0.1v-0.2l0.1,0l-0.1-0.1l-0.4-0.2l-0.1-0.3h0.4l0.1,0.1l0.3,0.3v0.3l0.3,0.3
	l0.1-0.5l0.2-0.1v0.4l0.2,0.2h0.4C50.3,343.8,50.4,344,50.5,344.3L50.5,344.3z M38.5,341.7l0.2-0.1l0.2,0l-0.1,0.3l-0.2,0.1
	L38.5,341.7z M39.6,342.3v0.2h-0.5l-0.2,0v-0.1l0.2-0.1h0.3v0.1L39.6,342.3z M39.9,342.5v0.2l-0.1,0.1h-0.2v-0.3L39.9,342.5z
	 M39.7,342.5v-0.2l0.2,0.1L39.7,342.5z M39.8,342.9v0.2l-0.1,0.1h-0.3V343h0.1v-0.1L39.8,342.9z M39.2,342.5h0.3l-0.3,0.5l-0.2-0.1
	v-0.2L39.2,342.5z M40.3,342.8v0.2H40l-0.1-0.1v-0.1l0,0L40.3,342.8z M40.1,342.5L40.1,342.5l0.1,0.1l-0.1,0.1L40.1,342.5z
	 M50.7,344.6L50.7,344.6v0.1V344.6z"/>
<path class="st6" d="M35,343v0.3c0.1-0.2,0.2-0.4,0.3-0.6L35,343z"/>
<path class="st6" d="M49.2,352.4c3.1-3.5,3-8.7-0.2-12.1l0,0c-1.6-1.7-3.9-2.7-6.2-2.8h-0.6c-2.4,0.1-4.6,1.1-6.2,2.8l0,0
	c-3.2,3.4-3.3,8.7-0.2,12.1l0,0l0,0c1.6,1.8,3.9,2.9,6.4,3h0.6C45.2,355.4,47.5,354.3,49.2,352.4L49.2,352.4L49.2,352.4z
	 M34.1,346.8h3.7c0,1.3,0.3,2.6,0.8,3.8c-0.9,0.3-1.7,0.7-2.5,1.3C34.8,350.4,34.1,348.6,34.1,346.8z M36.2,340.9
	c0.8,0.5,1.6,0.9,2.5,1.2c-0.5,1.3-0.8,2.7-0.9,4.1h-3.7C34.1,344.2,34.9,342.3,36.2,340.9L36.2,340.9z M50.8,346.1h-3.8
	c0-1.4-0.3-2.8-0.9-4.1c0.9-0.3,1.7-0.7,2.5-1.2C50,342.3,50.8,344.2,50.8,346.1L50.8,346.1z M42.2,342.1c-0.9,0-1.8-0.2-2.6-0.4
	c0.6-1.3,1.5-2.5,2.6-3.4V342.1z M42.2,342.7v3.4h-3.7c0-1.3,0.3-2.6,0.8-3.9C40.2,342.5,41.2,342.7,42.2,342.7L42.2,342.7z
	 M42.8,342.7c1,0,1.9-0.2,2.9-0.5c0.5,1.2,0.8,2.5,0.8,3.9h-3.7L42.8,342.7z M42.8,342.1v-3.8c1.1,1,2,2.1,2.6,3.4
	C44.5,341.9,43.7,342.1,42.8,342.1L42.8,342.1z M46,341.5c-0.6-1.3-1.4-2.4-2.4-3.4c1.8,0.2,3.4,1,4.7,2.3
	C47.6,340.9,46.8,341.2,46,341.5L46,341.5z M38.9,341.5c-0.8-0.3-1.6-0.6-2.3-1.1c1.3-1.2,2.9-2,4.7-2.3
	C40.4,339.1,39.5,340.2,38.9,341.5L38.9,341.5z M38.4,346.8h3.7v3.1c-1,0-2,0.2-3,0.5C38.7,349.2,38.5,348,38.4,346.8L38.4,346.8z
	 M42.1,350.5v4.1c-1.2-1-2.1-2.3-2.8-3.7C40.3,350.7,41.2,350.5,42.1,350.5z M42.8,354.6v-4.1c0.9,0,1.9,0.2,2.8,0.4
	C44.9,352.4,43.9,353.6,42.8,354.6L42.8,354.6z M42.8,349.9v-3.1h3.7c0,1.2-0.3,2.4-0.7,3.6C44.8,350.1,43.8,349.9,42.8,349.9
	L42.8,349.9z M47.1,346.8h3.7c-0.1,1.9-0.8,3.7-2,5.1c-0.8-0.5-1.6-1-2.5-1.3C46.8,349.3,47,348.1,47.1,346.8L47.1,346.8z
	 M36.4,352.3c0.7-0.5,1.5-0.9,2.3-1.2c0.6,1.4,1.5,2.6,2.6,3.6C39.5,354.5,37.8,353.7,36.4,352.3L36.4,352.3z M43.5,354.8
	c1.1-1,2-2.3,2.6-3.6c0.8,0.3,1.6,0.7,2.3,1.2C47.1,353.7,45.4,354.5,43.5,354.8L43.5,354.8z"/>
<polygon class="st6" points="46.7,294.5 46.7,294.7 46.5,294.7 46.5,295 46.8,295 47.1,295 47.2,294.8 47.1,294.7 47,294.6 
	46.8,294.4 46.8,294 46.5,294.1 46.4,294.2 46.4,294.3 46.5,294.4 "/>
<polygon class="st6" points="46.5,294.6 46.5,294.5 46.3,294.4 46.1,294.5 46,294.7 46,294.9 46.2,294.9 "/>
<path class="st6" d="M41.9,295.4v0.1h-0.2v0.1l0,0v0.1h0.2l0.1-0.1v-0.1h0.2l0.1-0.1H42L41.9,295.4z"/>
<polygon class="st6" points="41.3,295.6 41.3,295.8 41.5,295.7 41.5,295.6 41.4,295.5 "/>
<path class="st6" d="M51.6,299.5c0-0.3,0-0.5,0-0.8c-0.1-0.8-0.3-1.7-0.6-2.5c0-0.1-0.1-0.1-0.1-0.2c-0.4-1-1-1.8-1.7-2.6l-0.1-0.1
	c-0.1-0.1-0.3-0.3-0.4-0.4c-3.4-3.2-8.7-3.2-12.2,0c-0.4,0.3-0.7,0.7-1,1.1c-3,4-2.2,9.6,1.8,12.6c4,3,9.6,2.2,12.6-1.8
	c0.3-0.4,0.6-0.8,0.8-1.3c0.3-0.6,0.6-1.3,0.7-2c0-0.2,0.1-0.4,0.1-0.5C51.6,300.6,51.7,300.1,51.6,299.5L51.6,299.5z M49.9,295.9
	L49.9,295.9c0.1,0.1,0.1,0.2,0.2,0.4h0h-0.2V295.9z M48.6,294.3v-0.4c0.1,0.1,0.3,0.3,0.4,0.5l-0.2,0.2h-0.6v-0.1L48.6,294.3z
	 M37.7,293.3L37.7,293.3h0.2v-0.1h0.3v0.1l-0.1,0.1h-0.4L37.7,293.3L37.7,293.3z M38,293.7h0.2v0.2h-0.4l-0.1-0.1L38,293.7z
	 M50.5,297.3h-0.7l-0.4-0.3H49v0.3h-0.1l-0.1-0.1L48,297v-0.5l-0.9,0.1l-0.3,0.1h-0.4h-0.2l-0.4,0.2v0.5l-0.9,0.7l0.1,0.3h0.2v0.3
	l-0.1,0v0.7l0.8,0.9h0.3v-0.1h0.6l0.2-0.2h0.3l0.2,0.2l0.5,0.1l-0.1,0.7l0.6,1l-0.3,0.6v0.3l0.2,0.2v0.7l0.3,0.4v0.5H49
	c-2.9,3.5-8.1,4.1-11.6,1.2c-1.9-1.6-3.1-3.9-3.1-6.4c0-1.1,0.2-2.2,0.7-3.2V296l0.3-0.4l0.3-0.6v0.1l-0.3,0.4
	c-0.1,0.2-0.2,0.4-0.3,0.6v0.5l0.3,0.2v0.6l0.3,0.6h0.3V298l-0.3-0.5l-0.1-0.5h0.2l0.1,0.5l0.5,0.7l-0.1,0.2l0.3,0.4l0.7,0.2v-0.1
	h0.3v0.2h0.2l0.3,0.1l0.5,0.6l0.6,0l0.1,0.5l-0.4,0.3v0.5l-0.1,0.3l0.6,0.8v0.3l0.2,0.1l0.5,0.4v1.4h0.2l-0.1,0.7l0.3,0.4l-0.1,0.6
	l0.4,0.7l0.5,0.4h0.5v-0.2l-0.4-0.3v-0.2l0.1-0.2v-0.2h-0.2l-0.1-0.1l0.2-0.2v-0.1l-0.2-0.1l0,0h0.3l0.5-0.2L42,305l0.5-0.7
	l-0.1-0.5l0.2-0.3h0.5l0.3-0.3l0.1-1l0.4-0.5l0.2-0.3l-0.3-0.1l-0.2-0.4h-0.7l-0.6-0.2v-0.4l-0.2-0.3h-0.5l-0.3-0.5l-0.3-0.1v0.1
	h-0.5l-0.2-0.2l-0.5-0.1l-0.4,0.5l-0.7-0.1v-0.7l-0.5-0.1l0.2-0.4l-0.1-0.2l-0.6,0.4h-0.4l-0.1-0.3l0.1-0.3l0.2-0.4l0.5-0.3h1v0.3
	l0.3,0.2v-0.5l0.2-0.3l0.5-0.3v-0.2l0.5-0.5l0.5-0.3l0,0l0.4-0.3h0.1l0.1,0.1l0.1-0.1l0,0h-0.2l-0.2,0v-0.1l0.1-0.1h0.2h0.1l0.1,0.1
	h0.1h0.2V295h0.1v0.1l-0.1,0.1l0,0v0.1l0.5,0.1h0.1v-0.2l-0.4-0.2V295l0.3-0.1v-0.3l-0.3-0.2V294l-0.4,0.2h-0.2v-0.4l-0.6-0.1
	l-0.2,0.2v0.6l-0.4,0.1l-0.2,0.4h-0.2v-0.5l-0.4,0l-0.2-0.1l-0.1-0.3l0.7-0.4l0.4-0.1v0.2h0.2v-0.1h0.2l0,0H41v-0.1h0.3l0.2-0.2l0,0
	l0,0v0l0.5-0.1l0.2,0.2l-0.6,0.3l0.8,0.2l0.1-0.3h0.3l0.1-0.2l-0.2-0.1V293l-0.8-0.4l-0.5,0.1l-0.3,0.2v0.4l-0.3,0l-0.1-0.2l0.3-0.3
	h-0.6l-0.2,0l-0.1,0.2h0.2v0.2h-0.3l-0.1,0.1h-0.5c0-0.1,0-0.2,0-0.3h0.4l0.3-0.3l-0.2-0.2l-0.2,0.2h-0.4l-0.2-0.3h-0.5l-0.5,0.4
	h0.4v0.1l-0.1,0.1h0.5l0.1,0.2h-0.6V293l-0.3-0.1l-0.2-0.1h-0.4c3.1-2.3,7.4-2.1,10.3,0.5l-0.1,0.2l-0.4,0.1l-0.2,0.2v0.2h0.2
	l0.1,0.3l0.3-0.1l0.1,0.4h0h-0.3l-0.3,0l-0.3,0.4l-0.4,0.1l-0.1,0.4h0.2l-0.1,0.2l-0.4-0.1l-0.4,0.1l-0.1,0.2l0.1,0.5l0.2,0.1h0.4
	h0.3l0.1-0.2l0.4-0.5l0.3,0.1l0.3-0.2v0.2l0.7,0.4l-0.1,0.1h-0.3l0.1,0.2h0.2l0.2-0.1v-0.2l0.1,0l-0.1-0.1l-0.4-0.2l-0.1-0.3h0.4
	l0.1,0.1l0.3,0.3v0.3l0.3,0.3l0.1-0.5l0.2-0.1v0.4l0.2,0.2h0.4c0.1,0.2,0.2,0.4,0.2,0.7L50.5,297.3z M38.5,294.7l0.2-0.1h0.2
	l-0.1,0.3l-0.2,0.1L38.5,294.7z M39.6,295.3v0.2h-0.5l-0.2,0v-0.1l0.2-0.1h0.3v0.1L39.6,295.3z M39.9,295.5v0.2l-0.1,0.1h-0.2v-0.3
	L39.9,295.5z M39.7,295.5v-0.2l0.2,0.2L39.7,295.5z M39.8,295.9v0.2l-0.1,0.1h-0.3V296h0.1v-0.1L39.8,295.9z M39.2,295.5h0.3
	l-0.3,0.5l-0.2-0.1v-0.2L39.2,295.5z M40.3,295.8v0.2H40l-0.1-0.1v-0.1l0,0L40.3,295.8z M40.1,295.5L40.1,295.5l0.1,0.1l-0.1,0.1
	L40.1,295.5z M50.7,297.6L50.7,297.6v0.1V297.6z"/>
<path class="st6" d="M35,296v0.3c0.1-0.2,0.2-0.4,0.3-0.6L35,296z"/>
<path class="st6" d="M49.2,305.4c3.1-3.5,3-8.7-0.2-12.1l0,0c-1.6-1.7-3.9-2.7-6.2-2.8h-0.6c-2.4,0.1-4.6,1.1-6.2,2.8l0,0
	c-3.2,3.4-3.3,8.7-0.2,12.1l0,0c1.6,1.8,3.9,2.9,6.4,3h0.6C45.2,308.4,47.5,307.3,49.2,305.4L49.2,305.4L49.2,305.4z M34.1,299.8
	h3.7c0,1.3,0.3,2.6,0.8,3.8c-0.9,0.3-1.7,0.8-2.5,1.3C34.8,303.4,34.1,301.6,34.1,299.8z M36.2,293.9c0.8,0.5,1.6,0.9,2.5,1.2
	c-0.5,1.3-0.8,2.7-0.9,4.1h-3.7C34.1,297.2,34.9,295.3,36.2,293.9L36.2,293.9z M50.8,299.1h-3.8c0-1.4-0.3-2.8-0.9-4.1
	c0.9-0.3,1.7-0.7,2.5-1.2C50,295.3,50.8,297.2,50.8,299.1L50.8,299.1z M42.2,295.1c-0.9,0-1.8-0.2-2.6-0.4c0.6-1.3,1.5-2.5,2.6-3.4
	V295.1z M42.2,295.8v3.4h-3.7c0-1.3,0.3-2.6,0.8-3.9C40.2,295.6,41.2,295.7,42.2,295.8L42.2,295.8z M42.8,295.8c1,0,1.9-0.2,2.9-0.5
	c0.5,1.2,0.8,2.5,0.8,3.9h-3.7L42.8,295.8z M42.8,295.1v-3.8c1.1,1,2,2.1,2.6,3.4C44.5,295,43.7,295.1,42.8,295.1L42.8,295.1z
	 M46,294.6c-0.6-1.3-1.4-2.4-2.4-3.4c1.8,0.2,3.4,1,4.7,2.3C47.6,293.9,46.8,294.2,46,294.6L46,294.6z M38.9,294.6
	c-0.8-0.3-1.6-0.6-2.3-1.1c1.3-1.2,2.9-2,4.7-2.3C40.4,292.1,39.5,293.3,38.9,294.6L38.9,294.6z M38.4,299.8h3.7v3.1
	c-1,0-2,0.2-3,0.5C38.7,302.3,38.4,301,38.4,299.8L38.4,299.8z M42.1,303.5v4.1c-1.2-1-2.1-2.3-2.8-3.7
	C40.3,303.7,41.2,303.5,42.1,303.5z M42.8,307.6v-4.1c0.9,0,1.9,0.2,2.8,0.4C44.9,305.4,43.9,306.6,42.8,307.6L42.8,307.6z
	 M42.8,302.9v-3.1h3.7c0,1.2-0.3,2.4-0.7,3.6C44.8,303.1,43.8,302.9,42.8,302.9L42.8,302.9z M47.1,299.8h3.7c-0.1,1.9-0.8,3.7-2,5.1
	c-0.8-0.5-1.6-1-2.5-1.3C46.8,302.3,47,301.1,47.1,299.8L47.1,299.8z M36.4,305.3c0.7-0.5,1.5-0.9,2.3-1.2c0.6,1.4,1.5,2.6,2.6,3.6
	C39.5,307.5,37.8,306.7,36.4,305.3L36.4,305.3z M43.5,307.8c1.1-1,2-2.3,2.6-3.6c0.8,0.3,1.6,0.7,2.3,1.2
	C47.1,306.7,45.4,307.5,43.5,307.8L43.5,307.8z"/>
<path class="st6" d="M32.6,323c0-4.5,2.3-6.5,4.8-6.5s4.8,2,4.8,6.5s-2.3,6.5-4.8,6.5S32.6,327.6,32.6,323z M40,323c0-2.6-1-4-2.6-4
	s-2.6,1.5-2.6,4s1,4.1,2.6,4.1S40,325.6,40,323z"/>
<path class="st6" d="M43.9,316.6h2.2v5.4l3.5-5.4h2.8l-4.2,6l4.3,6.7h-2.7l-3.6-6v6h-2.2L43.9,316.6z"/>
<g class="st7">
	<path class="st0" d="M98.4,131.7c0,5.8,0.9,35.2,15.8,47.8c6.3,5.4,16.3,8.1,29.6,8.1c7.1,0,14.5-1,19.4-1.9
		c0.4-0.1,0.8-0.1,1.2-0.1c3.7,0,6.8,2.9,6.8,6.4v12.6c0,4.3-3.4,7.8-8,8.3c-6.5,0.6-16.7,1.1-28.1,1.5c-0.5,0-0.9,0-1.3,0
		c-39.7,0-69.7-35.5-69.7-82.6c0-47.1,30-82.6,69.7-82.6c0.4,0,0.9,0,1.3,0c11.5,0.3,21.7,0.8,28.2,1.5c4.5,0.4,8,4,8,8.3v12.6
		c0,3.5-3,6.4-6.8,6.4c-0.4,0-0.8,0-1.2-0.1c-5-0.8-12.4-1.9-19.4-1.9c-13.3,0-23.2,2.7-29.6,8.1C99.3,96.5,98.4,125.9,98.4,131.7z"
		/>
</g>
<g class="st7">
	<path class="st0" d="M403.1,304.1c0-31.5,22.1-56.6,51.1-56.6c40,0,50.1,39.9,50.1,66.1c0,17.9-1.6,43.9-22.2,70.1
		c-19.8,25.2-33.9,31.7-36.5,33.1c-1.8,1-6.8,4.8-9.4,0.6c-2.7-4.3-5.9-11-6.8-13c-1.6-3.4-0.5-5.6,3.1-7.7c5.3-3,14.2-11,20.4-16.6
		c6.1-5.5,10.3-11.2,12-13.8c3.6-5.5-0.1-9.6-2.8-9.1c-3.1,0.6-5.7,1.2-7.9,1.4C431.3,361,403.1,346.3,403.1,304.1z M432.4,302.9
		c0,9.4-0.1,12.9,2.5,20c4.1,8.4,12.1,13.5,19.4,13.5s14.1-5.1,18.3-13.5c2.5-7.1,2.5-10.6,2.5-19.9c0-9.3,0-12.9-2.5-19.9
		c-4.1-7.8-11.1-12.9-18.3-12.9s-15.2,5.1-19.3,12.9C432.4,290.1,432.4,293.5,432.4,302.9z"/>
</g>
<g class="st7">
	<path class="st0" d="M158.1,304c0-31.5,22.1-56.6,51.1-56.6c40,0,50.1,39.9,50.1,66.1c0,17.9-1.6,43.9-22.2,70.1
		c-19.8,25.2-33.9,31.7-36.5,33.1c-1.8,1-6.8,4.8-9.4,0.6c-2.7-4.3-5.9-11-6.8-13c-1.6-3.4-0.5-5.6,3.1-7.7c5.3-3,14.2-11,20.4-16.6
		c6.1-5.5,10.3-11.2,12-13.8c3.6-5.5-0.1-9.6-2.8-9.1c-3.1,0.6-5.7,1.2-7.9,1.4C186.3,360.9,158.1,346.2,158.1,304z M187.4,302.8
		c0,9.4-0.1,12.9,2.5,20c4.1,8.4,12.1,13.5,19.4,13.5c7.2,0,14.1-5.1,18.3-13.5c2.5-7.1,2.5-10.6,2.5-19.9c0-9.3,0-12.9-2.5-19.9
		c-4.1-7.8-11.1-12.9-18.3-12.9s-15.2,5.1-19.3,12.9C187.4,290,187.4,293.4,187.4,302.8z"/>
</g>
<g class="st7">
	<path class="st0" d="M381.8,259.1c0,2.5,0,8,0,12.7c0,6.7-0.4,8.6-3.2,15.4c-11,27.2-48,116.8-50,121.5c-3.3,7.7-3.3,7.7-11.1,7.7
		c-6.3,0-10.4,0.2-12.8,0.2c-4.2,0-6.8-2.9-4.7-7.7c11.3-27.4,48.4-117.1,49.8-120.4c2.2-5.3-1.3-10.6-8.5-10.6
		c-15.6,0-48.9,0-52.6,0c-4.9,0-8-3.5-8-7.7c0-4.7,0-8.6,0-11c0-4.6,3-7.7,8-7.7c21.9,0,81.7,0,85.3,0
		C378.2,251.4,381.8,254.4,381.8,259.1z"/>
</g>
<g class="st7">
	<path class="st0" d="M322.9,102.7c0,32.5-27.4,53.6-51.1,53.6h-21.2c-3,0-5.4,2.4-5.4,5.3l0.1,47.3c0,3-2.4,5.3-5.4,5.3h-18.7
		c-3,0-5.4-2.4-5.4-5.3V54.4c0-2.9,2.4-5.3,5.4-5.3h51.7C298.4,49.1,322.9,70.2,322.9,102.7z M293.9,102.7c0-15.6-8.8-29-27.2-29
		h-16.1c-3,0-5.4,2.4-5.4,5.3v47.4c0,3,2.4,5.3,5.4,5.3h15.1C283.2,131.8,293.9,118.3,293.9,102.7z"/>
</g>
<g class="st7">
	<path class="st0" d="M453.8,214.2c-5.3,0-7.9,0-10.3,0c-6,0-8.2-1.4-8.2-8c0-5,0-12.6,0-15.2c0-6.7-1.1-8-8.2-8
		c-4.5,0-48.2,0-51.5,0c-6.6,0-8.2-1.4-8.2-8c0-3,0-20.5,0-25.4c0-4.8,1.3-6.5,3.5-9.3c2.5-3.1,43-64,58.3-86.8
		c1.6-2.3,3.1-4.6,9.3-4.6c2.6,0,8.8,0,14,0c8.2,0,13.1,0,6.4,9.8c-15.7,22.8-56.6,82.1-59.2,85.8c-3.1,4.5-7.1,9.3-5.2,12.5
		c1.3,2.2,3.1,3.3,5.8,3.2c4.9,0,19.3,0,26.9,0c7.4,0,8.2-1.3,8.2-9.1c0-9.4,0-23.1,0-26c0-7.3,1.4-8,8.2-8c4.6,0,8,0,10.3,0
		c7.4,0,8.2,1.3,8.2,8c0,4.6,0,77.1,0,81.1C461.9,212.6,459.4,214.2,453.8,214.2z"/>
</g>
<g class="st7">
	<path class="st0" d="M577.4,214.2c-5.3,0-7.9,0-10.3,0c-6,0-8.2-1.4-8.2-8c0-5,0-12.6,0-15.2c0-6.7-1.1-8-8.2-8
		c-4.5,0-48.2,0-51.5,0c-6.6,0-8.2-1.4-8.2-8c0-3,0-20.5,0-25.4c0-4.8,1.3-6.5,3.5-9.3c2.5-3.1,43-64,58.3-86.8
		c1.6-2.3,3.1-4.6,9.3-4.6c2.6,0,8.8,0,14,0c8.2,0,13.1,0,6.4,9.8c-15.7,22.8-56.6,82.1-59.2,85.8c-3.1,4.5-7.1,9.3-5.2,12.5
		c1.3,2.2,3.1,3.3,5.8,3.2c4.9,0,19.3,0,26.9,0c7.4,0,8.2-1.3,8.2-9.1c0-9.4,0-23.1,0-26c0-7.3,1.4-8,8.2-8c4.6,0,8,0,10.3,0
		c7.4,0,8.2,1.3,8.2,8c0,4.6,0,77.1,0,81.1C585.5,212.6,583,214.2,577.4,214.2z"/>
</g>
</svg>
