<?xml version="1.0" encoding="utf-8"?>
<!-- Generator: Adobe Illustrator 24.1.0, SVG Export Plug-In . SVG Version: 6.00 Build 0)  -->
<svg version="1.1" id="Réteg_4" xmlns="http://www.w3.org/2000/svg" xmlns:xlink="http://www.w3.org/1999/xlink" x="0px" y="0px"
	 viewBox="0 0 1428.7 340.2" style="enable-background:new 0 0 1428.7 340.2;" xml:space="preserve">
<style type="text/css">
	.st0{fill:#EFC902;}
	.st1{fill:#BFBDBB;}
	.st2{fill:#999898;}
	.st3{fill:#A5A3A3;}
	.st4{enable-background:new    ;}
</style>
<g id="fehér_alap">
	<path class="st0" d="M33.4,0h1361.8c18.5,0,33.4,15,33.4,33.4v273.3c0,18.5-15,33.4-33.4,33.4H33.4C15,340.2,0,325.2,0,306.7V33.4
		C0,15,15,0,33.4,0z"/>
</g>
<g id="vörös_keret">
	<path d="M1411,17.7c-5.9-5.9-13.8-9.2-22.1-9.2H39.8c-17.3,0-31.3,14-31.4,31.4v260.4c0,17.3,14,31.4,31.4,31.4h1349
		c17.3,0,31.4-14,31.4-31.4V39.9C1420.2,31.5,1416.9,23.5,1411,17.7z M1406,300.3c0,9.5-7.6,17.2-17.1,17.2H39.8
		c-9.5,0-17.2-7.7-17.2-17.2c0,0,0,0,0,0V39.9c0-9.5,7.7-17.2,17.2-17.2c0,0,0,0,0,0h1349c9.5,0,17.2,7.7,17.2,17.2c0,0,0,0,0,0
		L1406,300.3z"/>
</g>
<g id="hologram">
	<path class="st1" d="M38,31.2h21.5l0,0V309l0,0H38.2c-3.9,0-7.1-3.2-7.1-7.1V38C31.2,34.2,34.2,31.2,38,31.2z"/>
	<rect x="31.2" y="140.5" class="st2" width="28.3" height="56.7"/>
	<polygon class="st3" points="50.9,288.5 51,288.7 50.7,288.7 50.7,289.1 51,289.1 51.4,289.1 51.6,288.8 51.4,288.7 51.3,288.6 
		51.1,288.3 51,287.8 50.6,287.9 50.5,288 50.5,288.2 50.7,288.3 	"/>
	<polygon class="st3" points="50.6,288.6 50.7,288.4 50.4,288.3 50.2,288.4 49.9,288.7 49.9,289 50.2,289 	"/>
	<path class="st3" d="M44.5,289.6l-0.1,0.2h-0.3v0.2h0.1v0.1h0.2l0.1-0.1v-0.1h0.2l0.1-0.1L44.5,289.6L44.5,289.6z"/>
	<polygon class="st3" points="43.7,290 43.7,290.1 44,290.1 44,289.9 43.8,289.8 	"/>
	<path class="st3" d="M57.4,295c0-0.4,0-0.7-0.1-1c-0.1-1.1-0.4-2.2-0.8-3.3l-0.1-0.2c-0.5-1.3-1.3-2.4-2.2-3.5l-0.2-0.2
		c-0.2-0.2-0.4-0.4-0.6-0.5c-4.9-4.5-12.5-4.1-17,0.8c-4.5,4.9-4.1,12.5,0.8,17c4.9,4.5,12.5,4.1,17-0.8c0.7-0.8,1.3-1.7,1.8-2.6
		c0.4-0.8,0.8-1.7,1-2.6c0.1-0.2,0.1-0.5,0.1-0.7c0.1-0.7,0.2-1.4,0.2-2.1C57.5,295.1,57.5,295.1,57.4,295z M55.2,290.2L55.2,290.2
		c0.2,0.1,0.2,0.3,0.3,0.5h-0.1h-0.2V290.2z M53.5,288.1v-0.5c0.2,0.2,0.4,0.4,0.5,0.6l-0.2,0.3H53l-0.1-0.2L53.5,288.1z M39,286.8
		L39,286.8h0.2v-0.1h0.4v0.2l-0.1,0.1H39L39,286.8L39,286.8z M39.4,287.4h0.3v0.2h-0.5l-0.1-0.1L39.4,287.4z M55.9,292.1h-0.9
		l-0.5-0.4l-0.6,0v0.4h-0.1l-0.2-0.1l-1-0.2v-0.6l-1.2,0.1l-0.4,0.2h-0.5h-0.2l-0.6,0.3v0.6l-1.2,0.9l0.1,0.4h0.2l-0.1,0.4l-0.2,0.1
		v0.9l1,1.2h0.5v-0.1h0.8l0.2-0.2h0.5l0.2,0.3l0.7,0.1l-0.1,0.9l0.8,1.4l-0.4,0.8v0.4l0.3,0.3v0.9l0.4,0.6v0.7h0.4
		c-3.8,4.7-10.8,5.4-15.5,1.6c-3.8-3.1-5.1-8.3-3.2-12.8v-0.4l0.4-0.5c0.1-0.3,0.3-0.5,0.4-0.8v0.2l-0.4,0.5
		c-0.1,0.3-0.3,0.5-0.4,0.8v0.6l0.5,0.2v0.9l0.4,0.8l0.3,0.1v-0.3l-0.4-0.6l-0.1-0.6h0.2l0.1,0.6l0.6,0.9l-0.2,0.3l0.4,0.6l1,0.2
		v-0.1l0.4,0v0.3l0.3,0.1l0.5,0.1l0.7,0.8l0.8,0.1l0.1,0.7l-0.6,0.4v0.6l-0.1,0.4l0.8,1l0.1,0.4l0.3,0.1l0.7,0.5v1.9l0.2,0.1
		l-0.2,0.9l0.4,0.5l-0.1,0.9l0.5,0.9l0.7,0.6h0.7l0.1-0.2l-0.5-0.4v-0.2l0.1-0.2V304h-0.3l-0.2-0.2l0.3-0.3v-0.2l-0.3-0.1v-0.2
		L44,303l0.7-0.3l0.2-0.4l0.7-0.9l-0.2-0.7l0.2-0.4h0.6l0.4-0.3l0.1-1.3l0.5-0.6l0.1-0.4l-0.4-0.1l-0.3-0.5h-1l-0.8-0.3v-0.5
		l-0.3-0.5h-0.7l-0.4-0.6l-0.4-0.2v0.2h-0.7l-0.2-0.3l-0.7-0.1l-0.6,0.6l-0.9-0.1l-0.1-1l-0.6-0.1l0.3-0.5l-0.1-0.3l-0.8,0.6
		l-0.5-0.1l-0.2-0.4l0.1-0.4l0.3-0.5l0.7-0.3h1.3v0.4l0.5,0.2v-0.7l0.3-0.3l0.7-0.5V291l0.7-0.7l0.7-0.4l-0.1-0.1l0.5-0.5h0.2
		l0.1,0.1l0.2-0.2l0,0H44l-0.2-0.1V289l0.1-0.1h0.2h0.1l0.1,0.2h0.1l0,0l0,0l0.3,0l0.1-0.2l0.2,0v0.2l-0.2,0.1l0,0v0.2l0.6,0.2h0.1
		v-0.3l-0.5-0.2V289l0.4-0.1v-0.4l-0.4-0.2v-0.6l-0.6,0.3h-0.2l0.1-0.5l-0.8-0.2l-0.3,0.2v0.8l-0.6,0.2l-0.2,0.5h-0.3v-0.5l-0.6-0.1
		l-0.3-0.2l-0.1-0.4l1-0.6l0.5-0.1v0.3H43v-0.2h0.3l0,0l-0.1,0v-0.2h0.3l0.2-0.2l0,0l0,0l0.1-0.1l0.7-0.1l0.3,0.3l-0.8,0.5l1.1,0.2
		l0.1-0.4h0.7l0.2-0.3l-0.3-0.1v-0.4l-1-0.5L44,286l-0.4,0.2v0.5l-0.4-0.1l-0.1-0.3l0.4-0.4h-0.7l-0.2,0.1l-0.1,0.2l0.3,0l-0.1,0.3
		h-0.5l-0.1,0.2h-0.7c0-0.1,0-0.3,0-0.4H42l0.4-0.4l-0.2-0.1l-0.3,0.3h-0.5l-0.3-0.4h-0.6l-0.7,0.5h0.6v0.2l-0.2,0.1h0.7l0.1,0.2
		h-0.7v-0.2l-0.4-0.3l-0.2-0.1H39c4.2-3,9.9-2.8,13.7,0.6l-0.1,0.2l-0.5,0.2l-0.2,0.2v0.3h0.3l0.2,0.4l0.4-0.2l0.1,0.5h-0.1
		l-0.4-0.1l-0.4,0.1l-0.4,0.6l-0.6,0.1l-0.1,0.5l0.2,0.1l-0.1,0.3l-0.6-0.1l-0.5,0.1l-0.1,0.3l0.1,0.6l0.3,0.1h0.5h0.3l0.1-0.3
		l0.5-0.7l0.3,0.1l0.3-0.3l0.1,0.2l0.9,0.6l-0.1,0.1h-0.4l0.2,0.2l0.2,0l0.3-0.1v-0.3l0.1-0.1l-0.1-0.1l-0.6-0.3l-0.2-0.4h0.5
		l0.2,0.1l0.4,0.4v0.4l0.4,0.5l0.2-0.6l0.3-0.2v0.5l0.3,0.3h0.6C55.7,291.5,55.8,291.8,55.9,292.1L55.9,292.1z M40,288.6l0.3-0.1
		l0.3,0.1l-0.1,0.4l-0.3,0.1L40,288.6z M41.5,289.4v0.2h-0.7l-0.2-0.1l0.1-0.2l0.3-0.1h0.4v0.1H41.5z M41.8,289.8v0.2l-0.2,0.1h-0.2
		v-0.4L41.8,289.8z M41.6,289.7v-0.3l0.2,0.2L41.6,289.7z M41.8,290.2v0.2l-0.2,0.2h-0.3v-0.2h0.2v-0.1L41.8,290.2z M40.9,289.8h0.4
		l-0.5,0.6l-0.2-0.1V290L40.9,289.8z M42.4,290.1v0.2H42l-0.1-0.1V290l0,0L42.4,290.1z M42,289.8l0.1-0.1l0.2,0.1l-0.1,0.1L42,289.8
		z M56.1,292.7L56.1,292.7c0,0.1,0,0.1,0,0.2V292.7z"/>
	<path class="st3" d="M35.3,290.5v0.4c0.1-0.3,0.3-0.6,0.4-0.8L35.3,290.5z"/>
	<path class="st3" d="M54.2,303c4.1-4.6,4-11.6-0.2-16.1l0,0c-2.2-2.3-5.2-3.7-8.3-3.8h-0.8c-3.2,0.1-6.2,1.5-8.3,3.8l0,0
		c-4.2,4.5-4.3,11.5-0.2,16.1l0,0l0,0c2.2,2.4,5.3,3.9,8.5,4h0.8C48.9,306.9,52,305.4,54.2,303L54.2,303L54.2,303z M34.1,295.4h5
		c0,1.7,0.4,3.4,1,5c-1.2,0.4-2.3,1-3.3,1.7C35.1,300.3,34.2,297.9,34.1,295.4L34.1,295.4z M36.9,287.6c1,0.7,2.1,1.2,3.3,1.6
		c-0.7,1.7-1.1,3.6-1.1,5.4h-5C34.2,292,35.2,289.5,36.9,287.6L36.9,287.6z M56.4,294.6h-5c0-1.9-0.4-3.7-1.1-5.4
		c1.1-0.4,2.2-0.9,3.3-1.6C55.3,289.5,56.3,292,56.4,294.6L56.4,294.6z M44.8,289.2c-1.2,0-2.4-0.2-3.5-0.5c0.8-1.7,2-3.3,3.5-4.6
		V289.2z M44.8,290.1v4.6h-5c0-1.8,0.4-3.5,1.1-5.1C42.2,289.8,43.5,290,44.8,290.1z M45.7,290.1c1.3,0,2.6-0.2,3.8-0.6
		c0.7,1.6,1.1,3.4,1.1,5.1h-5L45.7,290.1z M45.7,289.2v-5.1c1.5,1.3,2.7,2.8,3.5,4.6C48,289,46.9,289.2,45.7,289.2L45.7,289.2z
		 M50,288.5c-0.8-1.7-1.9-3.2-3.3-4.5c2.4,0.3,4.6,1.4,6.3,3C52,287.6,51,288.1,50,288.5L50,288.5z M40.5,288.5
		c-1.1-0.4-2.1-0.9-3-1.5c1.7-1.6,3.9-2.7,6.3-3C42.5,285.3,41.3,286.8,40.5,288.5L40.5,288.5z M39.9,295.5h5v4.1
		c-1.4,0-2.7,0.3-4,0.6C40.2,298.7,39.9,297.1,39.9,295.5L39.9,295.5z M44.8,300.5v5.5c-1.6-1.4-2.8-3-3.7-4.9
		C42.4,300.7,43.6,300.5,44.8,300.5L44.8,300.5z M45.7,306v-5.5c1.2,0,2.5,0.2,3.7,0.6C48.5,302.9,47.2,304.6,45.7,306L45.7,306z
		 M45.7,299.6v-4.1h5c-0.1,1.6-0.4,3.3-1,4.8C48.4,299.9,47,299.6,45.7,299.6L45.7,299.6z M51.4,295.5h5c-0.1,2.5-1,4.9-2.6,6.8
		c-1-0.7-2.2-1.3-3.4-1.7C51.1,298.9,51.4,297.2,51.4,295.5L51.4,295.5z M37.3,302.9c1-0.6,2-1.2,3.1-1.6c0.8,1.8,2,3.5,3.4,4.8
		C41.3,305.8,39,304.6,37.3,302.9L37.3,302.9z M46.7,306.1c1.4-1.4,2.6-3,3.4-4.8c1.1,0.4,2.1,0.9,3.1,1.6
		C51.5,304.6,49.2,305.8,46.7,306.1L46.7,306.1z"/>
	<polygon class="st3" points="50.9,226 51,226.2 50.7,226.2 50.7,226.6 51,226.6 51.4,226.6 51.6,226.3 51.4,226.2 51.3,226.1 
		51.1,225.8 51,225.3 50.6,225.4 50.5,225.5 50.5,225.7 50.7,225.8 	"/>
	<polygon class="st3" points="50.6,226.1 50.7,225.9 50.4,225.8 50.2,225.9 49.9,226.2 49.9,226.5 50.2,226.5 	"/>
	<path class="st3" d="M44.5,227.1l-0.1,0.2h-0.3v0.2h0.1v0.1h0.2l0.1-0.1v-0.1h0.2l0.1-0.1L44.5,227.1L44.5,227.1z"/>
	<polygon class="st3" points="43.7,227.4 43.7,227.6 44,227.6 44,227.4 43.8,227.3 	"/>
	<path class="st3" d="M57.4,232.5c0-0.4,0-0.7-0.1-1c-0.1-1.1-0.4-2.2-0.8-3.3l-0.1-0.2c-0.5-1.3-1.3-2.4-2.2-3.5l-0.2-0.2
		c-0.2-0.2-0.4-0.4-0.6-0.5c-4.6-4.2-11.6-4.2-16.2,0c-0.5,0.5-1,1-1.4,1.5c-1.6,2.1-2.5,4.7-2.5,7.3c0,6.6,5.4,12,12.1,11.9
		c4.5,0,8.5-2.5,10.6-6.5c0.4-0.8,0.8-1.7,1-2.6c0.1-0.2,0.1-0.5,0.1-0.7c0.1-0.7,0.2-1.4,0.2-2.1C57.5,232.6,57.5,232.6,57.4,232.5
		z M55.2,227.7L55.2,227.7l0.3,0.5h-0.1h-0.2V227.7z M53.5,225.6v-0.5c0.2,0.2,0.4,0.4,0.5,0.6l-0.2,0.3H53l-0.1-0.1L53.5,225.6z
		 M39,224.3L39,224.3h0.2v-0.1h0.4v0.2l-0.1,0.1H39L39,224.3L39,224.3z M39.4,224.8h0.3v0.2h-0.5L39,225L39.4,224.8z M55.9,229.6
		h-0.9l-0.5-0.4l-0.6,0.1v0.3h-0.1l-0.2-0.1l-1-0.2v-0.6l-1.2,0.1l-0.4,0.2h-0.5h-0.2l-0.6,0.3v0.6l-1.2,0.9l0.1,0.4h0.2l-0.1,0.4
		l-0.2,0.1v0.9l1,1.2h0.5v-0.1h0.8l0.2-0.2h0.5l0.2,0.3l0.7,0.1l-0.1,0.9l0.8,1.4l-0.4,0.8v0.4l0.3,0.3v0.9l0.4,0.6v0.7h0.4
		c-4,4.6-10.9,5.1-15.5,1.2c-3.5-3-4.8-8-3.1-12.3V228l0.4-0.5c0.1-0.3,0.3-0.5,0.4-0.8v0.2l-0.4,0.6c-0.1,0.3-0.3,0.5-0.4,0.8v0.6
		l0.5,0.2v0.9l0.4,0.8l0.3,0.1v-0.3l-0.4-0.6l-0.1-0.6h0.2l0.1,0.6l0.6,0.9l-0.2,0.3l0.4,0.6l1,0.2v-0.1l0.4,0v0.3l0.3,0l0.5,0.1
		l0.7,0.8l0.8,0.1l0.1,0.7l-0.6,0.4v0.6l-0.1,0.4l0.8,1l0.1,0.4l0.3,0.1l0.7,0.5v1.9l0.2,0.1l-0.2,0.9l0.4,0.5l-0.1,0.9l0.5,0.9
		l0.7,0.6h0.7l0.1-0.2l-0.5-0.4V242l0.1-0.2v-0.2h-0.3l-0.2-0.2l0.3-0.3v-0.2l-0.3-0.1v-0.2l0.4-0.1l0.7-0.3l0.2-0.4l0.7-0.9
		l-0.2-0.7l0.2-0.4h0.6l0.4-0.3l0.1-1.3l0.5-0.6l0.1-0.4l-0.4-0.1l-0.3-0.5h-1l-0.8-0.3v-0.5l-0.3-0.5H44l-0.4-0.6l-0.4-0.2v0.2
		h-0.7l-0.2-0.3l-0.7-0.1l-0.6,0.6l-0.9-0.1l-0.1-1l-0.6-0.1l0.3-0.5l-0.1-0.3l-0.8,0.6l-0.5-0.1l-0.2-0.4l0.1-0.4l0.3-0.5l0.7-0.3
		h1.3v0.4l0.5,0.2v-0.7l0.3-0.3l0.7-0.5v-0.3l0.7-0.7l0.7-0.4l-0.1,0l0.5-0.5H44L44,227l0.2-0.2l0,0H44l-0.2-0.1v-0.2l0.1-0.1h0.2
		h0.1l0.1,0.2h0.1l0,0l0,0l0.3-0.1l0.1-0.2h0.2v0.2l-0.2,0.1l0,0v0.2l0.6,0.2h0.1v-0.3l-0.5-0.2v-0.1l0.4-0.1v-0.4l-0.4-0.2V225
		l-0.6,0.3h-0.2l0.1-0.5l-0.8-0.2l-0.3,0.2v0.8l-0.6,0.2l-0.2,0.5h-0.3v-0.6l-0.6-0.1l-0.3-0.2l-0.1-0.4l1-0.6l0.5-0.1v0.3H43v-0.2
		h0.3v0h-0.1v-0.2h0.3l0.2-0.2l0,0l0.1-0.1l0.7-0.1l0.3,0.3l-0.8,0.5l1.1,0.2l0.1-0.4h0.6l0.2-0.3l-0.3-0.1v-0.4l-1-0.5l-0.7,0.1
		l-0.4,0.2v0.5l-0.4-0.1l-0.1-0.3l0.4-0.4h-0.7l-0.2,0.1l-0.1,0.2l0.3,0l-0.1,0.3h-0.5l-0.1,0.2h-0.7c0-0.1,0-0.3,0-0.4H42l0.4-0.4
		l-0.2-0.1l-0.3,0.3h-0.5l-0.3-0.4h-0.6l-0.7,0.5h0.6v0.2l-0.2,0.1h0.7l0.1,0.2h-0.7V224l-0.5-0.1l-0.2-0.1H39
		c4.2-3,9.9-2.8,13.7,0.6l-0.1,0.2l-0.5,0.2l-0.2,0.2v0.3h0.3l0.2,0.4l0.4-0.2l0.1,0.5h-0.1l-0.4,0l-0.4,0.1l-0.4,0.6l-0.6,0.1
		l-0.1,0.5l0.2,0.1l-0.1,0.3l-0.6-0.1l-0.5,0.1l-0.1,0.3l0.1,0.6l0.3,0.1h0.5h0.3l0.1-0.3l0.5-0.7l0.3,0.1l0.3-0.3l0.1,0.2l0.9,0.6
		l-0.1,0.1h-0.4l0.2,0.2l0.2,0l0.3-0.1v-0.3l0.1-0.1l-0.1-0.1l-0.6-0.3l-0.2-0.4h0.5l0.2,0.2l0.4,0.4v0.4l0.4,0.5l0.2-0.6l0.3-0.2
		v0.5l0.3,0.3h0.6C55.7,229,55.8,229.3,55.9,229.6L55.9,229.6z M40,226.1l0.3-0.1l0.3,0.1l-0.1,0.4l-0.3,0.1L40,226.1z M41.5,226.9
		v0.2h-0.7l-0.2-0.1l0.1-0.2l0.3-0.1h0.4v0.1H41.5z M41.8,227.2v0.2l-0.2,0.1h-0.2v-0.4L41.8,227.2z M41.6,227.2v-0.3l0.2,0.2
		L41.6,227.2z M41.8,227.7v0.2l-0.2,0.2h-0.3v-0.2h0.2v-0.1L41.8,227.7z M40.9,227.2h0.4l-0.5,0.6l-0.2-0.1v-0.3L40.9,227.2z
		 M42.4,227.6v0.2H42l-0.1-0.1v-0.2l0,0L42.4,227.6z M42,227.3l0.1-0.1l0.2,0.1l-0.1,0.1L42,227.3z M56.1,230.2L56.1,230.2
		c0,0.1,0,0.1,0,0.2V230.2z"/>
	<path class="st3" d="M35.3,228v0.4c0.1-0.3,0.3-0.6,0.4-0.8L35.3,228z"/>
	<path class="st3" d="M54.2,240.5c4.1-4.6,4-11.6-0.2-16.1l0,0c-2.2-2.3-5.2-3.7-8.3-3.8h-0.8c-3.2,0.1-6.2,1.5-8.3,3.8l0,0
		c-4.2,4.5-4.3,11.5-0.2,16.1l0,0l0,0c2.2,2.4,5.3,3.9,8.5,4h0.8C48.9,244.4,52,242.9,54.2,240.5L54.2,240.5L54.2,240.5z
		 M34.1,232.9h5c0,1.7,0.4,3.4,1,5c-1.2,0.4-2.3,1-3.3,1.7C35.1,237.8,34.2,235.4,34.1,232.9z M36.9,225.1c1,0.7,2.1,1.2,3.3,1.6
		c-0.7,1.7-1.1,3.6-1.1,5.4h-5C34.2,229.5,35.2,227,36.9,225.1z M56.4,232.1h-5c0-1.9-0.4-3.7-1.1-5.4c1.2-0.4,2.2-0.9,3.3-1.6
		C55.3,227,56.3,229.5,56.4,232.1L56.4,232.1z M44.8,226.7c-1.2,0-2.4-0.2-3.5-0.5c0.8-1.7,2-3.3,3.5-4.6V226.7z M44.8,227.6v4.6h-5
		c0-1.8,0.4-3.5,1.1-5.2C42.2,227.3,43.5,227.5,44.8,227.6z M45.7,227.6c1.3,0,2.6-0.2,3.8-0.6c0.7,1.6,1.1,3.4,1.1,5.2h-5
		L45.7,227.6z M45.7,226.7v-5.1c1.5,1.3,2.7,2.8,3.5,4.6C48,226.5,46.8,226.7,45.7,226.7L45.7,226.7z M50,225.9
		c-0.8-1.7-1.9-3.2-3.3-4.5c2.4,0.3,4.6,1.4,6.3,3C52,225.1,51,225.6,50,225.9L50,225.9z M40.5,225.9c-1.1-0.4-2.1-0.9-3-1.5
		c1.7-1.6,3.9-2.7,6.3-3C42.5,222.8,41.3,224.3,40.5,225.9L40.5,225.9z M39.9,232.9h5v4.1c-1.4,0-2.7,0.3-4,0.6
		C40.2,236.2,39.9,234.6,39.9,232.9L39.9,232.9z M44.8,237.9v5.5c-1.6-1.4-2.8-3-3.7-4.9C42.4,238.2,43.6,238,44.8,237.9L44.8,237.9
		z M45.7,243.5v-5.5c1.2,0,2.5,0.2,3.7,0.6C48.5,240.4,47.2,242.1,45.7,243.5L45.7,243.5z M45.7,237.1V233h5c-0.1,1.6-0.4,3.3-1,4.8
		C48.4,237.4,47,237.1,45.7,237.1L45.7,237.1z M51.4,233h5c-0.1,2.5-1,4.9-2.6,6.8c-1-0.7-2.2-1.3-3.4-1.7
		C51.1,236.4,51.4,234.7,51.4,233L51.4,233z M37.3,240.3c1-0.6,2-1.2,3.1-1.6c0.8,1.8,2,3.5,3.4,4.8C41.3,243.3,39,242.1,37.3,240.3
		L37.3,240.3z M46.7,243.6c1.4-1.4,2.6-3,3.4-4.8c1.1,0.4,2.1,0.9,3.1,1.6C51.5,242.1,49.2,243.3,46.7,243.6L46.7,243.6z"/>
	<polygon class="st3" points="50.9,163.5 51,163.7 50.7,163.7 50.7,164.1 51,164.1 51.4,164.1 51.6,163.8 51.4,163.7 51.3,163.6 
		51.1,163.2 51,162.8 50.6,162.9 50.5,163 50.5,163.2 50.7,163.3 	"/>
	<polygon class="st3" points="50.6,163.6 50.7,163.4 50.4,163.3 50.2,163.4 49.9,163.7 49.9,163.9 50.2,163.9 	"/>
	<path class="st3" d="M44.5,164.6l-0.1,0.2h-0.3v0.2h0.1v0.1h0.2l0.1-0.1v-0.1h0.2l0.1-0.1L44.5,164.6L44.5,164.6z"/>
	<polygon class="st3" points="43.7,164.9 43.7,165.1 44,165.1 44,164.9 43.8,164.8 	"/>
	<path class="st3" d="M57.4,170c0-0.4,0-0.7-0.1-1c-0.1-1.1-0.4-2.2-0.8-3.3l-0.1-0.2c-0.5-1.3-1.3-2.5-2.2-3.5l-0.2-0.2
		c-0.2-0.2-0.4-0.4-0.6-0.5c-4.6-4.2-11.6-4.2-16.2,0.1c-0.5,0.5-1,1-1.4,1.5c-1.6,2.1-2.5,4.7-2.5,7.3c0,6.6,5.4,12,12.1,11.9
		c4.5,0,8.5-2.5,10.6-6.5c0.4-0.8,0.8-1.7,1-2.6c0.1-0.2,0.1-0.5,0.1-0.7c0.1-0.7,0.2-1.4,0.2-2.1C57.5,170.1,57.5,170.1,57.4,170z
		 M55.2,165.2L55.2,165.2l0.3,0.5h-0.1h-0.2V165.2z M53.5,163.1v-0.5c0.2,0.2,0.4,0.4,0.5,0.6l-0.2,0.3H53l-0.1-0.1L53.5,163.1z
		 M39,161.8L39,161.8h0.2v-0.1h0.4v0.2l-0.1,0.2H39L39,161.8L39,161.8z M39.4,162.3h0.3v0.2h-0.5l-0.1-0.1L39.4,162.3z M55.9,167.1
		h-0.9l-0.5-0.4l-0.6,0.1v0.3h-0.1l-0.2-0.1l-1-0.2v-0.6l-1.2,0.1l-0.4,0.2h-0.5h-0.2l-0.6,0.3v0.6l-1.2,0.9l0.1,0.4h0.2l-0.1,0.4
		l-0.2,0.1v0.9l1,1.2h0.5v-0.1h0.8l0.2-0.2h0.5l0.2,0.2l0.7,0.1l-0.1,0.9l0.8,1.4l-0.4,0.8v0.4l0.3,0.3v0.9l0.4,0.6v0.7h0.4
		c-3.8,4.7-10.8,5.4-15.5,1.6c-3.8-3.1-5.1-8.3-3.2-12.8v-0.3l0.4-0.5c0.1-0.3,0.3-0.5,0.4-0.8v0.2l-0.4,0.6
		c-0.1,0.3-0.3,0.5-0.4,0.8v0.6l0.5,0.2v0.9l0.4,0.7l0.3,0.1v-0.3l-0.4-0.6l-0.1-0.6h0.2l0.1,0.6l0.6,0.9l-0.2,0.3l0.4,0.6l1,0.2
		v-0.1h0.4v0.3l0.3,0.1l0.5,0.1l0.7,0.8l0.8,0.1l0.1,0.7l-0.6,0.4v0.6l-0.1,0.4l0.8,1l0.1,0.4l0.3,0.1l0.7,0.5v1.9l0.2,0.1l-0.2,0.9
		l0.4,0.5l-0.1,0.9l0.5,0.9l0.7,0.6h0.7l0.1-0.2l-0.5-0.4v-0.2l0.1-0.2V179h-0.3l-0.2-0.2l0.3-0.3v-0.2l-0.3-0.1V178L44,178l0.7-0.3
		l0.2-0.4l0.7-0.9l-0.2-0.7l0.2-0.4h0.6l0.4-0.3l0.1-1.3l0.5-0.6l0.1-0.4l-0.4-0.1l-0.3-0.5h-1l-0.8-0.3v-0.6l-0.3-0.4h-0.7
		l-0.4-0.6l-0.4-0.2v0.2h-0.7l-0.2-0.3l-0.7-0.1l-0.6,0.6l-0.9-0.1l-0.1-1l-0.6-0.1l0.3-0.5l-0.1-0.3l-0.8,0.6l-0.5-0.1l-0.2-0.4
		l0.1-0.4l0.3-0.5l0.7-0.3h1.3v0.4l0.5,0.2V167l0.3-0.3l0.7-0.4v-0.3l0.7-0.7l0.7-0.4l-0.1-0.1l0.5-0.5h0.2l0.1,0.1l0.2-0.2l0,0H44
		l-0.2-0.1V164l0.1-0.1h0.2h0.1l0.1,0.2h0.1l0,0l0.3-0.1l0.1-0.2H45v0.2l-0.2,0.1l0,0v0.2l0.6,0.2h0.1v-0.3l-0.5-0.2v-0.1l0.4-0.1
		v-0.4l-0.4-0.3v-0.6l-0.6,0.3h-0.2l0.1-0.5l-0.8-0.2l-0.3,0.2v0.8l-0.6,0.2l-0.2,0.5h-0.3v-0.4l-0.6-0.1l-0.3-0.2l-0.1-0.4l1-0.6
		l0.5-0.1v0.3H43v-0.2h0.3v-0.1h-0.1v-0.2h0.3l0.2-0.2l0,0l0.1-0.1l0.7-0.1l0.3,0.3l-0.8,0.4l1.1,0.2l0.1-0.4h0.7l0.2-0.3l-0.3-0.1
		v-0.4l-1-0.5L44,161l-0.4,0.2v0.5l-0.4-0.1l-0.1-0.3l0.4-0.4h-0.7l-0.2,0.1l-0.1,0.2h0.3l-0.1,0.3h-0.5l-0.1,0.2h-0.7
		c0-0.1,0-0.3,0-0.4H42l0.4-0.4l-0.2-0.1l-0.3,0.3h-0.5l-0.3-0.4h-0.6l-0.7,0.5h0.6v0.2l-0.2,0.1h0.7l0.1,0.2h-0.7v-0.2l-0.4-0.3
		l-0.2-0.1H39c4.2-3,9.9-2.8,13.7,0.6l-0.1,0.2l-0.5,0.2l-0.2,0.2v0.3h0.3l0.2,0.4l0.4-0.2l0.1,0.5h-0.1l-0.4-0.1l-0.4,0.1l-0.4,0.6
		l-0.6,0.1l-0.1,0.5h0.2l-0.1,0.3l-0.6-0.1L50,165l-0.1,0.3l0.1,0.6l0.3,0.1h0.5h0.3l0.1-0.3l0.5-0.7l0.3,0.1l0.3-0.3l0.1,0.2
		l0.9,0.6l-0.1,0.1h-0.4l0.2,0.2h0.2l0.3-0.1v-0.3l0.1-0.1l-0.1-0.1l-0.6-0.3l-0.2-0.4h0.5l0.2,0.1l0.4,0.4v0.4l0.4,0.4l0.2-0.6
		l0.3-0.2v0.5l0.3,0.3h0.6C55.7,166.4,55.8,166.7,55.9,167.1L55.9,167.1z M40,163.6l0.3-0.1l0.3,0.1l-0.1,0.4l-0.3,0.1L40,163.6z
		 M41.5,164.4v0.2h-0.7l-0.2-0.1l0.1-0.1l0.3-0.1h0.4v0.1L41.5,164.4z M41.8,164.7v0.2l-0.2,0.1h-0.2v-0.4L41.8,164.7z M41.6,164.6
		v-0.3l0.2,0.2L41.6,164.6z M41.8,165.2v0.2l-0.2,0.2h-0.3v-0.2h0.2v-0.1L41.8,165.2z M40.9,164.7h0.4l-0.5,0.6l-0.2-0.1V165
		L40.9,164.7z M42.4,165.1v0.2H42l-0.1-0.1V165l0,0L42.4,165.1z M42,164.8l0.1-0.1l0.2,0.1l-0.1,0.1L42,164.8z M56.1,167.7
		L56.1,167.7c0,0.1,0,0.1,0,0.2V167.7z"/>
	<path class="st3" d="M35.3,165.5v0.3c0.1-0.3,0.3-0.6,0.4-0.8L35.3,165.5z"/>
	<path class="st3" d="M54.2,178c4.1-4.6,4-11.6-0.2-16.1l0,0c-2.2-2.3-5.2-3.7-8.3-3.8h-0.8c-3.2,0.1-6.2,1.5-8.3,3.8l0,0
		c-4.2,4.5-4.3,11.5-0.2,16.1l0,0l0,0c2.2,2.4,5.3,3.9,8.5,4h0.8C48.9,181.9,52,180.4,54.2,178L54.2,178L54.2,178z M34.1,170.4h5
		c0,1.7,0.4,3.4,1,5.1c-1.2,0.4-2.3,1-3.3,1.7C35.1,175.3,34.2,172.9,34.1,170.4z M36.9,162.6c1,0.7,2.1,1.2,3.3,1.6
		c-0.7,1.7-1.1,3.6-1.1,5.4h-5C34.2,167,35.2,164.5,36.9,162.6z M56.4,169.6h-5c0-1.9-0.4-3.7-1.1-5.4c1.2-0.4,2.2-0.9,3.3-1.6
		C55.3,164.5,56.3,167,56.4,169.6L56.4,169.6z M44.8,164.2c-1.2,0-2.4-0.2-3.5-0.5c0.8-1.7,2-3.3,3.5-4.6V164.2z M44.8,165v4.6h-5
		c0-1.8,0.4-3.5,1.1-5.2C42.2,164.8,43.5,165,44.8,165z M45.7,165c1.3,0,2.6-0.2,3.8-0.6c0.7,1.6,1.1,3.4,1.1,5.2h-5L45.7,165z
		 M45.7,164.2v-5.1c1.5,1.3,2.7,2.8,3.5,4.6C48,164,46.9,164.2,45.7,164.2L45.7,164.2z M50,163.4c-0.8-1.7-1.9-3.2-3.3-4.5
		c2.4,0.3,4.6,1.4,6.3,3C52,162.6,51,163.1,50,163.4L50,163.4z M40.5,163.4c-1.1-0.4-2.1-0.9-3-1.5c1.7-1.6,3.9-2.7,6.3-3
		C42.5,160.3,41.3,161.8,40.5,163.4L40.5,163.4z M39.9,170.4h5v4.2c-1.4,0-2.7,0.2-4,0.6C40.2,173.7,39.9,172.1,39.9,170.4
		L39.9,170.4z M44.8,175.4v5.5c-1.6-1.4-2.8-3-3.7-4.9C42.4,175.7,43.6,175.4,44.8,175.4L44.8,175.4z M45.7,181v-5.6
		c1.2,0,2.5,0.2,3.7,0.6C48.5,177.9,47.2,179.6,45.7,181L45.7,181z M45.7,174.6v-4.2h5c-0.1,1.6-0.4,3.3-1,4.8
		C48.4,174.8,47,174.6,45.7,174.6L45.7,174.6z M51.4,170.5h5c-0.1,2.5-1,4.9-2.6,6.8c-1-0.7-2.2-1.3-3.4-1.7
		C51.1,173.9,51.4,172.2,51.4,170.5L51.4,170.5z M37.3,177.8c1-0.6,2-1.2,3.1-1.6c0.8,1.8,2,3.5,3.4,4.8
		C41.3,180.8,39,179.6,37.3,177.8L37.3,177.8z M46.7,181.1c1.4-1.4,2.6-3,3.4-4.8c1.1,0.4,2.1,0.9,3.1,1.6
		C51.5,179.6,49.2,180.8,46.7,181.1L46.7,181.1z"/>
	<polygon class="st3" points="50.9,101 51,101.2 50.7,101.2 50.7,101.6 51,101.6 51.4,101.5 51.6,101.3 51.4,101.2 51.3,101 
		51.1,100.7 51,100.3 50.6,100.4 50.5,100.5 50.5,100.7 50.7,100.8 	"/>
	<polygon class="st3" points="50.6,101.1 50.7,100.9 50.4,100.8 50.2,100.9 49.9,101.2 49.9,101.4 50.2,101.4 	"/>
	<path class="st3" d="M44.5,102.1l-0.1,0.2h-0.3v0.2h0.1v0.1h0.2l0.1-0.1v-0.1h0.2l0.1-0.1L44.5,102.1L44.5,102.1z"/>
	<polygon class="st3" points="43.7,102.4 43.7,102.6 44,102.6 44,102.4 43.8,102.3 	"/>
	<path class="st3" d="M57.4,107.5c0-0.4,0-0.7-0.1-1c-0.1-1.1-0.4-2.2-0.8-3.3l-0.1-0.2c-0.5-1.3-1.3-2.5-2.2-3.5l-0.2-0.2
		c-0.2-0.2-0.4-0.4-0.6-0.5c-4.6-4.2-11.6-4.1-16.2,0.1c-0.5,0.5-1,1-1.4,1.5c-4.1,5.2-3.3,12.7,1.9,16.9c5.2,4.1,12.7,3.3,16.9-1.9
		c0.5-0.7,1-1.4,1.4-2.2c0.4-0.8,0.8-1.7,1-2.6c0.1-0.2,0.1-0.5,0.1-0.7c0.1-0.7,0.2-1.4,0.2-2.1C57.5,107.6,57.5,107.6,57.4,107.5z
		 M55.2,102.7L55.2,102.7l0.3,0.5h-0.1h-0.2V102.7z M53.5,100.6v-0.5c0.2,0.2,0.4,0.4,0.5,0.6l-0.2,0.3H53l-0.1-0.2L53.5,100.6z
		 M39,99.3L39,99.3h0.2v-0.1h0.4v0.2l-0.1,0.1H39L39,99.3L39,99.3z M39.4,99.8h0.3v0.2h-0.5L39,99.9L39.4,99.8z M55.9,104.6h-0.9
		l-0.5-0.4l-0.6,0.1v0.3h-0.1l-0.2-0.1l-1-0.2v-0.6l-1.2,0.1l-0.4,0.2h-0.5h-0.2l-0.6,0.3v0.6l-1.2,0.9l0.1,0.4h0.2l-0.1,0.4
		l-0.2,0.1v0.9l1,1.2h0.5v-0.1h0.8l0.2-0.2h0.5l0.2,0.2l0.7,0.1l-0.1,0.9l0.8,1.4l-0.4,0.8v0.4l0.3,0.3v0.9l0.4,0.6v0.7h0.4
		c-3.8,4.7-10.8,5.4-15.5,1.6c-3.8-3.1-5.1-8.3-3.2-12.8V103l0.4-0.5c0.1-0.3,0.3-0.5,0.4-0.8v0.2l-0.4,0.6
		c-0.1,0.3-0.3,0.5-0.4,0.8v0.6l0.5,0.2v0.9l0.4,0.8l0.3,0.1v-0.3l-0.4-0.6l-0.1-0.6h0.2l0.1,0.6l0.6,0.9l-0.2,0.3l0.4,0.6l1,0.2
		v-0.2l0.4,0.1v0.3l0.3,0.1l0.5,0.1L40,108l0.8,0.1l0.1,0.7l-0.6,0.4v0.6l-0.1,0.4l0.8,1l0.1,0.4l0.3,0.1l0.7,0.5v1.9l0.2,0.1
		l-0.2,0.9l0.4,0.5l-0.1,0.9l0.5,0.9l0.7,0.6h0.7l0.1-0.2l-0.5-0.4v-0.2l0.1-0.2v-0.3h-0.3l-0.2-0.2l0.3-0.3v-0.2l-0.3-0.1v-0.2
		l0.4-0.1l0.7-0.3l0.2-0.4l0.7-0.9l-0.2-0.7l0.2-0.4h0.6l0.4-0.3l0.1-1.3l0.5-0.6l0.1-0.4l-0.4-0.1l-0.3-0.5h-1l-0.8-0.3v-0.6
		l-0.3-0.4h-0.7l-0.4-0.6l-0.4-0.2v0.2h-0.7l-0.2-0.3l-0.7-0.1l-0.6,0.6l-0.9-0.1l-0.1-1l-0.6-0.1l0.3-0.5l-0.1-0.3l-0.8,0.6
		l-0.5-0.1l-0.2-0.4l0.1-0.4l0.3-0.5l0.7-0.3h1.3v0.4l0.5,0.2v-0.7l0.3-0.3l0.7-0.4v-0.3l0.7-0.7l0.7-0.4l-0.1-0.1l0.5-0.5l0.2,0.1
		L44,102l0.2-0.2l0,0H44l-0.2-0.1v-0.2l0.1-0.1h0.2h0.1l0.1,0.2h0.1l0,0l0.3-0.1l0.1-0.2H45v0.2l-0.2,0.1l0,0v0.2l0.6,0.2h0.1v-0.3
		l-0.5-0.2v-0.1l0.4-0.1v-0.4l-0.4-0.3V100l-0.6,0.3h-0.2l0.1-0.5l-0.8-0.2l-0.3,0.2v0.8l-0.6,0.2l-0.2,0.5h-0.3v-0.6l-0.6-0.1
		l-0.3-0.2l-0.1-0.4l1-0.6l0.5-0.1v0.3H43v-0.2h0.3v-0.1h-0.1v-0.2h0.3l0.2-0.2l0,0l0.1-0.1l0.7-0.1l0.3,0.3L44,99.6l1.1,0.2
		l0.1-0.4h0.7l0.2-0.3l-0.3-0.1v-0.4l-1-0.5L44,98.3l-0.4,0.2V99l-0.4-0.1l-0.1-0.3l0.4-0.4h-0.7l-0.2,0.1l-0.1,0.2h0.3l-0.1,0.3
		h-0.5l-0.1,0.2h-0.7c0-0.1,0-0.3,0-0.4H42l0.4-0.4l-0.2-0.1l-0.3,0.3h-0.5L41.1,98h-0.6l-0.7,0.5h0.6v0.2l-0.2,0.1h0.7l0.1,0.2
		h-0.7v-0.2l-0.5-0.1l-0.2-0.1H39c4.2-3,9.9-2.8,13.7,0.6l-0.1,0.2l-0.5,0.2l-0.2,0.2v0.3h0.3l0.2,0.4l0.4-0.2l0.1,0.5h-0.1h-0.4
		l-0.4,0.1l-0.4,0.6l-0.6,0.1l-0.1,0.5h0.2l-0.1,0.3l-0.6-0.1l-0.5,0.1l-0.1,0.3l0.1,0.6l0.3,0.1h0.5h0.3l0.1-0.3l0.5-0.7l0.3,0.1
		l0.3-0.3l0.1,0.2l0.9,0.6l-0.1,0.1h-0.4l0.2,0.2l0.2,0.1l0.3-0.1v-0.3l0.1-0.1l-0.1-0.1l-0.6-0.3l-0.2-0.4h0.5l0.2,0.1l0.4,0.4v0.4
		l0.4,0.4l0.2-0.6l0.3-0.2v0.5l0.3,0.3h0.6C55.7,103.9,55.8,104.2,55.9,104.6L55.9,104.6z M40,101.1l0.3-0.1l0.3,0.1l-0.1,0.4
		l-0.3,0.1L40,101.1z M41.5,101.9v0.2h-0.7l-0.2-0.1l0.1-0.2l0.3-0.1h0.4v0.1H41.5z M41.8,102.2v0.2l-0.2,0.1h-0.2v-0.4L41.8,102.2z
		 M41.6,102.1v-0.3l0.2,0.2L41.6,102.1z M41.8,102.7v0.2l-0.2,0.2h-0.3v-0.2h0.2v-0.1L41.8,102.7z M40.9,102.2h0.4l-0.5,0.6
		l-0.2-0.1v-0.3L40.9,102.2z M42.4,102.6v0.2H42l-0.1-0.1v-0.2l0,0L42.4,102.6z M42,102.3l0.1-0.1l0.2,0.1l-0.1,0.1L42,102.3z
		 M56.1,105.1L56.1,105.1c0,0.1,0,0.1,0,0.2V105.1z"/>
	<path class="st3" d="M35.3,103v0.3c0.1-0.3,0.3-0.6,0.4-0.8L35.3,103z"/>
	<path class="st3" d="M54.2,115.5c4.1-4.6,4-11.6-0.2-16.1l0,0c-2.2-2.3-5.2-3.7-8.3-3.8h-0.8c-3.2,0.1-6.2,1.5-8.3,3.8l0,0
		c-4.2,4.5-4.3,11.5-0.2,16.1l0,0l0,0c2.2,2.4,5.3,3.9,8.5,4h0.8C48.9,119.3,52,117.9,54.2,115.5L54.2,115.5L54.2,115.5z
		 M34.1,107.9h5c0.1,1.7,0.4,3.4,1,5c-1.2,0.4-2.3,1-3.3,1.7C35.1,112.8,34.2,110.4,34.1,107.9z M36.9,100.1c1,0.7,2.1,1.2,3.3,1.6
		c-0.7,1.7-1.1,3.6-1.1,5.4h-5C34.2,104.5,35.2,102,36.9,100.1z M56.4,107.1h-5c0-1.9-0.4-3.7-1.1-5.4c1.1-0.4,2.2-0.9,3.3-1.6
		C55.3,102,56.3,104.5,56.4,107.1L56.4,107.1z M44.8,101.7c-1.2,0-2.4-0.2-3.5-0.5c0.8-1.7,2-3.3,3.5-4.6V101.7z M44.8,102.5v4.6h-5
		c0-1.8,0.4-3.5,1.1-5.2C42.2,102.3,43.5,102.5,44.8,102.5z M45.7,102.5c1.3,0,2.6-0.2,3.8-0.6c0.7,1.6,1.1,3.4,1.1,5.2h-5
		L45.7,102.5z M45.7,101.7v-5.1c1.5,1.3,2.7,2.8,3.5,4.6C48,101.5,46.9,101.7,45.7,101.7L45.7,101.7z M50,100.9
		c-0.8-1.7-1.9-3.2-3.3-4.5c2.4,0.3,4.6,1.4,6.3,3C52,100.1,51,100.6,50,100.9L50,100.9z M40.5,100.9c-1.1-0.4-2.1-0.9-3-1.5
		c1.7-1.6,3.9-2.7,6.3-3C42.5,97.7,41.3,99.3,40.5,100.9L40.5,100.9z M39.9,107.9h5v4.1c-1.4,0-2.7,0.2-4,0.6
		C40.2,111.2,39.9,109.6,39.9,107.9L39.9,107.9z M44.8,112.9v5.4c-1.6-1.4-2.8-3-3.7-4.9C42.4,113.1,43.6,112.9,44.8,112.9
		L44.8,112.9z M45.7,118.4v-5.5c1.2,0,2.5,0.2,3.7,0.6C48.5,115.4,47.2,117,45.7,118.4L45.7,118.4z M45.7,112.1V108h5
		c-0.1,1.6-0.4,3.3-1,4.8C48.4,112.3,47,112.1,45.7,112.1L45.7,112.1z M51.4,108h5c-0.1,2.5-1,4.9-2.6,6.8c-1-0.7-2.2-1.3-3.4-1.7
		C51.1,111.4,51.4,109.7,51.4,108L51.4,108z M37.3,115.3c1-0.6,2-1.2,3.1-1.6c0.8,1.8,2,3.5,3.5,4.8C41.3,118.3,39,117.1,37.3,115.3
		L37.3,115.3z M46.7,118.6c1.4-1.4,2.6-3,3.4-4.8c1.1,0.4,2.1,0.9,3.1,1.6C51.5,117.1,49.2,118.3,46.7,118.6L46.7,118.6z"/>
	<polygon class="st3" points="50.9,38.5 51,38.6 50.7,38.7 50.7,39.1 51,39.1 51.4,39 51.6,38.8 51.4,38.7 51.3,38.5 51.1,38.2 
		51,37.8 50.6,37.9 50.5,38 50.5,38.2 50.7,38.3 	"/>
	<polygon class="st3" points="50.6,38.6 50.7,38.4 50.4,38.3 50.2,38.4 49.9,38.7 49.9,38.9 50.2,38.9 	"/>
	<path class="st3" d="M44.5,39.6l-0.1,0.2h-0.3V40h0.1V40h0.2l0.1-0.1v-0.2h0.2l0.1-0.1L44.5,39.6L44.5,39.6z"/>
	<polygon class="st3" points="43.7,39.9 43.7,40.1 44,40.1 44,39.9 43.8,39.8 	"/>
	<path class="st3" d="M57.4,45c0-0.3,0-0.7-0.1-1c-0.1-1.1-0.4-2.2-0.8-3.3l-0.1-0.2C56,39.2,55.2,38,54.3,37l-0.2-0.2l-0.6-0.5
		c-4.6-4.2-11.6-4.2-16.2,0c-0.5,0.5-1,1-1.4,1.5c-4.1,5.2-3.3,12.7,1.9,16.9c5.2,4.1,12.7,3.3,16.9-1.9c0.5-0.7,1-1.4,1.4-2.2
		c0.4-0.8,0.8-1.7,1-2.7c0.1-0.2,0.1-0.5,0.1-0.7c0.1-0.7,0.2-1.4,0.2-2.1C57.5,45.1,57.5,45,57.4,45z M55.2,40.2L55.2,40.2l0.3,0.5
		h-0.1h-0.2V40.2z M53.5,38.1v-0.5c0.2,0.2,0.4,0.4,0.5,0.6l-0.2,0.3H53L53,38.4L53.5,38.1z M39,36.8L39,36.8h0.2v-0.1h0.4v0.2
		L39.5,37H39L39,36.8L39,36.8z M39.4,37.3h0.3v0.2h-0.5L39,37.4L39.4,37.3z M55.9,42.1h-0.9l-0.5-0.4H54V42h-0.1l-0.2-0.1l-1-0.2V41
		l-1.2,0.1L51,41.3h-0.5h-0.2l-0.6,0.3v0.6l-1.2,0.9l0.1,0.4h0.2l-0.1,0.4l-0.2,0.1v0.9l1,1.2h0.5V46h0.8l0.2-0.2h0.5l0.2,0.3
		l0.7,0.1L52.4,47l0.8,1.4l-0.4,0.8v0.4l0.3,0.3v0.9l0.4,0.6V52h0.4c-3.8,4.7-10.8,5.4-15.5,1.6c-3.8-3.1-5.1-8.3-3.2-12.8v-0.3
		l0.4-0.5c0.1-0.3,0.3-0.5,0.4-0.8v0.2L35.6,40c-0.1,0.3-0.3,0.5-0.4,0.8v0.6l0.5,0.2v0.9l0.4,0.8h0.3V43l-0.4-0.6L36,41.7h0.2
		l0.1,0.6l0.6,0.9l-0.2,0.3l0.4,0.6l1,0.2v-0.2l0.4,0.1v0.3l0.3,0.1l0.5,0.1l0.7,0.8l0.8,0.1l0.1,0.7l-0.6,0.4v0.6l-0.1,0.4l0.8,1
		l0.1,0.4l0.3,0.1l0.7,0.5v1.9l0.2,0.1l-0.2,0.9l0.4,0.5l-0.1,0.9l0.5,0.9l0.7,0.6h0.7l0.1-0.2L44,54.6v-0.2l0.1-0.2v-0.2h-0.3
		l-0.2-0.2l0.3-0.3v-0.2l-0.3-0.1V53l0.4-0.1l0.7-0.3l0.2-0.4l0.7-0.9l-0.2-0.7l0.2-0.4h0.6l0.4-0.3l0.1-1.3l0.5-0.6l0.1-0.4
		l-0.4-0.1L46.6,47h-1l-0.8-0.3v-0.5l-0.3-0.4h-0.7l-0.4-0.6l-0.4-0.2v0.2h-0.7l-0.2-0.3l-0.7-0.1L41,45.3l-0.9-0.2l-0.1-1L39.4,44
		l0.3-0.5l-0.1-0.3l-0.8,0.6l-0.5-0.1L38,43.3l0.1-0.4l0.3-0.5l0.7-0.3h1.3v0.4l0.5,0.2V42l0.3-0.3l0.7-0.4v-0.3l0.7-0.7l0.7-0.4
		l-0.1-0.1l0.6-0.3H44l0.1,0.1l0.2-0.2l0,0h-0.2l-0.2-0.1V39l0.1-0.1h0.2l0.1,0.1l0.1,0.2h0.1l0,0l0,0l0.3-0.1l0.1-0.2l0.2,0.1v0.2
		L45,39.3l0,0v0.2l0.6,0.2l0,0h0.1v-0.3l-0.5-0.2V39l0.4-0.1v-0.4l-0.4-0.3v-0.7l-0.6,0.3h-0.2l0.1-0.5l-0.8-0.2l-0.3,0.2v0.8
		l-0.6,0.2l-0.2,0.5h-0.3v-0.5l-0.6-0.1l-0.3-0.2l-0.1-0.4l1-0.6l0.5-0.2v0.3h0.3v-0.2h0.3v-0.1l-0.1-0.1v-0.2h0.3l0.2-0.2l0,0l0,0
		l0.1-0.1l0.7-0.1l0.3,0.3l-0.8,0.4l1.1,0.2l0.1-0.3h0.6l0.2-0.3l-0.3-0.1v-0.4l-1-0.5L44,36l-0.4,0.2v0.5l-0.4-0.1l-0.1-0.3
		l0.4-0.4h-0.7l-0.2,0.1l-0.1,0.2h0.3l-0.1,0.3h-0.5l-0.1,0.2h-0.7c0-0.1,0-0.3,0-0.4H42l0.4-0.4l-0.2-0.1l-0.3,0.3h-0.5l-0.3-0.4
		h-0.6l-0.7,0.5h0.6v0.2l-0.2,0.1h0.7l0.1,0.2h-0.7v-0.2l-0.4-0.2l-0.2-0.1H39c4.2-3,9.9-2.8,13.7,0.6l-0.1,0.2l-0.5,0.2l-0.2,0.2
		v0.3h0.3l0.2,0.4l0.4-0.2l0.1,0.5h-0.1l-0.4-0.1l-0.4,0.1l-0.4,0.6L51,39.2l-0.1,0.5l0.2,0.1l-0.1,0.3L50.5,40L50,40.1l-0.1,0.3
		l0.1,0.6l0.3,0.2h0.5h0.3l0.1-0.3l0.5-0.7l0.3,0.1l0.3-0.3l0.1,0.2l0.9,0.6l-0.1,0.1h-0.4l0.2,0.2h0.2l0.3-0.1v-0.3l0.1-0.1
		l-0.1-0.1L53,40.2l-0.2-0.4h0.5l0.2,0.2l0.4,0.3v0.4l0.4,0.4l0.2-0.6l0.3-0.2v0.5l0.3,0.3h0.6C55.7,41.4,55.8,41.7,55.9,42.1
		L55.9,42.1z M40,38.6l0.3-0.1l0.3,0.1l-0.1,0.3l-0.3,0.1L40,38.6z M41.5,39.4v0.2h-0.7l-0.2-0.1l0.1-0.2l0.3-0.1h0.4v0.1L41.5,39.4
		z M41.8,39.7v0.2L41.7,40h-0.2v-0.4L41.8,39.7z M41.6,39.6v-0.2l0.2,0.2L41.6,39.6z M41.8,40.2v0.2l-0.2,0.2h-0.3v-0.2h0.2v-0.1
		L41.8,40.2z M40.9,39.7h0.4l-0.5,0.7l-0.2-0.1V40L40.9,39.7z M42.4,40.1v0.2H42l-0.1-0.1V40l0,0L42.4,40.1z M42,39.8l0.1-0.1
		l0.2,0.1l-0.1,0.1L42,39.8z M56.1,42.6L56.1,42.6c0,0.1,0,0.1,0,0.2V42.6z"/>
	<path class="st3" d="M35.3,40.5v0.3c0.1-0.3,0.3-0.6,0.4-0.8L35.3,40.5z"/>
	<path class="st3" d="M54.2,53c4.1-4.6,4-11.6-0.2-16.2l0,0c-2.2-2.3-5.2-3.7-8.3-3.8h-0.8c-3.2,0.1-6.2,1.5-8.3,3.8l0,0
		c-4.2,4.5-4.3,11.5-0.2,16.2l0,0l0,0c2.2,2.4,5.3,3.9,8.5,4h0.8C48.9,56.8,52,55.4,54.2,53L54.2,53L54.2,53z M34.1,45.4h5
		c0.1,1.7,0.4,3.4,1,5c-1.2,0.4-2.3,1-3.3,1.7C35.1,50.2,34.2,47.8,34.1,45.4z M36.9,37.5c1,0.7,2.1,1.2,3.3,1.6
		c-0.7,1.7-1.1,3.6-1.1,5.4h-5C34.2,42,35.2,39.5,36.9,37.5L36.9,37.5z M56.4,44.5h-5c0-1.9-0.4-3.7-1.1-5.4
		c1.2-0.4,2.2-0.9,3.3-1.6C55.3,39.5,56.3,42,56.4,44.5L56.4,44.5z M44.8,39.2c-1.2,0-2.4-0.2-3.5-0.5c0.8-1.7,2-3.3,3.5-4.6V39.2z
		 M44.8,40v4.6h-5c0-1.8,0.4-3.5,1.1-5.2C42.2,39.8,43.5,40,44.8,40z M45.7,40c1.3,0,2.6-0.2,3.8-0.6c0.7,1.6,1.1,3.4,1.1,5.2h-5
		L45.7,40z M45.7,39.2v-5.1c1.5,1.3,2.7,2.8,3.5,4.6C48,39,46.9,39.2,45.7,39.2L45.7,39.2z M50,38.4c-0.8-1.7-1.9-3.2-3.3-4.5
		c2.4,0.3,4.6,1.4,6.3,3C52,37.5,51,38,50,38.4L50,38.4z M40.5,38.4c-1.1-0.4-2.1-0.9-3-1.5c1.7-1.6,3.9-2.7,6.3-3
		C42.5,35.2,41.3,36.7,40.5,38.4L40.5,38.4z M39.9,45.4h5v4.2c-1.4,0-2.7,0.2-4,0.6C40.2,48.7,39.9,47,39.9,45.4L39.9,45.4z
		 M44.8,50.4v5.5c-1.6-1.4-2.8-3-3.7-4.9C42.4,50.6,43.6,50.4,44.8,50.4L44.8,50.4z M45.7,55.9v-5.5c1.2,0,2.5,0.2,3.7,0.6
		C48.5,52.8,47.2,54.5,45.7,55.9L45.7,55.9z M45.7,49.6v-4.2h5c-0.1,1.6-0.4,3.3-1,4.8C48.4,49.8,47,49.6,45.7,49.6L45.7,49.6z
		 M51.4,45.4h5c-0.1,2.5-1,4.9-2.6,6.8c-1-0.7-2.2-1.3-3.4-1.7C51.1,48.9,51.4,47.1,51.4,45.4L51.4,45.4z M37.3,52.8
		c1-0.6,2-1.2,3.1-1.6c0.8,1.8,2,3.5,3.4,4.8C41.3,55.8,39,54.6,37.3,52.8L37.3,52.8z M46.7,56.1c1.4-1.4,2.6-3,3.4-4.8
		c1.1,0.4,2.1,0.9,3.1,1.6C51.5,54.6,49.2,55.8,46.7,56.1L46.7,56.1z"/>
	<path class="st3" d="M32.2,76.3c0-6,3-8.6,6.4-8.6s6.4,2.6,6.4,8.6s-3,8.7-6.4,8.7S32.2,82.4,32.2,76.3z M42,76.3
		c0-3.4-1.4-5.4-3.4-5.4s-3.5,2-3.5,5.4s1.3,5.4,3.5,5.4S42,79.8,42,76.3z"/>
	<path class="st3" d="M47.2,67.8h2.9V75l4.6-7.1h3.7l-5.6,8l5.7,8.9h-3.6l-4.8-8v8h-2.9L47.2,67.8z"/>
	<path class="st3" d="M32.2,263.8c0-6,3-8.6,6.4-8.6s6.4,2.6,6.4,8.6s-3,8.7-6.4,8.7S32.2,269.9,32.2,263.8z M42,263.8
		c0-3.4-1.4-5.4-3.4-5.4s-3.5,2-3.5,5.4s1.3,5.4,3.5,5.4S42,267.3,42,263.8z"/>
	<path class="st3" d="M47.2,255.4h2.9v7.1l4.6-7.1h3.7l-5.6,8l5.7,8.9h-3.6l-4.8-8v8h-2.9L47.2,255.4z"/>
</g>
<g class="st4">
	<path d="M326.6,173c0,30.6-1.3,105.1-82.5,105.1h-52.9c-3.6,0-6.6-3.4-6.6-7.6v-195c0-4.2,3-7.6,6.6-7.6h52.9
		C325.3,68,326.6,142.4,326.6,173z M288.3,146.2c-3.4-25.4-13.5-35.6-19.5-38.9c-4.6-2.6-15.5-4.7-24.4-5.7c-8.8-1-15.7,0-15.7,0
		c-3.7,0-6.7,3.4-6.7,7.7v127.5c0,4.3,3,7.7,6.7,7.7c0,0,7.9,0.6,15.7,0c7.9-0.6,19.8-3,24.4-5.7c5.1-3,15.9-13.6,19.5-38.9
		C289.8,189.1,289.8,157,288.3,146.2z"/>
</g>
<g class="st4">
	<path d="M472.2,75.3v137.1c0,16.3-4.7,27.1-9.4,36.1c-4.7,9.1-15.1,17.7-20.8,20.9c-5.8,3.2-14.8,8.7-38.7,8.7
		c-15.4,0-28.7-3.6-36.2-6.1c-3.9-1.3-6.6-5-6.6-9v-18.4c0-5.2,5.3-8.9,10.4-7.2c9.5,3.2,24,7.4,33,7.4c8.1,0,12.7-0.8,15.1-1.5
		c1.7-0.5,5.1-2.3,5.1-2.3c3.6-2.1,5.2-4.4,6.2-5.9c3.1-6,5.3-11,5.3-19.6V77c0-5,4.1-9,9.2-9h19.8C468.8,68,472.2,71.3,472.2,75.3z
		"/>
</g>
<g class="st4">
	<path d="M712.3,76.1c0,3.2,0,10.2,0,16.1c0,8.6-0.5,10.9-4,19.6c-13.9,34.5-61.1,148.5-63.6,154.5c-4.2,9.8-4.2,9.8-14.2,9.8
		c-8,0-13.2,0.3-16.3,0.3c-5.3,0-8.6-3.6-6-9.8c14.3-34.8,61.6-149,63.3-153.1c2.8-6.7-1.7-13.5-10.8-13.5c-19.8,0-62.2,0-66.9,0
		c-6.2,0-10.1-4.5-10.1-9.8c0-6,0-11,0-14c0-5.8,3.8-9.8,10.1-9.8c27.9,0,103.9,0,108.5,0C707.8,66.3,712.3,70.1,712.3,76.1z"/>
</g>
<g class="st4">
	<path d="M860.8,207.8c0,40.1-28.1,72-65,72c-50.8,0-63.8-50.8-63.8-84.1c0-22.8,2-55.9,28.2-89.2c25.2-32.1,43.1-40.3,46.4-42.2
		c2.3-1.3,8.6-6.2,12-0.7c3.4,5.4,7.5,14,8.7,16.5c2.1,4.4,0.6,7.2-3.9,9.8c-6.8,3.9-18.1,14-26,21.1c-7.7,7-13.1,14.3-15.3,17.6
		c-4.6,6.9,0.1,12.2,3.6,11.5c3.9-0.7,7.3-1.5,10-1.8C824.8,135.4,860.8,154.2,860.8,207.8z M823.5,209.3c0-12,0.1-16.4-3.2-25.5
		c-5.2-10.6-15.4-17.2-24.6-17.2c-9.2,0-17.9,6.5-23.2,17.2c-3.2,9.1-3.2,13.5-3.2,25.3c0,11.8,0,16.4,3.2,25.3
		c5.2,9.9,14.1,16.5,23.3,16.5c9.2,0,19.4-6.5,24.6-16.5C823.5,225.6,823.5,221.3,823.5,209.3z"/>
</g>
<g class="st4">
	<path d="M1094.1,76.1c0,3.2,0,10.2,0,16.1c0,8.6-0.5,10.9-4,19.6c-13.9,34.5-61.1,148.5-63.6,154.5c-4.2,9.8-4.2,9.8-14.2,9.8
		c-8,0-13.2,0.3-16.3,0.3c-5.3,0-8.6-3.6-6-9.8c14.3-34.8,61.6-149,63.3-153.1c2.8-6.7-1.7-13.5-10.8-13.5c-19.8,0-62.2,0-66.9,0
		c-6.2,0-10.1-4.5-10.1-9.8c0-6,0-11,0-14c0-5.8,3.8-9.8,10.1-9.8c27.9,0,103.9,0,108.5,0C1089.5,66.3,1094.1,70.1,1094.1,76.1z"/>
</g>
<g class="st4">
	<path d="M1139.6,95.4c0-6.1,0-3.1,0-9.7c0-6.6,4.2-10.4,9.8-11.3c5.6-0.9,38.4-6.5,45.8-7.7c7.4-1.2,9.8,2.5,9.8,8.2
		s0,152.5,0,158.9c0,9.3,2.9,9.8,9.8,9.8c5.5,0,9,0,13.9,0c5,0,9.8,4,9.8,9.8c0,5.9,0,7.3,0,13.4s-4.7,9.8-9.8,9.8
		c-5.1,0-76.1,0-81.2,0s-9.8-3.5-9.8-9.8c0-6.3,0-7.1,0-13.4c0-6.3,4.8-9.8,9.8-9.8c5,0,9,0,14,0c7.6,0,9.8-0.5,9.8-9.8
		c0-5.5,0-113.1,0-118.7c0-8.1-1.6-9.8-9.8-9.8c-5.5,0-6.2,0-12.2,0S1139.6,101.5,1139.6,95.4z"/>
</g>
</svg>
