<?xml version="1.0" encoding="utf-8"?>
<!-- Generator: Adobe Illustrator 24.1.0, SVG Export Plug-In . SVG Version: 6.00 Build 0)  -->
<svg version="1.1" id="Réteg_1" xmlns="http://www.w3.org/2000/svg" xmlns:xlink="http://www.w3.org/1999/xlink" x="0px" y="0px"
	 viewBox="0 0 1428.7 340.2" style="enable-background:new 0 0 1428.7 340.2;" xml:space="preserve">
<style type="text/css">
	.st0{fill:#FFFFFF;}
	.st1{fill:#E01E14;}
	.st2{fill:#0183FD;}
	.st3{fill:#EFC902;}
	.st4{fill:#BFBDBB;}
	.st5{fill:#999898;}
	.st6{fill:#A5A3A3;}
	.st7{enable-background:new    ;}
</style>
<g id="Réteg_4">
	<g id="fehér_alap">
		<path class="st0" d="M33.4,0h1361.8c18.5,0,33.4,15,33.4,33.4v273.3c0,18.5-15,33.4-33.4,33.4H33.4C15,340.2,0,325.2,0,306.7V33.4
			C0,15,15,0,33.4,0z"/>
	</g>
	<g id="vörös_keret">
		<path class="st1" d="M1410.7,17.7c-5.9-5.9-13.9-9.2-22.2-9.2H39.5c-17.3,0-31.3,14-31.4,31.3c0,0,0,0,0,0v260.4
			c0,17.3,14,31.4,31.4,31.4h1348.9c17.3,0,31.4-14.1,31.4-31.4V39.9C1419.9,31.5,1416.6,23.6,1410.7,17.7z M1405.7,300.3
			c0,9.5-7.7,17.2-17.2,17.2H39.5c-9.5,0-17.2-7.7-17.2-17.1c0,0,0,0,0,0V39.9c0-9.5,7.7-17.2,17.1-17.2c0,0,0,0,0,0h1348.9
			c9.5,0,17.2,7.7,17.2,17.2L1405.7,300.3z"/>
	</g>
	<path class="st2" d="M157.4,31.2H39.5c-4.8,0-8.7,3.9-8.7,8.7v260.4c0,4.8,3.9,8.7,8.7,8.7h117.8V31.2z"/>
	<path id="path3775" class="st3" d="M55.7,83.5l2.2,5.4l5.8,0.2l-4.4,3.7l1.6,5.6L56,95.3l-4.8,3.3l1.4-5.6L48,89.4l5.7-0.4
		L55.7,83.5z"/>
	<path d="M50.7,99.2l1.5-6.2l-5-3.9l6.3-0.4l2.1-6l2.4,5.9l6.3,0.2l-4.9,4.1l1.8,6.1L56,95.6L50.7,99.2z M48.8,89.6l4.1,3.2l-1.2,5
		l4.3-2.9l4.4,2.8l-1.4-5l4-3.3l-5.2-0.1l-1.9-4.8L54,89.3L48.8,89.6z"/>
	<path d="M111.1,160l1.5-6.2l-5-3.9l6.3-0.4l2.1-6l2.4,5.9l6.3,0.2l-4.9,4.1l1.8,6.1l-5.4-3.4L111.1,160z M109.2,150.4l4.1,3.2
		l-1.2,5l4.3-2.9l4.4,2.8l-1.4-5l4-3.3l-5.2-0.1l-2-4.7l-1.7,4.9L109.2,150.4z"/>
	<path id="path3775-2" class="st3" d="M116.1,144.3l2.2,5.4l5.8,0.2l-4.4,3.7l1.6,5.6l-4.9-3.1l-4.8,3.3l1.4-5.6l-4.6-3.5l5.7-0.4
		L116.1,144.3z"/>
	<path id="path3775-3" class="st3" d="M71.9,67.2l2.2,5.4l5.8,0.2l-4.4,3.7L77,82L72.2,79l-4.8,3.3l1.4-5.6l-4.6-3.5l5.7-0.4
		L71.9,67.2z"/>
	<path d="M66.9,82.9l1.5-6.2l-5-3.9l6.3-0.4l2.1-6l2.4,5.9l6.3,0.2l-4.9,4.1l1.8,6.1l-5.4-3.4L66.9,82.9z M65,73.3l4.1,3.2l-1.2,5
		l4.3-2.9l4.4,2.8l-1.5-5l4-3.3l-5.2-0.2l-2-4.8L70.2,73L65,73.3z"/>
	<path id="path3775-4" class="st3" d="M71.9,144.3l2.2,5.4l5.8,0.2l-4.4,3.7l1.6,5.6l-4.9-3.1l-4.8,3.3l1.4-5.6l-4.6-3.5l5.7-0.4
		L71.9,144.3z"/>
	<path d="M66.9,160l1.5-6.2l-5-3.9l6.3-0.4l2.1-6l2.4,5.9l6.3,0.2l-4.9,4.1l1.8,6.1l-5.4-3.4L66.9,160z M65,150.4l4.1,3.2l-1.2,5
		l4.3-2.9l4.4,2.8l-1.5-5l4-3.3l-5.2-0.1l-2-4.8l-1.7,4.9L65,150.4z"/>
	<path id="path3775-5" class="st3" d="M116.1,67.2l2.2,5.4l5.8,0.2l-4.4,3.7l1.6,5.6l-4.9-3.1l-4.8,3.3l1.4-5.6l-4.6-3.5l5.7-0.4
		L116.1,67.2z"/>
	<path d="M111.1,82.9l1.5-6.2l-5-3.9l6.3-0.4l2.1-6l2.4,5.9l6.3,0.2l-4.9,4.1l1.8,6.1l-5.4-3.4L111.1,82.9z M109.2,73.3l4.1,3.2
		l-1.2,5l4.3-2.9l4.4,2.8l-1.4-5l4-3.3l-5.2-0.2l-1.9-4.8l-1.7,4.9L109.2,73.3z"/>
	<path id="path3775-6" class="st3" d="M55.7,128l2.2,5.4l5.8,0.2l-4.4,3.7l1.6,5.6l-4.9-3.1l-4.8,3.3l1.4-5.6l-4.6-3.5l5.7-0.4
		L55.7,128z"/>
	<path d="M50.7,143.7l1.5-6.2l-5-3.9l6.3-0.4l2.1-6l2.4,5.9l6.3,0.2l-4.9,4.1l1.8,6.1l-5.4-3.4L50.7,143.7z M48.8,134.1l4.1,3.2
		l-1.2,5l4.3-2.9l4.4,2.8l-1.4-5l4-3.3l-5.2-0.1l-1.9-4.8l-1.7,4.9L48.8,134.1z"/>
	<path id="path3775-7" class="st3" d="M132.3,83.5l2.2,5.4l5.8,0.2l-4.4,3.7l1.6,5.6l-4.9-3.1l-4.8,3.3l1.4-5.6l-4.6-3.5l5.7-0.4
		L132.3,83.5z"/>
	<path d="M127.3,99.2l1.5-6.2l-5-3.9l6.3-0.4l2.1-6l2.4,5.9l6.4,0.2l-4.9,4.1L138,99l-5.4-3.4L127.3,99.2z M125.4,89.6l4.1,3.2
		l-1.2,5l4.3-2.9l4.4,2.8l-1.5-5l4-3.3l-5.2-0.2l-1.9-4.8l-1.8,4.9L125.4,89.6z"/>
	<path id="path3775-8" class="st3" d="M138.2,105.8l2.2,5.4l5.8,0.2l-4.4,3.7l1.6,5.6l-4.9-3.1l-4.8,3.3l1.4-5.6l-4.5-3.5l5.8-0.4
		L138.2,105.8z"/>
	<path d="M133.2,121.5l1.5-6.2l-5-3.9l6.3-0.4l2.1-6l2.4,5.9l6.3,0.2l-4.9,4.1l1.8,6.1l-5.4-3.4L133.2,121.5z M131.3,111.9l4.1,3.2
		l-1.2,5l4.3-2.9l4.4,2.8l-1.5-5l4-3.3l-5.2-0.1l-1.9-4.8l-1.7,4.9L131.3,111.9z"/>
	<path id="path3775-9" class="st3" d="M49.8,105.8l2.2,5.4l5.8,0.2l-4.4,3.7l1.6,5.6l-4.9-3.1l-4.8,3.3l1.4-5.6l-4.5-3.5l5.7-0.4
		L49.8,105.8z"/>
	<path d="M44.8,121.5l1.5-6.2l-5-3.9l6.3-0.4l2.1-6l2.4,5.9l6.3,0.2l-4.9,4.1l1.8,6.1l-5.4-3.4L44.8,121.5z M42.9,111.9L47,115
		l-1.2,5l4.3-2.9l4.4,2.8l-1.4-5l4-3.3l-5.2-0.1l-1.9-4.8l-1.7,4.9L42.9,111.9z"/>
	<path id="path3775-10" class="st3" d="M94,150.2l2.2,5.4l5.8,0.2l-4.4,3.8l1.6,5.6l-4.9-3.1l-4.7,3.3l1.4-5.6l-4.6-3.5l5.7-0.4
		L94,150.2z"/>
	<path d="M89,165.9l1.5-6.2l-5-3.9l6.3-0.4l2.1-6l2.4,5.9l6.3,0.2l-4.9,4.1l1.8,6.1l-5.4-3.4L89,165.9z M87.1,156.3l4.1,3.2
		l-1.2,5.1l4.3-2.9l4.4,2.8l-1.4-5l4-3.3l-5.2-0.1l-1.9-4.8l-1.7,4.9L87.1,156.3z"/>
	<path id="path3775-11" class="st3" d="M94,61.3l2.2,5.4l5.8,0.2l-4.4,3.7l1.6,5.6l-4.9-3.1l-4.7,3.2l1.4-5.6l-4.6-3.5l5.7-0.4
		L94,61.3z"/>
	<path d="M89,77l1.5-6.2l-5-3.9l6.3-0.4l2.1-6l2.4,5.9l6.3,0.2l-4.9,4.1l1.8,6.1l-5.4-3.4L89,77z M87.1,67.4l4.1,3.2l-1.2,5l4.3-2.9
		l4.4,2.8l-1.4-5l4-3.3L96,66.9l-2-4.7l-1.7,4.9L87.1,67.4z"/>
	<path id="path3775-12" class="st3" d="M132.3,128l2.2,5.4l5.8,0.2l-4.4,3.7l1.6,5.6l-4.9-3.1l-4.8,3.3l1.4-5.6l-4.6-3.5l5.7-0.4
		L132.3,128z"/>
	<path d="M127.3,143.7l1.5-6.2l-5-3.9l6.3-0.4l2.1-6l2.4,5.9l6.4,0.2l-4.9,4.1l1.8,6.1l-5.4-3.4L127.3,143.7z M125.4,134.1l4.1,3.2
		l-1.2,5l4.3-2.9l4.4,2.8l-1.5-5l4-3.3l-5.2-0.1l-1.9-4.8l-1.8,4.9L125.4,134.1z"/>
	<polygon class="st0" points="136.1,206.2 124,206.2 108.4,230.8 108.2,206.2 99.1,206.2 99.1,233 99.1,232.9 99.1,259.7 
		108.2,259.7 108.4,235.1 124,259.7 136.1,259.7 117.6,232.9 	"/>
	<path class="st0" d="M80.4,212c-3.5-3.5-8.2-5.6-13.2-5.8H52.1v53.6h15.1c10.6-0.7,19-9.2,19.6-19.8v-14
		C86.7,220.6,84.4,215.6,80.4,212z M78,233L78,233v7c0,5.7-6.2,11-10.7,11H61v-18l0,0v-18h6.3c4.5,0,10.7,5.2,10.7,11V233z"/>
	<g id="hologram">
		<rect x="157.4" y="31.2" class="st4" width="28.4" height="277.8"/>
		<rect x="157.4" y="140.5" class="st5" width="28.4" height="56.7"/>
		<polygon class="st6" points="177.1,288.5 177.2,288.7 176.9,288.7 176.9,289.1 177.2,289.1 177.6,289.1 177.8,288.8 177.6,288.7 
			177.5,288.6 177.3,288.3 177.2,287.8 176.8,287.9 176.7,288 176.7,288.2 176.9,288.3 		"/>
		<polygon class="st6" points="176.8,288.6 176.9,288.4 176.6,288.3 176.4,288.4 176.1,288.7 176.1,289 176.4,289 		"/>
		<path class="st6" d="M170.8,289.7l-0.1,0.2h-0.3v0.2h0.1v0.1h0.2l0.1-0.1v-0.1h0.2l0.1-0.1L170.8,289.7L170.8,289.7z"/>
		<polygon class="st6" points="169.9,290 169.9,290.1 170.2,290.1 170.2,289.9 170,289.8 		"/>
		<path class="st6" d="M183.7,295c0-0.4,0-0.7,0-1c-0.1-1.1-0.4-2.2-0.8-3.3l-0.1-0.2c-0.5-1.3-1.3-2.5-2.2-3.5l-0.2-0.2
			c-0.2-0.2-0.4-0.4-0.6-0.5c-4.6-4.2-11.6-4.2-16.2,0c-0.5,0.5-1,1-1.4,1.5c-4,5.3-3,12.8,2.2,16.8c2.1,1.6,4.6,2.5,7.3,2.5
			c4.5,0,8.6-2.5,10.7-6.5c0.4-0.8,0.8-1.7,1-2.6c0.1-0.2,0.1-0.5,0.1-0.7c0.1-0.7,0.2-1.4,0.2-2.1L183.7,295z M181.4,290.2
			L181.4,290.2c0.2,0.1,0.2,0.3,0.3,0.5h-0.1h-0.2V290.2z M179.7,288.2v-0.5c0.2,0.2,0.4,0.4,0.6,0.6l-0.2,0.3h-0.8l-0.1-0.1
			L179.7,288.2z M165.2,286.8L165.2,286.8h0.2v-0.1h0.4v0.2l-0.1,0.2h-0.5L165.2,286.8L165.2,286.8z M165.6,287.4h0.3v0.2h-0.5
			l-0.1-0.1L165.6,287.4z M182.2,292.1h-0.9l-0.5-0.4l-0.6,0.1v0.3H180l-0.2-0.1l-1-0.2v-0.6l-1.2,0.1l-0.4,0.2h-0.5h-0.2l-0.6,0.3
			v0.6l-1.2,0.9l0.1,0.4h0.2l-0.1,0.4l-0.2,0.1v0.9l1.1,1.2h0.5v-0.1h0.8l0.2-0.2h0.5l0.3,0.2l0.7,0.1l-0.1,0.9l0.8,1.4l-0.4,0.8
			v0.4l0.3,0.3v0.9l0.4,0.6v0.7h0.4c-3.9,4.7-10.8,5.3-15.5,1.5c-2.5-2.1-4-5.2-4-8.4c0-1.5,0.3-2.9,0.9-4.3v-0.4l0.4-0.5
			c0.1-0.3,0.3-0.5,0.4-0.8v0.2l-0.5,0.6c-0.1,0.3-0.3,0.5-0.4,0.8v0.6l0.5,0.2v0.9l0.4,0.8l0.4,0.1v-0.3l-0.4-0.6l-0.1-0.6h0.3
			l0.1,0.6l0.6,0.9l-0.1,0.3l0.4,0.6l1,0.2v-0.1h0.4v0.3l0.3,0l0.5,0.1l0.7,0.8l0.8,0.1l0.1,0.7l-0.6,0.4v0.6l-0.1,0.4l0.8,1
			l0.1,0.4l0.3,0.1l0.7,0.5v1.9l0.2,0.1l-0.1,0.9l0.4,0.5l-0.1,0.9l0.5,0.9l0.6,0.6h0.7l0.1-0.2l-0.5-0.4v-0.2l0.1-0.2V304H170
			l-0.2-0.2l0.3-0.3v-0.2l-0.3-0.1V303l0.4-0.1l0.7-0.3l0.2-0.4l0.7-0.9l-0.1-0.7l0.2-0.4h0.6l0.4-0.3l0.1-1.3l0.5-0.6l0.1-0.4
			l-0.4-0.1l-0.3-0.5h-1l-0.8-0.3v-0.5l-0.3-0.5h-0.7l-0.4-0.6l-0.4-0.2v0.2h-0.6l-0.2-0.3l-0.7-0.1l-0.6,0.6l-0.9-0.1l-0.1-1
			l-0.6-0.1l0.2-0.5l-0.1-0.3l-0.8,0.6l-0.5-0.1l-0.2-0.4l0.1-0.4l0.3-0.5l0.7-0.3h1.3v0.4l0.5,0.2V292l0.3-0.3l0.7-0.4v-0.3
			l0.7-0.7l0.7-0.4l-0.1,0l0.5-0.5l0.2,0l0.1,0.1l0.2-0.2l0,0h-0.2l-0.2-0.1V289l0.1-0.1h0.2l0.1,0l0.1,0.2h0.1l0,0l0.3-0.1v-0.2
			l0.2,0v0.2l-0.2,0.1l0,0v0.2l0.6,0.2h0.1v-0.3l-0.5-0.2v-0.1l0.4-0.1v-0.4l-0.4-0.3v-0.6l-0.6,0.3h-0.2l0.1-0.5l-0.8-0.2l-0.3,0.2
			v0.8l-0.6,0.2l-0.2,0.5h-0.2v-0.6l-0.6-0.1l-0.3-0.2l-0.1-0.4l1-0.6l0.5-0.1v0.3h0.3v-0.2h0.3V287l-0.1,0v-0.2h0.3l0.2-0.2l0,0
			l0.1-0.1l0.7-0.1l0.3,0.3l-0.8,0.5l1.1,0.2l0.1-0.4h0.5l0.2-0.3l-0.3-0.1v-0.4l-1-0.5l-0.7,0.1l-0.4,0.2v0.5l-0.4-0.1l-0.1-0.3
			l0.4-0.4h-0.7l-0.2,0.1l-0.1,0.2h0.3l-0.1,0.3h-0.5l-0.1,0.2h-0.7c0-0.1,0-0.3-0.1-0.4h0.5l0.4-0.4l-0.2-0.1l-0.3,0.3h-0.5
			l-0.3-0.4h-0.6l-0.6,0.5h0.6l0.1,0.2l-0.1,0.1h0.6l0.1,0.2h-0.7v-0.2l-0.5-0.1l-0.2-0.1h-0.6c4.2-3,9.9-2.8,13.7,0.6l-0.1,0.2
			l-0.5,0.2l-0.2,0.2l0.1,0.3h0.3l0.2,0.4l0.4-0.2l0.1,0.5h-0.1l-0.4,0l-0.4,0.1l-0.4,0.6l-0.6,0.1l-0.1,0.5l0.2,0.1l-0.1,0.3
			l-0.6-0.1l-0.5,0.1l-0.1,0.3l0.1,0.6l0.3,0.1h0.5h0.3l0.1-0.3l0.5-0.7l0.4,0.1l0.4-0.3l0.1,0.2l0.9,0.6l-0.1,0.1H179l0.1,0.2h0.2
			l0.3-0.1v-0.3l0.1-0.1l-0.1-0.1l-0.6-0.3l-0.1-0.4h0.6l0.1,0.1l0.4,0.4v0.4l0.4,0.5l0.2-0.6l0.3-0.2l0.1,0.5l0.3,0.3h0.6
			c0.1,0.3,0.2,0.6,0.3,0.9L182.2,292.1z M166.2,288.6l0.3-0.1l0.3,0.1l-0.1,0.4l-0.3,0.1L166.2,288.6z M167.7,289.5v0.2H167
			l-0.2-0.1l0.1-0.2l0.3-0.1h0.4L167.7,289.5L167.7,289.5z M168,289.8v0.2l-0.2,0.1h-0.2v-0.4L168,289.8z M167.8,289.7v-0.3l0.2,0.2
			L167.8,289.7z M167.9,290.2v0.2l-0.1,0.2h-0.4l0.1-0.2h0.2v-0.1L167.9,290.2z M167,289.8h0.4l-0.5,0.6l-0.2-0.1V290L167,289.8z
			 M168.5,290.1v0.2h-0.4l-0.1-0.1V290l0,0L168.5,290.1z M168.2,289.8l0.1-0.1l0.2,0.1l-0.1,0.1L168.2,289.8z M182.3,292.7
			L182.3,292.7c0,0,0,0.1,0,0.1V292.7z"/>
		<path class="st6" d="M161.6,290.5v0.4c0.1-0.3,0.2-0.6,0.4-0.8L161.6,290.5z"/>
		<path class="st6" d="M180.4,303c4.1-4.6,4-11.6-0.2-16.1l0,0c-2.2-2.3-5.2-3.7-8.3-3.8H171c-3.2,0.1-6.1,1.5-8.3,3.8l0,0
			c-4.2,4.5-4.3,11.5-0.2,16.1l0,0l0,0c2.2,2.4,5.3,3.9,8.5,4h0.8C175.1,306.9,178.2,305.4,180.4,303L180.4,303L180.4,303z
			 M160.3,295.5h5c0,1.7,0.4,3.4,1,5.1c-1.2,0.4-2.3,1-3.4,1.7C161.3,300.3,160.4,297.9,160.3,295.5z M163.1,287.6
			c1,0.7,2.1,1.2,3.3,1.6c-0.7,1.7-1.1,3.6-1.1,5.4h-5C160.4,292,161.4,289.5,163.1,287.6z M182.6,294.6h-5c0-1.9-0.4-3.7-1.1-5.4
			c1.2-0.4,2.2-0.9,3.3-1.6C181.5,289.5,182.5,292,182.6,294.6L182.6,294.6z M171,289.2c-1.2,0-2.4-0.2-3.5-0.5
			c0.9-1.7,2-3.3,3.5-4.6V289.2z M171,290v4.6h-5c0-1.8,0.4-3.5,1.1-5.2C168.4,289.8,169.7,290,171,290L171,290z M171.9,290
			c1.3,0,2.6-0.2,3.9-0.6c0.7,1.6,1.1,3.4,1.1,5.2h-5L171.9,290z M171.9,289.2v-5c1.5,1.3,2.7,2.8,3.5,4.6
			C174.2,289,173.1,289.2,171.9,289.2L171.9,289.2z M176.2,288.4c-0.8-1.7-1.9-3.2-3.3-4.5c2.4,0.3,4.6,1.4,6.3,3
			C178.2,287.6,177.2,288.1,176.2,288.4L176.2,288.4z M166.7,288.4c-1.1-0.4-2.1-0.9-3-1.5c1.7-1.6,3.9-2.7,6.3-3
			C168.7,285.3,167.5,286.8,166.7,288.4L166.7,288.4z M166.1,295.4h5v4.1c-1.4,0-2.7,0.3-4,0.6C166.5,298.7,166.2,297.1,166.1,295.4
			L166.1,295.4z M171.1,300.4v5.5c-1.6-1.4-2.8-3-3.7-4.9C168.6,300.7,169.8,300.5,171.1,300.4L171.1,300.4z M171.9,305.9v-5.5
			c1.2,0,2.5,0.2,3.7,0.6C174.7,302.9,173.5,304.6,171.9,305.9L171.9,305.9z M171.9,299.6v-4.1h5c-0.1,1.6-0.4,3.3-1,4.8
			C174.6,299.8,173.2,299.6,171.9,299.6L171.9,299.6z M177.7,295.5h5c-0.1,2.5-1,4.9-2.6,6.8c-1-0.7-2.2-1.3-3.4-1.7
			C177.3,298.9,177.6,297.2,177.7,295.5L177.7,295.5z M163.5,302.8c0.9-0.6,2-1.2,3-1.6c0.8,1.8,2,3.5,3.4,4.8
			C167.5,305.8,165.2,304.6,163.5,302.8L163.5,302.8z M173,306.1c1.4-1.4,2.6-3,3.4-4.8c1.1,0.4,2.1,0.9,3.1,1.6
			C177.7,304.6,175.4,305.8,173,306.1L173,306.1z"/>
		<polygon class="st6" points="177.1,226 177.2,226.2 176.9,226.2 176.9,226.6 177.2,226.6 177.6,226.6 177.8,226.3 177.6,226.2 
			177.5,226.1 177.3,225.8 177.2,225.3 176.8,225.4 176.7,225.5 176.7,225.7 176.9,225.8 		"/>
		<polygon class="st6" points="176.8,226.1 176.9,225.9 176.6,225.8 176.4,225.9 176.1,226.2 176.1,226.5 176.4,226.5 		"/>
		<path class="st6" d="M170.8,227.2l-0.1,0.2h-0.3v0.2h0.1v0.1h0.2l0.1-0.1v-0.1h0.2l0.1-0.1L170.8,227.2L170.8,227.2z"/>
		<polygon class="st6" points="169.9,227.4 169.9,227.6 170.2,227.6 170.2,227.4 170,227.3 		"/>
		<path class="st6" d="M183.7,232.5c0-0.4,0-0.7,0-1c-0.1-1.1-0.4-2.2-0.8-3.3l-0.1-0.2c-0.5-1.3-1.3-2.5-2.2-3.5l-0.2-0.2
			c-0.2-0.2-0.4-0.4-0.6-0.5c-4.6-4.2-11.6-4.2-16.2,0c-0.5,0.5-1,1-1.4,1.5c-4,5.3-3,12.8,2.2,16.8c2.1,1.6,4.6,2.5,7.3,2.5
			c4.5,0,8.6-2.5,10.7-6.6c0.4-0.8,0.8-1.7,1-2.6c0.1-0.2,0.1-0.5,0.1-0.7c0.1-0.7,0.2-1.4,0.2-2.1L183.7,232.5z M181.4,227.7
			L181.4,227.7c0.2,0.1,0.2,0.3,0.3,0.5h-0.1h-0.2V227.7z M179.7,225.6v-0.5c0.2,0.2,0.4,0.4,0.6,0.6L180,226h-0.8l-0.1-0.2
			L179.7,225.6z M165.2,224.3L165.2,224.3h0.2v-0.1h0.4v0.2l-0.1,0.1h-0.5L165.2,224.3L165.2,224.3z M165.6,224.8h0.3v0.2h-0.5
			l-0.1-0.1L165.6,224.8z M182.2,229.6h-0.9l-0.5-0.4l-0.6,0.1v0.3H180l-0.2-0.1l-1-0.2v-0.6l-1.2,0.1l-0.4,0.2h-0.5h-0.2l-0.6,0.3
			v0.6l-1.2,0.9l0.1,0.4h0.2l-0.1,0.4l-0.2,0.1v0.9l1.1,1.2h0.5v-0.1h0.8l0.2-0.2h0.5l0.3,0.2l0.7,0.1l-0.1,0.9l0.8,1.4l-0.4,0.8
			v0.4l0.3,0.3v0.9l0.4,0.6v0.7h0.4c-3.8,4.7-10.8,5.4-15.5,1.6c-2.6-2.1-4.1-5.2-4.1-8.5c0-1.5,0.3-2.9,0.9-4.3V228l0.4-0.5
			c0.1-0.3,0.3-0.5,0.4-0.8v0.2l-0.5,0.6c-0.1,0.3-0.3,0.5-0.4,0.8v0.6l0.5,0.2v0.9l0.4,0.7l0.4,0.1v-0.3l-0.4-0.6l-0.1-0.6h0.4
			l0.1,0.6l0.6,0.9l-0.1,0.3l0.4,0.6l1,0.2v-0.1h0.4v0.3l0.3,0.1l0.5,0.1l0.7,0.8l0.8,0.1l0.1,0.7l-0.6,0.4v0.6l-0.1,0.4l0.8,1
			l0.1,0.4l0.3,0.1l0.7,0.5v1.9l0.2,0.1l-0.1,0.9l0.4,0.5l-0.1,0.9l0.5,0.9l0.6,0.6h0.7l0.1-0.2l-0.5-0.4V242l0.1-0.2v-0.3H170
			l-0.2-0.2l0.3-0.3v-0.2l-0.3-0.1v-0.2l0.4-0.1l0.7-0.3l0.2-0.4l0.7-0.9l-0.1-0.7l0.2-0.4h0.6l0.4-0.3l0.1-1.3l0.5-0.6l0.1-0.4
			l-0.4-0.1l-0.3-0.5h-1l-0.8-0.3v-0.6l-0.3-0.4h-0.7l-0.4-0.6l-0.4-0.2v0.2h-0.6l-0.2-0.3l-0.7-0.1l-0.6,0.6l-0.9-0.1l-0.1-1
			l-0.6-0.1l0.2-0.5l-0.1-0.3l-0.8,0.6l-0.5-0.1l-0.2-0.4l0.1-0.4l0.3-0.5l0.7-0.3h1.3v0.4l0.5,0.2v-0.7l0.3-0.3l0.7-0.4v-0.3
			l0.7-0.7l0.7-0.4l-0.1-0.1l0.5-0.5h0.2l0.1,0.1l0.2-0.2l0,0h-0.2l-0.2-0.1v-0.2l0.1-0.1h0.2l0.1,0.1l0.1,0.2h0.1l0,0l0.3-0.1v-0.2
			l0.2,0.1v0.2l-0.2,0.1l0,0v0.2l0.6,0.2h0.1v-0.3l-0.5-0.2v-0.1l0.4-0.1V226l-0.4-0.3v-0.6l-0.6,0.3h-0.2l0.1-0.5l-0.8-0.2
			l-0.3,0.2v0.8l-0.6,0.2l-0.2,0.5h-0.2v-0.6l-0.6-0.1l-0.3-0.2l-0.1-0.4l1-0.6l0.5-0.1v0.3h0.3v-0.2h0.3v-0.1l-0.1-0.1v-0.2h0.3
			l0.2-0.2l0,0l0.1-0.1l0.7-0.1l0.3,0.3l-0.8,0.4l1.1,0.2l0.1-0.4h0.5l0.2-0.3l-0.3-0.1v-0.4l-1-0.5l-0.7,0.1l-0.4,0.2v0.5l-0.4-0.1
			l-0.1-0.3l0.4-0.4h-0.7l-0.2,0.1l-0.1,0.2h0.3l-0.1,0.3h-0.5l-0.1,0.2h-0.7c0-0.1,0-0.3-0.1-0.4h0.5l0.4-0.4l-0.2-0.1l-0.3,0.3
			h-0.5l-0.3-0.4h-0.6l-0.6,0.5h0.6l0.1,0.2l-0.1,0.1h0.6l0.1,0.2h-0.7v-0.2l-0.5-0.1l-0.2-0.1h-0.6c4.2-3,9.9-2.8,13.7,0.6
			l-0.1,0.2l-0.5,0.2L178,225l0.1,0.3h0.3l0.2,0.4l0.4-0.2l0.1,0.5h-0.1l-0.4-0.1L178,226l-0.4,0.6l-0.6,0.1l-0.1,0.5h0.2l-0.1,0.3
			l-0.6-0.1l-0.5,0.1l-0.1,0.3l0.1,0.6l0.3,0.1h0.5h0.3l0.1-0.3l0.5-0.7l0.4,0.1l0.4-0.3l0.1,0.2l0.9,0.6l-0.1,0.1H179l0.1,0.2h0.2
			l0.3-0.1v-0.2l0.1-0.1l-0.1-0.1l-0.6-0.3l-0.1-0.4h0.6l0.1,0.1l0.4,0.4v0.4l0.4,0.4l0.2-0.6l0.3-0.2l0.1,0.5l0.3,0.3h0.6
			C182,229,182.1,229.3,182.2,229.6L182.2,229.6z M166.2,226.1l0.3-0.1l0.3,0.1l-0.1,0.4l-0.3,0.1L166.2,226.1z M167.7,226.9v0.2
			H167l-0.2-0.1l0.1-0.1l0.3-0.1h0.4L167.7,226.9L167.7,226.9z M168,227.2v0.2l-0.2,0.1h-0.2v-0.4L168,227.2z M167.8,227.2v-0.3
			l0.2,0.2L167.8,227.2z M167.9,227.7v0.2l-0.1,0.2h-0.4l0.1-0.2h0.2v-0.1L167.9,227.7z M167,227.2h0.4l-0.5,0.6l-0.2-0.1v-0.3
			L167,227.2z M168.5,227.6v0.2h-0.4l-0.1-0.1v-0.2l0,0L168.5,227.6z M168.2,227.3l0.1-0.1l0.2,0.1l-0.1,0.1L168.2,227.3z
			 M182.3,230.2L182.3,230.2c0,0.1,0,0.1,0,0.2V230.2z"/>
		<path class="st6" d="M161.6,228v0.3c0.1-0.3,0.2-0.6,0.4-0.8L161.6,228z"/>
		<path class="st6" d="M180.4,240.5c4.1-4.6,4-11.6-0.2-16.1l0,0c-2.2-2.3-5.2-3.7-8.3-3.8H171c-3.2,0.1-6.2,1.5-8.3,3.8l0,0
			c-4.2,4.5-4.3,11.5-0.2,16.1l0,0l0,0c2.2,2.4,5.3,3.9,8.5,4h0.8C175.1,244.4,178.2,242.9,180.4,240.5L180.4,240.5L180.4,240.5z
			 M160.3,233h5c0,1.7,0.4,3.4,1,5.1c-1.2,0.4-2.3,1-3.4,1.7C161.3,237.8,160.4,235.4,160.3,233z M163.1,225.1
			c1,0.7,2.1,1.2,3.3,1.6c-0.7,1.7-1.1,3.6-1.1,5.4h-5C160.4,229.5,161.4,227,163.1,225.1z M182.6,232.1h-5c0-1.9-0.4-3.7-1.1-5.4
			c1.2-0.4,2.2-0.9,3.3-1.6C181.5,227,182.5,229.5,182.6,232.1L182.6,232.1z M171,226.7c-1.2,0-2.4-0.2-3.5-0.5
			c0.9-1.7,2-3.3,3.5-4.6L171,226.7z M171,227.5v4.6h-5c0-1.8,0.4-3.5,1.1-5.2C168.4,227.4,169.7,227.5,171,227.5L171,227.5z
			 M171.9,227.5c1.3,0,2.6-0.2,3.9-0.6c0.7,1.6,1.1,3.4,1.1,5.2h-5L171.9,227.5z M171.9,226.7v-5.1c1.5,1.3,2.7,2.8,3.5,4.6
			C174.2,226.5,173.1,226.7,171.9,226.7L171.9,226.7z M176.2,225.9c-0.8-1.7-1.9-3.2-3.3-4.5c2.4,0.3,4.6,1.4,6.3,3
			C178.2,225.1,177.2,225.6,176.2,225.9L176.2,225.9z M166.7,225.9c-1.1-0.4-2.1-0.9-3-1.5c1.7-1.6,3.9-2.7,6.3-3
			C168.7,222.7,167.5,224.3,166.7,225.9L166.7,225.9z M166.1,232.9h5v4.1c-1.4,0-2.7,0.2-4,0.6C166.5,236.2,166.2,234.6,166.1,232.9
			L166.1,232.9z M171.1,237.9v5.5c-1.6-1.4-2.8-3-3.7-4.9C168.6,238.2,169.8,238,171.1,237.9L171.1,237.9z M171.9,243.4v-5.5
			c1.2,0,2.5,0.2,3.7,0.6C174.7,240.4,173.5,242.1,171.9,243.4L171.9,243.4z M171.9,237.1V233h5c-0.1,1.6-0.4,3.3-1,4.8
			C174.6,237.3,173.2,237.1,171.9,237.1L171.9,237.1z M177.7,233h5c-0.1,2.5-1,4.9-2.6,6.7c-1-0.7-2.2-1.3-3.4-1.7
			C177.3,236.4,177.6,234.7,177.7,233L177.7,233z M163.5,240.3c1-0.6,2-1.2,3.1-1.6c0.8,1.8,2,3.5,3.4,4.8
			C167.5,243.3,165.2,242.1,163.5,240.3L163.5,240.3z M173,243.6c1.4-1.4,2.6-3,3.4-4.8c1.1,0.4,2.1,0.9,3.1,1.6
			C177.7,242.1,175.4,243.3,173,243.6L173,243.6z"/>
		<polygon class="st6" points="177.1,163.5 177.2,163.7 176.9,163.7 176.9,164.1 177.2,164.1 177.6,164.1 177.8,163.8 177.6,163.7 
			177.5,163.6 177.3,163.2 177.2,162.8 176.8,162.9 176.7,163 176.7,163.2 176.9,163.3 		"/>
		<polygon class="st6" points="176.8,163.6 176.9,163.4 176.6,163.3 176.4,163.4 176.1,163.7 176.1,163.9 176.4,163.9 		"/>
		<path class="st6" d="M170.8,164.6l-0.1,0.2h-0.3v0.2h0.1v0.1h0.2l0.1-0.1v-0.2h0.2l0.1-0.1L170.8,164.6L170.8,164.6z"/>
		<polygon class="st6" points="169.9,164.9 169.9,165.1 170.2,165.1 170.2,164.9 170,164.8 		"/>
		<path class="st6" d="M183.7,170c0-0.4,0-0.7,0-1c-0.1-1.1-0.4-2.2-0.8-3.3l-0.1-0.2c-0.5-1.3-1.3-2.5-2.2-3.5l-0.2-0.2
			c-0.2-0.2-0.4-0.4-0.6-0.5c-4.6-4.2-11.6-4.1-16.2,0.1c-0.5,0.5-1,1-1.4,1.5c-4.1,5.2-3.3,12.7,1.9,16.9
			c5.2,4.1,12.7,3.3,16.9-1.9c0.5-0.7,1-1.4,1.4-2.2c0.4-0.8,0.8-1.7,1-2.6c0.1-0.2,0.1-0.5,0.1-0.7c0.1-0.7,0.2-1.4,0.2-2.1
			L183.7,170z M181.4,165.2L181.4,165.2c0.2,0.1,0.2,0.3,0.3,0.5h-0.1h-0.2V165.2z M179.7,163.2v-0.5c0.2,0.2,0.4,0.4,0.6,0.6
			l-0.2,0.3h-0.8l-0.1-0.2L179.7,163.2z M165.2,161.8L165.2,161.8h0.2v-0.1h0.4v0.2l-0.1,0.1h-0.5L165.2,161.8L165.2,161.8z
			 M165.6,162.4h0.3v0.2h-0.5l-0.1-0.1L165.6,162.4z M182.2,167.1h-0.9l-0.5-0.4l-0.6,0.1v0.3H180l-0.2-0.1l-1-0.2v-0.6l-1.2,0.1
			l-0.4,0.2h-0.5h-0.2l-0.6,0.3v0.6l-1.2,0.9l0.1,0.4h0.2l-0.1,0.4l-0.2,0.1v0.9l1.1,1.2h0.5v-0.1h0.8l0.2-0.2h0.5l0.3,0.3l0.7,0.1
			l-0.1,0.9l0.8,1.4l-0.4,0.8v0.4l0.3,0.3v0.9l0.4,0.6v0.7h0.4c-3.9,4.7-10.8,5.3-15.5,1.5c-2.5-2.1-4-5.2-4-8.4
			c0-1.5,0.3-2.9,0.9-4.3v-0.3l0.4-0.5c0.1-0.3,0.3-0.5,0.4-0.8v0.2l-0.5,0.6c-0.1,0.3-0.3,0.5-0.4,0.8v0.6l0.5,0.2v0.9l0.4,0.8
			l0.4,0.1v-0.3l-0.4-0.6l-0.1-0.6h0.3l0.1,0.6l0.6,0.9l-0.1,0.3l0.4,0.6l1,0.2v-0.2l0.4,0.1v0.3l0.3,0.1l0.5,0.1l0.7,0.8l0.8,0.1
			l0.1,0.7l-0.6,0.4v0.6l-0.1,0.4l0.8,1l0.1,0.4l0.3,0.1l0.7,0.5v1.9l0.2,0.1l-0.1,0.9l0.4,0.5l-0.1,0.9l0.5,0.9l0.6,0.6h0.7
			l0.1-0.2l-0.5-0.4v-0.2l0.1-0.2V179H170l-0.2-0.2l0.3-0.3v-0.2l-0.3-0.1v-0.2l0.4-0.1l0.7-0.3l0.2-0.4l0.7-0.9l-0.1-0.7l0.2-0.4
			h0.6l0.4-0.3l0.1-1.3l0.5-0.6l0.1-0.4l-0.4-0.1l-0.3-0.5h-1l-0.8-0.3v-0.5l-0.3-0.4h-0.7l-0.4-0.6l-0.4-0.2v0.2h-0.6l-0.2-0.3
			l-0.7-0.1l-0.6,0.6l-0.9-0.1l-0.1-1l-0.6-0.1l0.2-0.5l-0.1-0.3l-0.8,0.6l-0.5-0.1l-0.2-0.4l0.1-0.4l0.3-0.5l0.7-0.3h1.3v0.4
			l0.5,0.2v-0.7l0.3-0.3l0.7-0.4V166l0.7-0.7l0.7-0.4l-0.1-0.1l0.5-0.5l0.2,0.1l0.1,0.1l0.2-0.2l0,0h-0.2l-0.2-0.1v-0.2l0.1-0.1h0.2
			h0.1l0.1,0.2h0.1l0,0l0,0l0.3-0.1v-0.2h0.2v0.2l-0.2,0.1l0,0v0.2l0.6,0.2h0.1v-0.3l-0.5-0.2v-0.1l0.4-0.1v-0.4l-0.4-0.3v-0.6
			l-0.6,0.3h-0.2l0.1-0.5l-0.8-0.2l-0.3,0.2v0.8l-0.6,0.2l-0.2,0.5h-0.2v-0.6l-0.6-0.1l-0.3-0.2l-0.1-0.4l1-0.6l0.5-0.1v0.3h0.3
			v-0.2h0.3V162h-0.1v-0.2h0.3l0.2-0.2l0,0l0,0l0.1-0.1l0.7-0.1l0.3,0.3l-0.8,0.4l1.1,0.2l0.1-0.4h0.5l0.2-0.3l-0.3-0.1v-0.5l-1-0.5
			l-0.7,0.1l-0.4,0.2v0.5l-0.4-0.1l-0.1-0.3l0.4-0.4h-0.7l-0.2,0.1l-0.1,0.2l0.3,0.1l-0.1,0.3h-0.5l-0.1,0.2h-0.7
			c0-0.1,0-0.3-0.1-0.4h0.5l0.4-0.4l-0.2-0.1l-0.3,0.3h-0.5l-0.3-0.4h-0.6l-0.6,0.5h0.6l0.1,0.2l-0.1,0.1h0.6l0.1,0.2h-0.7v-0.2
			l-0.5-0.1l-0.2-0.1h-0.6c4.2-3,9.9-2.8,13.7,0.6l-0.1,0.2l-0.5,0.2l-0.2,0.2l0.1,0.3h0.3l0.2,0.4l0.4-0.2l0.1,0.5h-0.1h-0.4
			l-0.4,0.1l-0.4,0.6l-0.6,0.1l-0.1,0.5h0.2l-0.1,0.3l-0.6-0.1l-0.5,0.1l-0.1,0.3l0.1,0.6l0.3,0.1h0.5h0.3l0.1-0.3l0.5-0.7l0.4,0.1
			l0.4-0.3l0.1,0.2l0.9,0.6l-0.1,0.1H179l0.1,0.2l0.2,0.1l0.3-0.1v-0.3l0.1-0.1l-0.1-0.1l-0.6-0.3l-0.1-0.4h0.6l0.1,0.1l0.4,0.4v0.4
			l0.4,0.4l0.2-0.6l0.3-0.2l0.1,0.5l0.3,0.3h0.6C182,166.5,182.1,166.7,182.2,167.1L182.2,167.1z M166.2,163.6l0.3-0.1l0.3,0.1
			l-0.1,0.4l-0.3,0.1L166.2,163.6z M167.7,164.5v0.2H167l-0.2-0.1l0.1-0.2l0.3-0.1h0.4L167.7,164.5L167.7,164.5z M168,164.8v0.2
			l-0.2,0.1h-0.2v-0.4L168,164.8z M167.8,164.7v-0.3l0.2,0.2L167.8,164.7z M167.9,165.2v0.2l-0.1,0.1h-0.4l0.1-0.2h0.2v-0.1
			L167.9,165.2z M167,164.8h0.4l-0.5,0.7l-0.2-0.1v-0.3L167,164.8z M168.5,165.1v0.2h-0.4l-0.1-0.1V165l0,0L168.5,165.1z
			 M168.2,164.8l0.1-0.1l0.2,0.1l-0.1,0.1L168.2,164.8z M182.3,167.7L182.3,167.7c0,0.1,0,0.1,0,0.2V167.7z"/>
		<path class="st6" d="M161.6,165.5v0.3c0.1-0.3,0.2-0.6,0.4-0.8L161.6,165.5z"/>
		<path class="st6" d="M180.4,178c4.1-4.6,4-11.6-0.2-16.1l0,0c-2.2-2.3-5.2-3.7-8.3-3.8H171c-3.2,0.1-6.1,1.5-8.3,3.8l0,0
			c-4.2,4.5-4.3,11.5-0.2,16.1l0,0l0,0c2.2,2.4,5.3,3.9,8.5,4h0.8C175.1,181.9,178.2,180.4,180.4,178L180.4,178L180.4,178z
			 M160.3,170.4h5c0,1.7,0.4,3.4,1,5c-1.2,0.4-2.3,1-3.4,1.7C161.3,175.3,160.4,172.9,160.3,170.4z M163.1,162.6
			c1,0.7,2.1,1.2,3.3,1.6c-0.7,1.7-1.1,3.6-1.1,5.4h-5C160.4,167,161.4,164.5,163.1,162.6z M182.6,169.6h-5c0-1.9-0.4-3.7-1.1-5.4
			c1.2-0.4,2.2-0.9,3.3-1.6C181.5,164.5,182.5,167,182.6,169.6L182.6,169.6z M171,164.2c-1.2,0-2.4-0.2-3.5-0.5
			c0.8-1.7,2-3.3,3.5-4.6V164.2z M171,165v4.6h-5c0-1.8,0.4-3.5,1.1-5.2C168.4,164.8,169.7,165,171,165L171,165z M171.9,165
			c1.3,0,2.6-0.2,3.9-0.6c0.7,1.6,1.1,3.4,1.1,5.2h-5L171.9,165z M171.9,164.2v-5c1.5,1.3,2.7,2.8,3.5,4.6
			C174.2,164,173.1,164.2,171.9,164.2L171.9,164.2z M176.2,163.4c-0.8-1.7-1.9-3.2-3.3-4.5c2.4,0.3,4.6,1.4,6.3,3
			C178.2,162.6,177.2,163.1,176.2,163.4L176.2,163.4z M166.7,163.4c-1.1-0.4-2.1-0.9-3-1.5c1.7-1.6,3.9-2.7,6.3-3
			C168.7,160.2,167.5,161.8,166.7,163.4L166.7,163.4z M166.1,170.4h5v4.1c-1.4,0-2.7,0.2-4,0.6C166.5,173.7,166.2,172.1,166.1,170.4
			L166.1,170.4z M171.1,175.4v5.5c-1.6-1.4-2.8-3-3.7-4.9C168.6,175.7,169.8,175.5,171.1,175.4L171.1,175.4z M171.9,180.9v-5.5
			c1.2,0,2.5,0.2,3.7,0.6C174.7,177.9,173.5,179.6,171.9,180.9L171.9,180.9z M171.9,174.6v-4.1h5c-0.1,1.6-0.4,3.3-1,4.8
			C174.6,174.8,173.2,174.6,171.9,174.6L171.9,174.6z M177.7,170.5h5c-0.1,2.5-1,4.9-2.6,6.8c-1-0.7-2.2-1.3-3.4-1.7
			C177.3,173.9,177.6,172.2,177.7,170.5L177.7,170.5z M163.5,177.8c1-0.6,2-1.2,3.1-1.6c0.8,1.8,2,3.5,3.4,4.8
			C167.5,180.8,165.2,179.6,163.5,177.8L163.5,177.8z M173,181.1c1.4-1.4,2.6-3,3.4-4.8c1.1,0.4,2.1,0.9,3.1,1.6
			C177.7,179.6,175.4,180.8,173,181.1L173,181.1z"/>
		<polygon class="st6" points="177.1,101 177.2,101.2 176.9,101.2 176.9,101.6 177.2,101.6 177.6,101.5 177.8,101.3 177.6,101.2 
			177.5,101 177.3,100.7 177.2,100.3 176.8,100.4 176.7,100.5 176.7,100.7 176.9,100.8 		"/>
		<polygon class="st6" points="176.8,101.1 176.9,100.9 176.6,100.8 176.4,100.9 176.1,101.2 176.1,101.4 176.4,101.4 		"/>
		<path class="st6" d="M170.8,102.2l-0.1,0.2h-0.3v0.2h0.1v0.1h0.2l0.1-0.1v-0.2h0.2l0.1-0.1L170.8,102.2L170.8,102.2z"/>
		<polygon class="st6" points="169.9,102.4 169.9,102.6 170.2,102.6 170.2,102.4 170,102.3 		"/>
		<path class="st6" d="M183.7,107.5c0-0.4,0-0.7,0-1c-0.1-1.1-0.4-2.2-0.8-3.3l-0.1-0.2c-0.5-1.3-1.3-2.5-2.2-3.5l-0.2-0.2l-0.6-0.5
			c-4.6-4.2-11.6-4.2-16.2,0c-0.5,0.5-1,1-1.4,1.5c-4.1,5.2-3.3,12.7,1.9,16.9c5.2,4.1,12.7,3.3,16.9-1.9c0.5-0.7,1-1.4,1.4-2.2
			c0.4-0.8,0.8-1.7,1-2.6c0.1-0.2,0.1-0.5,0.1-0.7c0.1-0.7,0.2-1.4,0.2-2.1L183.7,107.5z M181.4,102.7L181.4,102.7
			c0.2,0.1,0.3,0.3,0.3,0.5h-0.1h-0.2V102.7z M179.7,100.6v-0.5c0.2,0.2,0.4,0.4,0.6,0.6L180,101h-0.8l-0.1-0.2L179.7,100.6z
			 M165.2,99.3L165.2,99.3h0.2v-0.1h0.4v0.2l-0.1,0.2h-0.5L165.2,99.3L165.2,99.3z M165.6,99.8h0.3v0.2h-0.5l-0.1-0.1L165.6,99.8z
			 M182.2,104.6h-0.9l-0.5-0.4h-0.6v0.3H180l-0.2-0.1l-1-0.2v-0.6l-1.2,0.1l-0.4,0.2h-0.5h-0.2l-0.6,0.3v0.6l-1.2,0.9l0.1,0.4h0.2
			l-0.1,0.4l-0.2,0.1v0.9l1.1,1.2h0.5v-0.1h0.8l0.2-0.2h0.5l0.3,0.3l0.7,0.1l-0.1,0.9l0.8,1.4l-0.4,0.8v0.4l0.3,0.3v0.9l0.4,0.6v0.7
			h0.4c-3.8,4.7-10.8,5.4-15.5,1.6c-2.6-2.1-4.1-5.2-4.1-8.5c0-1.5,0.3-2.9,0.9-4.3V103l0.4-0.5c0.1-0.3,0.3-0.5,0.4-0.8v0.2
			l-0.5,0.6c-0.1,0.3-0.3,0.5-0.4,0.8v0.6l0.5,0.2v0.9l0.4,0.8h0.4v-0.2l-0.4-0.7l-0.1-0.6h0.4l0.1,0.6l0.6,0.9l-0.1,0.3l0.4,0.6
			l1,0.2v-0.2l0.4,0.1v0.3l0.3,0.1l0.5,0.1l0.7,0.8l0.8,0.1l0.1,0.7l-0.6,0.4v0.6l-0.1,0.4l0.8,1.1l0.1,0.4l0.3,0.1l0.7,0.5v1.9
			l0.2,0.1l-0.1,0.9l0.4,0.5l-0.1,0.9l0.5,0.9l0.6,0.6h0.7l0.1-0.2l-0.5-0.4v-0.2l0.1-0.2v-0.2H170l-0.2-0.2l0.3-0.3v-0.2l-0.3-0.1
			v-0.2l0.4-0.1l0.7-0.3l0.2-0.4l0.7-0.9l-0.1-0.7l0.2-0.4h0.6l0.4-0.3l0.1-1.3l0.5-0.6l0.1-0.4l-0.4-0.1l-0.3-0.5h-1l-0.8-0.3v-0.5
			l-0.3-0.4h-0.7l-0.4-0.6l-0.4-0.2v0.2h-0.6l-0.2-0.3l-0.7-0.1l-0.6,0.6l-0.9-0.2l-0.1-1l-0.6-0.1l0.2-0.5l-0.1-0.3l-0.8,0.6
			l-0.5-0.1l-0.2-0.4l0.1-0.4l0.3-0.5l0.7-0.3h1.3v0.4l0.5,0.2v-0.7l0.3-0.3l0.7-0.4v-0.3l0.7-0.7l0.7-0.4l-0.1-0.1l0.5-0.5h0.2
			l0.1,0.1l0.2-0.2l0,0h-0.2l-0.2-0.1v-0.2l0.1-0.1h0.2h0.1l0.1,0.2h0.1l0,0l0,0l0.3-0.1v-0.2h0.2v0.2l-0.2,0.1l0,0v0.2l0.6,0.2l0,0
			h0.1v-0.3l-0.5-0.2v-0.1l0.4-0.1v-0.4l-0.4-0.3V100l-0.6,0.3h-0.2l0.1-0.5l-0.8-0.2l-0.3,0.2v0.7l-0.6,0.2l-0.2,0.5h-0.2v-0.6
			l-0.6-0.1l-0.3-0.2l-0.1-0.4l1-0.6l0.5-0.2v0.3h0.3v-0.2h0.3v-0.1h-0.1v-0.2h0.3L170,99l0,0l0,0l0.1-0.1l0.7-0.1l0.3,0.3l-0.8,0.4
			l1.1,0.3l0.1-0.4h0.5l0.2-0.3l-0.3-0.1v-0.4l-1-0.5l-0.7,0.1l-0.4,0.2V99l-0.4-0.1l-0.1-0.3l0.4-0.4h-0.7l-0.2,0.1l-0.1,0.2h0.3
			l-0.1,0.3h-0.5l-0.1,0.2h-0.7c0-0.1,0-0.3-0.1-0.4h0.5l0.4-0.4l-0.2-0.1l-0.3,0.3h-0.5l-0.3-0.4h-0.6l-0.6,0.5h0.6l0.1,0.2
			l-0.1,0.1h0.6l0.1,0.2h-0.7v-0.2l-0.5-0.1l-0.2-0.1h-0.6c4.2-3,9.9-2.8,13.7,0.6l-0.1,0.2l-0.5,0.2L178,100l0.1,0.3h0.3l0.2,0.4
			l0.4-0.2l0.1,0.5h-0.1l-0.4-0.1L178,101l-0.4,0.6l-0.6,0.1l-0.1,0.5l0.2,0.1l-0.1,0.3l-0.6-0.1l-0.5,0.1l-0.1,0.3l0.1,0.6l0.3,0.2
			h0.5h0.3l0.1-0.3l0.5-0.7l0.4,0.1l0.4-0.3l0.1,0.2l0.9,0.6l-0.1,0.1H179l0.1,0.2l0.2,0.1l0.3-0.1v-0.3l0.1-0.1l-0.1-0.1l-0.6-0.3
			l-0.1-0.4h0.6l0.1,0.2l0.4,0.3v0.4l0.4,0.4l0.2-0.6l0.3-0.2l0.1,0.5l0.3,0.3h0.6C182,104,182.1,104.3,182.2,104.6L182.2,104.6z
			 M166.2,101.1l0.3-0.1l0.3,0.1l-0.1,0.3l-0.3,0.1L166.2,101.1z M167.7,101.9v0.3H167l-0.2-0.1l0.1-0.2l0.3-0.1L167.7,101.9
			L167.7,101.9L167.7,101.9z M168,102.2v0.2l-0.2,0.1h-0.2v-0.4L168,102.2z M167.8,102.1v-0.3l0.2,0.2L167.8,102.1z M167.9,102.7
			v0.2l-0.1,0.2h-0.4l0.1-0.2h0.2v-0.1L167.9,102.7z M167,102.2h0.4l-0.5,0.7l-0.2-0.1v-0.3L167,102.2z M168.5,102.6v0.2h-0.4
			l-0.1-0.1v-0.2l0,0L168.5,102.6z M168.2,102.3l0.1-0.1l0.2,0.1l-0.1,0.1L168.2,102.3z M182.3,105.2L182.3,105.2c0,0.1,0,0.1,0,0.2
			V105.2z"/>
		<path class="st6" d="M161.6,103v0.3c0.1-0.3,0.2-0.6,0.4-0.8L161.6,103z"/>
		<path class="st6" d="M180.4,115.5c4.1-4.6,4-11.6-0.2-16.2l0,0c-2.2-2.3-5.2-3.7-8.3-3.8H171c-3.2,0.1-6.1,1.5-8.3,3.8l0,0
			c-4.2,4.5-4.3,11.5-0.2,16.1l0,0l0,0c2.2,2.4,5.3,3.9,8.5,4h0.8C175.1,119.3,178.2,117.9,180.4,115.5L180.4,115.5L180.4,115.5z
			 M160.3,107.9h5c0,1.7,0.4,3.4,1,5c-1.2,0.4-2.3,1-3.4,1.7C161.3,112.8,160.4,110.4,160.3,107.9z M163.1,100.1
			c1,0.7,2.1,1.2,3.3,1.6c-0.7,1.7-1.1,3.6-1.1,5.4h-5C160.4,104.5,161.4,102,163.1,100.1z M182.6,107.1h-5c0-1.9-0.4-3.7-1.1-5.4
			c1.2-0.4,2.2-0.9,3.3-1.6C181.5,102,182.5,104.5,182.6,107.1L182.6,107.1z M171,101.7c-1.2,0-2.4-0.2-3.5-0.5
			c0.8-1.7,2-3.3,3.5-4.6L171,101.7z M171,102.5v4.6h-5c0-1.8,0.4-3.5,1.1-5.2C168.4,102.3,169.7,102.5,171,102.5L171,102.5z
			 M171.9,102.5c1.3,0,2.6-0.2,3.9-0.6c0.7,1.6,1.1,3.4,1.1,5.2h-5L171.9,102.5z M171.9,101.7v-5.1c1.5,1.3,2.7,2.8,3.5,4.6
			C174.2,101.5,173.1,101.7,171.9,101.7L171.9,101.7z M176.2,100.9c-0.8-1.7-1.9-3.2-3.3-4.5c2.4,0.3,4.6,1.4,6.3,3
			C178.2,100,177.2,100.6,176.2,100.9L176.2,100.9z M166.7,100.9c-1.1-0.4-2.1-0.9-3-1.4c1.7-1.6,3.9-2.7,6.3-3
			C168.7,97.7,167.6,99.3,166.7,100.9L166.7,100.9z M166.1,107.9h5v4.2c-1.4,0-2.7,0.3-4,0.6C166.5,111.2,166.2,109.6,166.1,107.9
			L166.1,107.9z M171.1,112.9v5.5c-1.6-1.4-2.8-3-3.7-4.9C168.6,113.1,169.8,112.9,171.1,112.9L171.1,112.9z M171.9,118.4v-5.5
			c1.2,0,2.5,0.2,3.7,0.6C174.7,115.4,173.5,117.1,171.9,118.4L171.9,118.4z M171.9,112.1v-4.2h5c-0.1,1.6-0.4,3.3-1,4.8
			C174.6,112.3,173.2,112.1,171.9,112.1L171.9,112.1z M177.7,107.9h5c-0.1,2.5-1,4.9-2.6,6.8c-1-0.7-2.2-1.3-3.4-1.7
			C177.3,111.4,177.6,109.7,177.7,107.9L177.7,107.9z M163.5,115.3c1-0.6,2-1.2,3.1-1.6c0.8,1.8,2,3.5,3.4,4.8
			C167.5,118.3,165.2,117.1,163.5,115.3L163.5,115.3z M173,118.6c1.4-1.4,2.6-3,3.4-4.8c1.1,0.4,2.1,0.9,3.1,1.6
			C177.7,117.1,175.4,118.3,173,118.6L173,118.6z"/>
		<polygon class="st6" points="177.1,38.5 177.2,38.6 176.9,38.7 176.9,39.1 177.2,39.1 177.6,39 177.8,38.8 177.6,38.7 177.5,38.5 
			177.3,38.2 177.2,37.8 176.8,37.9 176.7,38 176.7,38.2 176.9,38.3 		"/>
		<polygon class="st6" points="176.8,38.6 176.9,38.4 176.6,38.3 176.4,38.4 176.1,38.7 176.1,38.9 176.4,38.9 		"/>
		<path class="st6" d="M170.8,39.6l-0.1,0.2h-0.3V40h0.1V40h0.2l0.1-0.1v-0.2h0.2l0.1-0.1L170.8,39.6L170.8,39.6z"/>
		<polygon class="st6" points="169.9,39.9 169.9,40.1 170.2,40.1 170.2,39.9 170,39.8 		"/>
		<path class="st6" d="M183.7,45c0-0.3,0-0.7,0-1c-0.1-1.1-0.4-2.2-0.8-3.3l-0.1-0.2c-0.5-1.3-1.3-2.5-2.2-3.5l-0.2-0.2
			c-0.2-0.2-0.4-0.4-0.6-0.5c-4.9-4.5-12.5-4.1-17,0.8c-4.5,4.9-4.1,12.5,0.8,17c4.9,4.5,12.5,4.1,17-0.8c0.7-0.8,1.3-1.7,1.8-2.6
			c0.4-0.8,0.8-1.7,1-2.6c0.1-0.2,0.1-0.5,0.1-0.7c0.1-0.7,0.2-1.4,0.2-2.1L183.7,45z M181.4,40.2L181.4,40.2
			c0.2,0.1,0.3,0.3,0.3,0.5h-0.1h-0.2V40.2z M179.7,38.1v-0.5c0.2,0.2,0.4,0.4,0.6,0.6l-0.2,0.3h-0.8l-0.1-0.2L179.7,38.1z
			 M165.2,36.8L165.2,36.8h0.2v-0.1h0.4v0.2l-0.1,0.2h-0.5L165.2,36.8L165.2,36.8z M165.6,37.3h0.3v0.2h-0.5l-0.1-0.1L165.6,37.3z
			 M182.2,42.1h-0.9l-0.5-0.4l-0.6,0v0.3H180l-0.2-0.1l-1-0.2V41l-1.2,0.1l-0.4,0.2h-0.5h-0.2l-0.6,0.3v0.6l-1.2,0.9l0.1,0.4h0.2
			l-0.1,0.4l-0.2,0.1v0.9l1.1,1.2h0.5V46h0.8l0.2-0.2h0.5l0.3,0.3l0.7,0.1l-0.1,0.9l0.8,1.4l-0.4,0.8v0.4l0.3,0.3v0.9l0.4,0.6V52
			h0.4c-3.9,4.6-10.9,5.2-15.5,1.2c-3.6-3.1-4.8-8.1-3.1-12.5v-0.3l0.4-0.5c0.1-0.2,0.3-0.5,0.4-0.8v0.2l-0.5,0.5
			c-0.1,0.3-0.3,0.5-0.4,0.8v0.6l0.5,0.2v0.9l0.4,0.8h0.4V43l-0.4-0.7l-0.1-0.6h0.3l0.1,0.7l0.6,0.9l-0.1,0.3l0.4,0.6l1,0.2v-0.2
			l0.4,0.1v0.3l0.3,0.1l0.5,0.1l0.7,0.8l0.8,0.1l0.1,0.7l-0.6,0.4v0.6l-0.1,0.4l0.8,1l0.1,0.3c0,0,0.3,0.1,0.3,0.1s0.7,0.5,0.7,0.5
			v1.9l0.2,0.1l-0.1,0.9l0.4,0.5l-0.1,0.9l0.5,0.9l0.6,0.6h0.7l0.1-0.2l-0.5-0.4v-0.2l0.1-0.2v-0.2h-0.3l-0.2-0.2l0.3-0.3v-0.2
			l-0.3-0.1v-0.1l0.4-0.1l0.7-0.3l0.2-0.4l0.7-0.9l-0.1-0.7l0.2-0.4h0.6L173,50l0.1-1.3l0.4-0.5l0.1-0.4l-0.4-0.1l-0.3-0.5h-1
			l-0.8-0.3v-0.6l-0.3-0.5h-0.7l-0.4-0.6l-0.4-0.2v0.2h-0.6l-0.2-0.3l-0.7-0.1l-0.6,0.6l-0.9-0.2l-0.1-1l-0.6-0.1l0.2-0.5l-0.1-0.3
			l-0.8,0.6l-0.5-0.1l-0.2-0.4l0.1-0.4l0.3-0.5l0.7-0.3h1.3v0.4l0.5,0.2v-0.7l0.3-0.3l0.7-0.5v-0.3l0.7-0.7l0.7-0.4l-0.1-0.1
			l0.5-0.5h0.2l0.1,0.1l0.2-0.2l0,0h-0.2l-0.2-0.1V39l0.1-0.1h0.2h0.1l0.1,0.2h0.1l0,0l0,0h0.3V39h0.2v0.2l-0.2,0.1l0,0v0.2l0.6,0.2
			h0.1v-0.3l-0.3-0.2V39l0.4-0.1v-0.4l-0.4-0.2v-0.7l-0.6,0.3h-0.2l0.1-0.5l-0.8-0.2l-0.3,0.2v0.7l-0.6,0.2l-0.2,0.5h-0.2v-0.6
			l-0.6-0.1l-0.3-0.2l-0.1-0.4l1-0.6l0.5-0.1v0.3h0.3v-0.2h0.3l0,0l-0.1,0v-0.2h0.3l0.2-0.2l0,0l0,0l0.1-0.1l0.7-0.1l0.3,0.3
			l-0.8,0.5l1.1,0.2l0.1-0.4h0.5l0.2-0.3l-0.3-0.1v-0.5l-1-0.5l-0.7,0.1l-0.4,0.2v0.5l-0.4-0.1l-0.1-0.3l0.4-0.4H169l-0.2,0.1
			l-0.1,0.2h0.3l-0.1,0.3h-0.5l-0.1,0.2h-0.7c0-0.1,0-0.3-0.1-0.4h0.5l0.4-0.4l-0.2-0.1l-0.3,0.3h-0.5l-0.3-0.4h-0.6l-0.6,0.5h0.6
			l0.1,0.2l-0.1,0.1h0.6l0.1,0.2h-0.7v-0.2l-0.5-0.1l-0.2-0.1h-0.6c4.2-3,9.9-2.8,13.7,0.7l-0.1,0.2l-0.5,0.2l-0.2,0.2l0.1,0.3h0.3
			l0.2,0.4l0.4-0.2l0.1,0.5H179l-0.4-0.1l-0.4,0.1l-0.4,0.6l-0.6,0.1l-0.1,0.5l0.2,0.1l-0.1,0.3l-0.6-0.1l-0.5,0.1l-0.1,0.3l0.1,0.6
			l0.3,0.1h0.5h0.3l0.1-0.3l0.5-0.7l0.4,0.1l0.4-0.3l0.1,0.2l0.9,0.6l-0.1,0.1h-0.4l0.1,0.2l0.2,0.1l0.3-0.1v-0.3l0.1-0.1l-0.1-0.1
			l-0.6-0.3l-0.1-0.4h0.4l0.1,0.2l0.4,0.4v0.4l0.4,0.5l0.2-0.6l0.3-0.2l0.1,0.5l0.3,0.3h0.6C182,41.5,182.1,41.8,182.2,42.1
			L182.2,42.1z M166.2,38.6l0.3-0.1l0.3,0.1l-0.1,0.3l-0.3,0.1L166.2,38.6z M167.7,39.4v0.2H167l-0.2-0.1l0.1-0.2l0.3-0.1h0.4
			L167.7,39.4L167.7,39.4z M168,39.7v0.2l-0.2,0.1h-0.2v-0.4L168,39.7z M167.8,39.6v-0.2l0.2,0.2L167.8,39.6z M167.9,40.1v0.2
			l-0.1,0.2h-0.4l0.1-0.2h0.2v-0.1L167.9,40.1z M167,39.7h0.4l-0.5,0.7l-0.2-0.1V40L167,39.7z M168.5,40.1v0.2h-0.4l-0.1-0.1v-0.2
			l0,0L168.5,40.1z M168.2,39.8l0.1-0.1l0.2,0.1l-0.1,0.1L168.2,39.8z M182.3,42.6L182.3,42.6c0,0.1,0,0.1,0,0.2V42.6z"/>
		<path class="st6" d="M161.6,40.5v0.3c0.1-0.3,0.2-0.5,0.4-0.8L161.6,40.5z"/>
		<path class="st6" d="M180.4,53c4.1-4.6,4-11.6-0.2-16.1l0,0c-2.2-2.3-5.2-3.7-8.3-3.8H171c-3.2,0.1-6.1,1.5-8.3,3.8l0,0
			c-4.2,4.5-4.3,11.5-0.2,16.1l0,0l0,0c2.2,2.4,5.3,3.9,8.5,4h0.8C175.1,56.8,178.2,55.4,180.4,53L180.4,53L180.4,53z M160.3,45.4h5
			c0,1.7,0.4,3.4,1,5c-1.2,0.4-2.3,1-3.4,1.8C161.3,50.3,160.4,47.9,160.3,45.4z M163.1,37.6c1,0.7,2.1,1.2,3.3,1.6
			c-0.7,1.7-1.1,3.6-1.1,5.4h-5C160.4,42,161.4,39.5,163.1,37.6z M182.6,44.6h-5c0-1.8-0.4-3.7-1.1-5.4c1.2-0.4,2.2-0.9,3.3-1.6
			C181.5,39.5,182.5,42,182.6,44.6L182.6,44.6z M171,39.2c-1.2,0-2.4-0.2-3.5-0.5c0.8-1.7,2-3.3,3.5-4.6V39.2z M171,40v4.6h-5
			c0-1.8,0.4-3.5,1.1-5.2C168.4,39.8,169.7,40,171,40L171,40z M171.9,40c1.3,0,2.6-0.2,3.9-0.6c0.7,1.6,1.1,3.4,1.1,5.2h-5L171.9,40
			z M171.9,39.2v-5.1c1.5,1.3,2.7,2.8,3.5,4.6C174.2,39,173.1,39.2,171.9,39.2z M176.2,38.4c-0.8-1.7-1.9-3.2-3.3-4.5
			c2.4,0.3,4.6,1.4,6.3,3C178.2,37.5,177.2,38,176.2,38.4L176.2,38.4z M166.7,38.4c-1.1-0.4-2.1-0.9-3-1.5c1.7-1.6,3.9-2.7,6.3-3
			C168.7,35.2,167.6,36.7,166.7,38.4L166.7,38.4z M166.1,45.4h5v4.2c-1.4,0-2.7,0.3-4,0.6C166.5,48.7,166.2,47.1,166.1,45.4
			L166.1,45.4z M171.1,50.4v5.5c-1.6-1.4-2.8-3-3.7-4.9C168.6,50.6,169.8,50.4,171.1,50.4L171.1,50.4z M171.9,55.9v-5.5
			c1.2,0,2.5,0.2,3.7,0.6C174.7,52.9,173.5,54.5,171.9,55.9L171.9,55.9z M171.9,49.6v-4.1h5c-0.1,1.6-0.4,3.3-1,4.8
			C174.6,49.8,173.2,49.6,171.9,49.6L171.9,49.6z M177.7,45.4h5c-0.1,2.5-1.1,4.9-2.7,6.8c-1-0.7-2.2-1.3-3.4-1.7
			C177.3,48.8,177.6,47.1,177.7,45.4L177.7,45.4z M163.5,52.8c0.9-0.6,2-1.2,3-1.5c0.8,1.8,2,3.5,3.4,4.8
			C167.5,55.7,165.2,54.6,163.5,52.8L163.5,52.8z M173,56.1c1.4-1.4,2.6-3,3.4-4.8c1.1,0.4,2.1,0.9,3.1,1.6
			C177.7,54.6,175.4,55.8,173,56.1L173,56.1z"/>
		<path class="st6" d="M158.4,76.3c0-6,3-8.7,6.4-8.7s6.4,2.6,6.4,8.7s-3,8.7-6.4,8.7S158.4,82.4,158.4,76.3z M168.2,76.3
			c0-3.4-1.4-5.4-3.4-5.4s-3.5,2-3.5,5.4s1.3,5.4,3.5,5.4S168.2,79.8,168.2,76.3z"/>
		<path class="st6" d="M173.4,67.8h2.9V75l4.6-7.1h3.7l-5.6,8l5.7,8.9h-3.6l-4.8-8v8h-2.9L173.4,67.8z"/>
		<path class="st6" d="M158.4,263.8c0-6,3-8.7,6.4-8.7s6.4,2.6,6.4,8.7s-3,8.7-6.4,8.7S158.4,269.9,158.4,263.8z M168.2,263.8
			c0-3.4-1.4-5.4-3.4-5.4s-3.5,2-3.5,5.4s1.3,5.4,3.5,5.4S168.2,267.3,168.2,263.8z"/>
		<path class="st6" d="M173.4,255.3h2.9v7.1l4.6-7.1h3.7l-5.6,8l5.7,8.9h-3.6l-4.8-8.1v8h-2.9L173.4,255.3z"/>
	</g>
	<g class="st7">
		<path d="M337.4,170.1c0,30.6-1.3,105-82.5,105h-52.8c-3.6,0-6.6-3.4-6.6-7.5V72.6c0-4.2,3-7.5,6.6-7.5H255
			C336.2,65.1,337.4,139.4,337.4,170.1z M299.2,143.2c-3.4-25.4-13.5-35.5-19.5-38.9c-4.6-2.6-15.5-4.7-24.4-5.7
			c-8.8-1-15.7,0-15.7,0c-3.7,0-6.7,3.4-6.7,7.7v127.4c0,4.3,3,7.7,6.7,7.7c0,0,7.8,0.6,15.7,0c7.9-0.6,19.8-3,24.4-5.7
			c5.1-3,15.9-13.6,19.5-38.9C300.7,186.1,300.6,154.1,299.2,143.2z"/>
	</g>
	<g class="st7">
		<path d="M415.9,129.5c-6.7,11.9-7.6,22.3-7.6,41.2c0,27.6,1,45.4,14.3,58.9c5.6,5.7,13.6,8.5,24.3,8.5c4.6,0,11.6-0.5,15.1-0.9
			l2-0.2c2.7-0.3,4.7-2.6,4.7-5.3v-47.4c0-5.2,4.2-9.5,9.4-9.5h17c4.9,0,8.9,4,8.9,9V256c0,4.6-2.9,8.8-7.1,10.3
			c-11,4-30.6,8.8-49.3,8.8c-4.1,0-8.1-0.2-11.9-0.7c-45-5.2-67.9-40.1-67.9-103.7c0-95.3,71.2-105.6,99.3-105.6
			c15.8,0,18.6,1,26.2,2c9.1,1.8,10.6,3.1,10.6,10.3v13.6c0,5.8-4.7,10.6-10.4,10.6c-0.2,0-13.5-2.9-26.2-2.9
			C440.2,97.7,425.6,112,415.9,129.5z"/>
	</g>
	<g class="st7">
		<path d="M706.7,274.9c-7.6,0-95.4,0-103,0c-7.5,0-10.1-4.3-10.1-9.8c0-6.8,0-12.9,0-17.1c0-7.6-0.1-10.6,5.1-16.2
			c9.5-10.1,28.4-27.4,46.8-47.7c18.4-20.3,30.6-37.2,30.6-56.6c0-22.5-14.9-31.8-32.6-31.8c-15.8,0-32.4,4.8-41.6,8
			c-6.9,2.3-8.3-3.5-8.3-7.1c0-2.9,0-11.1,0-16.6c0-3.2,1-6.1,4.8-7.1c10.7-2.7,34.8-7.9,54.2-7.9c26.4,0,42.7,12,48.9,17.9
			c5.3,5.1,15.3,17.5,15.3,44.7s-22.1,48.9-22.1,48.9s-10.1,11.9-23.2,24.6c-7.1,6.9-19.9,19.2-28.1,27.7
			c-3.5,3.6-3.8,12.9,4.5,12.9c6.2,0,40.2,0,58.6,0c6.2,0,10.2,2.1,10.2,8.2c0,6.1,0,9.1,0,15.3
			C716.9,271.4,714.3,274.9,706.7,274.9z"/>
	</g>
	<g class="st7">
		<path d="M758.8,247.6c0-9.4,2-9.9,4-10.1c2-0.2,9.9,3.4,16.7,4.4c6.8,1,14.7,2,22.5,2c7.8,0,35.6-4.7,35.6-33.6
			c0-28.9-30.1-29.9-30.1-29.9s-1.8-0.4-5.8,0c-8.1,0.9-10.5,0.1-10.6-4.7c-0.1-4.2,0-15,0-17.3c0-2.2,0.3-7.5,7.1-6.2
			c2.9,0.6,6.7-0.3,11.4-1.7c6-1.8,24.5-5.2,24.5-29.6c0-24.4-23-25.9-31.3-25.2c-10.4,0.7-29.6,7.4-34.1,8.9
			c-4.5,1.5-9.6,2.7-9.9-2.5c-0.3-5.2-1-18.5-1-20.7c0-2.2,0-6.4,6.3-8.1c6.3-1.7,41.1-18.8,82.2-1.3c30,12.8,36.4,68.7-1,85.7
			c-2.6,1.2-3.7,4.2-3.7,6.2c0,2,1.4,4.9,4.5,6.3c3,1.5,13.7,5.3,21.6,15.4s8.8,18.8,8.8,28.4c0,46.7-48,60.2-69,60.2
			c-21,0-32.6-1.5-39.9-3c-7.3-1.5-9.9-5.4-9.9-9.4C757.7,258,758.8,247.6,758.8,247.6z"/>
	</g>
	<g class="st7">
		<path d="M952.4,125c0-40.1,28.1-72,65-72c50.8,0,63.7,50.7,63.7,84c0,22.8-2,55.8-28.2,89.1c-25.2,32-43.1,40.3-46.4,42.1
			c-2.3,1.3-8.6,6.2-12,0.7c-3.4-5.4-7.5-14-8.7-16.5c-2.1-4.4-0.6-7.2,3.9-9.7c6.8-3.9,18.1-14,25.9-21.1
			c7.7-7,13.1-14.3,15.3-17.6c4.6-6.9-0.1-12.2-3.6-11.5c-3.9,0.7-7.3,1.5-10,1.8C988.3,197.4,952.4,178.7,952.4,125z M989.6,123.6
			c0,11.9-0.1,16.4,3.2,25.4c5.2,10.6,15.4,17.2,24.6,17.2c9.2,0,17.9-6.5,23.2-17.2c3.2-9.1,3.2-13.5,3.2-25.3
			c0-11.8,0-16.4-3.2-25.3c-5.2-9.9-14.1-16.5-23.3-16.5s-19.4,6.5-24.6,16.5C989.6,107.3,989.6,111.6,989.6,123.6z"/>
	</g>
	<g class="st7">
		<path d="M1109.8,125c0-40.1,28.1-72,65-72c50.8,0,63.7,50.7,63.7,84c0,22.8-2,55.8-28.2,89.1c-25.2,32-43.1,40.3-46.4,42.1
			c-2.3,1.3-8.6,6.2-12,0.7c-3.4-5.4-7.5-14-8.7-16.5c-2.1-4.4-0.6-7.2,3.9-9.7c6.8-3.9,18.1-14,25.9-21.1
			c7.7-7,13.1-14.3,15.3-17.6c4.6-6.9-0.1-12.2-3.6-11.5c-3.9,0.7-7.3,1.5-10,1.8C1145.7,197.4,1109.8,178.7,1109.8,125z
			 M1147,123.6c0,11.9-0.1,16.4,3.2,25.4c5.2,10.6,15.4,17.2,24.6,17.2s17.9-6.5,23.2-17.2c3.2-9.1,3.2-13.5,3.2-25.3
			c0-11.8,0-16.4-3.2-25.3c-5.2-9.9-14.1-16.5-23.3-16.5s-19.4,6.5-24.6,16.5C1147,107.3,1147,111.6,1147,123.6z"/>
	</g>
	<g class="st7">
		<path d="M1281.6,97.1c-6,0-9.8-3.7-9.8-9.8s0-3.1,0-9.7c0-6.6,4.2-10.4,9.8-11.3c5.6-0.9,38.4-6.5,45.8-7.7
			c7.4-1.2,9.8,2.5,9.8,8.2s0,152.4,0,158.8c0,9.3,2.9,9.8,9.8,9.8c5.5,0,9,0,13.9,0s9.8,3.9,9.8,9.8c0,5.9,0,7.3,0,13.4
			c0,6.1-4.7,9.8-9.8,9.8s-76.1,0-81.2,0c-5.1,0-9.8-3.5-9.8-9.8c0-6.3,0-7.1,0-13.4c0-6.3,4.8-9.8,9.8-9.8c5,0,9,0,14,0
			c7.6,0,9.8-0.5,9.8-9.8c0-5.5,0-113,0-118.7c0-8.1-1.6-9.8-9.8-9.8C1288.3,97.1,1287.6,97.1,1281.6,97.1L1281.6,97.1z"/>
	</g>
</g>
</svg>
