<?xml version="1.0" encoding="utf-8"?>
<!-- Generator: Adobe Illustrator 24.1.0, SVG Export Plug-In . SVG Version: 6.00 Build 0)  -->
<svg version="1.1" id="Réteg_1" xmlns="http://www.w3.org/2000/svg" xmlns:xlink="http://www.w3.org/1999/xlink" x="0px" y="0px"
	 viewBox="0 0 1428.7 340.2" style="enable-background:new 0 0 1428.7 340.2;" xml:space="preserve">
<style type="text/css">
	.st0{fill:#EFC902;}
	.st1{fill:#0183FD;}
	.st2{fill:#FFFFFF;}
	.st3{fill:#BFBDBB;}
	.st4{fill:#999898;}
	.st5{fill:#A5A3A3;}
	.st6{enable-background:new    ;}
</style>
<g id="Réteg_4">
	<g id="fehér_alap">
		<path class="st0" d="M33.4,0h1361.8c18.5,0,33.4,15,33.4,33.4v273.3c0,18.5-15,33.4-33.4,33.4H33.4C15,340.2,0,325.2,0,306.7V33.4
			C0,15,15,0,33.4,0z"/>
	</g>
	<g id="vörös_keret">
		<path d="M1409.5,17.7c-5.9-5.9-13.8-9.2-22.1-9.2H38.4C21,8.5,7,22.5,7,39.9v260.4c0,17.3,14,31.4,31.4,31.4h1349
			c17.3,0,31.4-14,31.4-31.4V39.9C1418.7,31.5,1415.4,23.5,1409.5,17.7z M1404.5,300.3c0,9.5-7.6,17.2-17.1,17.2H38.4
			c-9.5,0-17.2-7.7-17.2-17.2c0,0,0,0,0,0V39.9c0-9.5,7.7-17.2,17.2-17.2c0,0,0,0,0,0h1349c9.5,0,17.2,7.7,17.2,17.2c0,0,0,0,0,0
			L1404.5,300.3z"/>
	</g>
	<path class="st1" d="M156.2,31.2H38.4c-4.8,0-8.7,3.9-8.7,8.7c0,0,0,0,0,0v260.4c0,4.8,3.9,8.7,8.7,8.7h117.8V31.2z"/>
	<path id="path3775" class="st0" d="M54.5,83.5l2.2,5.4l5.8,0.2L58,92.8l1.6,5.6l-4.9-3.1L50,98.6l1.4-5.6l-4.6-3.6l5.8-0.4
		L54.5,83.5z"/>
	<path d="M49.5,99.2l1.5-6.2l-5-3.9l6.3-0.4l2.1-6l2.4,5.9l6.3,0.2l-4.9,4.1l1.8,6.1l-5.4-3.4L49.5,99.2z M47.7,89.6l4.1,3.2l-1.2,5
		l4.3-2.9l4.4,2.8l-1.4-5l3.9-3.3l-5.2-0.1l-1.9-4.8l-1.7,4.9L47.7,89.6z"/>
	<path id="path3775-2" class="st0" d="M114.9,144.3l2.2,5.4l5.8,0.2l-4.4,3.7l1.6,5.6l-4.9-3.1l-4.8,3.3l1.4-5.6l-4.6-3.5l5.7-0.4
		L114.9,144.3z"/>
	<path d="M109.9,160l1.5-6.2l-5-3.9l6.3-0.4l2.1-6l2.4,5.9l6.3,0.2l-4.9,4.1l1.8,6.1l-5.4-3.4L109.9,160z M108.1,150.4l4.1,3.2
		l-1.2,5l4.3-2.9l4.4,2.8l-1.4-5l4-3.3l-5.2-0.1l-1.9-4.8l-1.7,4.9L108.1,150.4z"/>
	<path id="path3775-3" class="st0" d="M70.7,67.2l2.2,5.4l5.8,0.2l-4.4,3.7l1.6,5.6L71,79l-4.8,3.3l1.4-5.6l-4.6-3.5l5.7-0.4
		L70.7,67.2z"/>
	<path d="M65.8,82.9l1.5-6.2l-5-3.9l6.3-0.4l2.1-6l2.4,5.9l6.3,0.2l-4.9,4.1l1.8,6.1L71,79.4L65.8,82.9z M63.9,73.4l4.1,3.2l-1.2,5
		l4.3-2.9l4.4,2.8l-1.4-5l4-3.3l-5.2-0.1l-1.9-4.8L69.1,73L63.9,73.4z"/>
	<path id="path3775-4" class="st0" d="M70.7,144.3l2.2,5.4l5.8,0.2l-4.4,3.7l1.6,5.6L71,156l-4.8,3.3l1.4-5.6l-4.6-3.5l5.7-0.4
		L70.7,144.3z"/>
	<path d="M65.8,160l1.5-6.2l-5-3.9l6.3-0.4l2.1-6l2.4,5.9l6.3,0.2l-4.9,4.1l1.8,6.1l-5.4-3.4L65.8,160z M63.9,150.4l4.1,3.2l-1.2,5
		l4.3-2.9l4.4,2.8l-1.4-5l4-3.3l-5.2-0.1l-1.9-4.8l-1.7,4.9L63.9,150.4z"/>
	<path id="path3775-5" class="st0" d="M114.9,67.2l2.2,5.4l5.8,0.2l-4.4,3.7L120,82l-4.9-3.1l-4.8,3.3l1.4-5.6l-4.6-3.5l5.7-0.4
		L114.9,67.2z"/>
	<path d="M109.9,82.9l1.5-6.2l-5-3.9l6.3-0.4l2.1-6l2.4,5.9l6.3,0.2l-4.9,4.1l1.8,6.1l-5.4-3.3L109.9,82.9z M108.1,73.4l4.1,3.2
		l-1.2,5l4.3-2.9l4.4,2.8l-1.4-5l4-3.3l-5.2-0.1l-1.9-4.8l-1.7,4.9L108.1,73.4z"/>
	<path id="path3775-6" class="st0" d="M54.5,128l2.2,5.4l5.8,0.2l-4.4,3.7l1.6,5.6l-4.9-3.1L50,143l1.4-5.6l-4.6-3.5l5.8-0.4
		L54.5,128z"/>
	<path d="M49.5,143.7l1.5-6.2l-5-3.9l6.3-0.4l2.1-6l2.4,5.9l6.3,0.2l-4.9,4.1l1.8,6.1l-5.4-3.4L49.5,143.7z M47.7,134.1l4.1,3.2
		l-1.2,5.1l4.3-2.9l4.4,2.8l-1.4-5l3.9-3.4l-5.2-0.1l-1.9-4.8l-1.7,4.9L47.7,134.1z"/>
	<path id="path3775-7" class="st0" d="M131.1,83.5l2.2,5.4l5.8,0.2l-4.4,3.7l1.6,5.6l-4.9-3.1l-4.8,3.3l1.4-5.6l-4.6-3.5l5.7-0.4
		L131.1,83.5z"/>
	<path d="M126.1,99.2l1.5-6.2l-5-3.9l6.3-0.4l2.1-6l2.4,5.9l6.3,0.2l-4.9,4.1l1.8,6.1l-5.4-3.4L126.1,99.2z M124.2,89.6l4.1,3.2
		l-1.2,5l4.3-2.9l4.4,2.8l-1.4-5l4-3.3l-5.2-0.1l-2-4.8l-1.7,4.9L124.2,89.6z"/>
	<path id="path3775-8" class="st0" d="M137,105.8l2.2,5.4l5.8,0.2l-4.4,3.7l1.6,5.6l-4.9-3.1l-4.8,3.3l1.4-5.6l-4.5-3.5l5.7-0.4
		L137,105.8z"/>
	<path d="M132,121.5l1.5-6.2l-5-3.9l6.3-0.4l2.1-6l2.4,5.9l6.3,0.2l-4.9,4.1l1.8,6.1l-5.4-3.4L132,121.5z M130.1,111.9l4.1,3.2
		l-1.2,5l4.3-2.9l4.4,2.8l-1.5-5l4-3.3l-5.2-0.1l-1.9-4.8l-1.7,4.9L130.1,111.9z"/>
	<path id="path3775-9" class="st0" d="M48.6,105.8l2.2,5.4l5.8,0.2l-4.4,3.7l1.6,5.6l-4.9-3.1l-4.8,3.3l1.4-5.6l-4.6-3.5l5.8-0.4
		L48.6,105.8z"/>
	<path d="M43.7,121.5l1.5-6.2l-5-3.9l6.3-0.4l2.1-6l2.4,5.9l6.3,0.2l-4.9,4.1l1.8,6.1l-5.4-3.4L43.7,121.5z M41.8,111.9l4.1,3.2
		l-1.2,5l4.3-2.9l4.4,2.8l-1.5-5l4-3.3l-5.2-0.1l-1.9-4.8l-1.7,4.9L41.8,111.9z"/>
	<path id="path3775-10" class="st0" d="M92.8,150.2l2.2,5.4l5.8,0.2l-4.4,3.7L98,165l-4.9-3.1l-4.7,3.3l1.4-5.6l-4.6-3.5l5.7-0.4
		L92.8,150.2z"/>
	<path d="M87.8,165.9l1.5-6.2l-5-3.9l6.3-0.4l2.1-6l2.4,5.9l6.4,0.2l-4.9,4.1l1.8,6.1l-5.4-3.4L87.8,165.9z M86,156.3l4.1,3.2
		l-1.2,5l4.3-2.9l4.4,2.8l-1.5-5l4-3.4l-5.2-0.1l-1.9-4.8l-1.7,4.9L86,156.3z"/>
	<path id="path3775-11" class="st0" d="M92.8,61.3l2.2,5.4l5.8,0.2l-4.4,3.7l1.6,5.6l-4.9-3.1l-4.7,3.3l1.4-5.6l-4.6-3.5l5.7-0.4
		L92.8,61.3z"/>
	<path d="M87.8,77l1.5-6.2l-5-3.9l6.3-0.4l2.1-6l2.4,5.9l6.4,0.2l-4.9,4.1l1.8,6.1l-5.4-3.4L87.8,77z M86,67.4l4.1,3.2l-1.2,5
		l4.3-2.9l4.4,2.8l-1.5-5l4-3.3l-5.2-0.1l-1.9-4.8L91.2,67L86,67.4z"/>
	<path id="path3775-12" class="st0" d="M131.1,128l2.2,5.4l5.8,0.2l-4.4,3.7l1.6,5.6l-4.9-3.1l-4.8,3.3l1.4-5.6l-4.6-3.5l5.7-0.4
		L131.1,128z"/>
	<path d="M126.1,143.7l1.5-6.2l-5-3.9l6.3-0.4l2.1-6l2.4,5.9l6.3,0.2l-4.9,4.1l1.8,6.1l-5.4-3.4L126.1,143.7z M124.2,134.1l4.1,3.2
		l-1.2,5.1l4.3-2.9l4.4,2.8l-1.4-5l4-3.4l-5.2-0.1l-1.9-4.8l-1.7,4.9L124.2,134.1z"/>
	<polygon class="st2" points="134.9,206.2 122.8,206.2 107.2,230.8 107,206.2 97.9,206.2 97.9,233 97.9,232.9 97.9,259.7 107,259.7 
		107.2,235.1 122.8,259.7 134.9,259.7 116.4,232.9 	"/>
	<path class="st2" d="M79.2,212c-3.5-3.5-8.2-5.6-13.2-5.8H50.9v53.6h15.1c5-0.2,9.7-2.3,13.2-5.8c3.9-3.6,6.2-8.7,6.4-14v-14
		C85.5,220.6,83.2,215.6,79.2,212z M76.8,233v7c0,5.7-6.2,11-10.7,11h-6.3v-36h6.3c4.5,0,10.7,5.3,10.7,11V233z"/>
	<g id="hologram">
		<rect x="156.2" y="31.2" class="st3" width="28.4" height="277.8"/>
		<rect x="156.2" y="140.5" class="st4" width="28.4" height="56.7"/>
		<polygon class="st5" points="176,288.5 176,288.7 175.7,288.7 175.7,289.1 176,289.1 176.4,289.1 176.6,288.8 176.4,288.7 
			176.3,288.6 176.1,288.3 176,287.8 175.6,287.9 175.5,288 175.5,288.2 175.7,288.3 		"/>
		<polygon class="st5" points="175.7,288.6 175.7,288.4 175.5,288.3 175.2,288.4 174.9,288.7 174.9,289 175.2,289 		"/>
		<path class="st5" d="M169.6,289.6l-0.1,0.2h-0.3v0.2h0.1v0.1h0.2l0.1-0.1v-0.1h0.1l0.1-0.1L169.6,289.6L169.6,289.6z"/>
		<polygon class="st5" points="168.8,290 168.7,290.1 169,290.1 169,289.9 168.9,289.8 		"/>
		<path class="st5" d="M182.5,295c0-0.3,0-0.7-0.1-1c-0.1-1.1-0.4-2.2-0.8-3.3l-0.1-0.2c-0.5-1.3-1.3-2.5-2.2-3.5l-0.2-0.2
			c-0.2-0.2-0.4-0.4-0.5-0.5c-4.6-4.2-11.6-4.2-16.2,0.1c-0.5,0.5-1,1-1.4,1.5c-4.1,5.2-3.2,12.8,2,16.9c5.2,4.1,12.8,3.2,16.9-2
			c0.5-0.6,1-1.3,1.3-2.1c0.4-0.8,0.8-1.7,1-2.6c0.1-0.2,0.1-0.5,0.1-0.7c0.1-0.7,0.2-1.4,0.2-2.1L182.5,295z M180.2,290.2
			L180.2,290.2c0.2,0.1,0.2,0.3,0.3,0.5h-0.1h-0.2V290.2z M178.5,288.1v-0.5c0.2,0.2,0.4,0.4,0.5,0.6l-0.2,0.3h-0.8v-0.2
			L178.5,288.1z M164,286.8L164,286.8h0.2v-0.1h0.4v0.2l-0.1,0.1H164L164,286.8L164,286.8z M164.4,287.4h0.3v0.2h-0.5l-0.1-0.1
			L164.4,287.4z M181,292.1h-0.9l-0.5-0.4l-0.6,0v0.4h-0.2l-0.2-0.1l-1-0.2v-0.6l-1.2,0.1l-0.4,0.2h-0.5h-0.2l-0.6,0.3v0.6l-1.2,0.9
			l0.1,0.4h0.2l-0.1,0.4l-0.2,0.1v0.9l1,1.2h0.5v-0.1h0.8l0.2-0.2h0.5l0.3,0.3l0.7,0.1l-0.1,0.9l0.8,1.4l-0.4,0.8v0.4l0.3,0.3v0.9
			l0.4,0.6v0.7h0.4c-3.8,4.7-10.8,5.4-15.5,1.6c-2.6-2.1-4.1-5.2-4.1-8.5c0-1.5,0.3-2.9,0.9-4.3v-0.4l0.4-0.5
			c0.1-0.2,0.3-0.5,0.4-0.8v0.2l-0.5,0.5c-0.1,0.3-0.3,0.5-0.4,0.8v0.6l0.4,0.2v0.9l0.4,0.8l0.4,0.1v-0.3l-0.4-0.6l-0.1-0.6h0.4
			l0.1,0.6l0.6,0.9l-0.2,0.3l0.4,0.6l1,0.2v-0.1l0.4,0v0.3l0.3,0.1l0.5,0.1l0.6,0.8l0.8,0.1l0.1,0.7l-0.6,0.4v0.6l-0.1,0.4l0.8,1
			l0.1,0.4l0.3,0.1l0.7,0.5v1.9l0.2,0.1l-0.1,0.9l0.4,0.5l-0.1,0.9l0.5,0.9l0.6,0.6h0.6l0.1-0.2l-0.5-0.4v-0.2l0.1-0.2V304h-0.3
			l-0.2-0.2l0.3-0.3v-0.2l-0.3-0.1v-0.2l0.4-0.1l0.7-0.3l0.2-0.4l0.7-0.9l-0.1-0.7l0.2-0.4h0.6l0.4-0.3l0.1-1.3l0.5-0.6l0.1-0.4
			l-0.4-0.1l-0.3-0.5h-1l-0.8-0.3v-0.5l-0.2-0.5H169l-0.4-0.6l-0.4-0.2v0.2h-0.6l-0.2-0.3l-0.7-0.1l-0.6,0.6l-0.9-0.1l-0.1-1
			l-0.6-0.1l0.3-0.5l-0.1-0.3l-0.9,0.6l-0.5-0.1l-0.2-0.4l0.1-0.4l0.3-0.5l0.7-0.3h1.3v0.4l0.5,0.2v-0.7l0.3-0.3l0.7-0.5V291
			l0.7-0.7l0.7-0.4l-0.1-0.1l0.5-0.5h0.2l0.1,0.1l0.2-0.2l0,0h-0.2l-0.2-0.1V289l0.1-0.1h0.2h0.1l0.1,0.2h0.1l0,0l0,0l0.3,0v-0.2
			l0.2,0v0.2l-0.2,0.1l0,0v0.2l0.6,0.2h0.1v-0.3l-0.5-0.2V289l0.4-0.1v-0.4l-0.2-0.1v-0.6l-0.6,0.3h-0.2l0.1-0.5l-0.8-0.2l-0.3,0.2
			v0.8l-0.6,0.2l-0.2,0.5h-0.2v-0.6l-0.6-0.1l-0.3-0.2l-0.1-0.4l1-0.6l0.5-0.1l0.1,0.3h0.3v-0.2h0.3l0,0l-0.1,0v-0.2h0.3l0.2-0.2
			l0,0l0,0l0.1-0.1l0.7-0.1l0.3,0.3l-0.8,0.5l1.1,0.2l0.1-0.4h0.5l0.2-0.3l-0.3-0.1v-0.4l-1-0.5l-0.7,0.1l-0.4,0.2v0.5l-0.4-0.1
			l-0.1-0.3l0.4-0.4h-0.7l-0.2,0.1l-0.1,0.2l0.3,0v0.3h-0.5l-0.1,0.2h-0.7c0-0.1,0-0.3,0-0.4h0.5l0.4-0.4l-0.2-0.1l-0.3,0.3h-0.5
			l-0.3-0.4h-0.6l-0.6,0.5h0.4l0.1,0.2l-0.2,0.1h0.7l0.1,0.2h-0.7v-0.2l-0.5-0.1l-0.2-0.1H164c4.2-3,9.9-2.8,13.7,0.6l-0.1,0.2
			l-0.5,0.2l-0.2,0.2l0.1,0.3h0.3l0.2,0.4l0.4-0.2l0.1,0.5h-0.1l-0.4-0.1l-0.4,0.1l-0.4,0.6l-0.6,0.1l-0.1,0.5l0.2,0.1l-0.1,0.3
			l-0.6-0.1l-0.5,0.1l-0.1,0.3l0.1,0.6l0.3,0.1h0.5h0.4l0.1-0.3l0.5-0.7l0.4,0.1l0.3-0.3l0.1,0.2l0.9,0.6l-0.1,0.1h-0.4l0.1,0.2
			l0.2,0l0.3-0.1v-0.3l0.1-0.1l-0.1-0.1l-0.6-0.3l-0.1-0.4h0.5l0.2,0.1l0.4,0.4v0.4l0.4,0.5l0.2-0.6l0.3-0.2l0.1,0.5l0.3,0.3h0.6
			c0.1,0.3,0.2,0.6,0.3,0.9L181,292.1z M165,288.6l0.3-0.1l0.3,0.1l-0.1,0.4l-0.3,0.1L165,288.6z M166.5,289.4v0.2h-0.7l-0.2-0.1
			l0.1-0.2l0.3-0.1h0.4v0.1H166.5z M166.8,289.8v0.2l-0.2,0.1h-0.2v-0.4L166.8,289.8z M166.6,289.7v-0.3l0.2,0.2L166.6,289.7z
			 M166.7,290.2v0.2l-0.2,0.2h-0.4l0.1-0.2h0.2v-0.1L166.7,290.2z M165.9,289.8h0.4l-0.5,0.6l-0.2-0.1l0.1-0.3L165.9,289.8z
			 M167.4,290.1v0.2H167l-0.1-0.1V290l0,0L167.4,290.1z M167,289.8l0.1-0.1l0.2,0.1l-0.1,0.1L167,289.8z M181.1,292.7L181.1,292.7
			c0,0.1,0,0.1,0,0.2V292.7z"/>
		<path class="st5" d="M160.4,290.5v0.4c0.1-0.3,0.2-0.6,0.4-0.8L160.4,290.5z"/>
		<path class="st5" d="M179.2,303c4.1-4.6,4-11.6-0.2-16.1l0,0c-2.2-2.3-5.2-3.7-8.3-3.8h-0.8c-3.2,0.1-6.1,1.5-8.3,3.8l0,0
			c-4.3,4.5-4.4,11.5-0.2,16.1l0,0l0,0c2.2,2.4,5.3,3.9,8.5,4h0.8C173.9,306.9,177,305.4,179.2,303L179.2,303L179.2,303z
			 M159.1,295.4h5c0,1.7,0.4,3.4,1,5c-1.2,0.4-2.3,1-3.4,1.7C160.2,300.3,159.2,297.9,159.1,295.4L159.1,295.4z M162,287.6
			c1,0.7,2.1,1.2,3.3,1.6c-0.7,1.7-1.1,3.6-1.1,5.4h-5C159.2,292,160.2,289.5,162,287.6L162,287.6z M181.4,294.6h-5
			c0-1.9-0.4-3.7-1.1-5.4c1.1-0.4,2.2-0.9,3.3-1.6C180.3,289.5,181.3,292,181.4,294.6L181.4,294.6z M169.9,289.2
			c-1.2,0-2.4-0.2-3.5-0.5c0.8-1.7,2-3.3,3.5-4.6V289.2z M169.9,290v4.6h-4.9c0-1.8,0.4-3.5,1.1-5.1
			C167.3,289.8,168.6,290,169.9,290L169.9,290z M170.7,290c1.3,0,2.6-0.2,3.9-0.6c0.7,1.6,1.1,3.4,1.1,5.1h-4.9L170.7,290z
			 M170.7,289.2v-5.1c1.5,1.3,2.7,2.8,3.5,4.6C173.1,289,171.9,289.2,170.7,289.2L170.7,289.2z M175,288.4c-0.8-1.7-1.9-3.2-3.3-4.5
			c2.4,0.3,4.6,1.4,6.3,3C177.1,287.6,176.1,288.1,175,288.4L175,288.4z M165.6,288.4c-1.1-0.4-2.1-0.9-3-1.5c1.7-1.6,3.9-2.7,6.3-3
			C167.5,285.3,166.4,286.8,165.6,288.4L165.6,288.4z M164.9,295.4h4.9v4.1c-1.4,0-2.7,0.2-4,0.6C165.3,298.7,165,297.1,164.9,295.4
			L164.9,295.4z M169.9,300.4v5.5c-1.6-1.4-2.8-3-3.7-4.9C167.4,300.7,168.6,300.5,169.9,300.4L169.9,300.4z M170.7,305.9v-5.5
			c1.2,0,2.5,0.2,3.7,0.6C173.5,302.9,172.2,304.6,170.7,305.9L170.7,305.9z M170.7,299.6v-4.1h4.9c-0.1,1.6-0.4,3.3-1,4.8
			C173.4,299.9,172,299.6,170.7,299.6L170.7,299.6z M176.5,295.5h5c-0.1,2.5-1,4.9-2.6,6.8c-1-0.7-2.2-1.3-3.4-1.7
			C176.1,298.9,176.4,297.2,176.5,295.5L176.5,295.5z M162.3,302.8c1-0.6,2-1.2,3.1-1.6c0.8,1.8,2,3.5,3.4,4.8
			C166.3,305.8,164,304.6,162.3,302.8L162.3,302.8z M171.7,306.1c1.4-1.4,2.6-3,3.4-4.8c1.1,0.4,2.1,0.9,3.1,1.6
			C176.5,304.6,174.2,305.8,171.7,306.1L171.7,306.1z"/>
		<polygon class="st5" points="176,226 176,226.2 175.7,226.2 175.7,226.6 176,226.6 176.4,226.6 176.6,226.3 176.4,226.2 
			176.3,226.1 176.1,225.8 176,225.3 175.6,225.4 175.5,225.5 175.5,225.7 175.7,225.8 		"/>
		<polygon class="st5" points="175.7,226.1 175.7,225.9 175.5,225.8 175.2,225.9 174.9,226.2 174.9,226.5 175.2,226.5 		"/>
		<path class="st5" d="M169.6,227.1l-0.1,0.2h-0.3v0.2h0.1v0.1h0.2l0.1-0.1v-0.1h0.1l0.1-0.1L169.6,227.1L169.6,227.1z"/>
		<polygon class="st5" points="168.8,227.4 168.7,227.6 169,227.6 169,227.4 168.9,227.3 		"/>
		<path class="st5" d="M182.5,232.5c0-0.3,0-0.7-0.1-1c-0.1-1.1-0.4-2.2-0.8-3.3l-0.1-0.2c-0.5-1.3-1.3-2.5-2.2-3.5l-0.2-0.2
			c-0.2-0.2-0.4-0.4-0.5-0.5c-4.6-4.2-11.6-4.2-16.2,0c-0.5,0.5-1,1-1.4,1.5c-4.1,5.2-3.2,12.7,2,16.9c5.2,4.1,12.7,3.2,16.9-2
			c0.5-0.7,1-1.4,1.3-2.1c0.4-0.8,0.8-1.7,1-2.6c0.1-0.2,0.1-0.5,0.1-0.7c0.1-0.7,0.2-1.4,0.2-2.1L182.5,232.5z M180.2,227.7
			L180.2,227.7c0.2,0.1,0.2,0.3,0.3,0.5h-0.1h-0.2V227.7z M178.5,225.6v-0.5c0.2,0.2,0.4,0.4,0.5,0.6l-0.2,0.3h-0.8v-0.1
			L178.5,225.6z M164,224.3L164,224.3h0.2v-0.1h0.4v0.2l-0.1,0.1H164L164,224.3L164,224.3z M164.4,224.8h0.3v0.2h-0.5L164,225
			L164.4,224.8z M181,229.6h-0.9l-0.5-0.4l-0.6,0.1v0.3h-0.2l-0.2-0.1l-1-0.2v-0.6l-1.2,0.1l-0.4,0.2h-0.5h-0.2l-0.6,0.3v0.6
			l-1.2,0.9l0.1,0.4h0.2l-0.1,0.4l-0.2,0.1v0.9l1,1.2h0.5v-0.1h0.8l0.2-0.2h0.5l0.3,0.3l0.7,0.1l-0.1,0.9l0.8,1.4l-0.4,0.8v0.4
			l0.3,0.3v0.9l0.4,0.6v0.7h0.4c-3.8,4.7-10.8,5.4-15.5,1.6c-2.6-2.1-4.1-5.2-4.1-8.5c0-1.5,0.4-2.9,1-4.2V228l0.4-0.5
			c0.1-0.3,0.3-0.5,0.4-0.8v0.2l-0.5,0.6c-0.1,0.3-0.3,0.5-0.4,0.8v0.6l0.4,0.2v0.9l0.4,0.8l0.4,0.1v-0.3l-0.4-0.6l-0.1-0.6h0.3
			l0.1,0.6l0.6,0.9l-0.2,0.3l0.4,0.6l1,0.2v-0.1l0.4,0v0.3l0.3,0l0.5,0.1l0.6,0.8l0.8,0.1l0.1,0.7l-0.6,0.4v0.6l-0.1,0.4l0.8,1
			l0.1,0.4l0.3,0.1l0.7,0.5v1.9l0.2,0.1l-0.1,0.9l0.4,0.5l-0.1,0.9l0.5,0.9l0.6,0.6h0.6l0.1-0.2l-0.5-0.4V242l0.1-0.2v-0.2h-0.3
			l-0.2-0.2l0.3-0.3v-0.2l-0.3-0.1v-0.2l0.4-0.1l0.7-0.3l0.2-0.4l0.7-0.9l-0.1-0.7l0.2-0.4h0.6l0.4-0.3l0.1-1.3l0.5-0.6l0.1-0.4
			l-0.4-0.1l-0.3-0.5h-1l-0.8-0.3v-0.5l-0.2-0.5H169l-0.4-0.6l-0.4-0.2v0.2h-0.6l-0.2-0.3l-0.7-0.1l-0.6,0.6l-0.9-0.1l-0.1-1
			l-0.6-0.1l0.3-0.5l-0.1-0.3l-0.9,0.6l-0.5-0.1l-0.2-0.4l0.1-0.4l0.3-0.5l0.7-0.3h1.3v0.4l0.5,0.2v-0.7l0.3-0.3l0.7-0.5v-0.3
			l0.7-0.7l0.7-0.4l0,0l0.5-0.5h0.2l0.1,0.1l0.2-0.2l0,0h-0.2l-0.2-0.1v-0.2l0.1-0.1h0.2h0.1l0.1,0.2h0.1l0,0l0,0l0.3-0.1v-0.2h0.2
			v0.2l-0.2,0.1l0,0v0.2l0.6,0.2h0.1v-0.3l-0.5-0.2v-0.1l0.4-0.1V226l-0.4-0.2v-0.6l-0.6,0.3h-0.2l0.1-0.5l-0.8-0.2l-0.3,0.2v0.8
			l-0.6,0.2l-0.2,0.5h-0.2v-0.6l-0.6-0.1l-0.3-0.2l-0.1-0.4l1-0.6l0.5-0.1l0.1,0.3h0.3v-0.2h0.3v0h-0.1v-0.2h0.3l0.2-0.2l0,0
			l0.1-0.1l0.7-0.1l0.3,0.3l-0.8,0.5l1.1,0.2l0.1-0.4h0.5l0.2-0.3l-0.3-0.1v-0.4l-1-0.5l-0.7,0.1l-0.4,0.2v0.5l-0.4-0.1l-0.1-0.3
			l0.4-0.4h-0.7l-0.2,0.1l-0.1,0.2l0.3,0v0.3h-0.5l-0.1,0.2h-0.7c0-0.1,0-0.3,0-0.4h0.5l0.4-0.4l-0.2-0.1l-0.3,0.3h-0.5l-0.3-0.4
			h-0.6l-0.6,0.5h0.6l0.1,0.2l-0.2,0.1h0.7l0.1,0.2h-0.7v-0.2l-0.5-0.1l-0.2-0.1H164c4.2-3,9.9-2.8,13.7,0.6l-0.1,0.2l-0.5,0.2
			l-0.2,0.2l0.1,0.3h0.3l0.2,0.4l0.4-0.2l0.1,0.5h-0.1l-0.4,0l-0.4,0.1l-0.4,0.6l-0.6,0.1l-0.1,0.5l0.2,0.1l-0.1,0.3l-0.6-0.1
			l-0.5,0.1l-0.1,0.3l0.1,0.6l0.3,0.1h0.5h0.4l0.1-0.3l0.5-0.7l0.4,0.1l0.3-0.3l0.1,0.2l0.9,0.6l-0.1,0.1H178l0.1,0.2l0.2,0l0.3-0.1
			v-0.3l0.1-0.1l-0.1-0.1l-0.6-0.3l-0.1-0.4h0.4l0.2,0.2l0.4,0.4v0.4l0.4,0.5l0.2-0.6l0.3-0.2l0.1,0.5l0.3,0.3h0.6
			C180.8,229,180.9,229.3,181,229.6L181,229.6z M165,226.1l0.3-0.1l0.3,0.1l-0.1,0.4l-0.3,0.1L165,226.1z M166.5,226.9v0.2h-0.7
			l-0.2-0.1l0.1-0.2l0.3-0.1h0.4v0.1H166.5z M166.8,227.2v0.2l-0.2,0.1h-0.2v-0.4L166.8,227.2z M166.6,227.2v-0.3l0.2,0.2
			L166.6,227.2z M166.7,227.7v0.2l-0.2,0.2h-0.4l0.1-0.2h0.2v-0.1L166.7,227.7z M165.9,227.2h0.4l-0.5,0.6l-0.2-0.1l0.1-0.3
			L165.9,227.2z M167.4,227.6v0.2H167l-0.1-0.1v-0.2l0,0L167.4,227.6z M167,227.3l0.1-0.1l0.2,0.1l-0.1,0.1L167,227.3z M181.1,230.2
			L181.1,230.2c0,0.1,0,0.1,0,0.2V230.2z"/>
		<path class="st5" d="M160.4,228v0.4c0.1-0.3,0.2-0.6,0.4-0.8L160.4,228z"/>
		<path class="st5" d="M179.2,240.5c4.1-4.6,4-11.6-0.2-16.1l0,0c-2.2-2.3-5.2-3.7-8.3-3.8h-0.8c-3.2,0.1-6.1,1.5-8.3,3.8l0,0
			c-4.2,4.5-4.3,11.5-0.2,16.1l0,0l0,0c2.2,2.4,5.3,3.9,8.5,4h0.8C174,244.4,177.1,242.9,179.2,240.5L179.2,240.5z M159.1,232.9h5
			c0,1.7,0.4,3.4,1,5c-1.2,0.4-2.3,1-3.4,1.7C160.2,237.8,159.2,235.4,159.1,232.9L159.1,232.9z M162,225.1c1,0.7,2.1,1.2,3.3,1.6
			c-0.7,1.7-1.1,3.6-1.1,5.4h-5C159.2,229.5,160.2,227,162,225.1L162,225.1z M181.4,232.1h-5c0-1.9-0.4-3.7-1.1-5.4
			c1.1-0.4,2.2-0.9,3.3-1.6C180.3,227,181.3,229.5,181.4,232.1L181.4,232.1z M169.9,226.7c-1.2,0-2.4-0.2-3.5-0.5
			c0.8-1.7,2-3.3,3.5-4.6V226.7z M169.9,227.5v4.6h-4.9c0-1.8,0.4-3.5,1.1-5.2C167.3,227.3,168.6,227.5,169.9,227.5L169.9,227.5z
			 M170.7,227.5c1.3,0,2.6-0.2,3.9-0.6c0.7,1.6,1.1,3.4,1.1,5.2h-4.9L170.7,227.5z M170.7,226.7v-5.1c1.5,1.3,2.7,2.8,3.5,4.6
			C173,226.5,171.9,226.7,170.7,226.7L170.7,226.7z M175,225.9c-0.8-1.7-1.9-3.2-3.3-4.5c2.4,0.3,4.6,1.4,6.3,3
			C177.1,225.1,176.1,225.6,175,225.9L175,225.9z M165.6,225.9c-1.1-0.4-2.1-0.9-3-1.5c1.7-1.6,3.9-2.7,6.3-3
			C167.5,222.7,166.4,224.3,165.6,225.9L165.6,225.9z M164.9,232.9h4.9v4.1c-1.4,0-2.7,0.2-4,0.6C165.3,236.2,165,234.6,164.9,232.9
			L164.9,232.9z M169.9,237.9v5.5c-1.6-1.4-2.8-3-3.7-4.9C167.4,238.2,168.6,238,169.9,237.9L169.9,237.9z M170.7,243.4v-5.5
			c1.2,0,2.5,0.2,3.7,0.6C173.5,240.4,172.2,242.1,170.7,243.4L170.7,243.4z M170.7,237.1v-4.1h4.9c-0.1,1.6-0.4,3.3-1,4.8
			C173.4,237.3,172,237.1,170.7,237.1L170.7,237.1z M176.5,232.9h5c-0.1,2.5-1,4.9-2.6,6.8c-1-0.7-2.2-1.3-3.4-1.7
			C176.1,236.4,176.4,234.7,176.5,232.9L176.5,232.9z M162.3,240.3c1-0.6,2-1.2,3.1-1.6c0.8,1.8,2,3.5,3.4,4.8
			C166.3,243.3,164,242.1,162.3,240.3L162.3,240.3z M171.7,243.6c1.4-1.4,2.6-3,3.4-4.8c1.1,0.4,2.1,0.9,3.1,1.6
			C176.5,242.1,174.2,243.3,171.7,243.6L171.7,243.6z"/>
		<polygon class="st5" points="176,163.5 176,163.7 175.7,163.7 175.7,164.1 176,164.1 176.4,164.1 176.6,163.8 176.4,163.7 
			176.3,163.6 176.1,163.2 176,162.8 175.6,162.9 175.5,163 175.5,163.2 175.7,163.3 		"/>
		<polygon class="st5" points="175.7,163.6 175.7,163.4 175.5,163.3 175.2,163.4 174.9,163.7 174.9,163.9 175.2,163.9 		"/>
		<path class="st5" d="M169.6,164.6l-0.1,0.2h-0.3v0.2h0.1v0.1h0.2l0.1-0.1v-0.1h0.1l0.1-0.1L169.6,164.6L169.6,164.6z"/>
		<polygon class="st5" points="168.8,164.9 168.7,165.1 169,165.1 169,164.9 168.9,164.8 		"/>
		<path class="st5" d="M182.5,170c0-0.3,0-0.7-0.1-1c-0.1-1.1-0.4-2.2-0.8-3.3l-0.1-0.2c-0.5-1.3-1.3-2.5-2.2-3.5
			c-0.1-0.1-0.1-0.1-0.2-0.2s-0.4-0.4-0.5-0.5c-4.6-4.2-11.6-4.2-16.2,0.1c-0.5,0.5-1,1-1.4,1.5c-4.1,5.2-3.3,12.7,1.9,16.9
			c5.2,4.1,12.7,3.3,16.9-1.9c0.6-0.7,1.1-1.5,1.4-2.3c0.4-0.8,0.8-1.7,1-2.6c0.1-0.2,0.1-0.5,0.1-0.7c0.1-0.7,0.2-1.4,0.2-2.1
			L182.5,170z M180.2,165.2L180.2,165.2c0.2,0.1,0.2,0.3,0.3,0.5h-0.1h-0.2V165.2z M178.5,163.1v-0.5c0.2,0.2,0.4,0.4,0.5,0.6
			l-0.2,0.3h-0.8v-0.1L178.5,163.1z M164,161.8L164,161.8h0.2v-0.1h0.4v0.2l-0.1,0.2H164L164,161.8L164,161.8z M164.4,162.3h0.3v0.2
			h-0.5l-0.1-0.1L164.4,162.3z M181,167.1h-0.9l-0.5-0.4l-0.6,0.1v0.3h-0.2l-0.2-0.1l-1-0.2v-0.6l-1.2,0.1l-0.4,0.2h-0.5h-0.2
			l-0.6,0.3v0.6l-1.2,0.9l0.1,0.4h0.2l-0.1,0.4l-0.2,0.1v0.9l1,1.2h0.5v-0.1h0.8l0.2-0.2h0.5l0.3,0.2l0.7,0.1l-0.1,0.9l0.8,1.4
			l-0.4,0.8v0.4l0.3,0.3v0.9l0.4,0.6v0.7h0.4c-3.8,4.7-10.8,5.4-15.5,1.6c-2.6-2.1-4.1-5.2-4.1-8.5c0-1.5,0.3-2.9,0.9-4.3v-0.3
			l0.4-0.5c0.1-0.3,0.3-0.5,0.4-0.8v0.2l-0.5,0.6c-0.1,0.3-0.3,0.5-0.4,0.8v0.6l0.4,0.2v0.9l0.4,0.7l0.4,0.1v-0.3l-0.4-0.6l-0.1-0.6
			h0.4l0.1,0.6l0.6,0.9l-0.2,0.3l0.4,0.6l1,0.2v-0.1h0.4v0.3l0.3,0.1l0.5,0.1l0.6,0.8l0.8,0.1l0.1,0.7l-0.6,0.4v0.6l-0.1,0.4l0.8,1
			l0.1,0.4l0.3,0.1l0.7,0.5v1.9l0.2,0.1l-0.1,0.9l0.4,0.5l-0.1,0.9l0.5,0.9l0.6,0.6h0.6l0.1-0.2l-0.5-0.4v-0.2l0.1-0.2V179h-0.3
			l-0.2-0.2l0.3-0.3v-0.2l-0.3-0.1V178l0.4-0.1l0.7-0.3l0.2-0.4l0.7-0.9l-0.1-0.7l0.2-0.4h0.6l0.4-0.3l0.1-1.3l0.5-0.6l0.1-0.4
			l-0.4-0.1l-0.3-0.5h-1l-0.8-0.3v-0.6l-0.2-0.4H169l-0.4-0.6l-0.4-0.2v0.2h-0.6l-0.2-0.3l-0.7-0.1l-0.6,0.6l-0.9-0.1l-0.1-1
			l-0.6-0.1l0.3-0.5l-0.1-0.3l-0.9,0.6l-0.5-0.1l-0.2-0.4l0.1-0.4l0.3-0.5l0.7-0.3h1.3v0.4l0.5,0.2V167l0.3-0.3l0.7-0.4v-0.3
			l0.7-0.7l0.7-0.4l-0.1-0.1l0.5-0.5h0.2l0.1,0.1l0.2-0.2l0,0h-0.2l-0.2-0.1V164l0.1-0.1h0.2h0.1l0.1,0.2h0.1l0,0l0.3-0.1v-0.2h0.2
			v0.2l-0.2,0.1l0,0v0.2l0.6,0.2h0.1v-0.3l-0.5-0.2v-0.1l0.4-0.1v-0.4l-0.4-0.3v-0.6l-0.6,0.3h-0.2l0.1-0.5l-0.8-0.2l-0.3,0.2v0.8
			l-0.6,0.2l-0.2,0.5h-0.2v-0.4l-0.6-0.1l-0.3-0.2l-0.1-0.4l1-0.6l0.5-0.1l0.1,0.3h0.3v-0.2h0.3v-0.1h-0.1v-0.2h0.3l0.2-0.2l0,0
			l0.1-0.1l0.7-0.1l0.3,0.3l-0.8,0.4l1.1,0.2l0.1-0.4h0.5l0.2-0.3l-0.3-0.1v-0.4l-1-0.5l-0.7,0.1l-0.4,0.2v0.5l-0.4-0.1l-0.1-0.3
			l0.4-0.4h-0.7l-0.2,0.1l-0.1,0.2h0.3v0.3h-0.5l-0.1,0.2h-0.7c0-0.1,0-0.3,0-0.4h0.5l0.4-0.4l-0.2-0.1l-0.3,0.3h-0.5l-0.3-0.4h-0.6
			l-0.6,0.5h0.6l0.1,0.2l-0.2,0.1h0.7l0.1,0.2h-0.7v-0.2l-0.5-0.1l-0.2-0.1H164c4.2-3,9.9-2.8,13.7,0.6l-0.1,0.2l-0.5,0.2l-0.2,0.2
			l0.1,0.3h0.3l0.2,0.4l0.4-0.2l0.1,0.5h-0.1l-0.4-0.1l-0.4,0.1l-0.4,0.6l-0.6,0.1l-0.1,0.5h0.2l-0.1,0.3l-0.6-0.1l-0.5,0.1
			l-0.1,0.3l0.1,0.6l0.3,0.1h0.5h0.4l0.1-0.3l0.5-0.7l0.4,0.1l0.3-0.3l0.1,0.2l0.9,0.6l-0.1,0.1h-0.4l0.1,0.2h0.2l0.3-0.1v-0.3
			l0.1-0.1l-0.1-0.1l-0.6-0.3l-0.1-0.4h0.5l0.2,0.1l0.4,0.4v0.4l0.4,0.4l0.2-0.6l0.3-0.2l0.1,0.5l0.3,0.3h0.6
			C180.8,166.5,180.9,166.8,181,167.1L181,167.1z M165,163.6l0.3-0.1l0.3,0.1l-0.1,0.4l-0.3,0.1L165,163.6z M166.5,164.4v0.2h-0.7
			l-0.2-0.1l0.1-0.1l0.3-0.1h0.4v0.1L166.5,164.4z M166.8,164.7v0.2l-0.2,0.1h-0.2v-0.4L166.8,164.7z M166.6,164.6v-0.3l0.2,0.2
			L166.6,164.6z M166.7,165.2v0.2l-0.2,0.2h-0.4l0.1-0.2h0.2v-0.1L166.7,165.2z M165.9,164.7h0.4l-0.5,0.6l-0.2-0.1l0.1-0.3
			L165.9,164.7z M167.4,165.1v0.2H167l-0.1-0.1V165l0,0L167.4,165.1z M167,164.8l0.1-0.1l0.2,0.1l-0.1,0.1L167,164.8z M181.1,167.7
			L181.1,167.7c0,0.1,0,0.1,0,0.2V167.7z"/>
		<path class="st5" d="M160.4,165.5v0.3c0.1-0.3,0.2-0.6,0.4-0.8L160.4,165.5z"/>
		<path class="st5" d="M179.2,178c4.1-4.6,4-11.6-0.2-16.1l0,0c-2.2-2.3-5.2-3.7-8.3-3.8h-0.8c-3.2,0.1-6.1,1.5-8.3,3.8l0,0
			c-4.3,4.5-4.4,11.5-0.2,16.1l0,0l0,0c2.2,2.4,5.3,3.9,8.5,4h0.8C173.9,181.9,177,180.4,179.2,178L179.2,178L179.2,178z
			 M159.1,170.4h5c0,1.7,0.4,3.4,1,5.1c-1.2,0.4-2.3,1-3.4,1.7C160.2,175.3,159.2,172.9,159.1,170.4L159.1,170.4z M162,162.6
			c1,0.7,2.1,1.2,3.3,1.6c-0.7,1.7-1.1,3.6-1.1,5.4h-5C159.2,167,160.2,164.5,162,162.6L162,162.6z M181.4,169.6h-5
			c0-1.9-0.4-3.7-1.1-5.4c1.1-0.4,2.2-0.9,3.3-1.6C180.3,164.5,181.3,167,181.4,169.6L181.4,169.6z M169.9,164.2
			c-1.2,0-2.4-0.2-3.5-0.5c0.9-1.7,2-3.3,3.5-4.6V164.2z M169.9,165v4.6h-4.9c0-1.8,0.4-3.5,1.1-5.2
			C167.3,164.8,168.6,165,169.9,165L169.9,165z M170.7,165c1.3,0,2.6-0.2,3.9-0.6c0.7,1.6,1.1,3.4,1.1,5.2h-4.9L170.7,165z
			 M170.7,164.2v-5.1c1.5,1.3,2.6,2.8,3.5,4.6C173,164,171.9,164.2,170.7,164.2L170.7,164.2z M175,163.4c-0.8-1.7-1.9-3.2-3.3-4.5
			c2.4,0.3,4.6,1.4,6.3,3C177.1,162.6,176.1,163.1,175,163.4L175,163.4z M165.6,163.4c-1.1-0.4-2.1-0.9-3-1.5c1.7-1.6,3.9-2.7,6.3-3
			C167.5,160.2,166.4,161.8,165.6,163.4L165.6,163.4z M164.9,170.4h4.9v4.2c-1.4,0-2.7,0.2-4,0.6C165.3,173.7,165,172.1,164.9,170.4
			L164.9,170.4z M169.9,175.4v5.5c-1.6-1.4-2.8-3-3.7-4.9C167.4,175.6,168.6,175.4,169.9,175.4L169.9,175.4z M170.7,180.9v-5.6
			c1.2,0,2.5,0.2,3.7,0.6C173.5,177.9,172.3,179.6,170.7,180.9L170.7,180.9z M170.7,174.6v-4.2h4.9c-0.1,1.6-0.4,3.3-1,4.8
			C173.4,174.8,172,174.6,170.7,174.6L170.7,174.6z M176.5,170.4h5c-0.1,2.5-1,4.9-2.6,6.8c-1-0.7-2.2-1.3-3.4-1.7
			C176.1,173.9,176.4,172.2,176.5,170.4L176.5,170.4z M162.3,177.8c1-0.6,2-1.2,3.1-1.6c0.8,1.8,2,3.5,3.4,4.8
			C166.3,180.8,164,179.6,162.3,177.8L162.3,177.8z M171.7,181.1c1.4-1.4,2.6-3,3.4-4.8c1.1,0.4,2.1,0.9,3.1,1.6
			C176.5,179.6,174.2,180.8,171.7,181.1L171.7,181.1z"/>
		<polygon class="st5" points="176,101 176,101.2 175.7,101.2 175.7,101.6 176,101.6 176.4,101.5 176.6,101.3 176.4,101.2 
			176.3,101 176.1,100.7 176,100.3 175.6,100.4 175.5,100.5 175.5,100.7 175.7,100.8 		"/>
		<polygon class="st5" points="175.7,101.1 175.7,100.9 175.5,100.8 175.2,100.9 174.9,101.2 174.9,101.4 175.2,101.4 		"/>
		<path class="st5" d="M169.6,102.1l-0.1,0.2h-0.3v0.2h0.1v0.1h0.2l0.1-0.1v-0.1h0.1l0.1-0.1L169.6,102.1L169.6,102.1z"/>
		<polygon class="st5" points="168.8,102.4 168.7,102.6 169,102.6 169,102.4 168.9,102.3 		"/>
		<path class="st5" d="M182.5,107.5c0-0.3,0-0.7-0.1-1c-0.1-1.1-0.4-2.2-0.8-3.3l-0.1-0.2c-0.5-1.3-1.3-2.5-2.2-3.5
			c-0.1-0.1-0.1-0.1-0.2-0.2s-0.4-0.4-0.5-0.5c-4.6-4.2-11.6-4.2-16.2,0.1c-0.5,0.5-1,1-1.4,1.5c-4.1,5.2-3.2,12.7,2,16.9
			c5.2,4.1,12.7,3.2,16.9-2c0.5-0.7,1-1.4,1.3-2.1c0.4-0.8,0.8-1.7,1-2.6c0.1-0.2,0.1-0.5,0.1-0.7c0.1-0.7,0.2-1.4,0.2-2.1
			L182.5,107.5z M180.2,102.7L180.2,102.7c0.2,0.1,0.2,0.3,0.3,0.5h-0.1h-0.2V102.7z M178.5,100.6v-0.5c0.2,0.2,0.4,0.4,0.5,0.6
			l-0.2,0.3h-0.8v-0.2L178.5,100.6z M164,99.3L164,99.3h0.2v-0.1h0.4v0.2l-0.1,0.1H164L164,99.3L164,99.3z M164.4,99.8h0.3v0.2h-0.5
			l-0.1-0.1L164.4,99.8z M181,104.6h-0.9l-0.5-0.4l-0.6,0.1v0.3h-0.2l-0.2-0.1l-1-0.2v-0.6l-1.2,0.1l-0.4,0.2h-0.5h-0.2l-0.6,0.3
			v0.6l-1.2,0.9l0.1,0.4h0.2l-0.1,0.4l-0.2,0.1v0.9l1,1.2h0.5v-0.1h0.8l0.2-0.2h0.5l0.3,0.2l0.7,0.1l-0.1,0.9l0.8,1.4l-0.4,0.8v0.4
			l0.3,0.3v0.9l0.4,0.6v0.7h0.4c-3.8,4.7-10.8,5.4-15.5,1.6c-2.6-2.1-4-5.2-4.1-8.5c0-1.5,0.3-2.9,0.9-4.3V103l0.4-0.5
			c0.1-0.3,0.3-0.5,0.4-0.8v0.2l-0.5,0.6c-0.1,0.3-0.3,0.5-0.4,0.8v0.6l0.4,0.2v0.9l0.4,0.8l0.4,0.1v-0.3l-0.4-0.6l-0.1-0.6h0.4
			l0.1,0.6l0.6,0.9l-0.2,0.3l0.4,0.6l1,0.2v-0.2l0.4,0.1v0.3l0.3,0.1l0.5,0.1l0.6,0.8l0.8,0.1l0.1,0.7l-0.6,0.4v0.6l-0.1,0.4l0.8,1
			l0.1,0.4l0.3,0.1l0.7,0.5v1.9l0.2,0.1l-0.1,0.9l0.4,0.5l-0.1,0.9l0.5,0.9l0.6,0.6h0.6l0.1-0.2l-0.5-0.4v-0.2l0.1-0.2v-0.3h-0.3
			l-0.2-0.2l0.3-0.3v-0.2l-0.3-0.1v-0.2l0.4-0.1l0.7-0.3l0.2-0.4l0.7-0.9l-0.1-0.7l0.2-0.4h0.6l0.4-0.3l0.1-1.3l0.5-0.6l0.1-0.4
			L172,110l-0.3-0.5h-1l-0.8-0.3v-0.6l-0.2-0.4H169l-0.4-0.6l-0.4-0.2v0.2h-0.6l-0.2-0.3l-0.7-0.1l-0.6,0.6l-0.9-0.1l-0.1-1
			l-0.6-0.1l0.3-0.5l-0.1-0.3l-0.9,0.6l-0.5-0.1l-0.2-0.4l0.1-0.4l0.3-0.5l0.7-0.3h1.3v0.4l0.5,0.2v-0.7l0.3-0.3l0.7-0.4v-0.3
			l0.7-0.7l0.7-0.4l-0.1,0l0.5-0.5l0.2,0.1l0.1,0.1l0.2-0.2l0,0h-0.2l-0.2-0.1v-0.2l0.1-0.1h0.2h0.1l0.1,0.2h0.1l0,0l0.3-0.1v-0.2
			h0.2v0.2l-0.2,0.1l0,0v0.2l0.6,0.2h0.1v-0.3l-0.5-0.2v-0.1l0.4-0.1V101l-0.4-0.3v-0.6l-0.6,0.3h-0.2l0.1-0.5l-0.8-0.2l-0.3,0.2
			v0.8l-0.6,0.2l-0.2,0.5h-0.2v-0.6l-0.6-0.1l-0.3-0.2l-0.1-0.4l1-0.6l0.5-0.1l0.1,0.3h0.3v-0.2h0.3v-0.1h-0.1v-0.2h0.3l0.2-0.2l0,0
			l0.1-0.1l0.7-0.1l0.3,0.3l-0.8,0.4l1.1,0.2l0.1-0.4h0.5l0.2-0.3l-0.3-0.1v-0.4l-1-0.5l-0.7,0.1l-0.4,0.2v0.5l-0.4-0.1l-0.1-0.3
			l0.4-0.4h-0.7l-0.2,0.1l-0.1,0.2h0.3V99h-0.5l-0.1,0.2h-0.7c0-0.1,0-0.3,0-0.4h0.5l0.4-0.4l-0.2-0.1l-0.3,0.3h-0.5l-0.3-0.4h-0.6
			l-0.6,0.5h0.6l0.1,0.2l-0.2,0.1h0.7l0.1,0.2h-0.7V99l-0.5-0.1l-0.2-0.1H164c4.2-3,9.9-2.8,13.7,0.6l-0.1,0.2l-0.5,0.2l-0.2,0.2
			l0.1,0.3h0.3l0.2,0.4l0.4-0.2l0.1,0.5h-0.1h-0.4l-0.4,0.1l-0.4,0.6l-0.6,0.1l-0.1,0.5h0.2l-0.1,0.3l-0.6-0.1l-0.5,0.1l-0.1,0.3
			l0.1,0.6l0.3,0.1h0.5h0.4l0.1-0.3l0.5-0.7l0.4,0.1l0.3-0.3l0.1,0.2l0.9,0.6l-0.1,0.1H178l0.1,0.2l0.2,0.1l0.3-0.1v-0.3l0.1-0.1
			l-0.1-0.1l-0.6-0.3l-0.1-0.4h0.4l0.2,0.1l0.4,0.4v0.4l0.4,0.4l0.2-0.6l0.3-0.2l0.1,0.5l0.3,0.3h0.6
			C180.8,104,180.9,104.3,181,104.6L181,104.6z M165,101.1l0.3-0.1l0.3,0.1l-0.1,0.4l-0.3,0.1L165,101.1z M166.5,101.9v0.2h-0.7
			l-0.2-0.1l0.1-0.2l0.3-0.1h0.4v0.1H166.5z M166.8,102.2v0.2l-0.2,0.1h-0.2v-0.4L166.8,102.2z M166.6,102.1v-0.3l0.2,0.2
			L166.6,102.1z M166.7,102.7v0.2l-0.2,0.2h-0.4l0.1-0.2h0.2v-0.1L166.7,102.7z M165.9,102.2h0.4l-0.5,0.6l-0.2-0.1l0.1-0.3
			L165.9,102.2z M167.4,102.6v0.2H167l-0.1-0.1v-0.2l0,0L167.4,102.6z M167,102.3l0.1-0.1l0.2,0.1l-0.1,0.1L167,102.3z M181.1,105.1
			L181.1,105.1c0,0.1,0,0.1,0,0.2V105.1z"/>
		<path class="st5" d="M160.4,103v0.3c0.1-0.3,0.2-0.6,0.4-0.8L160.4,103z"/>
		<path class="st5" d="M179.2,115.5c4.1-4.6,4-11.6-0.2-16.1l0,0c-2.2-2.3-5.2-3.7-8.3-3.8h-0.8c-3.2,0.1-6.1,1.5-8.3,3.8l0,0
			c-4.3,4.5-4.4,11.5-0.2,16.1l0,0l0,0c2.2,2.4,5.3,3.9,8.5,4h0.8C173.9,119.3,177,117.9,179.2,115.5L179.2,115.5L179.2,115.5z
			 M159.1,107.9h5c0.1,1.7,0.4,3.4,1,5c-1.2,0.4-2.3,1-3.4,1.7C160.2,112.8,159.2,110.4,159.1,107.9L159.1,107.9z M162,100.1
			c1,0.7,2.1,1.2,3.3,1.6c-0.7,1.7-1.1,3.6-1.1,5.4h-5C159.2,104.5,160.2,102,162,100.1L162,100.1z M181.4,107.1h-5
			c0-1.9-0.4-3.7-1.1-5.4c1.1-0.4,2.2-0.9,3.3-1.6C180.3,102,181.3,104.5,181.4,107.1L181.4,107.1z M169.9,101.7
			c-1.2,0-2.4-0.2-3.5-0.5c0.8-1.7,2-3.3,3.5-4.6V101.7z M169.9,102.5v4.6h-4.9c0-1.8,0.4-3.5,1.1-5.2
			C167.3,102.3,168.6,102.5,169.9,102.5L169.9,102.5z M170.7,102.5c1.3,0,2.6-0.2,3.9-0.6c0.7,1.6,1.1,3.4,1.1,5.2h-4.9L170.7,102.5
			z M170.7,101.7v-5.1c1.5,1.3,2.7,2.8,3.5,4.6C173.1,101.5,171.9,101.7,170.7,101.7L170.7,101.7z M175,100.9
			c-0.8-1.7-1.9-3.2-3.3-4.5c2.4,0.3,4.6,1.4,6.3,3C177.1,100,176.1,100.5,175,100.9L175,100.9z M165.6,100.9
			c-1.1-0.4-2.1-0.9-3-1.5c1.7-1.6,3.9-2.7,6.3-3C167.5,97.7,166.4,99.2,165.6,100.9L165.6,100.9z M164.9,107.9h4.9v4.1
			c-1.4,0-2.7,0.2-4,0.6C165.3,111.2,165,109.6,164.9,107.9L164.9,107.9z M169.9,112.9v5.5c-1.6-1.4-2.8-3-3.7-4.9
			C167.4,113.1,168.6,112.9,169.9,112.9L169.9,112.9z M170.7,118.4v-5.5c1.2,0,2.5,0.2,3.7,0.6C173.5,115.4,172.2,117,170.7,118.4
			L170.7,118.4z M170.7,112.1v-4.1h4.9c-0.1,1.6-0.4,3.3-1,4.8C173.4,112.3,172,112.1,170.7,112.1L170.7,112.1z M176.5,107.9h5
			c-0.1,2.5-1,4.9-2.6,6.8c-1-0.7-2.2-1.3-3.4-1.7C176.1,111.4,176.4,109.7,176.5,107.9L176.5,107.9z M162.3,115.3
			c1-0.6,2-1.2,3.1-1.6c0.8,1.8,2,3.5,3.4,4.8C166.3,118.3,164,117.1,162.3,115.3L162.3,115.3z M171.7,118.6c1.4-1.4,2.6-3,3.4-4.8
			c1.1,0.4,2.1,0.9,3.1,1.6C176.5,117.1,174.2,118.3,171.7,118.6L171.7,118.6z"/>
		<polygon class="st5" points="176,38.5 176,38.6 175.7,38.7 175.7,39.1 176,39.1 176.4,39 176.6,38.8 176.4,38.7 176.3,38.5 
			176.1,38.2 176,37.8 175.6,37.9 175.5,38 175.5,38.2 175.7,38.3 		"/>
		<polygon class="st5" points="175.7,38.6 175.7,38.4 175.5,38.3 175.2,38.4 174.9,38.7 174.9,38.9 175.2,38.9 		"/>
		<path class="st5" d="M169.6,39.6l-0.1,0.2h-0.3V40h0.1V40h0.2l0.1-0.1v-0.2h0.1l0.1-0.1L169.6,39.6L169.6,39.6z"/>
		<polygon class="st5" points="168.8,39.9 168.7,40.1 169,40.1 169,39.9 168.9,39.8 		"/>
		<path class="st5" d="M182.5,45c0-0.3,0-0.7-0.1-1c-0.1-1.1-0.4-2.2-0.8-3.3l-0.1-0.2c-0.5-1.3-1.3-2.5-2.2-3.5
			c-0.1-0.1-0.1-0.1-0.2-0.2s-0.4-0.4-0.5-0.5c-4.6-4.2-11.6-4.2-16.2,0c-0.5,0.5-1,1-1.4,1.5c-4.1,5.2-3.2,12.8,2,16.9
			s12.8,3.2,16.9-2c0.5-0.6,1-1.3,1.3-2.1c0.4-0.8,0.8-1.7,1-2.7c0.1-0.2,0.1-0.5,0.1-0.7c0.1-0.7,0.2-1.4,0.2-2.1L182.5,45z
			 M180.2,40.2L180.2,40.2c0.2,0.1,0.2,0.3,0.3,0.5h-0.1h-0.2V40.2z M178.5,38.1v-0.5c0.2,0.2,0.4,0.4,0.5,0.6l-0.2,0.3h-0.8v-0.2
			L178.5,38.1z M164,36.8L164,36.8h0.2v-0.1h0.4v0.2l-0.1,0.2H164L164,36.8L164,36.8z M164.4,37.3h0.3v0.2h-0.5l-0.1-0.1L164.4,37.3
			z M181,42.1h-0.9l-0.5-0.4H179V42h-0.2l-0.2-0.1l-1-0.2V41l-1.2,0.1l-0.4,0.2h-0.5h-0.2l-0.6,0.3v0.6l-1.2,0.9l0.1,0.4h0.2
			l-0.1,0.4l-0.2,0.1v0.9l1,1.2h0.5V46h0.8l0.2-0.2h0.5l0.3,0.3l0.7,0.1l-0.1,0.9l0.8,1.4l-0.4,0.8v0.4l0.3,0.3v0.9l0.4,0.6V52h0.4
			c-3.8,4.7-10.8,5.4-15.5,1.6c-2.6-2.1-4-5.2-4.1-8.5c0-1.5,0.3-2.9,0.9-4.3v-0.3l0.4-0.5c0.1-0.3,0.3-0.5,0.4-0.8v0.2l-0.5,0.6
			c-0.1,0.3-0.3,0.5-0.4,0.8v0.6l0.4,0.2v0.9l0.4,0.8h0.4V43l-0.4-0.6l-0.1-0.6h0.4l0.1,0.6l0.6,0.9l-0.2,0.3l0.4,0.6l1,0.2v-0.2
			l0.4,0.1v0.3l0.3,0.1l0.5,0.1l0.6,0.8l0.8,0.1l0.1,0.7l-0.6,0.4v0.6l-0.1,0.4l0.8,1l0.1,0.4l0.3,0.1l0.7,0.5v1.9l0.2,0.1l-0.1,0.9
			l0.4,0.5l-0.1,0.9l0.5,0.9l0.6,0.6h0.6l0.1-0.2l-0.5-0.4v-0.2l0.1-0.2v-0.2h-0.3l-0.2-0.2l0.3-0.3v-0.2l-0.3-0.1V53l0.4-0.1
			l0.7-0.3l0.2-0.4l0.7-0.9l-0.1-0.7l0.2-0.4h0.6l0.4-0.3l0.1-1.3l0.5-0.6l0.1-0.4l-0.4-0.1l-0.3-0.5h-1l-0.8-0.3v-0.5l-0.2-0.4H169
			l-0.4-0.6l-0.4-0.2v0.2h-0.6l-0.2-0.3l-0.7-0.1l-0.6,0.6l-0.9-0.2l-0.1-1l-0.6-0.1l0.3-0.5l-0.1-0.3l-0.9,0.6l-0.5-0.1l-0.2-0.4
			l0.1-0.4l0.3-0.5l0.7-0.3h1.3v0.4l0.5,0.2V42l0.3-0.3l0.7-0.4v-0.3l0.7-0.7l0.7-0.4l-0.1-0.1l0.5-0.5h0.2l0.1,0.1l0.2-0.2l0,0
			h-0.2l-0.2-0.1v-0.2l0.1-0.1h0.2l0.1,0.1l0.1,0.2h0.1l0,0l0,0l0.3-0.1v-0.2l0.2,0.1V39l-0.2,0.1l0,0v0.2l0.6,0.2l0,0h0.1v-0.2
			l-0.5-0.2V39l0.4-0.1v-0.4l-0.4-0.3v-0.7l-0.6,0.3h-0.2l0.1-0.5l-0.8-0.2l-0.3,0.2v0.8l-0.6,0.2l-0.2,0.5h-0.2v-0.5l-0.6-0.1
			l-0.3-0.2l-0.1-0.4l1-0.6l0.5-0.2l0.1,0.3h0.3v-0.2h0.3v-0.1l-0.1-0.1v-0.2h0.3l0.2-0.2l0,0l0,0l0.1-0.1l0.7-0.1l0.3,0.3l-0.8,0.4
			l1.1,0.2l0.1-0.3h0.5l0.2-0.3l-0.3-0.1v-0.4l-1-0.5l-0.7,0.1l-0.4,0.2v0.5l-0.4-0.1l-0.1-0.3l0.4-0.4h-0.7l-0.2,0.1l-0.1,0.2h0.3
			v0.3h-0.5l-0.1,0.2h-0.7c0-0.1,0-0.3,0-0.4h0.5l0.4-0.4l-0.2-0.1l-0.3,0.3h-0.5l-0.3-0.4h-0.6l-0.6,0.5h0.6l0.1,0.2l-0.2,0.1h0.7
			l0.1,0.2h-0.7v-0.2l-0.5-0.1l-0.2-0.1H164c4.2-3,9.9-2.8,13.7,0.6l-0.1,0.2l-0.5,0.2l-0.2,0.2l0.1,0.3h0.3l0.2,0.4l0.4-0.2
			l0.1,0.5h-0.1l-0.4-0.1l-0.4,0.1l-0.4,0.6l-0.6,0.1l-0.1,0.5l0.2,0.1l-0.1,0.3l-0.6-0.1l-0.5,0.1l-0.1,0.3l0.1,0.6l0.3,0.2h0.5
			h0.4l0.1-0.3l0.5-0.7l0.4,0.1l0.3-0.3l0.1,0.2l0.9,0.6l-0.1,0.1h-0.4l0.1,0.2h0.2l0.3-0.1v-0.3l0.1-0.1l-0.1-0.1l-0.6-0.3
			l-0.1-0.4h0.5l0.2,0.2l0.4,0.3v0.4l0.4,0.4l0.2-0.6l0.3-0.2l0.1,0.5l0.3,0.3h0.6C180.8,41.6,180.9,41.8,181,42.1L181,42.1z
			 M165,38.6l0.3-0.1l0.3,0.1l-0.1,0.3l-0.3,0.1L165,38.6z M166.5,39.4v0.2h-0.7l-0.2-0.1l0.1-0.2l0.3-0.1h0.4v0.1L166.5,39.4z
			 M166.8,39.7v0.2l-0.2,0.1h-0.2v-0.4L166.8,39.7z M166.6,39.6v-0.2l0.2,0.2L166.6,39.6z M166.7,40.2v0.2l-0.2,0.2h-0.4l0.1-0.2
			h0.2v-0.1L166.7,40.2z M165.9,39.7h0.4l-0.5,0.7l-0.2-0.1l0.1-0.3L165.9,39.7z M167.4,40.1v0.2H167l-0.1-0.1V40l0,0L167.4,40.1z
			 M167,39.8l0.1-0.1l0.2,0.1l-0.1,0.1L167,39.8z M181.1,42.6L181.1,42.6c0,0.1,0,0.1,0,0.2V42.6z"/>
		<path class="st5" d="M160.4,40.5v0.3c0.1-0.3,0.2-0.6,0.4-0.8L160.4,40.5z"/>
		<path class="st5" d="M179.2,53c4.1-4.6,4-11.6-0.2-16.2l0,0c-2.2-2.3-5.2-3.7-8.3-3.8h-0.8c-3.2,0.1-6.1,1.5-8.3,3.8l0,0
			c-4.3,4.5-4.4,11.5-0.2,16.2l0,0l0,0c2.2,2.4,5.3,3.9,8.5,4h0.8C173.9,56.8,177,55.4,179.2,53L179.2,53L179.2,53z M159.1,45.4h5
			c0.1,1.7,0.4,3.4,1,5c-1.2,0.4-2.3,1-3.4,1.7C160.2,50.2,159.2,47.8,159.1,45.4z M161.9,37.5c1,0.7,2.1,1.2,3.3,1.6
			c-0.7,1.7-1.1,3.6-1.1,5.4h-5C159.2,42,160.2,39.5,161.9,37.5L161.9,37.5z M181.4,44.5h-5c0-1.8-0.4-3.6-1.1-5.3
			c1.1-0.4,2.2-0.9,3.3-1.6C180.4,39.5,181.3,42,181.4,44.5L181.4,44.5z M169.9,39.1c-1.2,0-2.4-0.2-3.5-0.5c0.8-1.7,2-3.3,3.5-4.6
			V39.1z M169.9,40v4.6h-4.9c0-1.8,0.4-3.5,1.1-5.2C167.3,39.8,168.6,40,169.9,40L169.9,40z M170.7,40c1.3,0,2.6-0.2,3.9-0.6
			c0.7,1.6,1.1,3.4,1.1,5.2h-4.9L170.7,40z M170.7,39.1v-5.1c1.5,1.3,2.7,2.8,3.5,4.6C173.1,39,171.9,39.2,170.7,39.1L170.7,39.1z
			 M175,38.4c-0.8-1.7-1.9-3.2-3.3-4.5c2.4,0.3,4.6,1.4,6.3,3C177.1,37.5,176.1,38,175,38.4L175,38.4z M165.6,38.4
			c-1.1-0.4-2.1-0.9-3-1.5c1.7-1.6,3.9-2.7,6.3-3C167.5,35.2,166.4,36.7,165.6,38.4L165.6,38.4z M164.9,45.4h4.9v4.2
			c-1.4,0-2.7,0.2-4,0.6C165.3,48.6,165,47,164.9,45.4L164.9,45.4z M169.9,50.4v5.5c-1.6-1.4-2.8-3-3.7-4.9
			C167.4,50.6,168.6,50.4,169.9,50.4L169.9,50.4z M170.7,55.9v-5.5c1.2,0,2.5,0.2,3.7,0.6C173.5,52.8,172.3,54.5,170.7,55.9
			L170.7,55.9z M170.7,49.5v-4.2h4.9c-0.1,1.6-0.4,3.3-1,4.8C173.4,49.8,172,49.6,170.7,49.5L170.7,49.5z M176.5,45.4h5
			c-0.1,2.5-1,4.9-2.6,6.8c-1-0.7-2.2-1.3-3.4-1.7C176.1,48.8,176.4,47.1,176.5,45.4z M162.3,52.8c1-0.6,2-1.2,3.1-1.6
			c0.8,1.8,2,3.5,3.4,4.8C166.3,55.7,164,54.6,162.3,52.8L162.3,52.8z M171.7,56c1.4-1.4,2.6-3,3.4-4.8c1.1,0.4,2.1,0.9,3.1,1.6
			C176.5,54.6,174.2,55.7,171.7,56L171.7,56z"/>
		<path class="st5" d="M157.2,76.3c0-6,3-8.6,6.4-8.6s6.4,2.6,6.4,8.6s-3,8.7-6.4,8.7S157.2,82.4,157.2,76.3z M167,76.3
			c0-3.4-1.4-5.4-3.4-5.4s-3.5,2-3.5,5.4s1.3,5.4,3.5,5.4S167,79.8,167,76.3z"/>
		<path class="st5" d="M172.2,67.8h2.9V75l4.6-7.1h3.7l-5.5,8l5.7,8.9H180l-4.9-8v8h-2.9V67.8z"/>
		<path class="st5" d="M157.2,263.8c0-6,3-8.6,6.4-8.6s6.4,2.6,6.4,8.6s-3,8.7-6.4,8.7S157.2,269.9,157.2,263.8z M167,263.8
			c0-3.4-1.4-5.4-3.4-5.4s-3.5,2-3.5,5.4s1.3,5.4,3.5,5.4S167,267.3,167,263.8z"/>
		<path class="st5" d="M172.2,255.4h2.9v7.1l4.6-7.1h3.7l-5.5,8l5.7,8.9H180l-4.9-8v8h-2.9V255.4z"/>
	</g>
	<g class="st6">
		<path d="M243.3,171.2c0,7.3,1.1,44.7,20.1,60.7c8.1,6.8,20.7,10.3,37.6,10.3c9,0,18.4-1.3,24.7-2.4c0.5-0.1,1-0.1,1.6-0.1
			c4.8,0,8.6,3.6,8.6,8.1v16c0,5.4-4.4,10-10.1,10.5c-8.2,0.8-21.3,1.5-35.8,1.8c-0.6,0-1.1,0-1.7,0c-50.5,0-88.6-45.1-88.6-105
			c0-59.9,38.1-105,88.6-105c0.5,0,1.1,0,1.6,0c14.6,0.4,27.6,1.1,35.8,1.9c5.8,0.5,10.1,5.1,10.1,10.5v16c0,4.5-3.9,8.1-8.6,8.1
			c-0.5,0-1,0-1.6-0.1c-6.3-1.1-15.7-2.4-24.7-2.4c-16.9,0-29.5,3.5-37.6,10.3C244.4,126.5,243.3,163.8,243.3,171.2z"/>
	</g>
	<g class="st6">
		<path d="M513.3,252.2v20.9c0,3.5-3,6.3-6.7,6.3H383.8c-3.7,0-6.7-2.8-6.7-6.3V75.8c0-3.5,3-6.3,6.7-6.3h24c3.7,0,6.7,2.8,6.7,6.3
			v163.8c0,3.5,3,6.3,6.7,6.3h85.4C510.3,245.9,513.3,248.8,513.3,252.2z"/>
	</g>
	<g class="st6">
		<path d="M707.6,275.6c-6.7,0-10.1,0-13.1,0c-7.6,0-10.4-1.7-10.4-10.1c0-6.4,0-16,0-19.4c0-8.6-1.4-10.1-10.4-10.1
			c-5.7,0-61.2,0-65.5,0c-8.4,0-10.4-1.7-10.4-10.1c0-3.8,0-26.1,0-32.2c0-6.2,1.7-8.3,4.4-11.8c3.1-4,54.6-81.3,74.1-110.3
			c2-2.9,4-5.9,11.8-5.9c3.3,0,11.2,0,17.7,0c10.4,0,16.7,0,8.1,12.5c-20,29-72,104.3-75.2,109c-4,5.8-9.1,11.8-6.6,15.8
			c1.7,2.8,4,4.2,7.3,4.1c6.2,0,24.5,0,34.2,0c9.5,0,10.4-1.7,10.4-11.6c0-12,0-29.4,0-33.1c0-9.2,1.8-10.1,10.4-10.1
			c5.9,0,10.1,0,13.1,0c9.4,0,10.4,1.7,10.4,10.1c0,5.9,0,98.1,0,103.1C718,273.4,714.7,275.6,707.6,275.6z"/>
	</g>
	<g class="st6">
		<path d="M745.3,132.5c0-40.1,28.1-72,65-72c50.8,0,63.7,50.7,63.7,84c0,22.8-2,55.8-28.2,89.1c-25.2,32-43.1,40.3-46.4,42.1
			c-2.3,1.3-8.6,6.2-12,0.7c-3.4-5.4-7.5-14-8.7-16.5c-2.1-4.4-0.6-7.2,3.9-9.7c6.8-3.9,18.1-14,25.9-21.1
			c7.7-7,13.1-14.3,15.3-17.6c4.6-6.9-0.1-12.2-3.6-11.5c-3.9,0.7-7.3,1.5-10,1.8C781.3,204.8,745.3,186.1,745.3,132.5z M782.6,131
			c0,11.9-0.1,16.4,3.2,25.4c5.2,10.6,15.4,17.2,24.6,17.2s17.9-6.5,23.2-17.2c3.2-9.1,3.2-13.5,3.2-25.3c0-11.8,0-16.4-3.2-25.3
			c-5.2-9.9-14.1-16.5-23.3-16.5s-19.4,6.5-24.6,16.5C782.6,114.7,782.6,119,782.6,131z"/>
	</g>
	<g class="st6">
		<path d="M1067.3,207.1c0,40.1-28.1,72-65,72c-50.8,0-63.7-50.7-63.7-84c0-22.8,2-55.8,28.2-89.1c25.2-32,43.1-40.3,46.4-42.1
			c2.3-1.3,8.6-6.2,12-0.7c3.4,5.4,7.5,14,8.7,16.5c2.1,4.4,0.6,7.2-3.9,9.7c-6.8,3.9-18.1,14-25.9,21.1c-7.7,7-13.1,14.3-15.3,17.6
			c-4.6,6.9,0.1,12.2,3.6,11.5c3.9-0.7,7.3-1.5,10-1.8C1031.4,134.7,1067.3,153.4,1067.3,207.1z M1030.1,208.6
			c0-11.9,0.1-16.4-3.2-25.4c-5.2-10.6-15.4-17.2-24.6-17.2s-17.9,6.5-23.2,17.2c-3.2,9.1-3.2,13.5-3.2,25.3s0,16.4,3.2,25.3
			c5.2,9.9,14.1,16.5,23.3,16.5s19.4-6.5,24.6-16.5C1030.1,224.8,1030.1,220.5,1030.1,208.6z"/>
	</g>
	<g class="st6">
		<path d="M1207.9,75.8c0,3.2,0,7.2,0,13.5c0,6.3-3.8,10.1-10.1,10.1c-4.6,0-38.9,0-55.4,0c-6,0-10.1,4.5-10.1,10.1
			c0,3.3,0,11.6,0,20.3c0,7.1,1.9,11.2,9.4,10.4c2.8-0.3,7-0.3,11-0.3c43.9,0,66.1,34.1,66.1,67.5c0,26.9-24.5,68.4-83.7,68.4
			c-12.9,0-25.5-3.4-33.1-7.1c-3.8-1.9-3.2-5.3-3.2-9.9c0-11.2,0-12.4,0-15.7c0-3.3,1.9-5,5-5c3.1,0,19.9,5,31.3,5
			c27,0,44.7-16.9,44.7-35.8c0-20.1-12.2-35.8-44.7-35.8c-11.6,0-25.5,5-31.3,5c-2.8,0-5-1.9-5-5c0-3.1,0-90.2,0-95.7
			c0-5.5,3.5-10.1,10.1-10.1c5.2,0,83.1,0,89,0S1207.9,70,1207.9,75.8z"/>
	</g>
	<g class="st6">
		<path d="M1380.4,212.7c0.6,36.8-23.7,66.3-65,66.3c-41.3,0-62.9-23.2-63.5-57c-0.4-28.3,20.5-39.1,30.5-47c4.9-3.8,0.4-9-1.1-10.1
			c-18.4-14.5-23.7-27.4-24-47.2c-0.5-34.2,29.7-57.2,58.1-57.2c28.4,0,57.3,13.6,57.9,51.1c0.4,24.3-14.7,35.5-23.1,42.3
			c-4.6,3.7-5.4,7,1.6,11.3C1368.9,175.9,1380.1,190.6,1380.4,212.7z M1315.3,250.8c18.9,0,28.2-13.9,28.2-30.8
			c0-16.9-19.5-35.7-28.2-35.7c-8.8,0-28.2,18.8-28.2,35.7C1287.1,236.4,1296.4,250.8,1315.3,250.8L1315.3,250.8z M1290.6,114.4
			c0,23.2,19.8,34.5,24.8,34.5c5,0,24.5-11.3,24.5-34.5c0-16.6-12.8-27-24.5-27C1303.7,87.4,1290.6,97.9,1290.6,114.4z"/>
	</g>
</g>
</svg>
