<?xml version="1.0" encoding="utf-8"?>
<!-- Generator: Adobe Illustrator 24.1.0, SVG Export Plug-In . SVG Version: 6.00 Build 0)  -->
<svg version="1.1" id="Réteg_1" xmlns="http://www.w3.org/2000/svg" xmlns:xlink="http://www.w3.org/1999/xlink" x="0px" y="0px"
	 viewBox="0 0 680.3 467.7" style="enable-background:new 0 0 680.3 467.7;" xml:space="preserve">
<style type="text/css">
	.st0{fill:#1D1D1B;}
	.st1{font-family:'MyriadPro-Regular';}
	.st2{font-size:12px;}
	.st3{fill:#FFFFFF;}
	.st4{fill:#E01E14;}
	.st5{enable-background:new    ;}
	.st6{fill:#0183FD;}
	.st7{fill:#EFC902;}
	.st8{fill:#010101;}
	.st9{fill:#BFBDBB;}
	.st10{fill:#999898;}
	.st11{fill:#A6A3A2;}
</style>
<text transform="matrix(1 0 0 1 272.39 154.43)" class="st0 st1 st2">C</text>
<g id="fehér_alap">
	<path class="st3" d="M33.4,0h613.4c18.5,0,33.4,15,33.4,33.4v400.8c0,18.5-15,33.4-33.4,33.4H33.4C15,467.7,0,452.7,0,434.3V33.4
		C0,15,15,0,33.4,0z"/>
</g>
<g id="vörös_keret">
	<path class="st4" d="M662.6,17.7c-5.9-5.9-13.9-9.2-22.2-9.2H39.9c-17.3,0-31.3,14-31.4,31.3c0,0,0,0,0,0.1v388
		c0,17.3,14,31.4,31.4,31.4h600.6c17.3,0,31.4-14,31.4-31.4v-388C671.8,31.5,668.5,23.6,662.6,17.7z M657.6,427.9
		c0,9.5-7.7,17.2-17.2,17.2c0,0,0,0,0,0H39.9c-9.5,0-17.2-7.7-17.2-17.2v-388c0-9.5,7.7-17.2,17.2-17.2h600.6
		c9.5,0,17.2,7.7,17.2,17.2l0,0L657.6,427.9z"/>
</g>
<g class="st5">
	<path class="st0" d="M112.6,132.5c0,5.8,0.9,35.2,15.8,47.8c6.3,5.4,16.3,8.1,29.6,8.1c7.1,0,14.5-1,19.4-1.9
		c0.4-0.1,0.8-0.1,1.2-0.1c3.7,0,6.8,2.9,6.8,6.4v12.6c0,4.3-3.4,7.8-8,8.3c-6.5,0.6-16.7,1.1-28.1,1.5c-0.5,0-0.9,0-1.3,0
		c-39.7,0-69.7-35.5-69.7-82.6c0-47.1,30-82.6,69.7-82.6c0.4,0,0.9,0,1.3,0c11.5,0.3,21.7,0.8,28.2,1.5c4.5,0.4,8,4,8,8.3v12.6
		c0,3.5-3,6.4-6.8,6.4c-0.4,0-0.8,0-1.2-0.1c-5-0.8-12.4-1.9-19.4-1.9c-13.3,0-23.2,2.7-29.6,8.1
		C113.5,97.4,112.6,126.8,112.6,132.5z"/>
</g>
<g class="st5">
	<path class="st0" d="M514.8,417.4c-5.9,0-75.1,0-81,0c-5.9,0-7.9-3.4-7.9-7.7c0-5.3,0-10.1,0-13.4c0-6-0.1-8.4,4-12.8
		c7.4-8,22.3-21.5,36.8-37.5c14.5-16,24.1-29.2,24.1-44.6c0-17.7-11.7-25-25.7-25c-12.4,0-25.5,3.8-32.7,6.3
		c-5.4,1.8-6.6-2.7-6.6-5.6c0-2.3,0-8.7,0-13.1c0-2.5,0.8-4.8,3.8-5.6c8.4-2.2,27.4-6.2,42.7-6.2c20.8,0,33.6,9.4,38.5,14.1
		c4.2,4,12,13.8,12,35.1s-17.4,38.4-17.4,38.4s-8,9.3-18.2,19.4c-5.6,5.4-15.7,15.1-22.1,21.8c-2.7,2.9-3,10.1,3.5,10.1
		c4.9,0,31.6,0,46.1,0c4.8,0,8.1,1.6,8.1,6.4c0,4.8,0,7.2,0,12.1C522.8,414.6,520.8,417.4,514.8,417.4z"/>
</g>
<g class="st5">
	<path class="st0" d="M161,334.9c0,0,0-27.2,7.4-51.2c7.4-24,27.1-31.4,43.2-31.4c16.1,0,35.8,7.4,43.2,31.4
		c7.4,24,7.4,51.2,7.4,51.2v0c0,0,0,27.2-7.4,51.2c-7.4,24-27.1,31.4-43.2,31.4c-16.1,0-35.8-7.4-43.2-31.4
		C161,362.1,161,334.9,161,334.9L161,334.9z M189.6,334.9c0,0.9-0.2,23.9,5.5,43.4c4.4,15.1,14.3,15.1,16.5,15.1
		c2.2,0,11.5,0.1,16.5-15.1c5.8-17.5,5.7-42.3,5.7-43.4c0-1.1,0-25.9-5.7-43.4c-5-15.1-14.3-15.1-16.5-15.1c-2.2,0-12.1,0-16.5,15.1
		C189.4,311.1,189.6,334.1,189.6,334.9L189.6,334.9z"/>
</g>
<g class="st5">
	<path class="st0" d="M405.8,259.9c0,2.5,0,8,0,12.7c0,6.7-0.4,8.6-3.2,15.4c-11,27.2-48,116.8-50,121.5c-3.3,7.7-3.3,7.7-11.1,7.7
		c-6.3,0-10.4,0.2-12.8,0.2c-4.2,0-6.8-2.9-4.7-7.7c11.3-27.4,48.4-117.1,49.8-120.4c2.2-5.3-1.3-10.6-8.5-10.6
		c-15.6,0-48.9,0-52.6,0c-4.9,0-8-3.5-8-7.7c0-4.7,0-8.6,0-11c0-4.6,3-7.7,8-7.7c21.9,0,81.7,0,85.3,0
		C402.2,252.2,405.8,255.2,405.8,259.9z"/>
</g>
<g class="st5">
	<path class="st0" d="M331,175.2c0,11.2-6.4,22.1-16.1,30.9c-9.7,8.8-29.3,9-35.5,9c-6.2,0-40.9,0-47.4,0c-6.5,0-8.2-4.1-8.2-10.5
		c0-4.8,0-140.5,0-147.3c0-6.8,3.9-7.4,9.1-7.4c5.2,0,39.7,0,52.3,0c12.6,0,23.8,5.2,32,13.6c8.1,8.4,9.3,17.6,9.3,26.7
		s-1.3,15.4-5.6,22.3c-3.6,5.9-11.4,10.2-13.6,12c-2.3,1.9-2.9,3.4-2.9,5c0,1.6,0.1,3.5,3.7,5.4c3.9,2,9.2,5.1,10.5,6.2
		C332,153.2,331,164,331,175.2z M252.9,114c0,3.9,1.8,7.1,6.3,7.1s15,0,20,0c4.9,0,9.2-1,14.4-6.3c5.1-5.3,6.1-16.4,6.1-16.4v-5.1
		c0,0-1-11.1-6.1-16.4c-5.1-5.3-9.4-6.3-14.4-6.3c-4.9,0-15.5,0-20,0s-6.3,3.2-6.3,7.1C252.9,78.9,252.9,112.7,252.9,114z
		 M301.9,163.4c0,0-1-11.1-6.4-16.4c-5.4-5.3-9.9-6.3-15.1-6.3c-5.2,0-16.2,0-20.9,0c-4.7,0-6.6,3.2-6.6,7.1c0,1.3,0,35.1,0,36.5
		c0,3.9,1.9,7.1,6.6,7.1c4.7,0,15.8,0,20.9,0c5.2,0,9.7-1,15.1-6.3c5.4-5.3,6.4-16.4,6.4-16.4V163.4z"/>
</g>
<g class="st5">
	<path class="st0" d="M470.7,57.6c0,2.5,0,8,0,12.7c0,6.7-0.4,8.6-3.2,15.4c-11,27.2-48,116.8-50,121.5c-3.3,7.7-3.3,7.7-11.1,7.7
		c-6.3,0-10.4,0.2-12.8,0.2c-4.2,0-6.8-2.9-4.7-7.7C400.1,180,437.2,90.3,438.6,87c2.2-5.3-1.3-10.6-8.5-10.6c-15.6,0-48.9,0-52.6,0
		c-4.9,0-8-3.5-8-7.7c0-4.7,0-8.6,0-11c0-4.6,3-7.7,8-7.7c21.9,0,81.7,0,85.3,0C467.1,49.9,470.7,52.9,470.7,57.6z"/>
</g>
<g class="st5">
	<path class="st0" d="M588.7,215.1c-5.3,0-7.9,0-10.3,0c-6,0-8.2-1.4-8.2-8c0-5,0-12.6,0-15.2c0-6.7-1.1-8-8.2-8
		c-4.5,0-48.2,0-51.5,0c-6.6,0-8.2-1.4-8.2-8c0-3,0-20.5,0-25.4c0-4.8,1.3-6.5,3.5-9.3c2.5-3.1,43-64,58.3-86.8
		c1.6-2.3,3.1-4.6,9.3-4.6c2.6,0,8.8,0,14,0c8.2,0,13.1,0,6.4,9.8c-15.7,22.8-56.6,82.1-59.2,85.8c-3.1,4.5-7.1,9.3-5.2,12.5
		c1.4,2.2,3.1,3.3,5.8,3.2c4.9,0,19.3,0,26.9,0c7.4,0,8.2-1.3,8.2-9.1c0-9.4,0-23.1,0-26c0-7.3,1.4-8,8.2-8c4.6,0,8,0,10.3,0
		c7.4,0,8.2,1.3,8.2,8c0,4.6,0,77.1,0,81.1C596.9,213.4,594.3,215.1,588.7,215.1z"/>
</g>
<path class="st6" d="M120.2,240.9H31.2v189.4c0,3.4,2.7,6.1,6.1,6.1c0,0,0,0,0,0h82.9V240.9z"/>
<path id="path3775" class="st7" d="M48.7,277.8l1.5,3.8l4,0.1l-3.1,2.6l1.1,3.9l-3.4-2.2l-3.3,2.3l1-4l-3.2-2.5l4-0.3L48.7,277.8z"
	/>
<path class="st8" d="M45.2,288.8l1.1-4.4l-3.5-2.7l4.5-0.3l1.5-4.2l1.7,4.2l4.5,0.1l-3.4,2.9l1.3,4.3l-3.8-2.4L45.2,288.8z
	 M43.8,282.1l2.9,2.2l-0.9,3.5l3-2.1l3.1,1.9l-1-3.5l2.8-2.4l-3.6-0.1l-1.4-3.4l-1.2,3.5L43.8,282.1z"/>
<path id="path3775-2" class="st7" d="M91.2,320.5l1.5,3.8l4,0.1l-3.1,2.6l1.1,3.9l-3.4-2.1l-3.3,2.3l1-4l-3.2-2.5l4-0.3L91.2,320.5z
	"/>
<path class="st8" d="M87.7,331.6l1.1-4.4l-3.5-2.7l4.5-0.3l1.5-4.2l1.7,4.2l4.5,0.1l-3.4,2.9l1.3,4.3l-3.8-2.4L87.7,331.6z
	 M86.3,324.8l2.9,2.2l-0.9,3.5l3-2.1l3.1,1.9l-1-3.5l2.8-2.4l-3.6-0.1l-1.4-3.4l-1.2,3.5L86.3,324.8z"/>
<path id="path3775-3" class="st7" d="M60.1,266.3l1.5,3.8l4,0.1l-3.1,2.6l1.2,3.9l-3.4-2.2l-3.3,2.3l1-4l-3.2-2.5l4-0.3L60.1,266.3z
	"/>
<path class="st8" d="M56.6,277.4l1.1-4.4l-3.6-2.7l4.4-0.3l1.5-4.2l1.7,4.2l4.5,0.1l-3.4,2.9l1.2,4.3l-3.8-2.4L56.6,277.4z
	 M55.2,270.6l2.9,2.2l-0.9,3.5l3-2.1l3.1,1.9l-1-3.5l2.8-2.4l-3.6-0.1l-1.4-3.4l-1.2,3.4L55.2,270.6z"/>
<path id="path3775-4" class="st7" d="M60.1,320.5l1.5,3.8l4,0.1l-3.1,2.6l1.2,3.9l-3.4-2.1l-3.3,2.3l1-4l-3.2-2.5l4-0.3L60.1,320.5z
	"/>
<path class="st8" d="M56.6,331.6l1.1-4.4l-3.6-2.7l4.4-0.3l1.5-4.2l1.7,4.2l4.5,0.1l-3.4,2.9l1.2,4.3l-3.8-2.4L56.6,331.6z
	 M55.2,324.8l2.9,2.2l-0.9,3.5l3-2.1l3.1,1.9l-1-3.5l2.8-2.4l-3.6-0.1l-1.4-3.4l-1.2,3.5L55.2,324.8z"/>
<path id="path3775-5" class="st7" d="M91.2,266.3l1.5,3.8l4,0.1l-3.1,2.6l1.1,3.9l-3.4-2.2l-3.3,2.3l1-4l-3.2-2.5l4-0.3L91.2,266.3z
	"/>
<path class="st8" d="M87.7,277.4l1.1-4.4l-3.5-2.7l4.5-0.3l1.5-4.2l1.7,4.2l4.5,0.1l-3.4,2.9l1.3,4.3l-3.8-2.4L87.7,277.4z
	 M86.3,270.6l2.9,2.2l-0.9,3.5l3-2.1l3.1,1.9l-1-3.5l2.8-2.4l-3.6-0.1l-1.4-3.4l-1.2,3.4L86.3,270.6z"/>
<path id="path3775-6" class="st7" d="M48.7,309.1l1.5,3.8l4,0.1l-3.1,2.6l1.2,3.9l-3.4-2.2l-3.3,2.3l1-4l-3.2-2.5l4-0.3L48.7,309.1z
	"/>
<path class="st8" d="M45.2,320.1l1.1-4.4l-3.5-2.8l4.5-0.3l1.5-4.2l1.7,4.2l4.5,0.1l-3.4,2.9l1.3,4.3l-3.8-2.4L45.2,320.1z
	 M43.8,313.4l2.9,2.2l-0.9,3.5l3-2.1l3.1,1.9l-1-3.5l2.8-2.4l-3.6-0.1l-1.4-3.4l-1.2,3.4L43.8,313.4z"/>
<path id="path3775-7" class="st7" d="M102.6,277.8l1.5,3.7l4.1,0.1l-3.1,2.6l1.1,3.9l-3.4-2.2l-3.4,2.3l1-4l-3.2-2.5l4.1-0.3
	L102.6,277.8z"/>
<path class="st8" d="M99.1,288.8l1.1-4.4l-3.5-2.7l4.4-0.3l1.5-4.2l1.7,4.2l4.5,0.1l-3.4,2.9l1.3,4.3l-3.8-2.4L99.1,288.8z
	 M97.8,282.1l2.9,2.2l-0.9,3.5l3-2.1l3.1,1.9l-1-3.5l2.8-2.4l-3.6-0.1l-1.4-3.4l-1.2,3.5L97.8,282.1z"/>
<path id="path3775-8" class="st7" d="M106.7,293.4l1.5,3.8l4,0.1l-3.1,2.6l1.1,3.9l-3.4-2.2l-3.4,2.3l1-4l-3.2-2.5l4-0.3
	L106.7,293.4z"/>
<path class="st8" d="M103.2,304.5l1.1-4.4l-3.5-2.7l4.4-0.3l1.5-4.2l1.7,4.2l4.5,0.1l-3.4,2.9l1.3,4.3l-3.8-2.4L103.2,304.5z
	 M101.9,297.7l2.9,2.2l-0.9,3.5l3-2.1l3.1,1.9l-1-3.5l2.8-2.4l-3.6-0.1l-1.4-3.4l-1.2,3.5L101.9,297.7z"/>
<path id="path3775-9" class="st7" d="M44.5,293.4l1.5,3.8l4.1,0.1l-3.1,2.6l1.1,3.9l-3.4-2.2l-3.3,2.3l1-4l-3.3-2.5l4-0.3
	L44.5,293.4z"/>
<path class="st8" d="M41,304.5l1.1-4.4l-3.5-2.7L43,297l1.5-4.2l1.7,4.2l4.5,0.1l-3.4,2.9l1.3,4.3l-3.8-2.4L41,304.5z M39.7,297.7
	l2.9,2.2l-0.9,3.5l3-2.1l3.1,1.9l-1-3.5l2.8-2.4l-3.6-0.1l-1.4-3.4l-1.2,3.5L39.7,297.7z"/>
<path id="path3775-10" class="st7" d="M75.6,324.7l1.5,3.8l4.1,0.1l-3.1,2.6l1.1,3.9l-3.4-2.2l-3.3,2.3l1-4l-3.2-2.5l4-0.3
	L75.6,324.7z"/>
<path class="st8" d="M72.1,335.8l1.1-4.4l-3.5-2.8l4.5-0.3l1.5-4.2l1.7,4.2l4.5,0.1l-3.4,2.9l1.3,4.3l-3.8-2.4L72.1,335.8z
	 M70.8,329l2.9,2.2l-0.9,3.5l3-2.1l3.1,1.9l-1-3.5l2.8-2.4l-3.6-0.1l-1.4-3.4l-1.2,3.5L70.8,329z"/>
<path id="path3775-11" class="st7" d="M75.6,262.1l1.5,3.8l4.1,0.1l-3.1,2.6l1.1,3.9l-3.4-2.2l-3.3,2.3l1-4l-3.2-2.5l4-0.3
	L75.6,262.1z"/>
<path class="st8" d="M72.1,273.2l1.1-4.4l-3.5-2.8l4.5-0.3l1.5-4.2l1.7,4.2l4.5,0.1l-3.4,2.9l1.3,4.3l-3.8-2.4L72.1,273.2z
	 M70.8,266.4l2.9,2.2l-0.9,3.5l3-2.1l3.1,1.9l-1-3.5l2.8-2.4l-3.6-0.1l-1.4-3.4l-1.2,3.5L70.8,266.4z"/>
<path id="path3775-12" class="st7" d="M102.6,309.1l1.5,3.8l4.1,0.1l-3.1,2.6l1.1,3.9l-3.4-2.2l-3.4,2.3l1-4l-3.2-2.5l4.1-0.3
	L102.6,309.1z"/>
<path class="st8" d="M99.1,320.1l1.1-4.4l-3.5-2.8l4.4-0.3l1.5-4.2l1.7,4.2l4.5,0.1l-3.4,2.9l1.3,4.3l-3.8-2.4L99.1,320.1z
	 M97.8,313.4l2.9,2.2l-0.9,3.5l3-2.1l3.1,1.9l-1-3.5l2.8-2.4L104,313l-1.4-3.4l-1.2,3.4L97.8,313.4z"/>
<polygon class="st3" points="105.3,364.1 96.7,364.1 85.8,381.4 85.6,364.1 79.2,364.1 79.2,383 79.2,382.9 79.2,401.8 85.6,401.8 
	85.8,384.4 96.7,401.8 105.3,401.8 92.2,382.9 "/>
<path class="st3" d="M66.1,368.2c-2.5-2.5-5.8-3.9-9.3-4.1H46.2v37.7h10.7c3.5-0.1,6.8-1.6,9.3-4.1c2.8-2.6,4.4-6.1,4.5-9.9V378
	C70.5,374.3,68.8,370.7,66.1,368.2z M64.4,382.9L64.4,382.9v4.9c0,4-4.4,7.7-7.6,7.7h-4.4V383l0,0v-12.7h4.4c3.2,0,7.6,3.7,7.6,7.7
	V382.9z"/>
<g id="hologram">
	<rect x="120.2" y="240.9" class="st9" width="20" height="195.6"/>
	<rect x="120.2" y="317.9" class="st10" width="20" height="39.9"/>
	<polygon class="st11" points="134.1,422 134.2,422.2 134,422.2 133.9,422.5 134.2,422.5 134.5,422.5 134.6,422.3 134.5,422.2 
		134.4,422.1 134.2,421.9 134.2,421.6 133.9,421.6 133.9,421.7 133.9,421.9 134,421.9 	"/>
	<polygon class="st11" points="133.9,422.1 133.9,422 133.8,421.9 133.6,422 133.4,422.2 133.4,422.4 133.6,422.4 	"/>
	<path class="st11" d="M129.7,422.9v0.1h-0.2v0.1l0,0l0,0h0.1l0.1,0V422.9l0.1,0.1v-0.1L129.7,422.9L129.7,422.9z"/>
	<polygon class="st11" points="129.1,423.1 129.1,423.2 129.2,423.2 129.2,423 129.1,423 	"/>
	<path class="st11" d="M138.7,426.6c0-0.2,0-0.5,0-0.7c-0.1-0.8-0.3-1.6-0.6-2.3l-0.1-0.1c-0.4-0.9-0.9-1.7-1.6-2.4l-0.1-0.1
		l-0.4-0.4c-3.2-3-8.2-3-11.4,0c-0.4,0.3-0.7,0.7-1,1c-2.8,3.7-2.1,9,1.6,11.8c3.7,2.8,9,2.1,11.8-1.6c0.3-0.4,0.6-0.8,0.8-1.3
		c0.3-0.6,0.5-1.2,0.7-1.9c0-0.2,0.1-0.3,0.1-0.5C138.7,427.7,138.7,427.2,138.7,426.6L138.7,426.6z M137.1,423.3L137.1,423.3
		l0.2,0.4h-0.1h-0.1V423.3z M135.9,421.8v-0.4c0.1,0.1,0.3,0.3,0.4,0.4l-0.1,0.2h-0.5V422L135.9,421.8z M125.7,420.9h0.2v-0.1h0.3
		v0.1l-0.1,0.1h-0.4L125.7,420.9L125.7,420.9z M126,421.2h0.2v0.2h-0.4l-0.1-0.1L126,421.2z M137.7,424.6h-0.6l-0.4-0.3h-0.4v0.2
		h-0.1l-0.1,0l-0.7-0.2v-0.4l-0.9,0.1l-0.3,0.1h-0.3h-0.2l-0.4,0.2v0.4l-0.9,0.6l0.1,0.3h0.2l-0.1,0.3h-0.1v0.7l0.7,0.8h0.3v0h0.6
		l0.2-0.2h0.3l0.2,0.2l0.5,0l-0.1,0.6l0.6,1l-0.3,0.5v0.3l0.2,0.2v0.6l0.3,0.4v0.5h0.3c-2.7,3.3-7.6,3.8-10.9,1.1
		c-1.8-1.5-2.9-3.7-2.9-6c0-1,0.2-2.1,0.6-3v-0.2l0.3-0.3c0.1-0.2,0.2-0.4,0.3-0.5v0.1l-0.3,0.4c-0.1,0.2-0.2,0.4-0.3,0.6v0.4
		l0.3,0.2v0.6l0.3,0.5h0.2v-0.2l-0.3-0.5l-0.1-0.4h0.2l0.1,0.5l0.4,0.6l-0.1,0.2l0.3,0.4l0.7,0.2v-0.1h0.3v0.2h0.2l0.3,0.1l0.5,0.5
		h0.6l0.1,0.5l-0.4,0.3v0.4l-0.1,0.3l0.6,0.7v0.2l0.2,0.1l0.5,0.3v1.3h0.2l-0.1,0.6l0.3,0.4l-0.1,0.6l0.4,0.6l0.5,0.4h0.5v-0.1
		l-0.3-0.3v-0.1l0.1-0.2v-0.2h-0.2l-0.1-0.1l0.2-0.2v-0.1l-0.2-0.1v-0.1l0.3,0l0.5-0.2l0.1-0.3l0.5-0.6l-0.1-0.5l0.1-0.3h0.4
		l0.3-0.2l0.1-0.9l0.3-0.4v-0.3l-0.3-0.1L131,428h-0.7l-0.5-0.2v-0.4l-0.2-0.3h-0.5l-0.3-0.5l-0.2-0.1v0.1h-0.5l-0.2-0.2l-0.5-0.1
		l-0.4,0.5l-0.6-0.1l-0.1-0.7l-0.4-0.1l0.2-0.3l-0.1-0.2l-0.6,0.4l-0.4,0l-0.1-0.3l0.1-0.3l0.2-0.4l0.5-0.2h0.9v0.3l0.3,0.1v-0.5
		l0.2-0.2l0.5-0.3v-0.2l0.5-0.5l0.5-0.3l0,0l0.3-0.3h0.1l0.1,0.1l0.1-0.1l0,0h-0.1h-0.1v0l0.1-0.1h0.2h0.1l0.1,0.1h0.1h0.2v-0.1h0.1
		v0.1l-0.1,0.1l0,0v0.1l0.4,0.1h0.1v-0.2l-0.3-0.1v-0.1l0.3-0.1v-0.3L130,422v-0.5l-0.4,0.2h-0.1v-0.3l-0.6-0.1l-0.2,0.2v0.5
		l-0.4,0.1l-0.2,0.4h-0.2V422l-0.4-0.1l-0.2-0.1l-0.1-0.3l0.7-0.4l0.3-0.1v0.2h0.2v-0.1h0.2l0,0h-0.1V421h0.2l0.1-0.2l0,0l0,0
		l0.5-0.1l0.2,0.2l-0.6,0.3l0.8,0.2l0.1-0.3h0.3l0.1-0.2l-0.2-0.1v-0.4l-0.7-0.3l-0.5,0.1l-0.3,0.1v0.4l-0.3,0l-0.1-0.2l0.3-0.3
		h-0.5H128l-0.1,0.2h0.2v0.2h-0.3v0.1h-0.5c0-0.1,0-0.2,0-0.3h0.4l0.3-0.3l-0.1-0.1l-0.2,0.2h-0.3l-0.2-0.3h-0.4l-0.4,0.3h0.4v0.1
		l-0.1,0.1h0.5l0.1,0.2h-0.5v-0.1l-0.3-0.1l-0.2-0.1h-0.4c2.9-2.1,6.9-1.9,9.7,0.5l-0.1,0.2l-0.4,0.1l-0.1,0.2v0.2h0.2l0.1,0.3
		l0.3-0.1v0.4h-0.1h-0.3l-0.3,0l-0.3,0.4l-0.4,0.1l-0.1,0.3h0.2l-0.1,0.2l-0.4-0.1l-0.4,0.1l-0.1,0.2l0.1,0.4l0.2,0.1h0.6h0.2
		l0.1-0.2l0.4-0.5h0.2l0.2-0.2v0.2l0.6,0.4l-0.1,0.1h-0.3l0.1,0.1h0.2l0.2-0.1v-0.2h0.1l-0.1-0.1l-0.4-0.2l-0.1-0.3h0.3l0.1,0.1
		l0.3,0.2v0.3l0.3,0.3l0.1-0.4l0.2-0.1v0.4l0.2,0.2h0.4C137.6,424.1,137.6,424.3,137.7,424.6L137.7,424.6z M126.5,422.1l0.2-0.1
		l0.2,0l-0.1,0.2l-0.2,0.1L126.5,422.1z M127.5,422.7v0.2h-0.5l-0.2,0l0.1-0.1l0.2-0.1L127.5,422.7L127.5,422.7L127.5,422.7z
		 M127.7,422.9v0.2l-0.1,0.1h-0.1v-0.3L127.7,422.9z M127.6,422.9v-0.2l0.2,0.1L127.6,422.9z M127.7,423.2v0.1l-0.1,0.1h-0.2v-0.2
		h0.1v-0.1L127.7,423.2z M127.1,422.9h0.3l-0.3,0.5l-0.1-0.1v-0.2L127.1,422.9z M128.1,423.2v0.1h-0.2l-0.1-0.1v-0.1l0,0
		L128.1,423.2z M127.8,423L127.8,423h0.2l-0.1,0.1L127.8,423z M137.8,425L137.8,425v0.1V425z"/>
	<path class="st11" d="M123.2,423.5v0.2c0.1-0.2,0.2-0.4,0.3-0.6L123.2,423.5z"/>
	<path class="st11" d="M136.5,432.2c2.9-3.3,2.8-8.2-0.2-11.4l0,0c-1.5-1.6-3.6-2.6-5.9-2.7h-0.6c-2.2,0.1-4.3,1-5.9,2.7l0,0
		c-3,3.2-3.1,8.1-0.2,11.4l0,0c1.5,1.7,3.7,2.7,6,2.8h0.6C132.7,435,134.9,434,136.5,432.2L136.5,432.2L136.5,432.2z M122.3,427h3.5
		c0,1.2,0.3,2.4,0.7,3.5c-0.8,0.3-1.6,0.7-2.4,1.2C123,430.4,122.4,428.7,122.3,427z M124.3,421.4c0.7,0.5,1.5,0.8,2.3,1.1
		c-0.5,1.2-0.8,2.5-0.8,3.8h-3.5C122.4,424.5,123.1,422.8,124.3,421.4z M138,426.4h-3.5c0-1.3-0.3-2.6-0.8-3.8
		c0.8-0.3,1.6-0.7,2.3-1.1C137.2,422.8,137.9,424.5,138,426.4L138,426.4z M129.9,422.6c-0.8,0-1.7-0.1-2.5-0.4
		c0.6-1.2,1.4-2.3,2.5-3.2V422.6z M129.9,423.1v3.2h-3.5c0-1.2,0.3-2.5,0.8-3.6C128,423,128.9,423.1,129.9,423.1L129.9,423.1z
		 M130.4,423.1c0.9,0,1.8-0.2,2.7-0.4c0.5,1.2,0.7,2.4,0.8,3.6h-3.5V423.1z M130.4,422.6V419c1,0.9,1.9,2,2.5,3.2
		C132.1,422.4,131.3,422.5,130.4,422.6L130.4,422.6z M133.4,422c-0.6-1.2-1.3-2.2-2.3-3.1c1.7,0.2,3.2,1,4.4,2.1
		C134.9,421.4,134.2,421.8,133.4,422L133.4,422z M126.8,422c-0.7-0.3-1.5-0.6-2.1-1c1.2-1.2,2.8-1.9,4.4-2.1
		C128.2,419.8,127.4,420.8,126.8,422L126.8,422z M126.3,427h3.5v2.9c-1,0-1.9,0.2-2.8,0.5C126.6,429.2,126.4,428.1,126.3,427
		L126.3,427z M129.8,430.5v3.9c-1.1-1-2-2.1-2.6-3.5C128.1,430.6,129,430.5,129.8,430.5L129.8,430.5z M130.4,434.3v-3.8
		c0.9,0,1.7,0.2,2.6,0.4C132.4,432.2,131.5,433.4,130.4,434.3L130.4,434.3z M130.4,429.9V427h3.5c0,1.2-0.3,2.3-0.7,3.4
		C132.3,430,131.4,429.9,130.4,429.9L130.4,429.9z M134.5,427h3.5c-0.1,1.7-0.7,3.4-1.8,4.8c-0.7-0.5-1.5-0.9-2.4-1.2
		C134.2,429.4,134.5,428.2,134.5,427L134.5,427z M124.5,432.1c0.7-0.5,1.4-0.8,2.2-1.1c0.6,1.3,1.4,2.4,2.4,3.4
		C127.3,434.2,125.7,433.4,124.5,432.1L124.5,432.1z M131.1,434.4c1-1,1.8-2.1,2.4-3.4c0.8,0.3,1.5,0.6,2.2,1.1
		C134.5,433.4,132.9,434.2,131.1,434.4L131.1,434.4z"/>
	<polygon class="st11" points="134.1,378 134.2,378.2 134,378.2 133.9,378.5 134.2,378.5 134.5,378.5 134.6,378.3 134.5,378.2 
		134.4,378.1 134.2,377.9 134.2,377.6 133.9,377.6 133.9,377.7 133.9,377.9 134,377.9 	"/>
	<polygon class="st11" points="133.9,378.1 133.9,378 133.8,377.9 133.6,378 133.4,378.2 133.4,378.4 133.6,378.4 	"/>
	<path class="st11" d="M129.7,378.9v0.1h-0.2v0.1l0,0v0.1h0.1l0.1,0V379h0.1v-0.1L129.7,378.9L129.7,378.9z"/>
	<polygon class="st11" points="129.1,379.1 129.1,379.2 129.2,379.2 129.2,379 129.1,379 	"/>
	<path class="st11" d="M138.7,382.6c0-0.2,0-0.5,0-0.7c-0.1-0.8-0.3-1.6-0.6-2.3l-0.1-0.1c-0.4-0.9-0.9-1.7-1.6-2.4l-0.1-0.1
		l-0.4-0.4c-3.2-3-8.2-3-11.4,0c-0.4,0.3-0.7,0.7-1,1c-2.8,3.7-2.1,9,1.6,11.8c3.7,2.8,9,2.1,11.8-1.6c0.3-0.4,0.6-0.8,0.8-1.3
		c0.3-0.6,0.5-1.2,0.7-1.9c0-0.2,0.1-0.3,0.1-0.5C138.7,383.7,138.7,383.2,138.7,382.6L138.7,382.6z M137.1,379.3L137.1,379.3
		l0.2,0.4h-0.1h-0.1V379.3z M135.9,377.8v-0.4c0.1,0.1,0.3,0.3,0.4,0.4l-0.1,0.2h-0.5V378L135.9,377.8z M125.7,376.9h0.2v-0.1h0.3
		v0.1l-0.1,0.1h-0.4L125.7,376.9L125.7,376.9z M126,377.2h0.2v0.2h-0.4l-0.1-0.1L126,377.2z M137.7,380.6h-0.6l-0.4-0.3h-0.4v0.2
		h-0.1l-0.1,0l-0.7-0.2v-0.4l-0.9,0.1l-0.3,0.1h-0.3h-0.2l-0.4,0.2v0.4l-0.9,0.6l0.1,0.3h0.2l-0.1,0.2l-0.1,0v0.7l0.7,0.8h0.3v0h0.6
		l0.2-0.2h0.3l0.2,0.2l0.5,0l-0.1,0.7l0.6,1l-0.3,0.5v0.3l0.2,0.2v0.6l0.3,0.4v0.5h0.3c-2.7,3.3-7.6,3.8-10.9,1.1
		c-1.8-1.5-2.9-3.7-2.9-6c0-1,0.2-2.1,0.6-3v-0.3l0.3-0.3l0.3-0.5v0.1l-0.3,0.4c-0.1,0.2-0.2,0.4-0.3,0.6v0.4l0.3,0.2v0.6l0.3,0.5
		h0.2v-0.2l-0.3-0.5l-0.1-0.5h0.2l0.1,0.5l0.4,0.6l-0.1,0.2l0.3,0.4l0.7,0.2v-0.1h0.3v0.2h0.2l0.3,0.1l0.5,0.5h0.6l0.1,0.5l-0.4,0.3
		v0.4l-0.1,0.3l0.6,0.7v0.2l0.2,0.1l0.5,0.3v1.3h0.2l-0.1,0.6l0.3,0.4l-0.1,0.6l0.4,0.6l0.5,0.4h0.5v-0.1l-0.3-0.3v-0.1l0.1-0.2
		v-0.2h-0.2l-0.1-0.1l0.2-0.2v-0.1l-0.2-0.1v-0.1l0.3,0l0.5-0.2l0.1-0.3l0.5-0.6l-0.1-0.5l0.1-0.3h0.4l0.3-0.2l0.1-0.9l0.3-0.4v-0.3
		l-0.3-0.1L131,384h-0.7l-0.5-0.2v-0.4l-0.2-0.3h-0.5l-0.3-0.5l-0.2-0.1v0.1h-0.5l-0.2-0.2l-0.5-0.1l-0.4,0.5l-0.6-0.1l-0.1-0.7
		l-0.4-0.1l0.2-0.3l-0.1-0.2l-0.6,0.4l-0.4,0l-0.1-0.3l0.1-0.3l0.2-0.4l0.5-0.2h0.9v0.3l0.3,0.1v-0.5l0.2-0.2l0.5-0.3v-0.2l0.5-0.5
		l0.5-0.3l0,0l0.3-0.3h0.1l0.1,0.1l0.1-0.1l0,0h-0.1h-0.1v0l0.1-0.1h0.2h0.1l0.1,0.1h0.1h0.2v-0.1h0.1v0.1l-0.1,0.1l0,0v0.1l0.4,0.1
		h0.1v-0.2l-0.3-0.1v-0.1l0.3-0.1v-0.3l-0.3-0.2v-0.5l-0.4,0.2h-0.1v-0.4l-0.6-0.1l-0.2,0.2v0.5l-0.4,0.1l-0.2,0.4h-0.2v-0.4
		l-0.4-0.1l-0.2-0.1l-0.1-0.3l0.7-0.4l0.3-0.1v0.2h0.2v-0.1h0.2l0,0h-0.1V377h0.2l0.1-0.1l0,0l0,0l0.5-0.1l0.2,0.2l-0.6,0.3l0.8,0.2
		l0.1-0.2h0.3l0.1-0.2h-0.2v-0.5l-0.7-0.3l-0.5,0.1l-0.3,0.1v0.4h-0.3l-0.1-0.2l0.3-0.3h-0.5H128l-0.1,0.2h0.2v0.2h-0.3v0.1h-0.5
		c0-0.1,0-0.2,0-0.3h0.4l0.3-0.3l-0.1-0.1l-0.2,0.2h-0.3l-0.2-0.3h-0.4l-0.4,0.3h0.4v0.1l-0.1,0.1h0.5l0.1,0.2h-0.5v-0.1l-0.3-0.1
		l-0.2-0.1h-0.4c2.9-2.1,6.9-1.9,9.7,0.5l-0.1,0.2l-0.4,0.1l-0.1,0.2v0.2h0.2l0.1,0.3l0.3-0.1v0.4h-0.1h-0.3l-0.3,0l-0.3,0.4
		l-0.4,0.1l-0.1,0.3h0.2l-0.1,0.2l-0.4-0.1l-0.4,0.1l-0.1,0.2l0.1,0.4l0.2,0.1h0.6h0.2l0.1-0.2l0.4-0.5h0.2l0.2-0.2v0.2l0.6,0.4
		l-0.1,0.1h-0.3l0.1,0.1h0.2l0.2-0.1v-0.2h0.1l-0.1-0.1l-0.4-0.2l-0.1-0.3h0.3l0.1,0.1l0.3,0.2v0.3l0.3,0.3l0.1-0.4l0.2-0.1v0.4
		l0.2,0.2h0.4C137.6,380.1,137.6,380.3,137.7,380.6L137.7,380.6z M126.5,378.1l0.2-0.1l0.2,0l-0.1,0.2l-0.2,0.1L126.5,378.1z
		 M127.5,378.7v0.2h-0.5l-0.2,0l0.1-0.1l0.2-0.1L127.5,378.7L127.5,378.7L127.5,378.7z M127.7,378.9v0.1l-0.1,0.1h-0.1v-0.3
		L127.7,378.9z M127.6,378.9v-0.2l0.2,0.1L127.6,378.9z M127.7,379.2v0.1l-0.1,0.1h-0.2v-0.2h0.1v-0.1L127.7,379.2z M127.1,378.9
		h0.3l-0.3,0.5l-0.1-0.1v-0.2L127.1,378.9z M128.1,379.2v0.1h-0.2l-0.1-0.1v-0.1l0,0L128.1,379.2z M127.8,379L127.8,379h0.2
		l-0.1,0.1L127.8,379z M137.8,381L137.8,381v0.1V381z"/>
	<path class="st11" d="M123.2,379.5v0.2c0.1-0.2,0.2-0.4,0.3-0.6L123.2,379.5z"/>
	<path class="st11" d="M136.5,388.2c2.9-3.3,2.8-8.2-0.2-11.4l0,0c-1.5-1.6-3.6-2.6-5.9-2.7h-0.6c-2.2,0.1-4.3,1-5.9,2.7l0,0
		c-3,3.2-3.1,8.1-0.2,11.4l0,0c1.5,1.7,3.7,2.7,6,2.8h0.6C132.7,391,134.9,390,136.5,388.2L136.5,388.2L136.5,388.2z M122.3,382.9
		h3.5c0,1.2,0.3,2.4,0.7,3.6c-0.8,0.3-1.6,0.7-2.4,1.2C123,386.4,122.4,384.7,122.3,382.9z M124.3,377.4c0.7,0.5,1.5,0.8,2.3,1.1
		c-0.5,1.2-0.8,2.5-0.8,3.8h-3.5C122.4,380.5,123.1,378.8,124.3,377.4z M138,382.4h-3.5c0-1.3-0.3-2.6-0.8-3.8
		c0.8-0.3,1.6-0.7,2.3-1.1C137.2,378.8,137.9,380.5,138,382.4L138,382.4z M129.9,378.6c-0.8,0-1.7-0.2-2.5-0.4
		c0.6-1.2,1.4-2.3,2.5-3.2V378.6z M129.9,379.1v3.2h-3.5c0-1.2,0.3-2.5,0.8-3.6C128,379,128.9,379.1,129.9,379.1L129.9,379.1z
		 M130.4,379.1c0.9,0,1.8-0.2,2.7-0.4c0.5,1.2,0.7,2.4,0.8,3.6h-3.5V379.1z M130.4,378.6V375c1,0.9,1.9,2,2.5,3.2
		C132.1,378.4,131.3,378.5,130.4,378.6L130.4,378.6z M133.4,378c-0.6-1.2-1.3-2.3-2.3-3.2c1.7,0.2,3.2,1,4.4,2.1
		C134.9,377.4,134.2,377.8,133.4,378L133.4,378z M126.8,378c-0.7-0.3-1.5-0.6-2.1-1c1.2-1.2,2.8-1.9,4.4-2.1
		C128.2,375.8,127.4,376.8,126.8,378L126.8,378z M126.3,382.9h3.5v2.9c-1,0-1.9,0.2-2.8,0.4C126.6,385.2,126.4,384.1,126.3,382.9
		L126.3,382.9z M129.8,386.5v3.9c-1.1-1-2-2.1-2.6-3.5C128.1,386.6,129,386.5,129.8,386.5L129.8,386.5z M130.4,390.3v-3.8
		c0.9,0,1.7,0.2,2.6,0.4C132.4,388.2,131.5,389.4,130.4,390.3L130.4,390.3z M130.4,385.9v-2.9h3.5c0,1.2-0.3,2.3-0.7,3.4
		C132.3,386,131.4,385.9,130.4,385.9L130.4,385.9z M134.5,382.9h3.5c-0.1,1.7-0.7,3.4-1.8,4.8c-0.7-0.5-1.5-0.9-2.4-1.2
		C134.2,385.4,134.5,384.2,134.5,382.9L134.5,382.9z M124.5,388.1c0.7-0.5,1.4-0.8,2.2-1.1c0.6,1.3,1.4,2.4,2.4,3.4
		C127.3,390.2,125.7,389.4,124.5,388.1L124.5,388.1z M131.1,390.4c1-1,1.8-2.1,2.4-3.4c0.8,0.3,1.5,0.6,2.2,1.1
		C134.5,389.4,132.9,390.2,131.1,390.4L131.1,390.4z"/>
	<polygon class="st11" points="134.1,334 134.2,334.2 134,334.2 133.9,334.5 134.2,334.5 134.5,334.4 134.6,334.3 134.5,334.2 
		134.4,334.1 134.2,333.9 134.2,333.6 133.9,333.6 133.9,333.7 133.9,333.9 134,333.9 	"/>
	<polygon class="st11" points="133.9,334.1 133.9,334 133.8,333.9 133.6,334 133.4,334.2 133.4,334.4 133.6,334.4 	"/>
	<path class="st11" d="M129.7,334.9v0.1h-0.2v0.1l0,0v0.1h0.1l0.1-0.1V335h0.1v-0.1L129.7,334.9L129.7,334.9z"/>
	<polygon class="st11" points="129.1,335.1 129.1,335.2 129.2,335.2 129.2,335 129.1,335 	"/>
	<path class="st11" d="M138.7,338.6c0-0.2,0-0.5,0-0.7c-0.1-0.8-0.3-1.6-0.6-2.3l-0.1-0.1c-0.4-0.9-0.9-1.7-1.6-2.4
		c0-0.1-0.1-0.1-0.1-0.1l-0.4-0.4c-3.2-3-8.2-3-11.4,0c-0.4,0.3-0.7,0.7-1,1c-2.8,3.7-2.1,9,1.6,11.8c3.7,2.8,9,2.1,11.8-1.6
		c0.3-0.4,0.6-0.8,0.8-1.3c0.3-0.6,0.5-1.2,0.7-1.9c0-0.2,0.1-0.3,0.1-0.5C138.7,339.7,138.7,339.2,138.7,338.6L138.7,338.6z
		 M137.1,335.3L137.1,335.3l0.2,0.4h-0.1h-0.1V335.3z M135.9,333.8v-0.4c0.1,0.1,0.3,0.3,0.4,0.4l-0.1,0.2h-0.5V334L135.9,333.8z
		 M125.7,332.9h0.2v-0.1h0.3v0.1l-0.1,0.1h-0.4L125.7,332.9L125.7,332.9z M126,333.2h0.2v0.2h-0.4l-0.1-0.1L126,333.2z M137.7,336.6
		h-0.6l-0.4-0.3h-0.4v0.2h-0.1l-0.1,0l-0.7-0.2v-0.5l-0.9,0.1l-0.3,0.1h-0.3h-0.2l-0.4,0.2v0.4l-0.9,0.6l0.1,0.3h0.2l-0.1,0.2
		l-0.1,0v0.6l0.7,0.9h0.3v0h0.6l0.2-0.2h0.3l0.2,0.2l0.5,0l-0.1,0.6l0.6,1l-0.3,0.5v0.3l0.2,0.2v0.6l0.3,0.4v0.5h0.3
		c-2.7,3.3-7.6,3.8-10.9,1.2c-1.8-1.5-2.9-3.7-2.9-6c0-1,0.2-2.1,0.6-3v-0.3l0.3-0.3c0.1-0.2,0.2-0.4,0.3-0.5v0.1l-0.3,0.4
		c-0.1,0.2-0.2,0.4-0.3,0.6v0.4l0.3,0.2v0.6l0.3,0.5h0.2v-0.2l-0.3-0.5l-0.1-0.5h0.2l0.1,0.5l0.4,0.6l-0.1,0.2l0.3,0.4l0.7,0.2v-0.1
		h0.3v0.2h0.2l0.3,0.1l0.5,0.5h0.6l0.1,0.5l-0.4,0.3v0.4l-0.1,0.3l0.6,0.7v0.2l0.2,0.1l0.5,0.3v1.3l0.2,0l-0.1,0.6l0.3,0.4l-0.1,0.6
		l0.4,0.6l0.5,0.4h0.5v-0.1l-0.3-0.3v-0.1l0.1-0.2v-0.2h-0.2l-0.1-0.1l0.2-0.2v-0.1l-0.2-0.1v-0.1l0.3,0l0.5-0.2l0.1-0.3l0.5-0.6
		l-0.1-0.5l0.1-0.2h0.4l0.3-0.2l0.1-0.9l0.3-0.4v-0.3l-0.3-0.1L131,340h-0.7l-0.5-0.2v-0.4l-0.2-0.3h-0.5l-0.3-0.4l-0.2-0.1v0.1
		h-0.5l-0.2-0.2l-0.5-0.1l-0.4,0.5l-0.6-0.1l-0.1-0.7l-0.4-0.1l0.2-0.4l-0.1-0.2l-0.6,0.4h-0.4l-0.1-0.3l0.1-0.3l0.2-0.4l0.5-0.2
		h0.9v0.3l0.3,0.1v-0.5l0.2-0.2l0.5-0.3v-0.2l0.5-0.5l0.5-0.3l0,0l0.3-0.3h0.1l0.1,0.1l0.1-0.1l0,0h-0.1l-0.1,0v-0.1l0.1-0.1h0.2
		h0.1l0.1,0.1h0.1h0.2v-0.1h0.1v0.1l-0.1,0.1l0,0v0.1l0.4,0.1h0.1v-0.2l-0.3-0.2v-0.1l0.3-0.1v-0.3l-0.3-0.2v-0.5l-0.4,0.2h-0.1
		v-0.4l-0.6-0.1l-0.2,0.2v0.5l-0.4,0.1l-0.2,0.3h-0.2v-0.4l-0.4,0l-0.2-0.1l-0.1-0.3l0.7-0.4l0.3-0.1v0.2h0.2v-0.1h0.2l0,0h-0.1V333
		h0.2l0.1-0.1l0,0l0,0l0.5-0.1l0.2,0.2l-0.6,0.3l0.8,0.2l0.1-0.2h0.3l0.1-0.2h-0.2v-0.5l-0.7-0.3l-0.5,0l-0.3,0.1v0.4h-0.3l-0.1-0.2
		l0.3-0.3h-0.5H128l-0.1,0.2h0.2v0.2h-0.3v0.1h-0.5c0-0.1,0-0.2,0-0.3h0.4l0.3-0.3l-0.1-0.1l-0.2,0.2h-0.3l-0.2-0.3h-0.4l-0.4,0.3
		h0.4v0.1l-0.1,0.1h0.6l0.1,0.2h-0.5v-0.1l-0.3-0.1l-0.2-0.1h-0.4c2.9-2.1,6.9-1.9,9.7,0.5l-0.1,0.2l-0.4,0.1l-0.1,0.2v0.2h0.2
		l0.1,0.3l0.3-0.1v0.4h-0.1h-0.3l-0.3,0l-0.3,0.4l-0.4,0.1L134,335h0.2l-0.1,0.2l-0.4-0.1l-0.4,0.1l-0.1,0.2l0.1,0.4l0.2,0.1h0.5
		h0.2l0.1-0.2l0.4-0.5h0.2l0.2-0.2v0.2l0.6,0.4l-0.1,0.1h-0.3l0.1,0.1h0.2l0.2-0.1v-0.2h0.1l-0.1-0.1l-0.4-0.2l-0.1-0.3h0.3l0.1,0.1
		l0.3,0.2v0.3l0.3,0.3l0.1-0.4l0.2-0.1v0.4l0.2,0.2h0.4C137.6,336.1,137.6,336.4,137.7,336.6L137.7,336.6z M126.5,334.1l0.2-0.1h0.2
		l-0.1,0.2l-0.2,0.1L126.5,334.1z M127.5,334.7v0.2h-0.5l-0.2,0l0.1-0.1l0.2-0.1L127.5,334.7L127.5,334.7L127.5,334.7z M127.7,334.9
		v0.1l-0.1,0.1h-0.1v-0.2L127.7,334.9z M127.6,334.9v-0.2l0.2,0.1L127.6,334.9z M127.7,335.2v0.1l-0.1,0.1h-0.2v-0.2h0.1v-0.1
		L127.7,335.2z M127.1,334.9h0.3l-0.3,0.5l-0.1-0.1v-0.2L127.1,334.9z M128.1,335.2v0.1h-0.2l-0.1-0.1v-0.1l0,0L128.1,335.2z
		 M127.8,335L127.8,335h0.2l-0.1,0.1L127.8,335z M137.8,337L137.8,337v0.1V337z"/>
	<path class="st11" d="M123.2,335.5v0.2c0.1-0.2,0.2-0.4,0.3-0.6L123.2,335.5z"/>
	<path class="st11" d="M136.5,344.2c2.9-3.3,2.8-8.2-0.2-11.4l0,0c-1.5-1.6-3.6-2.6-5.9-2.7h-0.6c-2.2,0.1-4.3,1-5.9,2.7l0,0
		c-3,3.2-3.1,8.1-0.2,11.4l0,0l0,0c1.5,1.7,3.7,2.7,6,2.8h0.6C132.7,347,134.9,346,136.5,344.2L136.5,344.2L136.5,344.2z
		 M122.3,338.9h3.5c0,1.2,0.3,2.4,0.7,3.6c-0.8,0.3-1.6,0.7-2.4,1.2C123,342.4,122.4,340.7,122.3,338.9z M124.3,333.4
		c0.7,0.5,1.5,0.8,2.3,1.1c-0.5,1.2-0.8,2.5-0.8,3.8h-3.5C122.4,336.5,123.1,334.8,124.3,333.4z M138,338.4h-3.5
		c0-1.3-0.3-2.6-0.8-3.8c0.8-0.3,1.6-0.7,2.3-1.1C137.2,334.8,137.9,336.5,138,338.4L138,338.4z M129.9,334.6
		c-0.8,0-1.7-0.2-2.5-0.4c0.6-1.2,1.4-2.3,2.5-3.2V334.6z M129.9,335.1v3.2h-3.5c0-1.2,0.3-2.5,0.8-3.6
		C128,335,128.9,335.1,129.9,335.1L129.9,335.1z M130.4,335.1c0.9,0,1.8-0.2,2.7-0.4c0.5,1.2,0.7,2.4,0.8,3.6h-3.5V335.1z
		 M130.4,334.6V331c1,0.9,1.9,2,2.5,3.2C132.1,334.4,131.3,334.5,130.4,334.6L130.4,334.6z M133.4,334c-0.6-1.2-1.3-2.3-2.3-3.2
		c1.7,0.2,3.2,1,4.4,2.1C134.9,333.4,134.2,333.8,133.4,334L133.4,334z M126.8,334c-0.7-0.3-1.5-0.6-2.1-1c1.2-1.2,2.8-1.9,4.4-2.1
		C128.2,331.8,127.4,332.8,126.8,334L126.8,334z M126.3,338.9h3.5v2.9c-1,0-1.9,0.2-2.8,0.5C126.6,341.2,126.4,340.1,126.3,338.9
		L126.3,338.9z M129.8,342.5v3.9c-1.1-1-2-2.1-2.6-3.5C128.1,342.6,129,342.5,129.8,342.5L129.8,342.5z M130.4,346.3v-3.8
		c0.9,0,1.7,0.2,2.6,0.4C132.4,344.2,131.5,345.4,130.4,346.3L130.4,346.3z M130.4,341.9v-2.9h3.5c0,1.2-0.3,2.3-0.7,3.4
		C132.3,342,131.4,341.9,130.4,341.9L130.4,341.9z M134.5,338.9h3.5c-0.1,1.7-0.7,3.4-1.8,4.8c-0.7-0.5-1.5-0.9-2.4-1.2
		C134.2,341.4,134.5,340.2,134.5,338.9L134.5,338.9z M124.5,344.1c0.7-0.5,1.4-0.8,2.2-1.1c0.6,1.3,1.4,2.4,2.4,3.4
		C127.3,346.2,125.7,345.4,124.5,344.1L124.5,344.1z M131.1,346.4c1-1,1.8-2.1,2.4-3.4c0.8,0.3,1.5,0.6,2.2,1.1
		C134.5,345.4,132.9,346.2,131.1,346.4L131.1,346.4z"/>
	<polygon class="st11" points="134.1,290 134.2,290.2 134,290.2 133.9,290.5 134.2,290.5 134.5,290.4 134.6,290.3 134.5,290.2 
		134.4,290.1 134.2,289.9 134.2,289.6 133.9,289.6 133.9,289.7 133.9,289.9 134,289.9 	"/>
	<polygon class="st11" points="133.9,290.1 133.9,290 133.8,289.9 133.6,290 133.4,290.2 133.4,290.4 133.6,290.4 	"/>
	<path class="st11" d="M129.7,290.9v0.1h-0.2v0.1l0,0v0.1h0.1l0.1-0.1V291h0.1v-0.1L129.7,290.9L129.7,290.9z"/>
	<polygon class="st11" points="129.1,291.1 129.1,291.2 129.2,291.2 129.2,291 129.1,291 	"/>
	<path class="st11" d="M138.7,294.6c0-0.2,0-0.5,0-0.7c-0.1-0.8-0.3-1.6-0.6-2.3l-0.1-0.1c-0.4-0.9-0.9-1.7-1.6-2.4
		c0-0.1-0.1-0.1-0.1-0.1l-0.4-0.4c-3.2-3-8.2-3-11.4,0c-0.4,0.3-0.7,0.7-1,1c-2.8,3.7-2.1,9,1.6,11.8c3.7,2.8,9,2.1,11.8-1.6
		c0.3-0.4,0.6-0.8,0.8-1.3c0.3-0.6,0.5-1.2,0.7-1.9c0-0.2,0.1-0.3,0.1-0.5c0.1-0.5,0.1-1,0.1-1.5L138.7,294.6z M137.1,291.3
		L137.1,291.3l0.2,0.4h-0.1h-0.1V291.3z M135.9,289.8v-0.4c0.1,0.1,0.3,0.3,0.4,0.4l-0.1,0.2h-0.5V290L135.9,289.8z M125.7,288.9
		h0.2v-0.1h0.3v0.1l-0.1,0.1h-0.4L125.7,288.9L125.7,288.9z M126,289.2h0.2v0.2h-0.4l-0.1-0.1L126,289.2z M137.7,292.6h-0.6
		l-0.4-0.3h-0.4v0.2h-0.1l-0.1-0.1l-0.7-0.2v-0.5l-0.9,0.1l-0.3,0.1h-0.3h-0.2l-0.4,0.2v0.4l-0.9,0.6l0.1,0.3h0.2l-0.1,0.2l-0.1,0
		v0.6l0.7,0.9h0.3v0h0.6l0.2-0.2h0.3l0.2,0.2l0.5,0l-0.1,0.6l0.6,1l-0.3,0.5v0.3l0.2,0.2v0.6l0.3,0.4v0.5h0.3
		c-2.7,3.3-7.6,3.8-10.9,1.2c-1.8-1.5-2.9-3.7-2.9-6c0-1,0.2-2.1,0.6-3v-0.3l0.3-0.3c0.1-0.2,0.2-0.4,0.3-0.5v0.1l-0.3,0.4
		c-0.1,0.2-0.2,0.4-0.3,0.6v0.4l0.3,0.2v0.6l0.3,0.5h0.2v-0.2l-0.3-0.5l-0.1-0.5h0.2l0.1,0.5l0.4,0.6l-0.1,0.2l0.3,0.4l0.7,0.2v-0.1
		h0.3v0.2h0.2l0.3,0.1l0.5,0.5h0.6l0.1,0.5l-0.4,0.3v0.4l-0.1,0.3l0.6,0.7v0.2l0.2,0.1l0.5,0.3v1.3l0.2,0l-0.1,0.6l0.3,0.4l-0.1,0.6
		l0.4,0.6l0.5,0.4h0.5v-0.1l-0.3-0.3v-0.1l0.1-0.2v-0.2h-0.2l-0.1-0.1l0.2-0.2v-0.1l-0.2-0.1v-0.1h0.3l0.5-0.2l0.1-0.3l0.5-0.6
		l-0.1-0.5l0.1-0.2h0.4l0.3-0.2l0.1-0.9l0.3-0.4v-0.3l-0.3-0.1L131,296h-0.7l-0.5-0.2v-0.4l-0.2-0.3h-0.5l-0.3-0.4l-0.2-0.1v0.1
		h-0.5l-0.2-0.2l-0.5-0.1l-0.4,0.5l-0.6-0.1l-0.1-0.7L126,294l0.2-0.4l-0.1-0.2l-0.6,0.4h-0.4l-0.1-0.3l0.1-0.3l0.2-0.4l0.5-0.2h0.9
		v0.3l0.3,0.1v-0.5l0.2-0.2l0.5-0.3v-0.2l0.5-0.5l0.5-0.3l0,0l0.3-0.3h0.1l0.1,0.1l0.1-0.1l0,0h-0.1l-0.1,0v0l0.1-0.1h0.2h0.1
		l0.1,0.1h0.1h0.2v-0.1h0.1v0.1l-0.1,0.1l0,0v0.1l0.4,0.1h0.1v-0.2l-0.3-0.2v-0.1l0.3-0.1v-0.3L130,290v-0.5l-0.4,0.2h-0.1v-0.4
		l-0.6-0.1l-0.2,0.2v0.5l-0.4,0.1l-0.2,0.3h-0.2v-0.4l-0.4,0l-0.2-0.1l-0.1-0.3l0.7-0.4l0.3-0.1v0.2h0.2v-0.1h0.2l0,0h-0.1V289h0.2
		l0.1-0.1l0,0v0l0.5-0.1l0.2,0.2l-0.6,0.3l0.8,0.2l0.1-0.2h0.3l0.1-0.2l-0.2-0.1v-0.4l-0.7-0.3l-0.5,0l-0.3,0.1v0.4h-0.3l-0.1-0.2
		l0.3-0.3h-0.5H128l-0.1,0.2h0.2v0.2h-0.3v0.1h-0.5c0-0.1,0-0.2,0-0.3h0.4l0.3-0.3l-0.1-0.1l-0.2,0.2h-0.3l-0.2-0.3h-0.4l-0.4,0.3
		h0.4v0.1l-0.1,0.1h0.6l0.1,0.2h-0.5v-0.1l-0.3-0.1l-0.2-0.1h-0.4c2.9-2.1,6.9-1.9,9.7,0.5l-0.1,0.2l-0.4,0.1l-0.1,0.2v0.2h0.2
		l0.1,0.3l0.3-0.1v0.4h-0.1h-0.3l-0.3,0l-0.3,0.4l-0.4,0.1L134,291h0.2l-0.1,0.2l-0.4-0.1l-0.4,0.1l-0.1,0.2l0.1,0.4l0.2,0.1h0.5
		h0.2l0.1-0.2l0.4-0.5h0.2l0.2-0.2v0.2l0.6,0.4l-0.1,0.1h-0.3l0.1,0.1h0.2l0.2-0.1v-0.2h0.1l-0.1-0.1l-0.4-0.2l-0.1-0.3h0.3l0.1,0.1
		l0.3,0.2v0.3l0.3,0.3l0.1-0.4l0.2-0.1v0.4l0.2,0.2h0.4C137.6,292.2,137.6,292.4,137.7,292.6L137.7,292.6z M126.5,290.1l0.2-0.1h0.2
		l-0.1,0.2l-0.2,0.1L126.5,290.1z M127.5,290.7v0.2h-0.5h-0.2l0.1-0.1l0.2-0.1L127.5,290.7L127.5,290.7L127.5,290.7z M127.7,290.9
		v0.1l-0.1,0.1h-0.1v-0.2L127.7,290.9z M127.6,290.9v-0.2l0.2,0.1L127.6,290.9z M127.7,291.2v0.1l-0.1,0.1h-0.2v-0.2h0.1v-0.1
		L127.7,291.2z M127.1,290.9h0.3l-0.3,0.5l-0.1-0.1v-0.2L127.1,290.9z M128.1,291.2v0.1h-0.2l-0.1-0.1v-0.1l0,0L128.1,291.2z
		 M127.8,291L127.8,291h0.2l-0.1,0.1L127.8,291z M137.8,293L137.8,293v0.1V293z"/>
	<path class="st11" d="M123.2,291.5v0.2c0.1-0.2,0.2-0.4,0.3-0.6L123.2,291.5z"/>
	<path class="st11" d="M136.5,300.2c2.9-3.3,2.8-8.2-0.2-11.4l0,0c-1.5-1.6-3.6-2.6-5.9-2.6h-0.6c-2.2,0.1-4.3,1-5.9,2.6l0,0
		c-3,3.2-3.1,8.1-0.2,11.4l0,0l0,0c1.5,1.7,3.7,2.7,6,2.8h0.6C132.7,303,134.9,302,136.5,300.2L136.5,300.2L136.5,300.2z
		 M122.3,294.9h3.5c0,1.2,0.3,2.4,0.7,3.6c-0.8,0.3-1.6,0.7-2.4,1.2C123,298.4,122.4,296.7,122.3,294.9z M124.3,289.4
		c0.7,0.5,1.5,0.8,2.3,1.1c-0.5,1.2-0.8,2.5-0.8,3.8h-3.5C122.4,292.5,123.1,290.8,124.3,289.4z M138,294.4h-3.5
		c0-1.3-0.3-2.6-0.8-3.8c0.8-0.3,1.6-0.7,2.3-1.1C137.2,290.8,137.9,292.5,138,294.4L138,294.4z M129.9,290.6
		c-0.8,0-1.7-0.2-2.5-0.4c0.6-1.2,1.4-2.3,2.5-3.2V290.6z M129.9,291.1v3.2h-3.5c0-1.2,0.3-2.5,0.8-3.6
		C128,291,128.9,291.1,129.9,291.1L129.9,291.1z M130.4,291.1c0.9,0,1.8-0.2,2.7-0.4c0.5,1.2,0.8,2.4,0.8,3.6h-3.5V291.1z
		 M130.4,290.6V287c1,0.9,1.9,2,2.5,3.2C132.1,290.4,131.3,290.5,130.4,290.6L130.4,290.6z M133.4,290c-0.6-1.2-1.3-2.3-2.3-3.2
		c1.7,0.2,3.2,1,4.4,2.1C134.9,289.4,134.2,289.8,133.4,290L133.4,290z M126.8,290c-0.7-0.3-1.5-0.6-2.1-1c1.2-1.2,2.8-1.9,4.4-2.1
		C128.2,287.8,127.4,288.8,126.8,290L126.8,290z M126.3,294.9h3.5v2.9c-1,0-1.9,0.2-2.8,0.5C126.6,297.2,126.4,296.1,126.3,294.9
		L126.3,294.9z M129.8,298.5v3.9c-1.1-1-2-2.1-2.6-3.5C128.1,298.6,129,298.5,129.8,298.5L129.8,298.5z M130.4,302.3v-3.8
		c0.9,0,1.7,0.2,2.6,0.4C132.4,300.2,131.5,301.4,130.4,302.3L130.4,302.3z M130.4,297.9v-2.9h3.5c0,1.2-0.3,2.3-0.7,3.4
		C132.3,298,131.4,297.9,130.4,297.9L130.4,297.9z M134.5,294.9h3.5c-0.1,1.7-0.7,3.4-1.8,4.8c-0.7-0.5-1.5-0.9-2.4-1.2
		C134.2,297.4,134.5,296.2,134.5,294.9L134.5,294.9z M124.5,300.1c0.7-0.5,1.4-0.8,2.2-1.1c0.6,1.3,1.4,2.4,2.4,3.4
		C127.3,302.2,125.7,301.4,124.5,300.1L124.5,300.1z M131.1,302.4c1-1,1.8-2.1,2.4-3.4c0.8,0.3,1.5,0.6,2.2,1.1
		C134.5,301.4,132.9,302.2,131.1,302.4L131.1,302.4z"/>
	<polygon class="st11" points="134.1,246 134.2,246.2 134,246.2 133.9,246.5 134.2,246.5 134.5,246.4 134.6,246.3 134.5,246.2 
		134.4,246.1 134.2,245.9 134.2,245.6 133.9,245.6 133.9,245.7 133.9,245.9 134,245.9 	"/>
	<polygon class="st11" points="133.9,246.1 133.9,246 133.8,245.9 133.6,246 133.4,246.2 133.4,246.4 133.6,246.4 	"/>
	<path class="st11" d="M129.7,246.9v0.1h-0.2v0.1l0,0v0.1h0.1l0.1,0V247h0.1v-0.1L129.7,246.9L129.7,246.9z"/>
	<polygon class="st11" points="129.1,247.1 129.1,247.2 129.2,247.2 129.2,247.1 129.1,247 	"/>
	<path class="st11" d="M138.7,250.6c0-0.2,0-0.5,0-0.7c-0.1-0.8-0.3-1.6-0.6-2.3l-0.1-0.1c-0.4-0.9-0.9-1.7-1.6-2.5l-0.1-0.1
		l-0.4-0.4c-3.2-3-8.2-3-11.4,0c-0.4,0.3-0.7,0.7-1,1c-2.8,3.7-2.1,9,1.6,11.8c3.7,2.8,9,2.1,11.8-1.6c0.3-0.4,0.6-0.8,0.8-1.3
		c0.3-0.6,0.5-1.2,0.7-1.9c0-0.2,0.1-0.3,0.1-0.5c0.1-0.5,0.1-1,0.1-1.5L138.7,250.6z M137.1,247.3L137.1,247.3l0.2,0.3h-0.1h-0.1
		V247.3z M135.9,245.8v-0.4c0.1,0.1,0.3,0.3,0.4,0.4l-0.1,0.2h-0.5V246L135.9,245.8z M125.7,244.9h0.2v-0.1h0.3v0.1l-0.1,0.1h-0.4
		L125.7,244.9L125.7,244.9z M126,245.2h0.2v0.2h-0.4l-0.1-0.1L126,245.2z M137.7,248.6h-0.6l-0.4-0.3h-0.4v0.2h-0.1l-0.1-0.1
		l-0.7-0.2v-0.5l-0.9,0.1l-0.3,0.1h-0.5l-0.4,0.2v0.4l-0.9,0.6l0.1,0.3h0.2l-0.1,0.2l-0.1,0v0.6l0.7,0.9h0.3v-0.1h0.6l0.2-0.1h0.3
		l0.2,0.2l0.5,0l-0.1,0.6l0.6,1l-0.3,0.5v0.2l0.2,0.2v0.6l0.3,0.4v0.5h0.3c-2.7,3.3-7.6,3.8-10.9,1.2c-1.8-1.5-2.9-3.7-2.9-6
		c0-1,0.2-2.1,0.6-3v-0.3l0.3-0.3c0.1-0.2,0.2-0.4,0.3-0.5v0.1l-0.3,0.4c-0.1,0.2-0.2,0.4-0.3,0.6v0.4l0.3,0.1v0.6l0.3,0.5h0.2v-0.2
		l-0.3-0.5l-0.1-0.4h0.2l0.1,0.5l0.4,0.6l-0.1,0.2l0.3,0.4l0.7,0.2v-0.1h0.3v0.2h0.2l0.3,0.1l0.5,0.5h0.6l0.1,0.5l-0.4,0.3v0.4
		l-0.1,0.3l0.6,0.7v0.2l0.2,0l0.5,0.4v1.3l0.2,0l-0.1,0.6l0.3,0.4l-0.1,0.6l0.4,0.6l0.5,0.4h0.5v-0.1l-0.3-0.3v-0.1l0.1-0.2v-0.2
		h-0.2l-0.1-0.1l0.2-0.2v-0.1l-0.2-0.1v-0.1h0.3l0.5-0.2l0.1-0.3l0.5-0.6l-0.1-0.5l0.1-0.3h0.4l0.3-0.2l0.1-0.9l0.3-0.4v-0.3
		l-0.3-0.1L131,252h-0.7l-0.5-0.2v-0.4l-0.2-0.3h-0.5l-0.3-0.4l-0.2-0.1v0.1h-0.5l-0.2-0.2l-0.5-0.1l-0.4,0.5l-0.6-0.1l-0.1-0.7
		l-0.4-0.1l0.2-0.3l-0.1-0.2l-0.6,0.4h-0.4l-0.1-0.3l0.1-0.3l0.2-0.4l0.5-0.2h0.9v0.3l0.3,0.1v-0.5l0.2-0.2l0.5-0.3v-0.2l0.5-0.5
		l0.5-0.3l0,0l0.3-0.3h0.1l0.1,0.1l0.1-0.1l0,0h-0.1l-0.1,0v0l0.1-0.1h0.2h0.1l0.1,0.1h0.1l0,0l0,0h0.2v-0.1h0.1v0.1l-0.1,0.1l0,0
		v0.1l0.4,0.1h0.1v-0.2l-0.3-0.2v-0.1l0.3-0.1v-0.3L130,246v-0.5l-0.4,0.2h-0.1v-0.4l-0.6-0.1l-0.2,0.2v0.5l-0.4,0.1l-0.2,0.3h-0.2
		V246l-0.4,0l-0.2-0.1l-0.1-0.3l0.7-0.4l0.3-0.1v0.2h0.2v-0.1h0.2l0,0h-0.1V245h0.2l0.1-0.1l0,0v0l0.5-0.1l0.2,0.2l-0.6,0.3l0.8,0.2
		l0.1-0.2h0.3l0.1-0.2l-0.2-0.1v-0.4l-0.7-0.3l-0.5,0.1l-0.3,0.1v0.4h-0.3l-0.1-0.2l0.3-0.3h-0.5H128l-0.1,0.2h0.2v0.2h-0.3v0.1
		h-0.5c0-0.1,0-0.2,0-0.3h0.4l0.3-0.3l-0.1-0.1l-0.2,0.2h-0.3l-0.2-0.3h-0.4l-0.4,0.4h0.4v0.1l-0.1,0.1h0.6l0.1,0.2h-0.5v-0.1
		l-0.3-0.1l-0.2-0.1h-0.4c2.9-2.1,6.9-2,9.7,0.5l-0.1,0.2l-0.4,0.1l-0.1,0.2v0.2h0.2l0.1,0.3l0.3-0.1v0.4h-0.1h-0.3h-0.3l-0.3,0.4
		l-0.4,0.1l-0.1,0.4h0.2l-0.1,0.2l-0.4-0.1l-0.4,0.1l-0.1,0.2l0.1,0.4l0.2,0.1h0.5h0.2l0.1-0.2l0.4-0.5h0.2l0.2-0.2v0.2l0.6,0.4
		l-0.1,0.1h-0.3l0.1,0.1h0.2l0.2-0.1v-0.2l0.1,0l-0.1-0.1l-0.4-0.2l-0.1-0.3h0.3l0.1,0.1l0.3,0.2v0.3l0.3,0.3l0.1-0.4l0.2-0.1v0.4
		l0.2,0.2h0.4C137.6,248.1,137.6,248.3,137.7,248.6L137.7,248.6z M126.5,246.1l0.2-0.1h0.2l-0.1,0.2l-0.2,0.1L126.5,246.1z
		 M127.5,246.7v0.2h-0.5l-0.2,0l0.1-0.1l0.2-0.1L127.5,246.7L127.5,246.7L127.5,246.7z M127.7,246.9v0.1l-0.1,0.1h-0.1v-0.2
		L127.7,246.9z M127.6,246.9v-0.2l0.2,0.1L127.6,246.9z M127.7,247.2v0.1l-0.1,0.1h-0.2v-0.2h0.1v-0.1L127.7,247.2z M127.1,246.9
		h0.3l-0.3,0.5l-0.1-0.1v-0.2L127.1,246.9z M128.1,247.2v0.1h-0.2l-0.1-0.1v-0.1l0,0L128.1,247.2z M127.8,247L127.8,247h0.2
		l-0.1,0.1L127.8,247z M137.8,249L137.8,249v0.1V249z"/>
	<path class="st11" d="M123.2,247.5v0.2c0.1-0.2,0.2-0.4,0.3-0.6L123.2,247.5z"/>
	<path class="st11" d="M136.5,256.2c2.9-3.3,2.8-8.2-0.2-11.4l0,0c-1.5-1.6-3.6-2.6-5.9-2.6h-0.6c-2.2,0.1-4.3,1-5.9,2.6l0,0
		c-3,3.2-3.1,8.1-0.2,11.4l0,0l0,0c1.5,1.7,3.7,2.7,6,2.8h0.6C132.7,259,134.9,258,136.5,256.2L136.5,256.2L136.5,256.2z
		 M122.3,250.9h3.5c0,1.2,0.3,2.4,0.7,3.6c-0.8,0.3-1.6,0.7-2.4,1.2C123,254.4,122.4,252.7,122.3,250.9z M124.3,245.4
		c0.7,0.5,1.5,0.8,2.3,1.1c-0.5,1.2-0.8,2.5-0.8,3.8h-3.5C122.4,248.5,123.1,246.8,124.3,245.4z M138,250.4h-3.5
		c0-1.3-0.3-2.6-0.8-3.8c0.8-0.3,1.6-0.7,2.3-1.1C137.2,246.8,137.9,248.5,138,250.4L138,250.4z M129.9,246.6
		c-0.8,0-1.7-0.1-2.5-0.4c0.6-1.2,1.4-2.3,2.5-3.2V246.6z M129.9,247.2v3.2h-3.5c0-1.2,0.3-2.5,0.8-3.6
		C128,247,128.9,247.1,129.9,247.2L129.9,247.2z M130.4,247.2c0.9,0,1.8-0.2,2.7-0.4c0.5,1.2,0.8,2.4,0.8,3.6h-3.5V247.2z
		 M130.4,246.6V243c1,0.9,1.9,2,2.5,3.2C132.1,246.4,131.3,246.5,130.4,246.6L130.4,246.6z M133.4,246c-0.6-1.2-1.3-2.2-2.3-3.1
		c1.7,0.2,3.2,1,4.4,2.1C134.9,245.4,134.2,245.8,133.4,246L133.4,246z M126.8,246c-0.7-0.2-1.5-0.6-2.1-1c1.2-1.2,2.8-1.9,4.4-2.1
		C128.2,243.8,127.4,244.8,126.8,246L126.8,246z M126.3,250.9h3.5v2.9c-1,0-1.9,0.2-2.8,0.5C126.6,253.2,126.4,252.1,126.3,250.9
		L126.3,250.9z M129.8,254.4v3.9c-1.1-1-2-2.1-2.6-3.5C128.1,254.6,129,254.5,129.8,254.4L129.8,254.4z M130.4,258.3v-3.9
		c0.9,0,1.7,0.2,2.6,0.4C132.4,256.2,131.5,257.4,130.4,258.3L130.4,258.3z M130.4,253.9v-2.9h3.5c0,1.2-0.3,2.3-0.7,3.4
		C132.3,254,131.4,253.9,130.4,253.9L130.4,253.9z M134.5,250.9h3.5c-0.1,1.7-0.7,3.4-1.8,4.8c-0.7-0.5-1.5-0.9-2.4-1.2
		C134.2,253.4,134.5,252.2,134.5,250.9L134.5,250.9z M124.5,256.1c0.7-0.4,1.4-0.8,2.2-1.1c0.6,1.3,1.4,2.4,2.4,3.4
		C127.3,258.2,125.7,257.4,124.5,256.1L124.5,256.1z M131.1,258.4c1-1,1.8-2.1,2.4-3.4c0.8,0.3,1.5,0.7,2.2,1.1
		C134.5,257.4,132.9,258.2,131.1,258.4L131.1,258.4z"/>
	<path class="st11" d="M120.9,272.7c0-4.2,2.1-6.1,4.5-6.1s4.5,1.9,4.5,6.1s-2.1,6.1-4.5,6.1S120.9,277,120.9,272.7z M127.8,272.7
		c0-2.4-1-3.8-2.4-3.8s-2.5,1.4-2.5,3.8s0.9,3.8,2.4,3.8S127.8,275.1,127.8,272.7L127.8,272.7z"/>
	<path class="st11" d="M131.5,266.7h2.1v5l3.3-5h2.6l-3.9,5.6l4,6.3H137l-3.4-5.7v5.7h-2.1V266.7z"/>
	<path class="st11" d="M120.9,404.7c0-4.2,2.1-6.1,4.5-6.1s4.5,1.9,4.5,6.1s-2.1,6.1-4.5,6.1S120.9,409,120.9,404.7z M127.8,404.7
		c0-2.4-1-3.8-2.4-3.8s-2.5,1.4-2.5,3.8s0.9,3.8,2.4,3.8S127.8,407.1,127.8,404.7L127.8,404.7z"/>
	<path class="st11" d="M131.5,398.7h2.1v5l3.3-5h2.6l-3.9,5.6l4,6.3H137l-3.4-5.7v5.7h-2.1V398.7z"/>
</g>
</svg>
