<?xml version="1.0" encoding="utf-8"?>
<!-- Generator: Adobe Illustrator 24.1.0, SVG Export Plug-In . SVG Version: 6.00 Build 0)  -->
<svg version="1.1" id="Réteg_1" xmlns="http://www.w3.org/2000/svg" xmlns:xlink="http://www.w3.org/1999/xlink" x="0px" y="0px"
	 viewBox="0 0 412 354.3" style="enable-background:new 0 0 412 354.3;" xml:space="preserve">
<style type="text/css">
	.st0{fill:#EFC902;}
	.st1{fill:#BEBBBA;}
	.st2{fill:#989797;}
	.st3{fill:#A4A1A1;}
	.st4{enable-background:new    ;}
	.st5{fill:#1D1D1B;}
</style>
<g id="fehér_alap">
	<path class="st0" d="M34.4,0h344.1C397,0,412,15,412,33.4v287.4c0,18.5-15,33.4-33.4,33.4H34.4C16,354.3,1,339.4,1,320.9V33.4
		C1,15,16,0,34.4,0z"/>
</g>
<g id="vörös_keret">
	<path d="M394.3,17.7c-5.9-5.9-13.8-9.2-22.2-9.2H40.9c-17.3,0-31.4,14-31.4,31.4v274.6c0,17.3,14.1,31.4,31.4,31.4h331.3
		c17.3,0,31.3-14,31.4-31.4V39.9C403.5,31.5,400.2,23.6,394.3,17.7z M389.3,314.5c0,9.5-7.7,17.2-17.2,17.2H40.9
		c-9.5,0-17.2-7.7-17.2-17.1c0,0,0,0,0,0V39.9c0-9.5,7.7-17.2,17.2-17.2c0,0,0,0,0,0h331.3c9.5,0,17.2,7.7,17.2,17.2L389.3,314.5z"
		/>
</g>
<path class="st1" d="M39,31.2h15.8l0,0v292l0,0H39.2c-3.9,0-7.1-3.2-7.1-7.1V38C32.2,34.2,35.2,31.2,39,31.2z"/>
<rect x="32.2" y="149.5" class="st2" width="22.7" height="56.7"/>
<polygon class="st3" points="48.1,176.5 48.1,176.6 47.9,176.7 47.9,177 48.1,177 48.5,176.9 48.7,176.7 48.5,176.6 48.3,176.5 
	48.2,176.3 48.1,175.9 47.8,176 47.7,176.1 47.7,176.2 47.9,176.3 "/>
<polygon class="st3" points="47.8,176.6 47.8,176.4 47.7,176.3 47.4,176.4 47.3,176.7 47.3,176.8 47.5,176.8 "/>
<path class="st3" d="M42.8,177.4l0,0.1h-0.3v0.1h0.1v0.1h0.2l0.1-0.1v-0.1H43v-0.1L42.8,177.4L42.8,177.4z"/>
<polygon class="st3" points="42.2,177.7 42.2,177.8 42.3,177.8 42.4,177.6 42.3,177.6 "/>
<path class="st3" d="M53.4,181.8c0-0.3,0-0.6,0-0.9c-0.1-0.9-0.3-1.8-0.7-2.7c0-0.1,0-0.1-0.1-0.2c-0.4-1.1-1.1-2-1.8-2.9l-0.2-0.2
	c-0.1-0.2-0.3-0.3-0.5-0.4c-3.7-3.5-9.5-3.5-13.3,0c-0.4,0.4-0.8,0.8-1.1,1.2c-3.3,4.3-2.5,10.5,1.8,13.8c4.3,3.3,10.5,2.5,13.8-1.8
	c0.4-0.5,0.7-1,1-1.5c0.4-0.7,0.6-1.4,0.8-2.2l0.1-0.6C53.4,183.1,53.5,182.5,53.4,181.8L53.4,181.8z M51.6,177.8L51.6,177.8
	c0.1,0.1,0.2,0.2,0.2,0.4h-0.1h-0.2L51.6,177.8z M50.2,176.1v-0.4c0.2,0.2,0.3,0.3,0.4,0.5l-0.2,0.3h-0.6v-0.1L50.2,176.1z
	 M38.3,175L38.3,175h0.2v0h0.3v0.1l-0.1,0.1h-0.4L38.3,175L38.3,175z M38.6,175.5h0.2v0.2h-0.5l-0.1-0.1L38.6,175.5z M52.2,179.4
	h-0.7l-0.4-0.3l-0.5,0.1v0.3h-0.1l-0.2-0.1l-0.8-0.2v-0.5l-1,0.1l-0.3,0.2h-0.4h-0.2l-0.5,0.3v0.5l-1,0.7l0.1,0.3h0.2v0.3l-0.1,0.1
	v0.8l0.9,1h0.4v-0.1h0.7l0.2-0.2h0.4l0.2,0.2l0.6,0.1l-0.1,0.8l0.6,1.1l-0.3,0.6v0.3l0.3,0.3v0.7l0.3,0.5v0.6h0.3
	c-3,3.9-8.7,4.7-12.6,1.7c-3.3-2.6-4.5-7.1-2.7-10.9v-0.3l0.3-0.4c0.1-0.2,0.2-0.4,0.4-0.6v0.2l-0.4,0.5c-0.1,0.2-0.2,0.4-0.3,0.7
	v0.5l0.4,0.2v0.7l0.4,0.6l0.3,0.1v-0.2l-0.3-0.5l0-0.5h0.2l0.1,0.5l0.5,0.7l-0.1,0.2l0.3,0.5l0.8,0.2v-0.1h0.3v0.2h0.2l0.4,0.1
	l0.5,0.6h0.7l0.1,0.6l-0.5,0.3v0.5l-0.1,0.3l0.7,0.9l0,0.3l0.3,0.1l0.5,0.4v1.6l0.2,0.1L41,188l0.3,0.4l-0.1,0.7l0.4,0.7l0.5,0.5
	h0.5v-0.2l-0.4-0.3v-0.2l0.1-0.2v-0.2h-0.3l-0.1-0.2l0.2-0.2v-0.2l-0.2-0.1v-0.1h0.3l0.5-0.3l0.2-0.3l0.6-0.7l-0.1-0.6l0.2-0.3h0.5
	l0.3-0.3l0.1-1.1l0.4-0.5l0.1-0.3l-0.3-0.1l-0.2-0.4h-0.8l-0.6-0.2v-0.4l-0.2-0.4h-0.6l-0.3-0.5l-0.3-0.1v0.2h-0.5l-0.2-0.3
	l-0.5-0.1l-0.5,0.5l-0.7-0.1l0-0.8l-0.5-0.1l0.2-0.4l-0.1-0.2l-0.7,0.5l-0.4-0.1l-0.2-0.3l0.1-0.4l0.2-0.4l0.5-0.3h1.1v0.3l0.4,0.2
	v-0.6l0.3-0.3l0.6-0.4v-0.3l0.6-0.6l0.6-0.3h0l0.4-0.4h0.1l0.1,0.1l0.2-0.2l0,0h-0.2l-0.2-0.1V177l0.1-0.1h0.2h0.1l0.1,0.2h0.1l0,0
	h0.3v-0.1h0.2v0.1l-0.2,0.1l0,0v0.2l0.5,0.2h0.1v-0.2l-0.4-0.2V177l0.3-0.1v-0.3l-0.3-0.2v-0.5L43,176h-0.2v-0.4l-0.6-0.1l-0.3,0.2
	v0.6l-0.5,0.1l-0.2,0.4H41v-0.5l-0.5-0.1l-0.2-0.1l-0.1-0.3l0.8-0.5l0.4-0.1v0.3h0.2v-0.1h0.2l0,0h-0.1v-0.1h0.3l0.2-0.2l0,0v-0.1
	l0.6-0.1l0.3,0.2l-0.7,0.4l0.9,0.2l0.1-0.3h0.4l0.1-0.2l-0.3-0.1v-0.3l-0.8-0.4l-0.6,0.1l-0.3,0.2v0.4l-0.3-0.1l0-0.2l0.3-0.3h-0.6
	l-0.2,0.1l-0.1,0.2h0.2v0.2h-0.4l-0.1,0.1h-0.6c0-0.1,0-0.2,0-0.3h0.4l0.3-0.3l-0.2-0.1l-0.2,0.2h-0.4l-0.1-0.4h-0.5l-0.5,0.4h0.5
	v0.1l-0.1,0.1h0.5l0.1,0.2h-0.6v-0.1l-0.4-0.1l-0.2-0.1h-0.5c3.4-2.5,8.1-2.3,11.3,0.5l-0.1,0.2l-0.4,0.2l-0.2,0.2v0.2h0.2l0.1,0.3
	l0.4-0.1l0.1,0.4h-0.1h-0.3l-0.3,0.1l-0.3,0.5l-0.5,0.1l-0.1,0.4l0.2,0.1v0.2l-0.5-0.1l-0.4,0.1l-0.1,0.2l0.1,0.5l0.2,0.1H48h0.3
	l0.1-0.2l0.4-0.6l0.3,0.1l0.3-0.3v0.2l0.7,0.5l-0.1,0.1h-0.3l0.1,0.2H50l0.2-0.1v-0.3l0.1-0.1l-0.1-0.1l-0.5-0.3l-0.1-0.4H50
	l0.1,0.1l0.3,0.3v0.4l0.3,0.4l0.1-0.5l0.2-0.1v0.4l0.2,0.3H52C52.1,178.9,52.2,179.2,52.2,179.4L52.2,179.4z M39.1,176.5l0.2-0.1
	l0.2,0.1l-0.1,0.3l-0.2,0.1L39.1,176.5z M40.4,177.2v0.2h-0.5h-0.2l0-0.1l0.3-0.1L40.4,177.2L40.4,177.2L40.4,177.2z M40.6,177.4
	v0.2l-0.1,0.1h-0.2v-0.3L40.6,177.4z M40.5,177.4v-0.2l0.2,0.2L40.5,177.4z M40.6,177.8v0.2l-0.1,0.1h-0.3l0-0.2h0.1v-0.1
	L40.6,177.8z M39.8,177.4h0.3l-0.4,0.5l-0.2-0.1v-0.2L39.8,177.4z M41.1,177.7v0.3h-0.3l-0.1-0.1v-0.2l0,0L41.1,177.7z M40.8,177.5
	L40.8,177.5H41l-0.1,0.1L40.8,177.5z M52.4,179.8L52.4,179.8v0.1V179.8z"/>
<path class="st3" d="M35.3,178.1v0.3c0.1-0.2,0.2-0.4,0.3-0.7L35.3,178.1z"/>
<path class="st3" d="M50.8,188.4c3.4-3.8,3.3-9.6-0.2-13.3l0,0c-1.8-1.9-4.2-3-6.8-3.1h-0.7c-2.6,0.1-5,1.2-6.8,3.1l0,0
	c-3.5,3.7-3.6,9.5-0.2,13.3l0,0l0,0c1.8,2,4.3,3.2,7,3.3h0.7C46.4,191.6,49,190.4,50.8,188.4L50.8,188.4L50.8,188.4z M34.3,182.2
	h4.1c0,1.4,0.3,2.8,0.8,4.1c-1,0.4-1.9,0.8-2.8,1.4C35.1,186.2,34.3,184.2,34.3,182.2z M36.6,175.7c0.8,0.5,1.7,1,2.7,1.3
	c-0.6,1.4-0.9,2.9-0.9,4.4h-4.1C34.4,179.4,35.2,177.3,36.6,175.7z M52.6,181.5h-4.1c0-1.5-0.4-3-0.9-4.4c0.9-0.3,1.8-0.8,2.7-1.3
	C51.7,177.3,52.5,179.4,52.6,181.5L52.6,181.5z M43.1,177.1c-1,0-1.9-0.2-2.9-0.4c0.7-1.4,1.7-2.7,2.9-3.8V177.1z M43.1,177.8v3.8
	H39c0-1.5,0.3-2.9,0.9-4.2C40.9,177.6,42,177.7,43.1,177.8L43.1,177.8z M43.8,177.8c1.1,0,2.1-0.2,3.2-0.5c0.6,1.3,0.9,2.8,0.9,4.2
	h-4.1L43.8,177.8z M43.8,177.1v-4.2c1.2,1,2.2,2.3,2.9,3.8C45.7,176.9,44.7,177,43.8,177.1L43.8,177.1z M47.3,176.4
	c-0.7-1.4-1.6-2.6-2.7-3.7c1.9,0.3,3.7,1.1,5.2,2.5C49,175.7,48.2,176.1,47.3,176.4L47.3,176.4z M39.6,176.4
	c-0.9-0.3-1.7-0.7-2.5-1.2c1.4-1.4,3.2-2.2,5.2-2.5C41.1,173.8,40.2,175,39.6,176.4L39.6,176.4z M39,182.2h4.1v3.4
	c-1.1,0-2.2,0.2-3.3,0.5C39.3,184.9,39,183.5,39,182.2z M43.1,186.3v4.5c-1.3-1.1-2.3-2.5-3-4.1C41,186.5,42.1,186.3,43.1,186.3
	L43.1,186.3z M43.7,190.8v-4.5c1,0,2,0.2,3,0.5C46,188.3,45,189.7,43.7,190.8L43.7,190.8z M43.7,185.6v-3.4h4.1
	c0,1.3-0.3,2.7-0.8,3.9C45.9,185.8,44.9,185.6,43.7,185.6L43.7,185.6z M48.5,182.2h4.1c-0.1,2-0.8,4-2.1,5.6c-0.9-0.6-1.8-1-2.8-1.4
	C48.2,185,48.5,183.6,48.5,182.2L48.5,182.2z M36.8,188.3c0.8-0.5,1.7-0.9,2.6-1.3c0.7,1.5,1.6,2.9,2.8,4
	C40.2,190.7,38.3,189.8,36.8,188.3L36.8,188.3z M44.6,191c1.2-1.1,2.1-2.5,2.8-4c0.9,0.3,1.8,0.8,2.6,1.3
	C48.6,189.8,46.7,190.7,44.6,191L44.6,191z"/>
<polygon class="st3" points="47.7,98 47.7,98.1 47.5,98.2 47.5,98.5 47.7,98.5 48.1,98.4 48.2,98.2 48.1,98.2 47.9,98.1 47.8,97.8 
	47.7,97.5 47.5,97.6 47.4,97.7 47.4,97.8 47.5,97.9 "/>
<polygon class="st3" points="47.5,98.1 47.5,97.9 47.3,97.9 47.1,97.9 46.9,98.2 46.9,98.4 47.1,98.4 "/>
<path class="st3" d="M42.9,98.9V99h-0.2v0.1h0.1v0.1h0.1l0.1-0.1l0-0.1h0.1v-0.1L42.9,98.9L42.9,98.9z"/>
<polygon class="st3" points="42.3,99.1 42.3,99.2 42.4,99.2 42.5,99.1 42.4,99 "/>
<path class="st3" d="M52.6,102.9c0-0.3,0-0.5,0-0.8c-0.1-0.8-0.3-1.7-0.6-2.4c0-0.1,0-0.1-0.1-0.2c-0.4-1-1-1.8-1.7-2.6l-0.1-0.1
	c-0.1-0.1-0.3-0.3-0.4-0.4c-3.4-3.2-8.7-3.2-12.2,0c-0.4,0.4-0.7,0.7-1,1.1c-3,4-2.2,9.6,1.7,12.6s9.6,2.2,12.6-1.7
	c0.7-1,1.3-2.1,1.6-3.3c0-0.2,0.1-0.4,0.1-0.5C52.6,104,52.7,103.5,52.6,102.9L52.6,102.9z M50.9,99.3L50.9,99.3
	c0.1,0.1,0.2,0.2,0.2,0.4h-0.1h-0.2V99.3z M49.6,97.7v-0.4c0.1,0.2,0.3,0.3,0.4,0.5L49.9,98h-0.6v-0.1L49.6,97.7z M38.7,96.7
	L38.7,96.7h0.2v-0.1h0.3v0.1l-0.1,0.1h-0.4L38.7,96.7L38.7,96.7z M39,97.1h0.2v0.2h-0.4l-0.1-0.1L39,97.1z M51.5,100.7h-0.7
	l-0.4-0.3H50v0.3h-0.1l-0.2-0.1l-0.7-0.2V100l-0.9,0.1l-0.3,0.2h-0.4h-0.2l-0.5,0.2v0.5l-0.9,0.7l0.1,0.3h0.2l0,0.3h-0.1v0.7
	l0.8,0.9h0.3l0,0h0.6l0.2-0.2h0.3l0.2,0.2l0.5,0.1l-0.1,0.7l0.6,1l-0.3,0.6v0.3l0.2,0.2v0.7l0.3,0.4v0.6H50
	c-2.9,3.5-8.1,4.1-11.6,1.2c-1.9-1.6-3.1-3.9-3-6.4c0-1.1,0.2-2.2,0.7-3.2v-0.3l0.3-0.4c0.1-0.2,0.2-0.4,0.3-0.6v0.2l-0.3,0.4
	c-0.1,0.2-0.2,0.4-0.3,0.6v0.5l0.3,0.2v0.7l0.3,0.6h0.3v-0.2l-0.3-0.5l-0.1-0.5h0.2l0.1,0.5l0.5,0.7l-0.1,0.2l0.3,0.4l0.7,0.2v-0.1
	h0.3v0.2l0.2,0.1l0.3,0.1l0.5,0.6h0.6l0.1,0.5l-0.4,0.3v0.5l-0.1,0.3l0.6,0.8v0.3l0.3,0.1l0.5,0.4v1.4h0.2l-0.1,0.7l0.3,0.4l0,0.7
	l0.4,0.7l0.5,0.4h0.5l0-0.2l-0.4-0.3v-0.2l0.1-0.2v-0.2h-0.2l-0.1-0.2l0.2-0.2V109l-0.2-0.1v-0.1h0.3l0.5-0.2l0.2-0.3l0.5-0.7
	l-0.1-0.5l0.2-0.3h0.5l0.3-0.2l0.1-1l0.3-0.4l0.1-0.3l-0.3-0.1l-0.2-0.3h-0.7l-0.6-0.2v-0.4l-0.2-0.3h-0.4l-0.3-0.5l-0.3-0.1v0.1
	h-0.5l-0.2-0.2l-0.5-0.1l-0.4,0.5l-0.7-0.1v-0.7l-0.5-0.1l0.2-0.4l-0.1-0.2l-0.6,0.4l-0.4-0.1l-0.1-0.3l0.1-0.3l0.2-0.4l0.5-0.3h1
	v0.3l0.3,0.2v-0.5l0.2-0.3l0.5-0.3v-0.2l0.5-0.5l0.5-0.3l0,0l0.4-0.3h0.1l0.1,0.1l0.1-0.2l0,0h-0.2h-0.2v-0.2l0.1-0.1h0.2h0.1
	l0.1,0.1H43h0.3v-0.1h0.2v0.1l-0.1,0.1l0,0v0.1l0.5,0.2h0.1v-0.2l-0.4-0.2v-0.1l0.3-0.1V98l-0.3-0.2v-0.5L43,97.6h-0.2v-0.4
	l-0.6-0.1L42,97.3v0.6L41.6,98l-0.2,0.4h-0.2v-0.5l-0.4-0.1l-0.2-0.1l-0.1-0.3l0.8-0.4l0.4-0.1v0.2h0.2V97h0.2l0,0H42v-0.1h0.3
	l0.2-0.2l0,0l0,0h0l0.5-0.1l0.2,0.2l-0.6,0.3l0.8,0.2l0.1-0.3h0.3l0.1-0.2l-0.2-0.1v-0.5L43,96l-0.5,0.1l-0.3,0.2v0.4h-0.3v-0.2
	l0.3-0.3h-0.5l-0.2,0.1l-0.1,0.2h0.2v0.2h-0.3v0.1h-0.5c0-0.1,0-0.2,0-0.3H41l0.3-0.3L41.1,96l-0.2,0.2h-0.4l-0.2-0.3h-0.5l-0.5,0.4
	h0.5v0.1l-0.1,0.1h0.5l0.1,0.2h-0.6v-0.1l-0.3-0.1l-0.2-0.1h-0.4c1.4-1,3.1-1.6,4.9-1.6c2,0,4,0.7,5.5,2.1l0,0.1l-0.4,0.2l-0.2,0.2
	v0.2h0.2l0.1,0.3l0.3-0.1l0.1,0.4H49h-0.3h-0.3l-0.3,0.4l-0.4,0.1L47.7,99h0.2v0.2l-0.4-0.1L47,99.2L47,99.4l0.1,0.5l0.2,0.1h0.4
	h0.3l0.1-0.2l0.4-0.5h0.3l0.3-0.2l0,0.2l0.7,0.4l-0.1,0.1h-0.3l0.1,0.2h0.2l0.2-0.1v-0.2h0.1l-0.1-0.1l-0.4-0.2L49.2,99h0.3l0.1,0.1
	l0.3,0.3v0.3l0.3,0.3l0.1-0.5l0.2-0.1v0.4l0.2,0.2h0.4C51.3,100.3,51.4,100.5,51.5,100.7L51.5,100.7z M39.5,98.1l0.2-0.1h0.2
	l-0.1,0.3l-0.2,0.1L39.5,98.1z M40.6,98.7v0.2h-0.5H40l0-0.1l0.2-0.1L40.6,98.7L40.6,98.7L40.6,98.7z M40.9,99v0.2l-0.1,0.1h-0.2V99
	L40.9,99z M40.7,98.9v-0.2l0.2,0.2L40.7,98.9z M40.8,99.3v0.2l-0.1,0.1h-0.3v-0.2h0.1v-0.1L40.8,99.3z M40.2,99h0.3l-0.3,0.5
	l-0.1-0.1v-0.2L40.2,99z M41.3,99.3v0.2H41l-0.1-0.1v-0.1l0,0L41.3,99.3z M41,99L41,99h0.2l-0.1,0.1L41,99z M51.6,101.1L51.6,101.1
	v0.1V101.1z"/>
<path class="st3" d="M36,99.5v0.3c0.1-0.2,0.2-0.4,0.3-0.6L36,99.5z"/>
<path class="st3" d="M50.2,108.9c3.1-3.5,3-8.7-0.2-12.1l0,0c-1.6-1.7-3.9-2.8-6.3-2.8h-0.6c-2.4,0.1-4.6,1.1-6.2,2.8l0,0
	c-3.2,3.4-3.3,8.7-0.2,12.1l0,0l0,0c1.6,1.8,4,2.9,6.4,3h0.6C46.2,111.8,48.5,110.7,50.2,108.9L50.2,108.9L50.2,108.9z M35.1,103.2
	h3.7c0,1.3,0.3,2.6,0.8,3.8c-0.9,0.3-1.8,0.8-2.5,1.3C35.8,106.9,35.1,105.1,35.1,103.2z M37.2,97.3c0.8,0.5,1.6,0.9,2.5,1.2
	c-0.5,1.3-0.8,2.7-0.8,4.1h-3.7C35.1,100.7,35.9,98.8,37.2,97.3z M51.8,102.6h-3.7c0-1.4-0.3-2.8-0.9-4.1c0.9-0.3,1.7-0.7,2.5-1.2
	C51,98.8,51.7,100.7,51.8,102.6z M43.1,98.6c-0.9,0-1.8-0.2-2.6-0.4c0.6-1.3,1.5-2.5,2.6-3.4V98.6z M43.1,99.2v3.4h-3.7
	c0-1.3,0.3-2.6,0.8-3.9C41.2,99,42.1,99.2,43.1,99.2L43.1,99.2z M43.7,99.2c1,0,2-0.2,2.9-0.4c0.5,1.2,0.8,2.5,0.8,3.9h-3.7V99.2z
	 M43.7,98.6v-3.9c1.1,1,2,2.1,2.6,3.4C45.5,98.4,44.6,98.5,43.7,98.6L43.7,98.6z M47,98c-0.6-1.3-1.4-2.4-2.5-3.4
	c1.8,0.2,3.4,1,4.7,2.3C48.5,97.4,47.8,97.7,47,98z M39.9,98c-0.8-0.3-1.6-0.6-2.3-1.1c1.3-1.2,2.9-2,4.7-2.3
	C41.3,95.6,40.5,96.7,39.9,98z M39.4,103.3h3.7v3.1c-1,0-2,0.2-3,0.5C39.7,105.7,39.4,104.5,39.4,103.3L39.4,103.3z M43.1,107v4.1
	c-1.2-1-2.1-2.3-2.8-3.7C41.3,107.2,42.2,107,43.1,107z M43.7,111.1V107c0.9,0,1.9,0.2,2.8,0.4C45.9,108.8,44.9,110.1,43.7,111.1
	L43.7,111.1z M43.7,106.4v-3.1h3.7c0,1.2-0.3,2.4-0.7,3.6C45.8,106.6,44.8,106.4,43.7,106.4L43.7,106.4z M48.1,103.3h3.7
	c-0.1,1.9-0.8,3.7-2,5.1c-0.8-0.5-1.6-1-2.5-1.3C47.8,105.8,48,104.5,48.1,103.3L48.1,103.3z M37.4,108.8c0.7-0.5,1.5-0.9,2.3-1.2
	c0.6,1.4,1.5,2.6,2.6,3.6C40.5,111,38.7,110.1,37.4,108.8L37.4,108.8z M44.5,111.3c1.1-1,2-2.3,2.6-3.6c0.8,0.3,1.6,0.7,2.3,1.2
	C48.1,110.1,46.4,111,44.5,111.3L44.5,111.3z"/>
<polygon class="st3" points="47.7,51 47.7,51.1 47.5,51.2 47.5,51.5 47.7,51.5 48.1,51.4 48.2,51.2 48.1,51.2 47.9,51.1 47.8,50.8 
	47.7,50.5 47.5,50.6 47.4,50.7 47.4,50.8 47.5,50.9 "/>
<polygon class="st3" points="47.5,51.1 47.5,50.9 47.3,50.9 47.1,50.9 46.9,51.2 46.9,51.4 47.1,51.4 "/>
<path class="st3" d="M42.9,51.9V52h-0.2v0.1h0.1v0.1h0.1l0.1,0l0-0.1h0.1v-0.1L42.9,51.9L42.9,51.9z"/>
<polygon class="st3" points="42.3,52.1 42.3,52.2 42.4,52.2 42.5,52.1 42.4,52 "/>
<path class="st3" d="M52.6,55.9c0-0.3,0-0.5,0-0.8c-0.1-0.8-0.3-1.7-0.6-2.5c0-0.1,0-0.1-0.1-0.2c-0.4-1-1-1.8-1.7-2.6l-0.1-0.2
	c-0.1-0.1-0.3-0.3-0.4-0.4c-3.4-3.2-8.7-3.2-12.2,0c-0.4,0.3-0.7,0.7-1,1.1c-3,4-2.2,9.6,1.8,12.6c4,3,9.6,2.2,12.6-1.8
	c0.3-0.4,0.5-0.8,0.8-1.2c0.3-0.6,0.6-1.3,0.7-2c0-0.2,0.1-0.3,0.1-0.5C52.6,57,52.6,56.5,52.6,55.9L52.6,55.9z M50.9,52.3
	L50.9,52.3l0.2,0.3h-0.1h-0.2V52.3z M49.6,50.7v-0.4c0.1,0.2,0.3,0.3,0.4,0.5l-0.2,0.2h-0.6v-0.1L49.6,50.7z M38.7,49.7h0.2v-0.1
	h0.3v0.1l-0.1,0.1h-0.4L38.7,49.7L38.7,49.7z M39,50.1h0.2v0.2h-0.4l-0.1-0.1L39,50.1z M51.5,53.7h-0.7l-0.4-0.3H50v0.2h-0.1
	l-0.2-0.1L49,53.4V53l-0.9,0.1l-0.3,0.2h-0.4h-0.2l-0.5,0.2v0.5l-0.9,0.7l0.1,0.3h0.2l0,0.3H46v0.7l0.8,0.9h0.3v0h0.6l0.2-0.2h0.3
	l0.2,0.2l0.5,0l-0.1,0.7l0.6,1l-0.3,0.6v0.3l0.2,0.2v0.7l0.3,0.4v0.5H50c-2.9,3.5-8.1,4-11.6,1.1c-2.8-2.3-3.8-6.2-2.4-9.5v-0.2
	l0.3-0.4c0.1-0.2,0.2-0.4,0.3-0.6v0.2l-0.3,0.4c-0.1,0.2-0.2,0.4-0.3,0.6v0.5l0.3,0.2v0.7l0.3,0.6h0.3v-0.2L36.6,54l-0.1-0.5h0.2
	l0.1,0.5l0.5,0.7l-0.1,0.2l0.3,0.5l0.7,0.2v-0.1h0.3v0.2h0.2l0.3,0.1l0.5,0.6h0.6l0.1,0.5l-0.4,0.3v0.5l-0.1,0.3l0.6,0.8v0.3
	l0.3,0.1l0.5,0.4v1.4h0.2l-0.1,0.7l0.3,0.4l0,0.7l0.4,0.7l0.5,0.4h0.5l0-0.2L42.5,63v-0.2l0.1-0.2v-0.2h-0.2l-0.1-0.2l0.2-0.2V62
	l-0.2-0.1v-0.1l0.3,0l0.5-0.2l0.2-0.3l0.5-0.7L43.5,60l0.2-0.3h0.5l0.3-0.2l0.1-1l0.3-0.5l0.1-0.3l-0.3-0.1l-0.2-0.3h-0.7l-0.6-0.2
	v-0.4L43,56.4h-0.5l-0.3-0.5l-0.3-0.1v0.2h-0.5l-0.2-0.2l-0.5-0.1L40.3,56l-0.7-0.1v-0.8l-0.5-0.1l0.2-0.4l-0.1-0.2L38.7,55h-0.4
	l-0.1-0.3l0.1-0.3l0.2-0.4l0.5-0.2h1V54l0.3,0.2v-0.5l0.2-0.2l0.5-0.3v-0.2l0.5-0.5l0.5-0.3l0,0l0.4-0.3h0.1l0.1,0.1l0.1-0.2l0,0
	h-0.2h-0.2v-0.2l0.1-0.1h0.2h0.1l0.1,0.2H43l0,0h0.3v-0.1h0.2v0.1l-0.1,0.1l0,0v0.2l0.5,0.1h0.1v-0.2l-0.4-0.2v-0.1l0.3-0.1V51
	l-0.3-0.2v-0.5L43,50.6h-0.2v-0.4L42.3,50L42,50.2v0.6l-0.4,0.1l-0.2,0.4h-0.2v-0.5l-0.4-0.1l-0.2-0.1l-0.1-0.3l0.8-0.3l0.4-0.1v0.2
	h0.2V50h0.2l0,0H42v-0.1h0.3l0.2-0.2l0,0h0l0.5-0.1l0.2,0.2l-0.6,0.3l0.8,0.2l0.1-0.3h0.3l0.1-0.2l-0.2-0.1v-0.3L43,49l-0.5,0.1
	l-0.3,0.2v0.4l-0.3,0v-0.2l0.3-0.3h-0.5h-0.2l-0.1,0.2h0.2v0.2h-0.3v0.1h-0.5c0-0.1,0-0.2,0-0.3H41l0.3-0.3l-0.2,0l-0.2,0.2h-0.4
	l-0.2-0.3h-0.5l-0.5,0.4h0.5v0.1l-0.1,0.1h0.5l0.1,0.2h-0.6v-0.1l-0.3-0.1l-0.2-0.1h-0.4c3.1-2.3,7.4-2.1,10.3,0.5l0,0.1l-0.4,0.2
	l-0.2,0.2v0.2h0.2l0.1,0.3l0.3-0.1l0.1,0.4H49h-0.3l-0.3,0l-0.3,0.4l-0.4,0.1L47.7,52h0.2v0.2l-0.4-0.1L47,52.2L47,52.5l0.1,0.5
	l0.2,0.1h0.4h0.3l0.1-0.2l0.4-0.5l0.3,0l0.3-0.2l0,0.2l0.7,0.4l-0.1,0.1h-0.3l0.1,0.2h0.2l0.2-0.1v-0.2h0.1l-0.1-0.1l-0.4-0.2
	L49.2,52h0.3l0.1,0.1l0.3,0.3v0.3l0.3,0.3l0.1-0.5l0.2-0.1v0.4l0.2,0.2h0.4C51.3,53.3,51.4,53.5,51.5,53.7L51.5,53.7z M39.5,51.1
	l0.2-0.1h0.2l-0.1,0.3l-0.2,0.1L39.5,51.1z M40.6,51.7v0.2h-0.5l-0.1,0l0-0.1l0.2-0.1L40.6,51.7L40.6,51.7L40.6,51.7z M40.9,52v0.2
	l-0.1,0.1h-0.2V52L40.9,52z M40.7,51.9v-0.2l0.2,0.2L40.7,51.9z M40.8,52.3v0.2l-0.1,0.1h-0.3v-0.2h0.1v-0.1L40.8,52.3z M40.2,52
	h0.3l-0.3,0.5l-0.1-0.1v-0.2L40.2,52z M41.3,52.3v0.2H41l-0.1-0.1v-0.2l0,0L41.3,52.3z M41,52L41,52h0.2l-0.1,0.1L41,52z M51.6,54.1
	L51.6,54.1v0.1V54.1z"/>
<path class="st3" d="M36,52.5v0.2c0.1-0.2,0.2-0.4,0.3-0.6L36,52.5z"/>
<path class="st3" d="M50.2,61.9c3.1-3.5,3-8.7-0.2-12.1l0,0c-1.6-1.7-3.9-2.8-6.3-2.8h-0.6c-2.4,0.1-4.6,1.1-6.2,2.8l0,0
	c-3.2,3.4-3.3,8.7-0.2,12.1l0,0l0,0c1.6,1.8,4,2.9,6.4,3h0.6C46.2,64.8,48.5,63.7,50.2,61.9L50.2,61.9L50.2,61.9z M35.1,56.2h3.7
	c0,1.3,0.3,2.6,0.8,3.8c-0.9,0.3-1.8,0.7-2.5,1.3C35.8,59.9,35.1,58.1,35.1,56.2z M37.2,50.3c0.8,0.5,1.6,0.9,2.5,1.2
	c-0.5,1.3-0.8,2.7-0.8,4.1h-3.7C35.1,53.7,35.9,51.8,37.2,50.3z M51.8,55.6h-3.7c0-1.4-0.3-2.8-0.9-4.1c0.9-0.3,1.7-0.7,2.5-1.2
	C51,51.8,51.7,53.7,51.8,55.6z M43.1,51.6c-0.9,0-1.8-0.2-2.6-0.4c0.6-1.3,1.5-2.5,2.6-3.4V51.6z M43.1,52.2v3.4h-3.7
	c0-1.3,0.3-2.6,0.8-3.9C41.2,52,42.1,52.2,43.1,52.2z M43.7,52.2c1,0,2-0.2,2.9-0.4c0.5,1.2,0.8,2.5,0.8,3.9h-3.7V52.2z M43.7,51.6
	v-3.8c1.1,1,2,2.1,2.6,3.4C45.5,51.4,44.6,51.5,43.7,51.6z M47,51c-0.6-1.3-1.4-2.4-2.5-3.4c1.8,0.2,3.4,1,4.7,2.3
	C48.5,50.4,47.8,50.7,47,51z M39.9,51c-0.8-0.3-1.6-0.6-2.3-1.1c1.3-1.2,2.9-2,4.7-2.3C41.3,48.6,40.5,49.7,39.9,51z M39.4,56.3h3.7
	v3.1c-1,0-2,0.2-3,0.5C39.7,58.7,39.4,57.5,39.4,56.3L39.4,56.3z M43.1,60v4.1c-1.2-1-2.1-2.3-2.8-3.7C41.3,60.2,42.2,60,43.1,60z
	 M43.7,64.1V60c0.9,0,1.9,0.2,2.8,0.4C45.9,61.8,44.9,63.1,43.7,64.1L43.7,64.1z M43.7,59.4v-3.1h3.7c0,1.2-0.3,2.4-0.7,3.6
	C45.8,59.5,44.8,59.4,43.7,59.4L43.7,59.4z M48.1,56.3h3.7c-0.1,1.9-0.8,3.7-2,5.1c-0.8-0.6-1.6-1-2.5-1.3
	C47.8,58.8,48,57.5,48.1,56.3L48.1,56.3z M37.4,61.8c0.7-0.5,1.5-0.9,2.3-1.2c0.6,1.4,1.5,2.6,2.6,3.6C40.5,64,38.7,63.1,37.4,61.8z
	 M44.5,64.3c1.1-1,2-2.3,2.6-3.6c0.8,0.3,1.6,0.7,2.3,1.2C48.1,63.1,46.4,64,44.5,64.3z"/>
<path class="st3" d="M33.6,79.5c0-4.5,2.3-6.5,4.8-6.5s4.8,2,4.8,6.5S40.9,86,38.4,86S33.6,84.1,33.6,79.5z M41,79.5
	c0-2.6-1-4-2.6-4s-2.6,1.5-2.6,4s1,4.1,2.6,4.1S41,82.1,41,79.5L41,79.5z"/>
<path class="st3" d="M44.9,73.1h2.2v5.4l3.5-5.4h2.8l-4.2,6l4.3,6.7h-2.7l-3.6-6v6.1h-2.2V73.1z"/>
<polygon class="st3" points="47.7,302.1 47.7,302.2 47.5,302.2 47.5,302.5 47.7,302.5 48.1,302.5 48.2,302.3 48.1,302.2 47.9,302.1 
	47.8,301.9 47.7,301.6 47.5,301.6 47.4,301.7 47.4,301.9 47.5,302 "/>
<polygon class="st3" points="47.5,302.2 47.5,302 47.3,301.9 47.1,302 46.9,302.2 46.9,302.4 47.1,302.4 "/>
<path class="st3" d="M42.9,302.9v0.1h-0.2v0.1h0.1v0.1h0.1l0.1-0.1v-0.1h0.1V303L42.9,302.9L42.9,302.9z"/>
<polygon class="st3" points="42.3,303.2 42.3,303.3 42.4,303.3 42.5,303.1 42.4,303.1 "/>
<path class="st3" d="M52.6,307c0-0.3,0-0.5,0-0.8c-0.1-0.8-0.3-1.7-0.6-2.5c0-0.1,0-0.1-0.1-0.2c-0.4-1-1-1.8-1.7-2.6l-0.1-0.1
	l-0.4-0.4c-3.4-3.2-8.7-3.2-12.2,0c-0.4,0.4-0.7,0.7-1,1.1c-3,4-2.2,9.6,1.8,12.6c4,3,9.6,2.2,12.6-1.8c0.3-0.4,0.6-0.8,0.8-1.3
	c0.3-0.6,0.6-1.3,0.7-2c0-0.2,0.1-0.4,0.1-0.5C52.6,308.1,52.6,307.6,52.6,307L52.6,307z M50.9,303.4L50.9,303.4
	c0.1,0.1,0.2,0.2,0.2,0.4h-0.1h-0.2V303.4z M49.6,301.8v-0.4c0.1,0.1,0.3,0.3,0.4,0.5l-0.2,0.2h-0.6V302L49.6,301.8z M38.7,300.8
	L38.7,300.8h0.2v-0.1h0.3v0.1l-0.1,0.1h-0.4L38.7,300.8L38.7,300.8z M39,301.2h0.2v0.2h-0.4l-0.1-0.1L39,301.2z M51.5,304.8h-0.7
	l-0.4-0.3H50v0.3h-0.1l-0.2-0.1l-0.7-0.2V304l-0.9,0.1l-0.3,0.1h-0.4h-0.2l-0.5,0.2v0.5l-0.9,0.7l0.1,0.3h0.2l0,0.3H46v0.7l0.8,0.9
	h0.3v0h0.6l0.2-0.2h0.3l0.2,0.2l0.5,0.1l-0.1,0.7l0.6,1l-0.3,0.6v0.3l0.2,0.2v0.7l0.3,0.4v0.5H50c-2.9,3.5-8.1,4.1-11.6,1.2
	c-1.9-1.6-3.1-3.9-3.1-6.4c0-1.1,0.2-2.2,0.7-3.2v-0.3l0.3-0.4c0.1-0.2,0.2-0.4,0.3-0.6v0.1l-0.3,0.4c-0.1,0.2-0.2,0.4-0.3,0.6v0.5
	l0.3,0.2v0.6l0.3,0.6h0.3v-0.2l-0.3-0.5l-0.1-0.5h0.2l0.1,0.5l0.5,0.7l-0.1,0.2l0.3,0.4l0.7,0.2v-0.1h0.3v0.2l0.2,0l0.3,0.1l0.5,0.6
	h0.6l0.1,0.5l-0.4,0.3v0.5l-0.1,0.3l0.6,0.8v0.3l0.3,0.1l0.5,0.4v1.4h0.2l-0.1,0.6l0.3,0.4l0,0.6l0.4,0.7l0.5,0.4h0.5l0-0.2
	l-0.4-0.3v-0.1l0.1-0.2v-0.2h-0.2l-0.1-0.1l0.2-0.2v-0.1l-0.2-0.1v-0.1l0.3,0l0.5-0.2l0.2-0.3l0.5-0.7l-0.1-0.5l0.2-0.3h0.5l0.3-0.2
	l0.1-1l0.3-0.5l0.1-0.3l-0.3-0.1l-0.2-0.4h-0.7l-0.6-0.2v-0.4l-0.2-0.3h-0.4l-0.3-0.5l-0.3-0.1v0.1h-0.5l-0.2-0.2l-0.5-0.1l-0.4,0.5
	l-0.7-0.1v-0.7l-0.5-0.1l0.2-0.4l-0.1-0.2l-0.6,0.4l-0.4,0l-0.1-0.3l0.1-0.3l0.2-0.4l0.5-0.2h1v0.3l0.3,0.2v-0.5l0.2-0.3l0.5-0.3
	v-0.2l0.5-0.5l0.5-0.3l0,0l0.4-0.3h0.1l0.1,0.1l0.1-0.1l0,0h-0.2h-0.2v-0.1l0.1-0.1h0.2h0.1l0.1,0.1H43h0.3v-0.1h0.2v0.1l-0.1,0.1
	l0,0v0.1l0.5,0.1h0.1v-0.2l-0.4-0.2v-0.1l0.3-0.1V302l-0.3-0.2v-0.5l-0.4,0.2h-0.2v-0.4l-0.6-0.1l-0.2,0.2v0.6l-0.4,0.1l-0.2,0.4
	h-0.2V302l-0.4-0.1l-0.2-0.1l-0.1-0.3l0.7-0.4l0.4-0.1v0.2h0.2v-0.1H42l0,0h-0.1V301h0.3l0.2-0.2l0,0l0,0l0,0l0.5-0.1l0.2,0.2
	l-0.6,0.3l0.8,0.2l0.1-0.3h0.3l0.1-0.2l-0.2-0.1v-0.3L43,300l-0.5,0.1l-0.3,0.2v0.4l-0.3,0v-0.2l0.3-0.3h-0.5l-0.2,0l-0.1,0.2h0.2
	v0.2h-0.3v0.1h-0.5c0-0.1,0-0.2,0-0.3H41l0.3-0.3l-0.2-0.1l-0.2,0.2h-0.4l-0.2-0.3h-0.5l-0.5,0.4h0.5v0.1l-0.1,0.1h0.5l0.1,0.2h-0.6
	v-0.1l-0.3-0.1l-0.2-0.1h-0.4c1.4-1,3.1-1.6,4.9-1.6c2,0,4,0.7,5.5,2.1L49,301l-0.4,0.1l-0.2,0.2v0.2h0.2l0.1,0.3l0.3-0.1l0.1,0.4
	H49h-0.3l-0.3,0l-0.3,0.4l-0.4,0.1l-0.1,0.4h0.2v0.2l-0.4-0.1l-0.4,0.1l-0.1,0.2l0,0.5l0.2,0.1h0.4h0.3l0.1-0.2l0.4-0.5l0.3,0
	l0.3-0.2l0,0.2l0.7,0.4l-0.1,0.1h-0.3l0.1,0.2h0.2l0.2-0.1v-0.3h0.1l-0.1-0.1l-0.4-0.2l-0.1-0.3h0.3l0.1,0.1l0.3,0.3v0.3l0.3,0.3
	l0.1-0.5l0.2-0.1v0.4l0.2,0.2h0.4C51.4,304.4,51.4,304.6,51.5,304.8L51.5,304.8z M39.5,302.2l0.2-0.1h0.2l-0.1,0.3l-0.2,0.1
	L39.5,302.2z M40.6,302.8v0.2h-0.5l-0.1-0.1l0-0.1l0.2-0.1h0.3L40.6,302.8L40.6,302.8z M40.9,303v0.2l-0.1,0.1h-0.2V303L40.9,303z
	 M40.7,303v-0.2l0.2,0.2L40.7,303z M40.8,303.4v0.2l-0.1,0.1h-0.3v-0.2h0.1v-0.1L40.8,303.4z M40.1,303h0.3l-0.3,0.5l-0.1-0.1v-0.2
	L40.1,303z M41.3,303.3v0.2H41l-0.1-0.1v-0.1l0,0L41.3,303.3z M41,303.1L41,303.1h0.2l-0.1,0.1L41,303.1z M51.6,305.2L51.6,305.2
	v0.1V305.2z"/>
<path class="st3" d="M36,303.6v0.3c0.1-0.2,0.2-0.4,0.3-0.6L36,303.6z"/>
<path class="st3" d="M50.2,313c3.1-3.5,3-8.8-0.2-12.2l0,0c-1.6-1.7-3.9-2.7-6.2-2.8h-0.6c-2.4,0.1-4.6,1.1-6.2,2.8l0,0
	c-3.2,3.4-3.3,8.7-0.2,12.2l0,0l0,0c1.6,1.8,4,2.9,6.4,3h0.6C46.2,315.9,48.5,314.8,50.2,313L50.2,313L50.2,313z M35.1,307.3h3.7
	c0,1.3,0.3,2.6,0.8,3.8c-0.9,0.3-1.8,0.8-2.5,1.3C35.8,311,35.1,309.2,35.1,307.3z M37.2,301.4c0.8,0.5,1.6,0.9,2.5,1.2
	c-0.5,1.3-0.8,2.7-0.8,4.1h-3.7C35.1,304.7,35.9,302.9,37.2,301.4z M51.8,306.7h-3.7c0-1.4-0.3-2.8-0.9-4.1c0.9-0.3,1.7-0.7,2.5-1.2
	C51,302.9,51.7,304.7,51.8,306.7z M43.1,302.6c-0.9,0-1.8-0.2-2.6-0.4c0.6-1.3,1.5-2.5,2.6-3.4V302.6z M43.1,303.2v3.4h-3.7
	c0-1.3,0.3-2.6,0.8-3.9C41.2,303.1,42.1,303.2,43.1,303.2z M43.7,303.2c1,0,2-0.2,2.9-0.5c0.5,1.2,0.8,2.5,0.8,3.9h-3.7V303.2z
	 M43.7,302.6v-3.8c1.1,1,2,2.1,2.6,3.4C45.5,302.5,44.6,302.6,43.7,302.6z M47,302c-0.6-1.3-1.4-2.4-2.5-3.4
	c1.8,0.3,3.4,1.1,4.7,2.4C48.5,301.4,47.8,301.8,47,302z M39.9,302c-0.8-0.2-1.6-0.6-2.3-1c1.3-1.2,2.9-2,4.7-2.3
	C41.3,299.7,40.5,300.8,39.9,302L39.9,302z M39.4,307.3h3.7v3.1c-1,0-2,0.2-3,0.5C39.7,309.7,39.4,308.5,39.4,307.3L39.4,307.3z
	 M43.1,311v4.1c-1.2-1-2.1-2.3-2.8-3.7C41.3,311.2,42.2,311.1,43.1,311L43.1,311z M43.8,315.2V311c0.9,0,1.9,0.2,2.8,0.4
	C45.9,312.9,44.9,314.2,43.8,315.2L43.8,315.2z M43.8,310.4v-3.1h3.7c0,1.2-0.3,2.4-0.7,3.6C45.8,310.6,44.8,310.4,43.8,310.4
	L43.8,310.4z M48.1,307.3h3.7c-0.1,1.9-0.8,3.7-2,5.1c-0.8-0.5-1.6-1-2.5-1.3C47.8,309.9,48,308.6,48.1,307.3L48.1,307.3z
	 M37.4,312.8c0.7-0.5,1.5-0.9,2.3-1.2c0.6,1.4,1.5,2.6,2.6,3.6C40.5,315,38.8,314.2,37.4,312.8L37.4,312.8z M44.5,315.3
	c1.1-1,2-2.3,2.6-3.6c0.8,0.3,1.6,0.7,2.3,1.2C48.1,314.2,46.4,315.1,44.5,315.3L44.5,315.3z"/>
<polygon class="st3" points="47.7,255.1 47.7,255.2 47.5,255.3 47.5,255.5 47.7,255.5 48.1,255.5 48.2,255.3 48.1,255.2 47.9,255.1 
	47.8,254.9 47.7,254.6 47.5,254.6 47.4,254.7 47.4,254.9 47.5,255 "/>
<polygon class="st3" points="47.5,255.2 47.5,255 47.3,254.9 47.1,255 46.9,255.3 46.9,255.4 47.1,255.4 "/>
<path class="st3" d="M42.9,256v0.1h-0.2v0.1h0.1v0.1h0.1l0.1,0v-0.1h0.1v-0.1L42.9,256L42.9,256z"/>
<polygon class="st3" points="42.3,256.2 42.3,256.3 42.4,256.3 42.5,256.1 42.4,256.1 "/>
<path class="st3" d="M52.6,260c0-0.3,0-0.5,0-0.8c-0.1-0.8-0.3-1.7-0.6-2.5c0-0.1,0-0.1-0.1-0.2c-0.4-1-1-1.8-1.7-2.6l-0.1-0.1
	c-0.1-0.1-0.3-0.3-0.4-0.4c-3.4-3.2-8.7-3.2-12.2,0c-0.4,0.3-0.7,0.7-1,1.1c-3,4-2.2,9.6,1.8,12.6s9.6,2.2,12.6-1.8
	c0.3-0.4,0.5-0.8,0.8-1.2c0.3-0.6,0.6-1.3,0.7-2c0-0.2,0.1-0.4,0.1-0.5C52.6,261.1,52.6,260.6,52.6,260L52.6,260z M50.9,256.4
	L50.9,256.4l0.2,0.3h-0.1h-0.2V256.4z M49.6,254.8v-0.4c0.1,0.1,0.3,0.3,0.4,0.5l-0.2,0.2h-0.6V255L49.6,254.8z M38.7,253.8h0.2
	v-0.1h0.3v0.1l-0.1,0.1h-0.4L38.7,253.8L38.7,253.8z M39,254.2h0.2v0.2h-0.4l-0.1-0.1L39,254.2z M51.5,257.8h-0.7l-0.4-0.3l-0.4,0
	v0.2h-0.1l-0.2-0.1l-0.7-0.2V257l-0.9,0.1l-0.3,0.2h-0.4h-0.2l-0.5,0.2v0.5l-0.9,0.7l0.1,0.3h0.2l0,0.3H46v0.7l0.8,0.9h0.3v0h0.6
	l0.2-0.2h0.3l0.2,0.2h0.5l-0.1,0.7l0.6,1l-0.3,0.6v0.3l0.2,0.2v0.7l0.3,0.4v0.5H50c-2.9,3.5-8.1,4-11.6,1.1
	c-2.8-2.3-3.8-6.2-2.4-9.5v-0.2l0.3-0.4c0.1-0.2,0.2-0.4,0.3-0.6v0.1l-0.3,0.4c-0.1,0.2-0.2,0.4-0.3,0.6v0.5l0.3,0.2v0.7l0.3,0.6
	h0.3v-0.2l-0.3-0.5l-0.1-0.5h0.2l0.1,0.5l0.5,0.7l-0.1,0.2l0.3,0.5l0.7,0.2v-0.1h0.3v0.2h0.2l0.3,0.1l0.5,0.6h0.6l0.1,0.5l-0.4,0.3
	v0.5l-0.1,0.3l0.6,0.8v0.3l0.3,0.1l0.5,0.4v1.4h0.2l-0.1,0.6l0.3,0.4l0,0.6l0.4,0.7l0.5,0.4h0.5l0-0.1l-0.4-0.3v-0.1l0.1-0.2v-0.2
	h-0.2l-0.1-0.2l0.2-0.2V266l-0.2-0.1v-0.1l0.3,0l0.5-0.2l0.2-0.3l0.5-0.7l-0.1-0.5l0.2-0.3h0.5l0.3-0.2l0.1-1l0.3-0.5l0.1-0.3
	l-0.3-0.1l-0.2-0.4h-0.7l-0.6-0.2v-0.4l-0.2-0.3h-0.4l-0.3-0.5l-0.3-0.1v0.1h-0.5l-0.2-0.2l-0.5-0.1l-0.4,0.5l-0.7-0.1v-0.8
	l-0.5-0.1l0.2-0.4l-0.1-0.2l-0.6,0.4l-0.4,0l-0.1-0.3l0.1-0.3l0.2-0.4l0.5-0.2h1v0.3l0.3,0.2v-0.5l0.2-0.2l0.5-0.3v-0.2l0.5-0.5
	l0.5-0.3l0,0l0.4-0.4h0.1l0.1,0.1l0.1-0.2l0,0h-0.2l-0.2-0.1v-0.1l0.1-0.1h0.2h0.1l0.1,0.1H43l0,0h0.3v-0.1h0.2v0.1l-0.1,0.1l0,0
	v0.1l0.5,0.1h0.1v-0.2l-0.4-0.2v-0.1l0.3-0.1v-0.3l-0.3-0.2v-0.5l-0.4,0.2h-0.2V254l-0.6-0.1l-0.2,0.2v0.6l-0.4,0.1l-0.2,0.4h-0.2
	V255l-0.4-0.1l-0.2-0.1l-0.1-0.3l0.7-0.4l0.4-0.1v0.2h0.2v-0.1h0.2l0,0H42V254h0.3l0.2-0.2l0,0l0-0.1l0.5-0.1l0.2,0.2l-0.6,0.3
	l0.8,0.2l0.1-0.3h0.3l0.1-0.2l-0.2-0.1v-0.3L43,253l-0.5,0.1l-0.3,0.2v0.4h-0.3v-0.2l0.3-0.3h-0.5l-0.2,0.1l-0.1,0.2h0.2v0.2h-0.3
	v0.1h-0.5c0-0.1,0-0.2,0-0.3H41l0.3-0.3l-0.2-0.1l-0.2,0.2h-0.4l-0.2-0.3h-0.5l-0.5,0.4h0.5v0.1l-0.1,0.1h0.5l0.1,0.2h-0.6v-0.1
	l-0.3-0.1l-0.2-0.1h-0.4c3.1-2.3,7.4-2.1,10.3,0.5l-0.1,0.2l-0.4,0.1l-0.2,0.2v0.2h0.2l0.1,0.3l0.3-0.1l0.1,0.4H49h-0.3h-0.3
	l-0.3,0.4l-0.4,0.1l-0.1,0.4h0.2v0.2l-0.4-0.1l-0.4,0.1l-0.1,0.2l0,0.5l0.2,0.1h0.4h0.3l0.1-0.2l0.4-0.5l0.3,0l0.3-0.2l0,0.2
	l0.7,0.4l-0.1,0.1h-0.3l0.1,0.2h0.2l0.2-0.1v-0.2l0.1,0l-0.1-0.1l-0.4-0.2l-0.1-0.3h0.3l0.1,0.1l0.3,0.3v0.3l0.3,0.3l0.1-0.5
	l0.2-0.1v0.4l0.2,0.2h0.4C51.3,257.3,51.4,257.5,51.5,257.8L51.5,257.8z M39.5,255.2l0.2-0.1l0.2,0.1l-0.1,0.3l-0.2,0.1L39.5,255.2z
	 M40.6,255.8v0.2h-0.5H40l0-0.1l0.2-0.1L40.6,255.8L40.6,255.8L40.6,255.8z M40.9,256v0.2l-0.1,0.1h-0.2V256L40.9,256z M40.7,256
	v-0.2l0.2,0.1L40.7,256z M40.8,256.4v0.2l-0.1,0.1h-0.3v-0.2h0.1v-0.1L40.8,256.4z M40.1,256h0.3l-0.3,0.5l-0.1-0.1v-0.2L40.1,256z
	 M41.3,256.3v0.2H41l-0.1-0.1v-0.1l0,0L41.3,256.3z M41,256.1L41,256.1h0.2l-0.1,0.1L41,256.1z M51.6,258.2L51.6,258.2v0.1V258.2z"
	/>
<path class="st3" d="M36,256.6v0.2c0.1-0.2,0.2-0.4,0.3-0.6L36,256.6z"/>
<path class="st3" d="M50.2,266c3.1-3.5,3-8.8-0.2-12.2l0,0c-1.6-1.7-3.9-2.7-6.2-2.8h-0.6c-2.4,0.1-4.6,1.1-6.2,2.8l0,0
	c-3.2,3.4-3.3,8.7-0.2,12.2l0,0l0,0c1.6,1.8,4,2.9,6.4,3h0.6C46.2,268.9,48.5,267.8,50.2,266L50.2,266L50.2,266z M35.1,260.3h3.7
	c0,1.3,0.3,2.6,0.8,3.8c-0.9,0.3-1.8,0.7-2.5,1.3C35.8,264,35.1,262.2,35.1,260.3L35.1,260.3z M37.2,254.4c0.8,0.5,1.6,0.9,2.5,1.2
	c-0.5,1.3-0.8,2.7-0.8,4.1h-3.7C35.1,257.8,35.9,255.9,37.2,254.4L37.2,254.4z M51.8,259.7h-3.7c0-1.4-0.3-2.8-0.9-4.1
	c0.9-0.3,1.7-0.7,2.5-1.2C51,255.9,51.7,257.7,51.8,259.7L51.8,259.7z M43.1,255.7c-0.9,0-1.8-0.2-2.6-0.4c0.6-1.3,1.5-2.5,2.6-3.4
	V255.7z M43.1,256.3v3.4h-3.7c0-1.3,0.3-2.6,0.8-3.9C41.2,256.1,42.1,256.2,43.1,256.3L43.1,256.3z M43.7,256.3c1,0,2-0.2,2.9-0.4
	c0.5,1.2,0.8,2.5,0.8,3.9h-3.7V256.3z M43.7,255.7v-3.9c1.1,1,2,2.1,2.6,3.4C45.5,255.5,44.6,255.6,43.7,255.7L43.7,255.7z
	 M47,255.1c-0.6-1.3-1.4-2.4-2.5-3.4c1.8,0.2,3.4,1,4.7,2.3C48.5,254.4,47.8,254.8,47,255.1L47,255.1z M39.9,255.1
	c-0.8-0.3-1.6-0.6-2.3-1.1c1.3-1.2,2.9-2,4.7-2.3C41.3,252.7,40.5,253.8,39.9,255.1L39.9,255.1z M39.4,260.3h3.7v3.1
	c-1,0-2,0.2-3,0.5C39.7,262.8,39.4,261.6,39.4,260.3L39.4,260.3z M43.1,264.1v4.1c-1.2-1-2.1-2.3-2.8-3.7
	C41.3,264.2,42.2,264.1,43.1,264.1L43.1,264.1z M43.7,268.2v-4.1c0.9,0,1.9,0.2,2.8,0.4C45.9,265.9,44.9,267.2,43.7,268.2
	L43.7,268.2z M43.7,263.5v-3.1h3.7c0,1.2-0.3,2.4-0.7,3.6C45.8,263.6,44.8,263.5,43.7,263.5L43.7,263.5z M48.1,260.3h3.7
	c-0.1,1.9-0.8,3.7-2,5.1c-0.8-0.5-1.6-1-2.5-1.3C47.8,262.9,48,261.6,48.1,260.3L48.1,260.3z M37.4,265.9c0.7-0.5,1.5-0.9,2.3-1.2
	c0.6,1.4,1.5,2.6,2.6,3.6C40.5,268.1,38.7,267.2,37.4,265.9L37.4,265.9z M44.5,268.3c1.1-1,2-2.3,2.6-3.6c0.8,0.3,1.6,0.7,2.3,1.2
	C48.1,267.2,46.4,268.1,44.5,268.3L44.5,268.3z"/>
<path class="st3" d="M33.6,283.5c0-4.5,2.3-6.5,4.8-6.5s4.8,2,4.8,6.5s-2.3,6.5-4.8,6.5S33.6,288.1,33.6,283.5z M41,283.5
	c0-2.6-1-4-2.6-4s-2.6,1.5-2.6,4s1,4,2.6,4S41,286.1,41,283.5L41,283.5z"/>
<path class="st3" d="M44.9,277.1h2.2v5.4l3.5-5.4h2.8l-4.2,6l4.3,6.7h-2.7l-3.6-6v6h-2.2V277.1z"/>
<g class="st4">
	<path class="st5" d="M148.7,98.9c0,19.2-0.8,65.8-51.7,65.8H63.9c-2.3,0-4.1-2.1-4.1-4.7V37.8c0-2.6,1.9-4.7,4.1-4.7H97
		C147.9,33.1,148.7,79.7,148.7,98.9z M124.7,82.1c-2.1-15.9-8.5-22.3-12.2-24.4c-2.9-1.6-9.7-2.9-15.3-3.6c-5.5-0.6-9.8,0-9.8,0
		c-2.3,0-4.2,2.2-4.2,4.8v79.9c0,2.7,1.9,4.8,4.2,4.8c0,0,4.9,0.4,9.8,0c4.9-0.4,12.4-1.9,15.3-3.6c3.2-1.9,10-8.5,12.2-24.4
		C125.7,108.9,125.7,88.9,124.7,82.1z"/>
</g>
<g class="st4">
	<path class="st5" d="M69,230.2c0-25.1,17.6-45.1,40.7-45.1c31.8,0,39.9,31.8,39.9,52.7c0,14.3-1.2,35-17.7,55.8
		c-15.8,20.1-27,25.2-29.1,26.4c-1.4,0.8-5.4,3.9-7.5,0.5c-2.1-3.4-4.7-8.8-5.5-10.3c-1.3-2.7-0.4-4.5,2.5-6.1
		c4.2-2.4,11.3-8.8,16.3-13.2c4.9-4.4,8.2-9,9.6-11c2.9-4.3-0.1-7.6-2.2-7.2c-2.4,0.4-4.6,1-6.3,1.1C91.5,275.5,69,263.8,69,230.2z
		 M92.3,229.3c0,7.5-0.1,10.3,2,15.9c3.2,6.7,9.7,10.8,15.4,10.8c5.8,0,11.2-4.1,14.5-10.8c2-5.7,2-8.5,2-15.9c0-7.4,0-10.3-2-15.9
		c-3.2-6.2-8.8-10.3-14.6-10.3c-5.8,0-12.1,4.1-15.4,10.3C92.3,219.1,92.3,221.8,92.3,229.3z"/>
</g>
<g class="st4">
	<path class="st5" d="M175.6,254.1c0,0,0-21.7,5.9-40.8s21.6-25,34.4-25c12.8,0,28.5,5.9,34.4,25c5.9,19.1,5.9,40.8,5.9,40.8v0
		c0,0,0,21.7-5.9,40.8c-5.9,19.1-21.6,25-34.4,25c-12.8,0-28.5-5.9-34.4-25C175.6,275.7,175.6,254.1,175.6,254.1L175.6,254.1z
		 M198.4,254.1c0,0.7-0.2,19,4.4,34.6c3.5,12,11.4,12,13.2,12c1.8,0,9.2,0.1,13.2-12c4.6-13.9,4.5-33.7,4.6-34.6
		c0-0.9,0-20.7-4.6-34.6c-4-12.1-11.4-12-13.2-12c-1.8,0-9.7,0-13.2,12C198.2,235,198.4,253.4,198.4,254.1L198.4,254.1z"/>
</g>
<g class="st4">
	<path class="st5" d="M373.6,280.4c0.4,23.1-14.8,41.6-40.7,41.6s-39.4-14.5-39.8-35.7c-0.3-17.7,12.8-24.5,19.1-29.4
		c3.1-2.4,0.2-5.6-0.7-6.3c-11.5-9.1-14.8-17.2-15-29.6c-0.3-21.5,18.6-35.8,36.4-35.8c17.8,0,35.9,8.5,36.3,32
		c0.2,15.3-9.2,22.2-14.5,26.5c-2.9,2.3-3.4,4.4,1,7.1C366.4,257.3,373.4,266.5,373.6,280.4z M332.8,304.3
		c11.8,0,17.7-8.7,17.7-19.3c0-10.6-12.2-22.4-17.7-22.4s-17.7,11.8-17.7,22.4C315.1,295.2,321,304.3,332.8,304.3L332.8,304.3z
		 M317.3,218.8c0,14.5,12.4,21.6,15.6,21.6c3.1,0,15.4-7.1,15.4-21.6c0-10.4-8-17-15.4-17C325.5,201.8,317.3,208.4,317.3,218.8z"/>
</g>
<g class="st4">
	<path class="st5" d="M250.3,38.4v85.9c0,10.2-3,17-5.9,22.6c-3,5.7-9.4,11.1-13,13.1c-3.6,2-9.2,5.4-24.2,5.4
		c-9.6,0-18-2.2-22.7-3.8c-2.5-0.8-4.1-3.1-4.1-5.7v-11.5c0-3.3,3.3-5.6,6.5-4.5c5.9,2,15,4.6,20.7,4.6c5.1,0,7.9-0.5,9.5-0.9
		c1.1-0.3,3.2-1.5,3.2-1.5c2.3-1.3,3.3-2.8,3.9-3.7c2-3.8,3.3-6.9,3.3-12.3V39.5c0-3.1,2.6-5.6,5.8-5.6h12.4
		C248.2,33.8,250.3,35.9,250.3,38.4z"/>
</g>
<g class="st4">
	<path class="st5" d="M370.7,126c0.4,23.1-14.8,41.6-40.7,41.6s-39.4-14.5-39.8-35.7c-0.3-17.7,12.8-24.5,19.1-29.4
		c3.1-2.4,0.2-5.6-0.7-6.3c-11.5-9.1-14.8-17.2-15-29.6C293.3,45,312.2,30.6,330,30.6c17.8,0,35.9,8.5,36.3,32
		c0.2,15.3-9.2,22.2-14.5,26.5c-2.9,2.3-3.4,4.4,1,7.1C363.5,102.9,370.5,112.2,370.7,126z M329.9,149.9c11.8,0,17.7-8.7,17.7-19.3
		c0-10.6-12.2-22.4-17.7-22.4s-17.7,11.8-17.7,22.4C312.2,140.8,318.1,149.9,329.9,149.9L329.9,149.9z M314.5,64.4
		C314.5,79,326.9,86,330,86c3.1,0,15.4-7.1,15.4-21.6c0-10.4-8-17-15.4-17C322.7,47.5,314.5,54.1,314.5,64.4z"/>
</g>
</svg>
